<svg width="730" height="157" viewBox="0 0 730 157" fill="none" xmlns="http://www.w3.org/2000/svg">
<path d="M57.3717 74.7705C52.4688 72.9877 47.083 71.6134 41.1773 70.6105L35.3458 69.6076C30.8887 68.8276 27.3601 67.6762 24.76 66.1162C22.16 64.5562 20.8229 62.1048 20.8229 58.7619C20.8229 55.6419 22.16 53.2276 24.8343 51.519C27.5086 49.8104 31.1858 48.919 35.8658 48.919C40.5458 48.919 44.6687 49.959 47.9002 52.0019C51.1316 54.0447 53.2488 57.6104 54.2516 62.5876L70.2603 58.0933C68.4774 50.9618 64.6145 45.3161 58.6717 41.1561C52.7288 36.9961 45.1144 34.8789 35.903 34.8789C26.6915 34.8789 18.6686 37.0332 12.8743 41.3047C7.07996 45.5761 4.18282 51.6304 4.18282 59.4305C4.18282 64.6676 5.51995 68.9391 8.19425 72.2819C10.8685 75.6248 14.4714 78.2248 19.04 80.1191C23.6086 82.0134 28.6601 83.462 34.2315 84.4649L39.9144 85.4677C45.3744 86.4706 49.4973 87.7335 52.283 89.2935C55.0688 90.8535 56.4431 93.3049 56.4431 96.6478C56.4431 99.9907 54.9573 102.702 52.023 104.819C49.0887 106.936 44.8544 107.976 39.4316 107.976C35.7544 107.976 32.3372 107.419 29.1801 106.305C26.0229 105.191 23.3486 103.296 21.2315 100.622C19.1143 97.9478 17.6286 94.3449 16.7372 89.7763L0.728516 93.6021C2.28852 103.074 6.52282 110.131 13.4314 114.811C20.34 119.491 28.9944 121.831 39.4687 121.831C49.943 121.831 58.0402 119.565 64.1688 114.996C70.2974 110.428 73.3431 104.039 73.3431 95.7935C73.3431 90.222 71.9317 85.7649 69.0717 82.422C66.2488 79.0791 62.3488 76.5163 57.4831 74.7334L57.3717 74.7705Z" fill="#ffffff"/>
<path d="M151.752 39.8932C146.032 36.5503 139.717 34.8789 132.809 34.8789C124.786 34.8789 118.657 36.3275 114.349 39.2246C110.077 42.1218 106.846 45.3904 104.766 49.0675H102.091V37.2189H85.2285V152.882H102.426V108.311H105.1C106.437 110.539 108.22 112.694 110.449 114.736C112.677 116.779 115.612 118.488 119.289 119.825C122.966 121.162 127.46 121.831 132.809 121.831C139.717 121.831 146.032 120.159 151.826 116.816C157.62 113.474 162.226 108.682 165.68 102.368C169.135 96.0906 170.843 88.4763 170.843 79.5991V77.1105C170.843 68.1962 169.097 60.619 165.569 54.3419C162.077 48.0647 157.435 43.2361 151.715 39.8932H151.752ZM153.535 79.1163C153.535 88.0306 151.12 94.8649 146.366 99.6564C141.575 104.448 135.409 106.825 127.832 106.825C120.254 106.825 114.386 104.448 109.557 99.6564C104.729 94.8649 102.314 88.0306 102.314 79.1163V77.6305C102.314 68.8276 104.729 62.0676 109.557 57.2762C114.386 52.4847 120.477 50.1075 127.832 50.1075C135.186 50.1075 141.426 52.5218 146.292 57.2762C151.157 62.0305 153.535 68.8648 153.535 77.6305V79.1163Z" fill="#ffffff"/>
<path d="M252.227 100.139V66.2648C252.227 56.2362 249.181 48.5104 243.052 43.0504C236.924 37.5904 228.529 34.8789 217.832 34.8789C210.924 34.8789 205.018 35.9932 200.152 38.2218C195.249 40.4504 191.312 43.3847 188.378 46.9875C185.443 50.5904 183.289 54.639 181.952 59.0962L197.961 64.2591C198.963 59.8019 201.006 56.199 204.126 53.4133C207.246 50.6275 211.741 49.2533 217.646 49.2533C223.552 49.2533 228.121 50.7018 231.018 53.599C233.915 56.4962 235.364 60.3219 235.364 65.1133V70.4619H210.329C204.312 70.4619 198.963 71.4277 194.209 73.2848C189.492 75.1791 185.741 78.002 183.029 81.7163C180.318 85.4306 178.943 90.1477 178.943 95.8306C178.943 101.514 180.318 106.119 183.029 110.019C185.741 113.919 189.418 116.854 194.061 118.859C198.666 120.865 203.941 121.868 209.846 121.868C215.752 121.868 220.098 121.051 223.552 119.454C227.006 117.856 229.606 115.925 231.389 113.696C233.172 111.468 234.509 109.536 235.401 107.865H237.889V108.385C237.889 111.839 239.115 114.551 241.567 116.556C244.018 118.562 247.175 119.565 251.075 119.565H263.927V105.191H256.907C253.787 105.191 252.227 103.519 252.227 100.176V100.139ZM235.364 85.4306C235.364 92.3392 233.246 97.7621 229.012 101.699C224.778 105.636 219.206 107.642 212.335 107.642C207.321 107.642 203.383 106.528 200.486 104.299C197.589 102.071 196.141 99.0621 196.141 95.2735C196.141 91.4849 197.515 88.6249 200.301 86.6563C203.086 84.7249 206.764 83.722 211.332 83.722H235.364V85.3934V85.4306Z" fill="#ffffff"/>
<path d="M326.843 100.882C323.054 104.596 317.557 106.491 310.314 106.491C305.523 106.491 301.214 105.451 297.388 103.334C293.563 101.216 290.517 98.0964 288.288 93.9735C286.06 89.8506 284.945 84.9106 284.945 79.1163V77.6305C284.945 71.8362 286.06 66.9333 288.288 62.8476C290.517 58.799 293.563 55.679 297.388 53.4876C301.214 51.3333 305.523 50.219 310.314 50.219C315.106 50.219 319.266 51.1104 322.497 52.8933C325.728 54.6761 328.217 57.0533 330 60.0619C331.783 63.0705 332.934 66.4133 333.491 70.0905L350.169 66.5991C349.166 60.8048 346.974 55.5304 343.557 50.739C340.177 45.9475 335.683 42.1218 330.111 39.2246C324.54 36.3275 317.817 34.8789 309.906 34.8789C301.994 34.8789 294.863 36.5875 288.437 39.9675C282.048 43.3475 276.96 48.2133 273.245 54.4904C269.531 60.7676 267.637 68.3819 267.637 77.2591V79.4134C267.637 88.3277 269.494 95.9421 273.245 102.294C276.96 108.645 282.048 113.474 288.437 116.816C294.825 120.159 301.994 121.831 309.906 121.831C317.817 121.831 324.54 120.419 330.111 117.559C335.683 114.736 340.14 110.911 343.557 106.119C346.937 101.328 349.314 96.0906 350.651 90.4449L333.974 86.6192C332.971 92.4135 330.594 97.1678 326.806 100.882H326.843Z" fill="#ffffff"/>
<path d="M420.632 40.1181C414.689 36.6266 407.744 34.8438 399.832 34.8438C391.921 34.8438 384.566 36.5895 378.401 40.1181C372.235 43.6095 367.406 48.5867 363.952 54.9753C360.498 61.3639 358.789 68.8668 358.789 77.4097V79.4154C358.789 87.884 360.535 95.3126 364.063 101.701C367.555 108.09 372.421 113.067 378.661 116.558C384.901 120.05 392.181 121.796 400.538 121.796C408.004 121.796 414.132 120.644 418.886 118.304C423.678 115.964 427.541 113.067 430.475 109.613C433.409 106.158 435.675 102.89 437.235 99.7698L423.047 92.4155C421.264 96.2041 418.738 99.5469 415.469 102.444C412.201 105.341 407.298 106.79 400.872 106.79C393.964 106.79 388.206 104.636 383.601 100.364C378.995 96.0926 376.581 90.3355 376.358 83.0926H439.612V76.5925C439.612 68.2354 437.941 60.9553 434.598 54.7153C431.255 48.4753 426.612 43.6095 420.669 40.1181H420.632ZM376.469 69.9439C377.361 63.7039 379.849 58.8382 383.898 55.3467C387.946 51.8553 393.221 50.0724 399.684 50.0724C406.146 50.0724 411.384 51.8181 415.358 55.3467C419.369 58.8382 421.598 63.7039 422.044 69.9439H376.469Z" fill="#ffffff"/>
<path d="M503.204 43.1986C499.526 40.7472 495.069 39.5215 489.832 39.5215C484.038 39.5215 478.541 40.8958 473.303 43.6072C468.066 46.3187 463.498 50.1073 459.523 54.8616C455.586 59.653 452.466 65.1873 450.163 71.4645C447.898 77.7417 446.746 84.4646 446.746 91.596C446.746 97.7246 447.675 102.999 449.569 107.456C451.463 111.913 454.249 115.405 457.926 117.893C461.603 120.382 466.172 121.645 471.632 121.645C476.646 121.645 481.141 120.679 485.152 118.71C489.163 116.779 492.729 114.253 495.849 111.208C498.969 108.162 501.644 104.893 503.872 101.439L501.049 98.9503C498.598 102.07 495.626 104.67 492.135 106.788C488.643 108.905 484.149 109.945 478.689 109.945C474.566 109.945 471.186 109.239 468.512 107.79C465.838 106.342 463.869 104.076 462.569 100.956C461.306 97.8361 460.638 93.8246 460.638 88.9217C460.638 84.0188 461.232 79.0045 462.458 73.9159C463.683 68.7902 465.466 64.0359 467.806 59.653C470.146 55.2701 473.006 51.7044 476.386 49.0672C479.766 46.3929 483.703 45.0558 488.161 45.0558C490.723 45.0558 492.692 45.5015 494.103 46.3929C495.478 47.2844 496.183 48.3244 496.183 49.5501C496.183 50.8873 495.663 52.5958 494.586 54.713C493.546 56.8301 492.989 58.9844 492.989 61.213C492.989 62.9959 493.546 64.4073 494.661 65.4845C495.775 66.5245 497.335 67.0816 499.341 67.0816C502.461 67.0816 504.801 65.9302 506.361 63.5902C507.921 61.2502 508.701 58.4273 508.701 55.0844C508.701 49.6244 506.881 45.6872 503.204 43.2358V43.1986Z" fill="#ffffff"/>
<path d="M569.985 49.2158C569.985 45.9843 569.094 43.57 567.311 41.9729C565.528 40.3757 563.374 39.5586 560.811 39.5586C558.025 39.5586 555.351 40.5243 552.788 42.4929C550.225 44.4243 547.848 46.9872 545.694 50.1815C543.539 53.3387 541.534 56.6815 539.677 60.2101C537.857 63.7016 536.185 67.0445 534.737 70.2388C533.622 72.653 532.731 74.5845 531.877 76.3302H530.242L538.748 40.1157H535.071L511.856 41.9358V46.4301C514.419 46.2072 516.128 46.0958 517.019 46.0958C519.359 46.0958 520.845 46.5415 521.514 47.4329C522.182 48.3244 522.517 49.5501 522.517 51.1101C522.517 52.5587 522.368 54.2672 522.034 56.1987C521.699 58.1301 521.365 59.913 521.031 61.473L508.662 119.565H522.851L527.939 96.0903C528.088 95.7189 528.236 95.3846 528.385 95.0132C530.056 90.8903 531.988 86.4703 534.142 81.7531C536.297 77.0359 538.562 72.5045 540.902 68.233C543.242 63.9616 545.508 60.433 547.737 57.7216C549.965 55.0101 551.897 53.6358 553.568 53.6358C553.791 53.6358 554.125 54.1187 554.571 55.1587C555.017 56.1615 555.759 57.2015 556.837 58.2416C557.877 59.3187 559.325 59.8387 561.108 59.8387C563.337 59.8387 565.38 58.9844 567.2 57.3501C569.02 55.6787 569.948 53.0044 569.948 49.3272L569.985 49.2158Z" fill="#ffffff"/>
<path d="M626.438 118.746C629.223 117.148 631.786 114.957 634.126 112.246C636.466 109.534 638.695 106.526 640.812 103.331L637.469 100.843C636.801 101.734 635.835 102.885 634.535 104.26C633.235 105.634 631.823 106.86 630.263 107.937C628.703 108.977 627.032 109.534 625.249 109.534C624.023 109.534 623.206 109.237 622.76 108.606C622.315 108.011 622.092 107.12 622.092 106.006C622.092 104.78 622.352 102.737 622.909 99.8398L635.278 40.7452H626.772L620.94 48.4338H620.272C618.489 45.8709 616.335 43.7538 613.772 42.0823C611.209 40.4109 607.829 39.5938 603.595 39.5938C598.246 39.5938 593.083 40.968 588.069 43.7538C583.055 46.5395 578.597 50.4024 574.623 55.3424C570.686 60.2824 567.529 66.0396 565.189 72.5396C562.849 79.0397 561.697 86.0225 561.697 93.4883C561.697 100.063 562.626 105.411 564.446 109.497C566.266 113.62 568.717 116.666 571.8 118.597C574.846 120.528 578.3 121.531 582.052 121.531C586.62 121.531 591.077 120.157 595.423 117.446C599.769 114.734 604.003 110.686 608.126 105.337H609.129C609.018 106.674 608.832 108.048 608.535 109.423C608.237 110.834 608.126 112.134 608.126 113.36C608.126 116.034 608.906 118.003 610.466 119.303C612.026 120.566 614.255 121.234 617.152 121.234C620.606 121.234 623.726 120.417 626.512 118.82L626.438 118.746ZM615.518 69.8282C614.923 73.4311 614.18 77.0711 613.363 80.6739C612.546 84.2768 611.84 87.2111 611.283 89.4397C610.28 93.4512 608.572 97.0169 606.195 100.211C603.818 103.368 601.032 105.894 597.949 107.714C594.829 109.534 591.56 110.463 588.106 110.463C584.652 110.463 581.829 109.126 579.675 106.451C577.52 103.777 576.406 98.7255 576.406 91.2597C576.406 85.5768 577.037 80.0425 578.337 74.6568C579.6 69.271 581.42 64.4053 583.76 60.0596C586.1 55.7138 588.886 52.2595 592.117 49.6966C595.349 47.1338 598.84 45.8709 602.629 45.8709C607.198 45.8709 610.652 47.4681 612.992 50.6995C615.332 53.931 616.483 57.4224 616.483 61.211C616.483 63.3282 616.186 66.1882 615.555 69.791L615.518 69.8282Z" fill="#ffffff"/>
<path d="M686.171 48.4005L687.174 41.5662H671.388L673.32 29.7176C674.546 22.5861 676.365 16.7918 678.817 12.3718C681.268 7.91459 684.611 5.68601 688.846 5.68601C690.851 5.68601 692.114 6.50317 692.597 8.1746C693.08 9.84604 693.526 11.7403 693.86 13.8575C694.083 15.6404 694.677 17.1632 695.68 18.4632C696.683 19.7261 698.28 20.3947 700.508 20.3947C702.291 20.3947 703.851 19.8004 705.189 18.5747C706.526 17.3489 707.194 15.5289 707.194 13.0775C707.194 10.626 706.563 8.50888 705.374 6.72601C704.148 4.94315 702.366 3.53172 700.026 2.45457C697.686 1.41457 694.788 0.857422 691.334 0.857422C686.543 0.857422 682.531 1.60028 679.3 3.12315C676.068 4.60887 673.357 6.54031 671.203 8.88032C669.048 11.2203 667.228 13.7089 665.78 16.3832C663.663 20.0604 661.991 24.2575 660.765 28.9747C659.763 32.9119 658.871 37.1462 658.091 41.5662H643.568L642.9 48.4005H656.903L646.094 113.327C645.76 115.555 645.277 118.267 644.683 121.498C644.051 124.729 643.345 128.072 642.528 131.601C641.711 135.092 640.708 138.398 639.594 141.444C638.48 144.49 637.217 146.978 635.842 148.872C634.468 150.767 632.871 151.695 631.088 151.695C629.528 151.695 628.525 150.952 628.08 149.43C627.634 147.907 627.3 146.198 627.077 144.267C626.854 142.335 626.297 140.59 625.405 139.104C624.514 137.618 622.805 136.838 620.242 136.838C618.125 136.838 616.491 137.618 615.302 139.178C614.151 140.738 613.557 142.67 613.557 145.01C613.557 147.907 614.708 150.618 616.974 153.181C619.24 155.744 623.065 157.007 628.414 157.007C632.982 157.007 636.957 155.707 640.337 153.07C643.717 150.47 646.614 147.09 649.028 142.967C651.405 138.844 653.411 134.424 655.045 129.707C656.643 124.989 657.943 120.458 658.871 116.112C659.8 111.767 660.505 108.164 660.951 105.266L670.237 48.3634H686.134L686.171 48.4005Z" fill="#ffffff"/>
<path d="M711.754 48.0699H728.246L729.583 41.5698H713.091L717.4 20.5469H712.386C709.6 25.3383 707.111 29.1641 704.957 32.0612C702.803 34.9584 700.5 37.2984 698.123 39.0813C695.708 40.8641 692.737 42.6841 689.208 44.5784L688.54 48.0699H698.048L686.683 102.67C686.571 103.45 686.348 104.862 686.014 106.942C685.68 108.984 685.494 110.767 685.494 112.179C685.494 114.742 686.311 116.859 687.983 118.53C689.654 120.202 692.217 121.019 695.671 121.019C700.128 121.019 703.917 119.905 707.037 117.676C710.157 115.447 712.831 112.847 715.06 109.839C717.289 106.83 719.183 104.267 720.743 102.15L717.4 99.6616C714.503 103.45 712.014 106.05 709.971 107.499C707.929 108.947 705.663 109.653 703.211 109.653C702.097 109.653 701.354 109.282 700.946 108.576C700.537 107.833 700.351 107.053 700.351 106.162C700.351 104.713 700.723 101.927 701.503 97.8044L711.717 48.0699H711.754Z" fill="#ffffff"/>
</svg>
