<svg width="708" height="513" viewBox="0 0 708 513" fill="none" xmlns="http://www.w3.org/2000/svg">
<path fill-rule="evenodd" clip-rule="evenodd" d="M495.462 4.04332C499.066 2.69212 502.882 2 506.731 2H511.157C514.799 2 518.433 2.3521 522.007 3.05139L525.58 3.75042C534.931 5.58004 544.503 6.00826 553.98 5.02103L563.782 4H585.195L626.151 6.83482C634.378 7.40426 642.503 8.98324 650.344 11.5362L656.477 13.5329C658.704 14.2581 660.854 15.2017 662.896 16.35L666.64 18.4562C672.247 21.6102 676.414 26.8134 678.267 32.9735L678.272 32.9905L680.327 40.7991L679.429 43.2707C678.022 47.1451 676.334 50.912 674.38 54.5415C669.46 63.6787 662.907 71.8372 655.047 78.6131L652.627 80.6993L646.799 84.5102C642.102 87.5812 637.186 90.3034 632.091 92.6549C624.799 96.0205 617.876 100.129 611.43 104.914L611.447 104.728L609.601 106.223L607.702 107.76L607.12 108.207L607.131 108.222L576.482 133.033C570.518 137.862 565.259 143.501 560.858 149.787C555.864 156.922 552.035 164.805 549.514 173.142L548.894 175.195C547.499 179.809 545.714 184.297 543.558 188.608C539.162 197.4 533.274 205.363 526.155 212.143L524.064 214.134C518.782 219.164 512.974 223.61 506.74 227.396L488.27 238.609L462.898 249.554L426.491 259.529L412.7 262.563C405.191 264.215 397.916 266.789 391.04 270.227C385.824 272.835 380.864 275.927 376.226 279.461L238.136 384.696L238.124 384.705L171.649 432.186L171.645 432.189L110.645 476.189L110.632 476.199L110.619 476.209L67.7394 509.343L2.45992 310.042L133.611 250.925L257.581 204.436L257.627 204.419L257.671 204.397L318.671 174.397L318.698 174.384L318.725 174.369L332.767 166.373C347.427 158.025 361.222 148.242 373.948 137.168C386.925 125.877 398.725 113.301 409.168 99.633L427.507 75.6304L476.957 18.1884L484.506 10.9412C487.652 7.92143 491.38 5.57438 495.462 4.04332ZM680.197 32.4486L682.402 40.8279L682.439 40.8414L682.42 40.8952L685.197 51.4486L685.2 51.46L685.203 51.4715L689.193 68.2281L696.674 91.1377L700.997 98.7857C702.423 101.31 703.644 103.945 704.646 106.666C706.016 110.383 706.971 114.239 707.494 118.165L707.721 119.868L707.724 119.892L707.727 119.917L707.785 120.62C708.087 124.246 706.917 127.84 704.541 130.592C704.142 131.446 703.611 132.246 702.957 132.959C701.181 134.897 698.673 136 696.045 136H693.493C689.858 136 686.344 134.695 683.589 132.323L674.676 124.649C671.221 121.673 668.219 118.21 665.765 114.368L657.898 102.055L657.887 102.038L650.73 91.3027V106.931L653.22 124.862L653.221 124.87L655.721 143.87L655.73 143.934V144V151.466C655.73 159.203 653.818 166.819 650.165 173.639C648.769 176.244 647.131 178.712 645.271 181.009L643.256 183.499C640.837 186.487 638.896 189.832 637.503 193.415L632.18 207.101C630.189 212.221 625.529 215.818 620.071 216.448C616.787 216.827 613.47 216.096 610.648 214.372L610.015 213.985C607.037 212.165 604.692 209.471 603.301 206.271L601.715 202.623C601.362 201.811 601.046 200.985 600.768 200.146C596.047 203.033 591.707 206.5 587.847 210.466L577.688 220.908C576.453 222.177 574.999 223.214 573.396 223.968L572.397 224.438C568.813 226.125 564.643 226.02 561.148 224.157C559.441 223.246 557.967 221.953 556.842 220.378L556.436 219.809C555.201 218.08 554.343 216.129 553.898 214.082L551.727 211.911C549.824 210.008 548.527 207.585 547.999 204.946C547.472 202.307 547.737 199.571 548.761 197.083L549.504 195.281C550.41 193.08 551.7 191.058 553.314 189.31L554.807 187.692C556.308 186.066 557.973 184.598 559.774 183.311L567.649 177.686L567.695 177.653L567.744 177.626L575.999 173.04L574.162 171.071C568.793 165.319 559.892 164.693 553.771 169.637L552.39 170.753C552.05 171.735 551.73 172.725 551.429 173.721L550.808 175.774C549.38 180.497 547.553 185.089 545.347 189.502C540.847 198.502 534.82 206.652 527.535 213.591L525.443 215.582C520.058 220.712 514.135 225.245 507.777 229.105L489.249 240.355L489.19 240.391L489.126 240.418L463.626 251.418L463.562 251.446L463.494 251.464L426.994 261.464L426.97 261.471L426.945 261.477L413.129 264.516C405.782 266.132 398.663 268.652 391.934 272.016C386.83 274.568 381.977 277.593 377.438 281.052L239.336 386.295L239.324 386.305L239.311 386.314L172.815 433.811L172.811 433.814L111.828 477.801L67.8414 511.791L66.7206 512.657L66.2796 511.311L0.279641 309.811L0 308.958L0.819023 308.588L132.819 249.088L132.849 249.075L132.879 249.064L256.833 202.581L317.761 172.616L331.778 164.635C346.322 156.352 360.009 146.646 372.636 135.659C385.51 124.457 397.217 111.98 407.579 98.4187L425.935 74.3929L425.953 74.3697L425.972 74.3476L475.472 16.8476L475.503 16.8115L475.537 16.7786L483.121 9.49843C486.463 6.29046 490.423 3.79714 494.76 2.17066C498.588 0.735257 502.643 0 506.731 0H511.157C514.928 0 518.69 0.364563 522.391 1.0886L525.964 1.78763C535.12 3.57916 544.493 3.99847 553.773 3.03179L563.626 2.00538L563.678 2H563.73H585.23H585.265L585.299 2.00239L626.289 4.8396C634.679 5.42035 642.966 7.03073 650.964 9.63448L657.096 11.6312C659.449 12.3972 661.72 13.3939 663.876 14.6069L667.621 16.7131C673.684 20.1237 678.189 25.7524 680.188 32.4158L679.23 32.7031L680.197 32.4486ZM676.141 55.4897C678.1 51.8503 679.798 48.0759 681.221 44.1953L683.257 51.9348L683.263 51.9576L687.257 68.7317L687.267 68.7715L687.279 68.8104L695.268 93.2769L697.76 103.243L697.762 103.251L701.258 116.733L701.262 116.751L703.218 124.902C703.79 127.287 703.14 129.8 701.483 131.608C700.086 133.132 698.113 134 696.045 134H693.493C690.337 134 687.286 132.867 684.894 130.808L675.981 123.133C672.674 120.285 669.8 116.969 667.45 113.291L659.573 100.962L659.567 100.953L659.562 100.945L650.562 87.4453L649.166 85.3518L653.777 82.337L653.833 82.3007L653.883 82.2574L656.353 80.128C664.398 73.1925 671.105 64.8419 676.141 55.4897ZM647.893 86.1842L648.73 85.6371V88V107V107.069L648.74 107.138L651.239 125.13L651.24 125.138L653.73 144.066V151.466C653.73 158.873 651.9 166.165 648.402 172.694C647.066 175.189 645.497 177.551 643.716 179.751L641.701 182.24C639.152 185.389 637.107 188.914 635.639 192.69L630.316 206.376C628.594 210.804 624.563 213.917 619.842 214.461C617.001 214.789 614.132 214.157 611.691 212.666L611.058 212.278C608.431 210.673 606.362 208.297 605.135 205.473L603.549 201.825C602.65 199.759 602.009 197.59 601.638 195.368L601.513 194.617C600.377 187.801 601.361 180.801 604.332 174.562L606.812 169.355C608.647 165.5 610.977 161.901 613.742 158.648C616.448 155.464 619.814 152.909 623.607 151.158L630.649 147.908L629.811 146.092L622.769 149.342C619.275 150.955 616.119 153.207 613.461 155.976C610.985 146.658 609.73 137.056 609.73 127.41V123.046L611.177 107.61C617.919 102.438 625.214 98.0317 632.929 94.4709C638.113 92.0783 643.115 89.3086 647.893 86.1842ZM609.012 109.275L608.941 109.33L577.74 134.588C577.466 134.81 577.194 135.033 576.923 135.258C580.33 138.495 584.212 141.191 588.437 143.252L596.943 132.384L598.517 133.616L589.632 144.97C587.181 152.979 585.584 161.223 584.866 169.564L590.783 166.606L591.677 168.394L584.177 172.144C581.913 173.276 579.775 174.644 577.799 176.225L568.972 183.287C566.947 184.907 565.079 186.713 563.392 188.681L562.199 190.073C560.785 191.723 559.578 193.54 558.606 195.484L558.545 195.606C557.007 198.683 556.097 202.035 555.868 205.467L555.573 209.882C555.365 213.004 556.245 216.101 558.064 218.647L558.47 219.215C559.415 220.539 560.654 221.626 562.09 222.392C565.027 223.959 568.533 224.047 571.545 222.629L572.545 222.158C573.93 221.506 575.187 220.61 576.255 219.513L586.414 209.071C590.515 204.856 595.144 201.189 600.185 198.161C599.977 197.348 599.804 196.526 599.666 195.697L599.54 194.945C598.337 187.726 599.379 180.31 602.526 173.702L605.006 168.495C606.839 164.644 609.147 161.038 611.874 157.761C609.124 147.879 607.73 137.669 607.73 127.41V123V122.953L607.734 122.907L609.012 109.275ZM553.713 167.196C560.573 162.576 569.881 163.554 575.624 169.707L578.735 173.04C580.029 172.149 581.378 171.339 582.774 170.615C583.432 161.941 585.025 153.363 587.523 145.032C583.066 142.853 578.974 139.996 575.394 136.563C570.534 140.814 566.203 145.639 562.497 150.934C558.948 156.004 556.001 161.462 553.713 167.196ZM705.31 125.177C705.747 123.772 705.917 122.282 705.792 120.786L705.735 120.108L705.512 118.429C705.008 114.649 704.088 110.936 702.77 107.358C701.805 104.738 700.629 102.2 699.256 99.7698L698.713 98.8106L699.698 102.749L699.7 102.757L703.198 116.249L703.2 116.258L703.202 116.267L705.163 124.435C705.222 124.681 705.271 124.929 705.31 125.177ZM568.765 179.347L575.084 175.836L567.722 181.726C565.6 183.423 563.642 185.316 561.873 187.38L560.68 188.771C559.16 190.546 557.862 192.5 556.817 194.59L556.756 194.711C555.099 198.026 554.119 201.637 553.872 205.334L553.578 209.749C553.552 210.133 553.541 210.517 553.544 210.9L553.141 210.497C551.518 208.873 550.411 206.805 549.961 204.554C549.51 202.302 549.736 199.968 550.611 197.845L551.353 196.042C552.169 194.061 553.33 192.241 554.784 190.666L556.277 189.049C557.685 187.523 559.247 186.146 560.936 184.939L568.765 179.347ZM569.102 52.0097L564.602 44.0097L562.858 44.9903L567.358 52.9903L569.102 52.0097ZM538.114 61.0321L529.114 44.0321L527.346 44.9679L536.346 61.9679L538.114 61.0321Z" fill="white"/>
</svg>
