<svg width="486" height="468" viewBox="0 0 486 468" fill="none" xmlns="http://www.w3.org/2000/svg">
<path fill-rule="evenodd" clip-rule="evenodd" d="M309.074 23.6123C311.434 22.0316 314.059 20.8882 316.823 20.2368L320.054 19.4756C322.689 18.8549 325.377 18.4903 328.081 18.387L330.809 18.2828C337.986 18.0087 345.082 16.6684 351.864 14.306L358.824 11.8817L374.421 8.20695L404.786 3.23545C410.857 2.24136 417.028 1.99774 423.159 2.51006L427.979 2.91275C429.704 3.05694 431.411 3.37143 433.075 3.85161L436.17 4.74491C440.709 6.05515 444.565 9.07214 446.928 13.1628L453.826 26.1352L453.835 26.1526L455.849 30.2744C458.379 35.4521 461.333 40.4122 464.679 45.104L473.237 61.0936L473.24 61.0999L478.112 70.3444L478.12 70.3593L478.129 70.374L482.742 78.525L482.045 79.5219C480.592 81.6043 478.421 83.0776 475.949 83.66C473.543 84.2269 471.013 83.9114 468.82 82.7709L461.264 78.8419C458.393 77.3489 455.755 75.4448 453.433 73.1898L445.564 65.5459L445.556 65.5383L445.548 65.5308L436.658 57.2257L433.944 54.6898L434.796 58.3055L438.063 72.1723L438.081 72.2479L438.109 72.3204L443.026 85.0199L443.029 85.0274L448.091 98.3879L449.359 103.765C450.618 109.111 450.537 114.685 449.123 119.992C448.583 122.019 447.852 123.991 446.941 125.881L445.898 128.045C444.563 130.816 443.665 133.778 443.237 136.824L441.706 147.728C441.23 151.118 438.917 153.967 435.696 155.129C433.758 155.829 431.641 155.86 429.683 155.217L429.154 155.043C427.034 154.347 425.18 153.015 423.844 151.227L422.06 148.837C421.067 147.508 420.241 146.063 419.6 144.532L419.38 144.006C417.408 139.298 416.93 134.098 418.009 129.109L418.923 124.882C419.593 121.785 420.664 118.788 422.108 115.967C423.51 113.228 425.492 110.826 427.917 108.929L432.497 105.347L431.111 103.575L426.531 107.158C424.396 108.828 422.571 110.852 421.133 113.137C417.891 106.96 415.44 100.397 413.839 93.6021L413.093 90.435L411.444 78.552L409.216 78.8612L410.872 90.7964L410.879 90.8485L410.891 90.8997L411.65 94.1179C413.407 101.575 416.16 108.76 419.836 115.48C418.439 118.316 417.394 121.314 416.725 124.406L415.811 128.633C414.634 134.072 415.156 139.742 417.305 144.875L417.525 145.401C417.737 145.906 417.966 146.402 418.213 146.889C415.113 149.941 412.412 153.373 410.174 157.104L404.555 166.472C403.987 167.417 403.254 168.253 402.391 168.939L401.742 169.455C399.88 170.934 397.428 171.447 395.129 170.839C394.006 170.542 392.967 169.989 392.092 169.223L391.698 168.878C389.998 167.39 388.867 165.359 388.496 163.13L387.952 159.858C387.537 157.362 387.623 154.809 388.205 152.348L388.229 152.249C388.597 150.693 389.154 149.188 389.889 147.767L390.52 146.547C391.402 144.841 392.442 143.221 393.627 141.71L398.855 135.038C400.009 133.565 401.316 132.218 402.753 131.019L407.582 126.993L406.142 125.265L402.848 128.011C402.023 122.065 401.802 116.048 402.191 110.055L406.694 100.304L404.652 99.3604L400.441 108.478C396.866 107.636 393.448 106.221 390.321 104.286L390.188 104.204L389.004 106.117L389.137 106.199C392.464 108.257 396.098 109.763 399.9 110.662C399.541 117.025 399.85 123.409 400.824 129.708C400.057 130.377 399.327 131.085 398.637 131.83L393.741 128.563C389.323 125.615 383.379 126.582 380.122 130.777L377.577 134.057L379.354 135.436L381.9 132.157C384.432 128.893 389.056 128.141 392.492 130.434L396.096 132.839L391.211 137.286L391.164 137.329L391.122 137.377L386.342 142.836C385.231 144.104 384.254 145.483 383.426 146.95L382.614 148.387C381.715 149.98 381.106 151.72 380.816 153.525L380.585 154.968C380.253 157.034 380.54 159.151 381.41 161.054C382.279 162.956 383.693 164.558 385.472 165.659L387.34 166.815C388.035 168.235 389.009 169.514 390.216 170.571L390.611 170.916C391.746 171.91 393.095 172.628 394.554 173.013C397.54 173.803 400.723 173.137 403.141 171.216L403.79 170.701C404.865 169.847 405.777 168.806 406.484 167.629L412.103 158.261C414.142 154.862 416.583 151.722 419.372 148.909C419.652 149.344 419.948 149.769 420.258 150.184L422.042 152.573C423.654 154.731 425.893 156.34 428.452 157.18L428.981 157.354C431.416 158.153 434.049 158.115 436.46 157.245C440.465 155.8 443.342 152.257 443.934 148.041L445.465 137.137C445.86 134.321 446.69 131.583 447.925 129.021L448.968 126.858C449.94 124.84 450.72 122.735 451.297 120.571C452.806 114.906 452.892 108.956 451.548 103.25L450.264 97.8003L450.247 97.7286L450.221 97.6597L445.129 84.2228L445.126 84.2153L440.235 71.5809L437.837 61.4053L443.997 67.1594L444.013 67.1745L451.866 74.8034C454.344 77.2108 457.161 79.2436 460.226 80.8377L467.782 84.7667C470.453 86.1557 473.534 86.54 476.465 85.8495C479.476 85.1401 482.119 83.3458 483.89 80.8096L485.139 79.0201L485.21 79.0423L485.332 78.6526L485.327 78.6503C485.94 76.5069 486.114 74.2604 485.837 72.0456L485.729 71.181C485.396 68.519 484.546 65.9477 483.226 63.612L482.752 62.772C481.842 61.1615 480.759 59.6549 479.523 58.2789L466.515 43.8045C463.239 39.2115 460.347 34.3557 457.87 29.2867L455.839 25.1307L455.83 25.1135L455.821 25.0965L448.905 12.0896L447.912 12.6176L448.886 12.056C446.233 7.45255 441.898 4.05716 436.794 2.58369L433.699 1.6904C431.893 1.16908 430.039 0.827666 428.166 0.67113L423.347 0.268434C417.032 -0.259245 410.676 -0.00831241 404.422 1.01556L374.019 5.99334L373.98 5.99963L373.943 6.00854L358.251 9.7056L358.194 9.71899L358.139 9.73821L351.124 12.1817C344.553 14.4708 337.677 15.7694 330.723 16.035L327.996 16.1392C325.146 16.2481 322.314 16.6322 319.538 17.2861L316.308 18.0473C313.28 18.7606 310.406 20.0125 307.822 21.7433C304.894 23.7046 302.396 26.2419 300.481 29.2006L296.198 35.8179L296.169 35.8628L296.145 35.9103L269.905 86.3872L269.89 86.4164L269.877 86.4463L267.142 92.5534C257.58 113.907 245.88 134.238 232.222 153.234C231.114 154.776 229.855 156.203 228.465 157.496L207.914 176.605L168.622 208.932L86.1651 264.161L86.1349 264.181L86.106 264.203L0 330.326L1.37004 332.11L87.4472 266.009L169.92 210.77L169.966 210.739L170.008 210.704L209.369 178.32L209.396 178.298L209.421 178.275L229.997 159.143C231.496 157.749 232.853 156.21 234.048 154.547C247.795 135.427 259.57 114.965 269.195 93.4728L271.916 87.3958L298.116 36.9952L302.37 30.4228C304.118 27.7207 306.399 25.4034 309.074 23.6123ZM386.277 163.498L385.733 160.227C385.269 157.437 385.365 154.582 386.016 151.83L386.04 151.731C386.45 149.996 387.072 148.318 387.891 146.734L388.522 145.513C389.468 143.683 390.585 141.945 391.856 140.322L393.446 138.293L392.772 138.907L388.034 144.318C387.025 145.47 386.137 146.723 385.384 148.056L384.573 149.493C383.805 150.854 383.285 152.34 383.037 153.882L382.806 155.325C382.544 156.952 382.77 158.62 383.456 160.118C384.078 161.479 385.053 162.646 386.277 163.498ZM475.223 60.0385L471.017 52.1797L477.849 59.7824C478.977 61.0368 479.964 62.4103 480.793 63.8786L481.268 64.7186C482.443 66.7989 483.201 69.089 483.497 71.46L483.605 72.3246C483.739 73.3977 483.751 74.4793 483.642 75.549L480.102 69.2956L480.086 69.2661L475.227 60.0447L475.223 60.0385Z" fill="white"/>
<path fill-rule="evenodd" clip-rule="evenodd" d="M427.894 8.29977C426.802 8.58246 425.726 8.92866 424.67 9.33739L423.083 9.95193C419.527 11.3284 416.201 13.2346 413.215 15.6058L406.858 20.6549L390.501 36.0364L390.496 36.041L373.852 51.8812L356.064 71.0738L355.239 70.3092L355.971 71.1631L355.665 71.4253C349.623 76.6054 342.869 80.8929 335.611 84.1569L335.15 83.1311L335.569 84.1749L331.658 85.7449C326.593 87.7784 321.711 90.2424 317.067 93.1099L315.885 91.1959C320.639 88.2608 325.635 85.7388 330.82 83.6574L334.709 82.0959C341.629 78.9819 348.077 74.9117 353.864 70.005C350.207 62.0868 345.436 54.7311 339.694 48.162L339.251 47.6548L340.944 46.1745L341.388 46.6816C347.089 53.2046 351.857 60.4846 355.556 68.3126L371.71 50.8827C370.218 47.7949 368.279 44.9419 365.956 42.4161L365.179 41.5717L366.834 40.0487L367.611 40.8931C369.91 43.3918 371.855 46.1913 373.393 49.2128L388.951 34.4069L388.955 34.4023L405.352 18.984L405.386 18.9518L405.423 18.9226L411.816 13.8444C414.979 11.3322 418.504 9.31262 422.271 7.85423L423.858 7.23969C427.69 5.75596 431.776 5.03727 435.884 5.12423L438.069 5.17048C440.789 5.22805 443.417 6.16621 445.558 7.84416C447.468 9.34104 448.905 11.3588 449.693 13.6539L450.427 15.7876C450.862 17.0528 451.162 18.3603 451.323 19.6884L451.372 20.086C451.571 21.7264 451.537 23.3791 451.277 24.9963L451.517 25.0606L450.932 27.2352C448.434 36.5321 444.253 45.2926 438.597 53.0829L437.687 52.4222L438.502 53.1973L434.87 57.0168C431.907 60.1321 428.719 63.0259 425.333 65.6747C420.306 69.6066 415.735 74.0878 411.704 79.035L410.454 80.5694L392.021 104.375C388.605 108.786 385.824 113.653 383.758 118.835C381.414 124.717 380.018 130.933 379.625 137.253L379.525 138.858C379.294 142.572 378.747 146.259 377.89 149.88C376.144 157.264 373.13 164.288 368.982 170.642L367.798 172.455C364.735 177.147 361.175 181.495 357.179 185.424L345.591 196.821L345.535 196.875L345.473 196.922L328.754 209.335L328.69 209.382L328.621 209.419L303.702 222.994L303.677 223.008L303.651 223.02L294.091 227.614C289.034 230.044 284.298 233.09 279.989 236.682C276.721 239.408 273.716 242.433 271.013 245.72L188.32 346.277L188.308 346.291L188.297 346.304L147.935 392.402L147.931 392.406L110.994 434.989L84.7391 467.355L82.9922 465.938L109.258 433.558L109.27 433.544L109.282 433.53L146.235 390.928L146.239 390.924L186.593 344.835L269.276 244.291C272.068 240.896 275.173 237.77 278.549 234.955C283 231.243 287.893 228.097 293.117 225.587L302.651 221.005L327.476 207.482L344.069 195.162L355.602 183.821C359.482 180.005 362.94 175.782 365.915 171.225L367.098 169.412C371.104 163.277 374.015 156.493 375.701 149.362C376.528 145.865 377.056 142.305 377.28 138.718L377.38 137.113C377.788 130.556 379.236 124.105 381.669 118.002C383.812 112.625 386.698 107.574 390.242 102.997L408.348 79.6148L408.337 79.606L408.692 79.1707L409.803 77.7352L409.839 77.7628L409.96 77.6141C414.097 72.537 418.788 67.938 423.947 63.903C427.247 61.3219 430.352 58.5022 433.24 55.4666L436.821 51.7013C440.564 46.5348 443.64 40.9302 445.985 35.0213L441.774 39.3402L441.752 39.3629L441.729 39.3843L434.415 46.0876C433.935 46.5277 433.395 46.8973 432.811 47.1853C430.138 48.5035 426.92 47.9499 424.842 45.8142L414.075 34.7502C411.884 32.4994 410.858 29.3621 411.295 26.2519C411.581 24.2118 412.481 22.307 413.875 20.7901L420.555 13.5207L420.599 13.4736L420.647 13.4317L421.266 12.8957C423.31 11.1249 425.533 9.58552 427.894 8.29977ZM436.008 7.37678C431.116 8.79728 426.589 11.2598 422.739 14.5958L422.168 15.0899L415.531 22.3122C414.446 23.4932 413.745 24.9763 413.522 26.5647C413.182 28.9863 413.981 31.4289 415.687 33.1813L426.454 44.2454C427.852 45.6823 430.017 46.0548 431.816 45.1679C432.209 44.9741 432.572 44.7254 432.895 44.4293L440.186 37.7474L444.892 32.9196C446.183 31.5951 447.224 30.0481 447.965 28.3532C449.064 25.8405 449.469 23.0793 449.139 20.3569L449.09 19.9594C448.948 18.7879 448.683 17.6347 448.3 16.5187L447.566 14.385C446.918 12.5006 445.739 10.8438 444.171 9.61474C442.413 8.237 440.255 7.46668 438.022 7.41941L436.008 7.37678ZM389.417 53.4826L389.379 51.6236L391.628 51.578L391.666 53.437C391.708 55.5076 392.352 57.5213 393.519 59.2323C394.098 60.0815 394.797 60.8426 395.594 61.4919L403.799 68.1778L402.378 69.9217L394.173 63.2358C393.208 62.4495 392.362 61.528 391.66 60.4998C390.247 58.428 389.468 55.9898 389.417 53.4826Z" fill="white"/>
</svg>
