<svg width="273" height="278" viewBox="0 0 273 278" fill="none" xmlns="http://www.w3.org/2000/svg">
<path d="M174.123 5.53412V105.805C174.123 108.707 172.123 110.975 169.769 110.975H19.5516C17.2183 110.975 15.2174 108.708 15.2174 105.805V5.53412C15.2174 2.63105 17.2183 0.363874 19.5516 0.363874H169.769C172.124 0.363874 174.123 2.61311 174.123 5.53412Z" fill="#1CB786" stroke="#051A2F" stroke-width="0.727749"/>
<path d="M174.122 5.53412V11.0428H15.1959V5.53412C15.1959 2.63104 17.1968 0.363874 19.53 0.363874H169.748C172.123 0.363874 174.122 2.61417 174.122 5.53412Z" fill="#1CB786" stroke="black" stroke-width="0.727749"/>
<path d="M43.7584 5.69336C43.7584 7.18638 42.5441 8.4007 41.0511 8.4007C39.558 8.4007 38.3438 7.18638 38.3438 5.69336C38.3438 4.20034 39.558 2.98602 41.0511 2.98602C42.5441 2.98602 43.7584 4.20034 43.7584 5.69336Z" fill="white"/>
<path d="M35.0573 5.69336C35.0573 7.18638 33.843 8.4007 32.3499 8.4007C30.8569 8.4007 29.6426 7.18638 29.6426 5.69336C29.6426 4.20034 30.8569 2.98602 32.3499 2.98602C33.843 2.98602 35.0573 4.20034 35.0573 5.69336Z" fill="white"/>
<path d="M26.3795 5.69336C26.3795 7.18638 25.1652 8.4007 23.6722 8.4007C22.1791 8.4007 20.9648 7.18638 20.9648 5.69336C20.9648 4.20034 22.1791 2.98602 23.6722 2.98602C25.1652 2.98602 26.3795 4.20034 26.3795 5.69336Z" fill="white"/>
<path d="M156.632 46.2438H78.1387V52.7334H156.632V46.2438Z" fill="white"/>
<path d="M156.632 32.5278H78.1387V39.0175H156.632V32.5278Z" fill="white"/>
<path d="M156.632 59.5217H78.1387V66.0114H156.632V59.5217Z" fill="white"/>
<path d="M70.4131 31.453H34.3418V67.5243H70.4131V31.453Z" fill="white"/>
<path d="M102.415 270.946L109.319 239.469L120.882 218.128L153.819 232.263L153.821 232.294C153.834 232.457 153.854 232.695 153.878 232.999C153.927 233.608 153.996 234.477 154.077 235.524C154.238 237.616 154.446 240.414 154.634 243.237C154.822 246.06 154.989 248.905 155.068 251.092C155.108 252.187 155.125 253.111 155.112 253.784C155.106 254.122 155.092 254.388 155.071 254.578C155.063 254.658 155.053 254.719 155.044 254.762C155.026 254.771 155.004 254.781 154.979 254.792C154.87 254.841 154.711 254.905 154.502 254.983C154.086 255.139 153.49 255.347 152.739 255.599C151.237 256.102 149.125 256.778 146.607 257.569C141.57 259.149 134.916 261.181 128.281 263.189C121.646 265.197 115.032 267.18 110.077 268.662C107.599 269.402 105.536 270.017 104.092 270.447C103.37 270.662 102.803 270.831 102.417 270.946L102.415 270.946Z" stroke="#051A2F" stroke-width="0.727749"/>
<path d="M261.777 277.636H180.756C176.557 277.636 173.157 274.236 173.157 270.037V237.549C173.157 233.351 176.557 229.95 180.756 229.95H261.777C265.975 229.95 269.376 233.351 269.376 237.549V270.037C269.376 274.236 265.975 277.636 261.777 277.636Z" fill="#DCDCDC" stroke="#1CB786" stroke-width="0.727749"/>
<path d="M216.509 109.309C216.509 109.309 204.664 106.9 196.303 114.047C187.942 121.194 183.244 175.679 183.244 175.679C183.244 175.679 211.253 190.828 235.122 190.828C258.99 190.828 256.88 189.733 256.88 189.733L262.434 167.616L216.509 109.309Z" fill="#1CB786"/>
<path d="M254.472 277.636H173.451C169.253 277.636 165.852 274.236 165.852 270.037V237.549C165.852 233.351 169.253 229.95 173.451 229.95H254.472C258.671 229.95 262.071 233.351 262.071 237.549V270.037C262.071 274.236 258.671 277.636 254.472 277.636Z" fill="#1CB786" stroke="white" stroke-width="0.727749"/>
<path d="M144.741 89.9064C144.72 89.9051 144.7 89.9038 144.681 89.9024C144.66 89.8171 144.635 89.7109 144.605 89.5857C144.518 89.2244 144.397 88.7049 144.257 88.0736C143.977 86.8106 143.622 85.1023 143.325 83.3178C143.027 81.5312 142.789 79.6787 142.737 78.1241C142.712 77.3465 142.733 76.6539 142.814 76.0864C142.896 75.5097 143.034 75.1048 143.209 74.8666C143.389 74.6222 143.544 74.568 143.668 74.5681C143.816 74.5682 144.02 74.6464 144.281 74.8577C144.804 75.2801 145.376 76.0854 145.916 77.0159C146.45 77.935 146.929 78.9346 147.276 79.7074C147.449 80.0931 147.589 80.4208 147.685 80.6518C147.733 80.7673 147.77 80.8585 147.795 80.9207L147.824 80.9914L147.831 81.0092L147.833 81.0136L147.833 81.0137C148.837 83.6273 149.087 85.4696 148.933 86.7599C148.78 88.0344 148.233 88.7789 147.595 89.2258C146.942 89.6827 146.162 89.8511 145.524 89.8998C145.208 89.9239 144.934 89.9181 144.741 89.9064Z" stroke="#1CB786" stroke-width="0.727749"/>
<path d="M199.45 117.127H164.453C163.398 117.127 162.528 116.272 162.528 115.201V80.2051C162.528 79.1498 163.382 78.2796 164.453 78.2796H199.45C200.505 78.2796 201.375 79.1341 201.375 80.2051V115.198C201.357 116.26 200.497 117.127 199.45 117.127Z" fill="white" stroke="black" stroke-width="0.727749"/>
<path d="M179.443 105.964C185.149 105.964 189.775 101.339 189.775 95.6327C189.775 89.9267 185.149 85.301 179.443 85.301C173.737 85.301 169.111 89.9267 169.111 95.6327C169.111 101.339 173.737 105.964 179.443 105.964Z" fill="#E1E2E3"/>
<path d="M186.51 95.7521L190.65 102.919L194.791 110.105H186.51H178.229L182.369 102.919L186.51 95.7521Z" fill="#051A2F"/>
<path d="M161.985 88.8048L161.629 88.8793L161.629 88.8796L161.629 88.8808L161.63 88.8858L161.634 88.9058L161.651 88.9845C161.665 89.0537 161.686 89.1558 161.713 89.2873C161.767 89.5503 161.845 89.9307 161.939 90.4003C162.128 91.3396 162.384 92.6351 162.653 94.0603C163.19 96.9163 163.774 100.275 163.972 102.336C164.06 103.262 163.659 104.451 162.939 105.757C162.226 107.05 161.234 108.401 160.221 109.633C159.209 110.863 158.183 111.966 157.41 112.761C157.024 113.159 156.701 113.479 156.475 113.7C156.426 113.749 156.381 113.792 156.341 113.831L143.42 104.313C143.479 104.23 143.547 104.133 143.624 104.022C143.875 103.661 144.213 103.161 144.559 102.606C144.905 102.052 145.262 101.437 145.55 100.848C145.835 100.266 146.067 99.6803 146.141 99.1902C146.182 98.9102 146.136 98.4729 146.06 97.97C145.98 97.4492 145.857 96.799 145.715 96.0625C145.702 95.9945 145.689 95.9257 145.676 95.8562C145.399 94.4142 145.06 92.6497 144.82 90.7986C144.569 88.8568 144.43 86.8353 144.584 85.0076C144.738 83.1745 145.184 81.5783 146.067 80.4494C147.923 78.0853 152.095 74.6527 156.094 71.7633C158.088 70.323 160.026 69.0267 161.593 68.0758C162.377 67.6001 163.064 67.2134 163.616 66.9389C164.184 66.6563 164.565 66.5157 164.757 66.4919C165.186 66.4388 165.428 66.5537 165.582 66.7082C165.753 66.8791 165.865 67.1472 165.924 67.473C165.983 67.7934 165.985 68.1294 165.97 68.3916C165.962 68.5212 165.951 68.6296 165.942 68.7048C165.937 68.7423 165.933 68.7714 165.93 68.7905L165.927 68.8114L165.926 68.8159L165.926 68.8162L165.926 68.8164L165.926 68.8165L165.926 68.8166L165.819 69.4365L166.41 69.2196L166.41 69.2196L166.41 69.2196L166.41 69.2195L166.411 69.2192L166.417 69.2172L166.442 69.2083C166.465 69.2004 166.5 69.1887 166.545 69.1746C166.635 69.1462 166.765 69.1081 166.922 69.07C167.237 68.9931 167.647 68.9197 168.048 68.9208C168.455 68.922 168.807 68.9999 169.05 69.1793C169.274 69.3439 169.46 69.6337 169.464 70.1946C169.466 70.4491 169.384 70.7855 169.21 71.1974C169.038 71.6045 168.787 72.0604 168.478 72.5464C167.861 73.5183 167.031 74.5821 166.194 75.5732C165.357 76.5627 164.519 77.4724 163.89 78.1351C163.575 78.4663 163.313 78.7354 163.13 78.9215C163.039 79.0146 162.967 79.0869 162.918 79.1357L162.862 79.1912L162.848 79.2052L162.845 79.2086L162.844 79.2094L162.844 79.2096L163.1 79.4684L162.844 79.2096L163.25 79.7998L163.25 79.7999L163.25 79.7999L163.25 79.7998L163.251 79.7995L163.254 79.7981L163.267 79.7924L163.318 79.7695C163.363 79.7494 163.431 79.72 163.516 79.6831C163.688 79.6093 163.934 79.5057 164.23 79.3869C164.824 79.149 165.617 78.8523 166.419 78.6127C167.228 78.371 168.017 78.1965 168.615 78.1862C168.916 78.181 169.133 78.2184 169.273 78.2827C169.395 78.3387 169.45 78.4086 169.472 78.5085C169.48 78.5504 169.481 78.6318 169.449 78.7661C169.417 78.8986 169.358 79.0609 169.269 79.2523C169.093 79.6352 168.815 80.1004 168.461 80.6222C167.755 81.6641 166.772 82.8916 165.771 84.0702C164.771 85.2472 163.759 86.368 162.996 87.1951C162.615 87.6084 162.296 87.9481 162.073 88.1843C161.961 88.3024 161.874 88.3946 161.814 88.4572L161.746 88.5284L161.728 88.5465L161.724 88.551L161.723 88.5521L161.723 88.5523L161.985 88.8048ZM161.985 88.8048L161.629 88.8792L161.589 88.6909L161.723 88.5524L161.985 88.8048Z" fill="#1CB786" stroke="#051A2F" stroke-width="0.727749"/>
<path d="M216.574 110.317C216.593 110.321 216.611 110.325 216.629 110.329L211.712 153.289C211.625 153.334 211.505 153.397 211.353 153.474C211.005 153.652 210.492 153.911 209.83 154.235C208.506 154.883 206.589 155.791 204.216 156.829C199.47 158.906 192.909 161.503 185.642 163.586C178.372 165.67 170.411 167.236 162.862 167.259C155.311 167.282 148.204 165.762 142.611 161.708C137.029 157.662 134.153 151.774 132.99 145.177C131.825 138.575 132.381 131.284 133.65 124.482C134.918 117.683 136.894 111.393 138.554 106.801C139.384 104.506 140.134 102.636 140.677 101.341C140.948 100.693 141.168 100.19 141.319 99.8482C141.348 99.7829 141.374 99.7236 141.398 99.6704L165.865 111.885C165.853 111.928 165.839 111.975 165.824 112.027C165.744 112.308 165.64 112.713 165.539 113.206C165.339 114.192 165.154 115.542 165.22 116.99C165.287 118.436 165.605 119.998 166.429 121.39C167.256 122.788 168.581 123.995 170.62 124.74C172.694 125.498 174.833 125.208 177.005 124.339C179.172 123.472 181.406 122.013 183.694 120.385C184.466 119.835 185.244 119.266 186.028 118.692C187.581 117.556 189.162 116.4 190.784 115.329C193.221 113.721 195.719 112.329 198.284 111.527C203.462 109.92 208.133 109.639 211.508 109.759C213.196 109.82 214.558 109.981 215.497 110.126C215.966 110.198 216.329 110.267 216.574 110.317Z" fill="#1CB786" stroke="#051A2F" stroke-width="0.727749"/>
<path d="M144.288 85.0423C143.949 85.0025 143.75 84.7437 143.79 84.4849C143.81 84.3455 144.308 80.8618 146.418 78.8114C146.617 78.6124 146.935 78.6323 147.115 78.8114C147.314 79.0105 147.294 79.329 147.115 79.5082C145.263 81.3197 144.786 84.5844 144.786 84.6043C144.746 84.8631 144.527 85.0423 144.288 85.0423Z" fill="black"/>
<path d="M155.337 78.4134C155.197 78.4134 155.058 78.3537 154.959 78.2343C154.779 78.0153 154.819 77.7167 155.038 77.5375L166.007 68.5197C166.226 68.3405 166.525 68.3803 166.704 68.5794C166.883 68.7984 166.843 69.097 166.624 69.2762L155.655 78.294C155.556 78.3736 155.436 78.4134 155.337 78.4134Z" fill="black"/>
<path d="M159.517 82.3551C159.358 82.3551 159.199 82.2755 159.099 82.1361C158.94 81.8972 159.02 81.5986 159.239 81.4394L162.842 79.0705C163.081 78.9112 163.379 78.9908 163.539 79.2098C163.698 79.4487 163.618 79.7473 163.399 79.9065L159.796 82.2755C159.697 82.3153 159.617 82.3551 159.517 82.3551Z" fill="black"/>
<path d="M37.302 275.274L37.3006 275.273C37.1344 275.133 36.9947 274.894 36.9083 274.531C36.8222 274.17 36.7958 273.713 36.8341 273.178C36.9107 272.109 37.2415 270.784 37.7905 269.408C38.8928 266.646 40.832 263.786 43.1998 262.43C45.663 261.02 56.541 255.135 66.8112 249.6C71.9446 246.833 76.9237 244.154 80.6195 242.167C82.4673 241.174 83.9944 240.353 85.0595 239.781L86.2929 239.118L86.5717 238.969L115.714 251.725C115.687 251.893 115.648 252.134 115.597 252.439C115.492 253.071 115.335 253.975 115.132 255.063C114.725 257.24 114.131 260.15 113.383 263.087C112.635 266.028 111.736 268.981 110.721 271.251C110.213 272.387 109.683 273.336 109.139 274.024C108.589 274.719 108.061 275.101 107.569 275.194C106.98 275.305 105.472 275.418 103.244 275.524C101.029 275.63 98.1308 275.728 94.7841 275.815C88.0912 275.988 79.6102 276.113 71.2227 276.158C62.8348 276.203 54.5431 276.167 48.2281 276.016C45.0698 275.941 42.4102 275.837 40.4816 275.701C39.5164 275.633 38.7408 275.557 38.1798 275.474C37.8987 275.432 37.6792 275.39 37.52 275.348C37.38 275.311 37.3206 275.282 37.3053 275.275C37.3012 275.273 37.3003 275.272 37.302 275.274Z" fill="#1CB786" stroke="#051A2F" stroke-width="0.727749"/>
<path d="M74.1136 249.434C74.0538 249.434 73.9941 249.414 73.9343 249.394C73.3769 249.175 60.1787 244.099 61.2536 236.295C61.4129 235.081 61.9106 234.364 62.6869 234.185C64.6179 233.727 67.8628 237.131 70.371 240.237C68.6391 236.395 66.8475 231.378 67.8827 229.069C68.1813 228.392 68.7386 227.954 69.4553 227.795C70.152 227.636 70.8488 227.795 71.4858 228.253C75.2881 231 76.7214 244.636 76.7811 245.233C76.801 245.512 76.6019 245.751 76.3431 245.771C76.0445 245.811 75.8255 245.592 75.8056 245.333C75.4075 241.511 73.7552 231.119 70.9085 229.069C70.5104 228.77 70.1122 228.671 69.6743 228.77C69.2562 228.87 68.9775 229.089 68.7984 229.487C67.5243 232.314 71.884 241.391 73.6756 244.656C73.795 244.895 73.7353 245.174 73.4964 245.313C73.2775 245.452 72.9788 245.393 72.8196 245.174C69.7738 240.754 64.7373 234.762 62.9258 235.16C62.5078 235.26 62.3286 235.917 62.249 236.434C61.2935 243.462 74.1733 248.418 74.2927 248.478C74.5515 248.578 74.6709 248.856 74.5714 249.115C74.4918 249.294 74.3126 249.434 74.1136 249.434Z" fill="#051A2F"/>
<path d="M196.783 163.635C196.783 163.635 158.482 129.276 136.485 134.77C114.488 140.264 112.815 163.217 108.894 189.076C104.972 214.935 103.758 233.827 103.758 233.827L156.392 234.862L159.517 189.673L215.774 172.175L196.783 163.635Z" fill="#051A2F"/>
<path d="M256.883 189.733C256.883 189.733 253.479 217.861 241.834 226.222C230.188 234.583 210.162 231.975 190.713 221.365C171.562 210.914 165.929 207.052 163.739 207.052C161.549 207.052 123.627 259.606 123.627 259.606L79.3535 236.474C79.3535 236.474 113.096 154.936 141.065 148.904C168.119 143.071 228.894 181.332 228.894 181.332L256.883 189.733Z" fill="#051A2F"/>
<path d="M235.101 76.8606C235.101 76.8606 250.967 72.6005 256.72 83.3503C262.473 94.1 257.516 137.716 257.516 137.716L233.15 121.691L233.668 100.072L235.101 76.8606Z" fill="#051A2F"/>
<path d="M203.334 133.648L203.365 133.621L203.389 133.588L203.093 133.376C203.389 133.588 203.389 133.588 203.389 133.588L203.389 133.587L203.392 133.584L203.401 133.571L203.437 133.521C203.469 133.476 203.518 133.409 203.581 133.322C203.709 133.148 203.897 132.892 204.141 132.567C204.628 131.916 205.336 130.986 206.22 129.872C207.988 127.644 210.455 124.682 213.255 121.745C216.056 118.806 219.18 115.902 222.262 113.781C225.357 111.65 228.348 110.353 230.897 110.528C241.447 111.273 253.304 119.509 263.028 134.096L263.028 134.096C266.147 138.769 271.808 149.758 272.025 160.368C272.133 165.661 270.886 170.834 267.318 175.091C263.75 179.349 257.821 182.735 248.477 184.378L248.477 184.378C229.819 187.665 213.921 179.027 202.656 169.515C197.027 164.763 192.567 159.802 189.515 156.029C187.989 154.143 186.815 152.554 186.024 151.438C185.628 150.88 185.328 150.441 185.127 150.141C185.077 150.066 185.033 150 184.996 149.943L203.334 133.648Z" fill="#1CB786" stroke="#051A2F" stroke-width="0.727749"/>
<path d="M215.709 114.705C215.616 114.603 215.548 114.518 215.504 114.457L216.919 104.78L228.927 102.46L228.928 102.46L230.554 102.147L230.27 113.127C230.261 113.138 230.251 113.15 230.241 113.163C230.176 113.244 230.073 113.364 229.927 113.511C229.637 113.804 229.176 114.206 228.507 114.621C227.173 115.451 224.998 116.344 221.672 116.53C219.223 116.666 217.655 116.095 216.709 115.514C216.235 115.222 215.911 114.925 215.709 114.705Z" fill="#1CB786" stroke="#051A2F" stroke-width="0.727749"/>
<path d="M228.872 102.103C228.832 102.421 228.713 102.779 228.514 103.217C225.787 108.931 218.68 109.986 215.773 110.185L216.61 104.491L228.872 102.103Z" fill="#051A2F"/>
<path d="M233.252 86.4868C233.264 86.5128 233.275 86.5368 233.284 86.5586L231.138 90.5638L230.519 91.7191L231.645 91.0484L231.645 91.0483L231.645 91.0482L231.646 91.048L231.65 91.0454L231.671 91.0336C231.689 91.0229 231.718 91.0068 231.756 90.9863C231.832 90.9454 231.945 90.8872 232.089 90.82C232.376 90.6853 232.782 90.5162 233.257 90.3784C234.218 90.0999 235.407 89.9641 236.468 90.4316L236.469 90.4322C237.496 90.8796 238.435 92.1184 238.774 93.7462C239.11 95.3566 238.846 97.306 237.516 99.1203C236.195 100.922 234.578 101.473 233.289 101.583C232.641 101.638 232.073 101.581 231.668 101.51C231.466 101.475 231.306 101.436 231.198 101.407C231.144 101.393 231.103 101.38 231.076 101.372C231.063 101.368 231.053 101.365 231.048 101.363L231.042 101.361L231.041 101.361L231.041 101.361L231.041 101.361L231.041 101.361L230.793 101.274L230.633 101.482L230.633 101.482L230.633 101.482L230.633 101.482L230.633 101.483L230.63 101.487L230.614 101.506C230.6 101.524 230.578 101.551 230.547 101.587C230.486 101.658 230.392 101.764 230.266 101.897C230.012 102.162 229.627 102.534 229.106 102.954C228.063 103.793 226.477 104.82 224.314 105.56C222.122 106.311 219.246 106.962 216.669 106.456C215.388 106.204 214.187 105.668 213.175 104.718C212.163 103.769 211.322 102.388 210.788 100.415C210.258 98.4529 210.245 96.0902 210.537 93.6293C210.829 91.1725 211.422 88.6418 212.086 86.3555C212.749 84.0702 213.48 82.0356 214.046 80.5722C214.329 79.8407 214.57 79.2525 214.741 78.8476C214.826 78.6452 214.893 78.4887 214.939 78.383C214.962 78.3302 214.98 78.2901 214.992 78.2633L214.992 78.2633C217.434 75.1354 219.754 74.161 221.832 74.3403C223.949 74.5228 225.935 75.9084 227.665 77.7515C229.388 79.5869 230.811 81.8261 231.805 83.6153C232.302 84.5082 232.689 85.2854 232.953 85.8388C233.085 86.1154 233.185 86.3359 233.252 86.4868Z" fill="#1CB786" stroke="#051A2F" stroke-width="0.727749"/>
<path d="M223.259 85.7988C223.079 85.7988 222.92 85.6993 222.821 85.54C222.462 84.8831 221.985 84.4849 221.447 84.3456C220.492 84.1067 219.536 84.684 219.536 84.684C219.297 84.8234 218.999 84.7636 218.859 84.5248C218.72 84.2859 218.78 83.9873 219.018 83.8479C219.078 83.8081 220.332 83.0516 221.686 83.3901C222.522 83.609 223.179 84.1664 223.697 85.0622C223.836 85.3011 223.756 85.5997 223.517 85.7391C223.418 85.7789 223.338 85.7988 223.259 85.7988Z" fill="black"/>
<path d="M212.65 84.4253C212.571 84.4253 212.511 84.4054 212.451 84.3855C212.192 84.266 212.093 83.9674 212.212 83.7286C212.411 83.3105 212.71 83.0318 213.128 82.9124C214.103 82.6337 215.298 83.4299 215.437 83.5295C215.656 83.6887 215.716 83.9873 215.557 84.2262C215.397 84.4651 215.099 84.5049 214.86 84.3457C214.561 84.1466 213.805 83.7485 213.387 83.8679C213.307 83.8878 213.188 83.9475 213.108 84.1267C213.009 84.3258 212.829 84.4253 212.65 84.4253Z" fill="black"/>
<path d="M222.783 88.8447C222.624 88.8447 222.464 88.765 222.365 88.6058C222.186 88.3072 221.947 88.1479 221.688 88.1081C221.071 88.0086 220.314 88.5261 220.076 88.7252C219.857 88.9044 219.558 88.8845 219.379 88.6655C219.2 88.4465 219.22 88.1479 219.439 87.9688C219.558 87.8692 220.673 86.9535 221.847 87.1327C222.405 87.2123 222.882 87.5507 223.221 88.0882C223.36 88.3271 223.3 88.6257 223.062 88.7849C222.962 88.8247 222.882 88.8447 222.783 88.8447Z" fill="black"/>
<path d="M214.558 88.4665C214.379 88.4665 214.2 88.367 214.12 88.1878C214.041 88.0485 213.404 86.9337 212.229 87.4314C211.97 87.5309 211.692 87.4115 211.572 87.1726C211.473 86.9138 211.592 86.6351 211.831 86.5156C213.503 85.799 214.638 87.0133 214.996 87.7499C215.116 87.9888 215.016 88.2874 214.777 88.4068C214.718 88.4466 214.638 88.4665 214.558 88.4665Z" fill="black"/>
<path d="M215.118 95.4935C214.859 95.4935 214.64 95.2945 214.62 95.0357C214.361 92.1094 215.973 88.7252 216.053 88.5858C216.173 88.347 216.471 88.2275 216.71 88.347C216.949 88.4664 217.068 88.765 216.949 89.0039C216.929 89.0437 215.376 92.2885 215.615 94.9362C215.635 95.2148 215.436 95.4537 215.157 95.4736C215.157 95.4935 215.137 95.4935 215.118 95.4935Z" fill="black"/>
<path d="M218.641 99.6741C218.422 99.6741 218.203 99.5148 218.163 99.2959C218.103 99.0371 218.262 98.7584 218.541 98.6986C218.561 98.6986 221.129 98.0815 221.866 96.2501C221.965 95.9913 222.264 95.8719 222.522 95.9714C222.781 96.0709 222.901 96.3695 222.801 96.6283C221.885 98.9375 218.899 99.6542 218.78 99.6741C218.72 99.6741 218.68 99.6741 218.641 99.6741Z" fill="black"/>
<path d="M231.899 96.9268C231.76 96.9268 231.621 96.8671 231.521 96.7476C231.342 96.5287 231.382 96.2301 231.601 96.0509L236.259 92.2686C236.478 92.0894 236.776 92.1292 236.956 92.3482C237.135 92.5672 237.095 92.8658 236.876 93.045L232.218 96.8273C232.118 96.887 232.019 96.9268 231.899 96.9268Z" fill="black"/>
<path d="M236.557 96.9268C236.477 96.9268 236.398 96.9069 236.338 96.8671L233.432 95.4338C233.193 95.3143 233.093 95.0157 233.213 94.7769C233.332 94.538 233.631 94.4384 233.89 94.5579L236.796 95.9912C237.035 96.1106 237.134 96.4092 237.015 96.6481C236.915 96.8273 236.736 96.9268 236.557 96.9268Z" fill="black"/>
<path d="M231.462 90.7357C231.462 90.7357 226.405 90.1783 223.26 85.9979C220.115 81.8174 218.641 77.5574 218.641 77.5574C218.641 77.5574 216.492 77.8958 215.118 79.5879C214.103 80.8221 212.908 82.6336 212.908 82.6336C212.908 82.6336 212.849 76.8009 215.795 73.9741C218.741 71.1473 221.269 72.1626 221.269 72.1626C221.269 72.1626 227.739 68.5594 234.229 74.4121C240.718 80.2647 237.553 90.7556 237.553 90.7556C237.553 90.7556 234.268 89.3821 231.462 90.7357Z" fill="#051A2F"/>
<path d="M201.136 105.454L201.132 105.577L201.203 105.678L201.5 105.467L201.203 105.678L201.203 105.678L201.204 105.679L201.206 105.682L201.216 105.696L201.255 105.751C201.289 105.8 201.34 105.872 201.404 105.964C201.532 106.149 201.715 106.416 201.934 106.743C202.373 107.397 202.954 108.292 203.529 109.254C204.104 110.218 204.667 111.242 205.072 112.156C205.275 112.614 205.434 113.037 205.537 113.407C205.64 113.782 205.677 114.077 205.657 114.288C205.356 117.105 204.375 118.889 203.098 120.28C202.454 120.982 201.73 121.59 200.964 122.184C200.673 122.41 200.372 122.636 200.068 122.866C199.581 123.232 199.085 123.606 198.604 123.995C197.736 124.688 197.241 125.679 196.975 126.738C196.709 127.798 196.666 128.951 196.722 130.006C196.778 131.064 196.934 132.039 197.076 132.748C197.147 133.103 197.214 133.393 197.264 133.595C197.275 133.638 197.284 133.677 197.293 133.711L187.106 144.442C187.089 144.44 187.072 144.438 187.054 144.435C186.908 144.414 186.692 144.376 186.422 144.308C185.881 144.171 185.126 143.913 184.278 143.431C182.59 142.471 180.516 140.608 179.064 136.984C177.618 133.363 177.734 129.381 178.716 125.826C179.699 122.268 181.541 119.175 183.494 117.338L183.495 117.337C185.565 115.38 186.629 112.862 187.309 110.349C187.649 109.093 187.895 107.829 188.121 106.631C188.141 106.522 188.162 106.413 188.182 106.306C188.385 105.224 188.577 104.207 188.813 103.288C189.066 102.303 189.411 101.735 189.752 101.415C190.084 101.104 190.436 101.006 190.765 101.008C191.105 101.01 191.43 101.119 191.679 101.237C191.801 101.294 191.901 101.352 191.969 101.394C192.003 101.416 192.028 101.433 192.045 101.444L192.062 101.456L192.065 101.458L192.065 101.458L192.065 101.459L192.065 101.459L192.066 101.459L192.549 101.821L192.642 101.223L192.642 101.223L192.642 101.223L192.642 101.223L192.642 101.222L192.643 101.216L192.648 101.19C192.652 101.167 192.658 101.132 192.666 101.087C192.683 100.997 192.708 100.865 192.744 100.703C192.815 100.377 192.926 99.9285 193.084 99.4372C193.407 98.4382 193.906 97.3272 194.618 96.6781L194.62 96.6764C194.769 96.5386 194.885 96.502 194.968 96.4983C195.055 96.4944 195.161 96.5236 195.293 96.6147C195.57 96.8064 195.858 97.2016 196.125 97.6988C196.386 98.1837 196.603 98.7176 196.755 99.1345C196.831 99.3421 196.89 99.5185 196.93 99.6427C196.95 99.7047 196.965 99.7536 196.975 99.7867L196.986 99.824L196.989 99.8331L196.99 99.8351L196.99 99.8355L196.99 99.8355L196.99 99.8355L197.258 100.756L197.668 99.8895L197.668 99.8894L197.668 99.8892L197.668 99.8892L197.668 99.889L197.67 99.8859L197.678 99.8694C197.685 99.8543 197.697 99.8312 197.713 99.8017C197.745 99.7426 197.793 99.6587 197.856 99.5624C197.982 99.3669 198.159 99.135 198.369 98.9552C198.581 98.7742 198.797 98.6709 199.012 98.6697C199.217 98.6686 199.495 98.7596 199.84 99.1259C200.177 99.4886 200.44 100.049 200.638 100.723C200.834 101.392 200.956 102.139 201.031 102.845C201.105 103.549 201.132 104.203 201.139 104.681C201.143 104.92 201.142 105.114 201.14 105.248C201.14 105.315 201.138 105.367 201.138 105.402L201.136 105.441L201.136 105.451L201.136 105.453L201.136 105.453L201.136 105.454ZM199.251 116.845L199.144 117.404L199.697 117.266L199.608 116.913C199.697 117.266 199.697 117.266 199.697 117.266L199.698 117.266L199.699 117.266L199.703 117.265L199.715 117.261C199.725 117.259 199.739 117.255 199.756 117.25C199.79 117.24 199.838 117.225 199.898 117.205C200.016 117.165 200.179 117.103 200.363 117.014C200.729 116.839 201.2 116.551 201.567 116.104C201.941 115.649 202.2 115.036 202.138 114.248C202.077 113.47 201.706 112.557 200.895 111.479L200.4 110.822L200.246 111.629L199.251 116.845Z" fill="#1CB786" stroke="#051A2F" stroke-width="0.727749"/>
<path d="M199.609 117.411C199.55 117.411 199.49 117.411 199.45 117.391C199.191 117.291 199.052 117.013 199.151 116.754C200.684 112.394 201.023 105.507 201.023 105.427C201.043 105.148 201.281 104.909 201.54 104.949C201.819 104.969 202.038 105.188 202.018 105.467C201.998 105.745 201.66 112.574 200.087 117.072C200.007 117.291 199.808 117.411 199.609 117.411Z" fill="black"/>
<path d="M194.651 116.416C194.571 116.416 194.492 116.396 194.412 116.356C194.173 116.217 194.094 115.918 194.213 115.679C197.1 110.523 196.124 99.3356 196.104 99.2361C196.084 98.9574 196.283 98.7185 196.562 98.6986C196.821 98.6787 197.08 98.8777 197.099 99.1564C197.139 99.6342 198.115 110.762 195.089 116.177C194.989 116.316 194.81 116.416 194.651 116.416Z" fill="black"/>
<path d="M189.814 116.416C189.695 116.416 189.555 116.376 189.456 116.276C189.257 116.077 189.257 115.759 189.456 115.579C191.586 113.449 191.865 104.471 191.785 101.207C191.785 100.928 192.004 100.709 192.263 100.689C192.541 100.689 192.76 100.908 192.78 101.167C192.8 101.665 193.019 113.41 190.153 116.276C190.073 116.356 189.934 116.416 189.814 116.416Z" fill="black"/>
<path d="M110.686 177.61C110.607 177.61 110.507 177.59 110.427 177.53C110.189 177.391 110.109 177.092 110.248 176.853C110.348 176.674 121.058 158.877 135.809 150.297C152.053 140.842 190.413 160.131 192.026 160.948C192.265 161.067 192.364 161.366 192.245 161.624C192.125 161.863 191.827 161.963 191.568 161.843C191.17 161.644 152.053 141.976 136.287 151.153C121.774 159.614 111.184 177.172 111.084 177.351C111.005 177.51 110.846 177.61 110.686 177.61Z" fill="white"/>
<path d="M163.734 207.549C163.695 207.549 163.655 207.549 163.595 207.529C163.436 207.49 163.316 207.37 163.257 207.211C162.918 206.216 159.972 197.457 162.799 195.307C163.436 194.829 164.073 194.889 164.531 195.466C166.004 197.317 165.347 206.335 164.033 207.43C163.953 207.51 163.854 207.549 163.734 207.549ZM163.635 196.003C163.595 196.003 163.516 196.043 163.416 196.123C161.903 197.277 162.759 202.174 163.814 205.698C164.411 203.289 164.809 197.397 163.754 196.103C163.715 196.023 163.695 196.003 163.635 196.003Z" fill="white"/>
<path d="M170.746 136.263C170.269 136.263 169.871 136.064 169.572 135.666C167.92 133.536 170.03 125.214 170.269 124.259C170.388 123.821 171.125 123.821 171.224 124.259C171.463 125.195 173.573 133.516 171.921 135.666C171.622 136.064 171.224 136.263 170.746 136.263ZM170.746 126.588C170.05 129.893 169.512 133.993 170.348 135.088C170.567 135.367 170.906 135.367 171.125 135.088C171.981 133.993 171.443 129.893 170.746 126.588Z" fill="#051A2F"/>
<path d="M221.746 117.59C217.028 117.59 213.683 114.743 213.624 114.684C213.425 114.504 213.405 114.186 213.584 113.987C213.763 113.788 214.081 113.768 214.28 113.947C214.599 114.226 221.984 120.496 230.286 112.892C230.485 112.713 230.803 112.713 230.982 112.932C231.162 113.131 231.161 113.449 230.943 113.629C227.678 116.634 224.473 117.59 221.746 117.59Z" fill="#051A2F"/>
<path d="M238.329 145.341C238.269 145.341 238.229 145.341 238.169 145.321C228.136 142.036 206.06 133.974 205.841 133.894C205.582 133.795 205.443 133.516 205.542 133.257C205.642 132.998 205.92 132.859 206.179 132.958C206.398 133.038 228.475 141.1 238.488 144.385C238.747 144.465 238.886 144.743 238.807 145.022C238.747 145.201 238.548 145.341 238.329 145.341Z" fill="#051A2F"/>
<path d="M247.482 148.167C243.879 148.167 237.19 145.101 236.334 144.703C236.115 144.604 236.016 144.385 236.055 144.146C236.095 143.927 236.294 143.748 236.533 143.748C238.444 143.708 248.139 143.628 249.652 145.778C249.911 146.157 249.97 146.575 249.791 147.013C249.632 147.45 249.294 147.749 248.816 147.948C248.477 148.088 248.019 148.167 247.482 148.167ZM238.922 144.743C242.087 146.057 246.805 147.689 248.477 147.032C248.756 146.913 248.856 146.774 248.895 146.654C248.955 146.515 248.915 146.435 248.856 146.356C248.079 145.241 243.043 144.803 238.922 144.743Z" fill="#051A2F"/>
<path d="M74.7146 133.894H3.46769C1.55663 133.894 0.00390625 132.341 0.00390625 130.43V95.8519C0.00390625 93.9409 1.55663 92.3881 3.46769 92.3881H74.7146C76.6256 92.3881 78.1783 93.9409 78.1783 95.8519V130.45C78.1783 132.341 76.6256 133.894 74.7146 133.894ZM3.46769 93.3835C2.11402 93.3835 0.999252 94.4983 0.999252 95.8519V130.45C0.999252 131.804 2.09411 132.919 3.46769 132.919H74.7146C76.0682 132.919 77.183 131.804 77.183 130.45V95.8519C77.183 94.4983 76.0881 93.3835 74.7146 93.3835H3.46769Z" fill="white"/>
<path d="M246.331 199.965C237.333 199.786 234.666 191.067 234.646 190.967C234.566 190.708 234.725 190.43 234.984 190.35C235.243 190.27 235.521 190.43 235.601 190.688C235.701 191.027 238.089 198.81 246.351 198.97C246.629 198.97 246.848 199.209 246.848 199.467C246.809 199.746 246.59 199.965 246.331 199.965Z" fill="white"/>
<path d="M77.6783 99.6739H0.519157C0.24046 99.6739 0.0214844 99.455 0.0214844 99.1763C0.0214844 98.8976 0.24046 98.6786 0.519157 98.6786H77.6783C77.957 98.6786 78.176 98.8976 78.176 99.1763C78.176 99.455 77.957 99.6739 77.6783 99.6739Z" fill="white"/>
</svg>
