<svg width="300" height="305" viewBox="0 0 300 305" fill="none" xmlns="http://www.w3.org/2000/svg">
<path fill-rule="evenodd" clip-rule="evenodd" d="M166.928 36.8411C168.323 35.3407 169.978 34.1036 171.811 33.1889L173.954 32.1199C175.701 31.2483 177.528 30.5476 179.41 30.0277L181.309 29.5033C186.303 28.1236 191.064 26.0086 195.435 23.2278L199.921 20.3743L210.265 15.2139L230.764 6.69993C234.863 4.99752 239.156 3.80564 243.546 3.15116L246.997 2.63672C248.232 2.45252 249.483 2.39095 250.73 2.45292L253.051 2.56822C256.456 2.73734 259.662 4.21826 261.999 6.70004L262.007 6.70944L268.979 14.6569L268.988 14.6676L271.093 17.2392C273.726 20.4563 276.62 23.4506 279.746 26.1915L288.4 36.0035L288.404 36.0074L293.354 41.6927L293.362 41.7019L293.371 41.7108L297.958 46.6712L297.634 47.4864C296.958 49.1891 295.677 50.5826 294.038 51.4005C292.442 52.1967 290.614 52.3936 288.885 51.9556L282.929 50.4466C280.666 49.8732 278.499 48.9726 276.496 47.7732L269.706 43.7075L269.699 43.7034L269.692 43.6995L262.076 39.3384L259.75 38.0068L260.947 40.4047L265.535 49.6013L265.56 49.6514L265.591 49.6977L271.145 57.8017L271.148 57.8065L276.913 66.3505L278.692 69.9169C280.461 73.4621 281.326 77.3894 281.211 81.3496C281.167 82.8627 280.981 84.3682 280.654 85.8461L280.279 87.5378C279.8 89.7047 279.659 91.9328 279.863 94.1427L280.592 102.052C280.818 104.512 279.665 106.895 277.596 108.244C276.35 109.055 274.869 109.427 273.388 109.3L272.987 109.265C271.384 109.128 269.861 108.499 268.628 107.464L266.98 106.081C266.063 105.312 265.244 104.434 264.541 103.465L264.299 103.132C262.135 100.152 260.939 96.58 260.872 92.8983L260.815 89.7791C260.773 87.4936 261.029 85.2123 261.576 82.9928C262.107 80.8369 263.102 78.8225 264.491 77.0898L267.114 73.8163L265.848 72.8015L263.225 76.075C262.002 77.6009 261.055 79.3242 260.423 81.1669C257.125 77.3658 254.318 73.1626 252.07 68.6561L251.022 66.5557L247.898 58.4844L246.385 59.0701L249.523 67.1768L249.536 67.2122L249.553 67.2461L250.618 69.3805C253.085 74.3259 256.207 78.9156 259.9 83.0261C259.388 85.2491 259.15 87.527 259.192 89.8089L259.249 92.9281C259.323 96.942 260.627 100.837 262.985 104.085L263.227 104.419C263.459 104.738 263.703 105.049 263.957 105.351C262.286 108.006 260.957 110.863 260.003 113.853L257.607 121.36C257.365 122.118 256.989 122.826 256.496 123.451L256.125 123.92C255.062 125.267 253.426 126.032 251.711 125.986C250.873 125.963 250.052 125.747 249.311 125.354L248.977 125.177C247.538 124.413 246.407 123.174 245.778 121.67L244.855 119.462C244.151 117.779 243.789 115.972 243.79 114.147L243.79 114.074C243.791 112.92 243.934 111.771 244.215 110.652L244.456 109.691C244.793 108.347 245.256 107.038 245.837 105.78L248.405 100.231C248.972 99.0053 249.666 97.8433 250.477 96.764L253.202 93.1378L251.905 92.163L250.046 94.6361C248.483 90.5973 247.333 86.4092 246.614 82.1363L248.164 74.5441L246.574 74.2197L245.125 81.3188C242.475 81.3187 239.841 80.8905 237.325 80.0494L237.218 80.0136L236.704 81.5527L236.811 81.5885C239.487 82.4831 242.288 82.9395 245.107 82.9415C245.907 87.4692 247.18 91.9006 248.906 96.1629C248.478 96.7589 248.083 97.3769 247.721 98.0143L243.743 96.5301C240.153 95.1907 236.139 96.8528 234.547 100.338L233.302 103.062L234.778 103.736L236.022 101.012C237.261 98.3014 240.384 97.0087 243.176 98.0504L246.103 99.1426L243.408 103.074L243.382 103.112L243.361 103.152L240.907 107.777C240.337 108.851 239.879 109.98 239.54 111.148L239.208 112.291C238.84 113.558 238.7 114.88 238.796 116.196L238.872 117.248C238.98 118.753 239.532 120.192 240.458 121.384C241.383 122.576 242.64 123.468 244.072 123.946L245.576 124.449C246.299 125.331 247.195 126.068 248.217 126.61L248.551 126.787C249.512 127.298 250.579 127.578 251.667 127.608C253.894 127.669 256.019 126.674 257.399 124.925L257.769 124.456C258.383 123.679 258.852 122.797 259.153 121.853L261.549 114.346C262.418 111.622 263.613 109.014 265.106 106.578C265.374 106.836 265.651 107.085 265.937 107.325L267.585 108.707C269.074 109.956 270.912 110.716 272.848 110.882L273.249 110.917C275.091 111.075 276.933 110.613 278.482 109.603C281.055 107.926 282.489 104.962 282.207 101.903L281.479 93.9939C281.291 91.951 281.42 89.8914 281.864 87.8884L282.238 86.1967C282.587 84.6191 282.786 83.0119 282.833 81.3968C282.956 77.1693 282.033 72.9769 280.145 69.1924L278.342 65.5785L278.318 65.5309L278.288 65.4868L272.49 56.894L272.487 56.8892L266.962 48.8267L263.595 42.0783L268.872 45.0998L268.886 45.1077L275.662 49.1655C277.801 50.4459 280.115 51.4075 282.531 52.0197L288.486 53.5286C290.592 54.0621 292.819 53.8222 294.762 52.8526C296.759 51.8565 298.318 50.1592 299.142 48.0855L299.724 46.6223L299.777 46.6261L299.778 46.6144L299.798 46.3323L299.794 46.3314C299.87 44.725 299.621 43.1188 299.06 41.6095L298.841 41.0202C298.167 39.206 297.145 37.5412 295.832 36.1194L295.359 35.6081C294.454 34.6277 293.444 33.7489 292.349 32.9873L280.821 24.9752C277.76 22.2921 274.927 19.3609 272.349 16.2113L270.235 13.6291L270.226 13.6184L270.217 13.6079L263.209 5.61881L262.599 6.15396L263.19 5.59831C260.566 2.80475 256.96 1.13763 253.132 0.947469L250.811 0.832168C249.456 0.764884 248.099 0.831725 246.757 1.0317L243.307 1.54614C238.785 2.22025 234.364 3.44785 230.142 5.2013L209.617 13.726L209.591 13.7368L209.566 13.7493L199.159 18.941L199.121 18.9598L199.086 18.9824L194.564 21.8586C190.328 24.553 185.715 26.6023 180.876 27.9391L178.978 28.4635C176.995 29.0113 175.07 29.7495 173.229 30.6679L171.087 31.7368C169.079 32.7384 167.268 34.093 165.74 35.7358C164.008 37.5973 162.674 39.7922 161.819 42.1865L159.906 47.5415L159.893 47.5779L159.884 47.6153L149.809 87.3998L149.803 87.4227L149.799 87.446L148.889 92.1867C145.706 108.763 140.854 124.974 134.406 140.572C133.883 141.838 133.236 143.048 132.473 144.186L121.204 161.003L98.9613 190.203L50.1977 242.624L50.1798 242.643L50.1632 242.663L0.639417 303.338L1.89656 304.364L51.4037 243.71L100.177 191.279L100.204 191.25L100.228 191.218L122.509 161.967L122.524 161.948L122.538 161.927L133.821 145.089C134.644 143.863 135.342 142.557 135.906 141.192C142.396 125.492 147.279 109.176 150.482 92.4926L151.388 87.7752L161.447 48.051L163.347 42.7323C164.128 40.5457 165.346 38.5412 166.928 36.8411ZM244.281 122.296L243.358 120.089C242.57 118.206 242.166 116.186 242.168 114.146L242.168 114.072C242.169 112.786 242.328 111.505 242.641 110.257L242.882 109.296C243.244 107.854 243.74 106.449 244.365 105.099L245.148 103.406L244.772 103.954L242.341 108.537C241.823 109.513 241.407 110.54 241.099 111.6L240.766 112.744C240.452 113.826 240.333 114.955 240.414 116.079L240.49 117.131C240.576 118.317 241.01 119.45 241.739 120.389C242.402 121.242 243.28 121.9 244.281 122.296ZM289.621 34.934L285.367 30.1115L291.422 34.3198C292.421 35.0141 293.342 35.8153 294.167 36.709L294.639 37.2203C295.809 38.4867 296.719 39.9695 297.32 41.5853L297.539 42.1746C297.81 42.9059 297.998 43.6634 298.098 44.4325L294.578 40.6271L294.562 40.609L289.624 34.9379L289.621 34.934Z" fill="white"/>
</svg>
