<svg width="198" height="124" viewBox="0 0 198 124" fill="none" xmlns="http://www.w3.org/2000/svg">
<path fill-rule="evenodd" clip-rule="evenodd" d="M166.026 2.37522C168.837 1.98474 171.676 1.89963 174.493 2.11709C169.738 3.02818 165.13 4.63321 160.819 6.89128L159.852 7.39781L159.802 7.42421L159.755 7.45617L148.859 14.8495C146.67 16.3353 144.983 18.4517 144.024 20.9179C142.562 24.6777 142.921 28.9023 144.997 32.3615L155.59 50.0171C157.523 53.2393 161.312 54.8493 164.974 54.0043C165.774 53.8197 166.544 53.5222 167.26 53.121L178.805 46.6561L178.829 46.6424L178.853 46.6273L186.475 41.7771C186.914 41.4975 187.344 41.2033 187.762 40.8953C182.583 48.7293 176.344 55.8276 169.213 61.983L163.385 65.7939C158.688 68.8648 153.773 71.587 148.678 73.9386C140.781 77.5832 133.316 82.099 126.423 87.4018L126.225 87.5536L126.187 87.5064L124.287 89.0446L123.707 89.491L123.718 89.5054L84.187 121.506L85.4454 123.061L125.526 90.6146L127.642 88.987C134.418 83.7751 141.754 79.3367 149.516 75.7545C154.7 73.3619 159.701 70.5923 164.48 67.4678L170.364 63.6206L169.816 62.7836L170.469 63.541C180.147 55.1979 188.215 45.1524 194.273 33.9018L195.697 31.2577L195.401 31.0986C196.205 29.1355 196.736 27.0619 196.972 24.935L197.031 24.4042C197.224 22.6657 197.234 20.9117 197.06 19.1711L196.761 16.177C196.448 13.0525 195.238 10.0851 193.276 7.6331C191.078 4.88448 188.046 2.9232 184.638 2.04364L181.816 1.31537C176.573 -0.0378101 171.115 -0.350746 165.751 0.394234L163.502 0.706516C158.217 1.44067 153.072 2.96982 148.243 5.24214L138.39 9.87882L138.353 9.8966L138.316 9.91746L112.317 24.9175L112.311 24.9205L85.8113 40.4205L85.7843 40.4363L85.7582 40.4538L56.8058 59.9218L56.3797 60.1422C47.17 64.9058 37.3255 68.3258 27.1462 70.298L21.6095 71.1369C14.271 72.2488 7.04137 73.9878 0 76.335L0.632456 78.2323C7.56537 75.9214 14.6836 74.2091 21.9091 73.1143L27.466 72.2724L27.3162 71.2836L27.5062 72.2654C37.8803 70.2575 47.9131 66.7732 57.2985 61.9186L57.7757 61.6719L57.8266 61.6455L57.8742 61.6135L86.8482 42.131L113.316 26.6498L113.321 26.6468L139.28 11.6707L149.095 7.05177C153.741 4.8653 158.691 3.39392 163.778 2.6875L166.026 2.37522ZM161.747 8.66294C167.853 5.46473 174.58 3.63163 181.463 3.28976L184.138 3.98019C187.128 4.75162 189.786 6.47178 191.715 8.88249C193.435 11.0331 194.496 13.6356 194.77 16.376L195.07 19.3701C195.23 20.971 195.221 22.5843 195.043 24.1833L194.984 24.7141C194.571 28.4379 193.167 31.9829 190.919 34.9802C189.402 37.002 187.533 38.733 185.401 40.0898L177.803 44.9249L166.283 51.376C165.732 51.6847 165.14 51.9135 164.524 52.0555C161.707 52.7056 158.792 51.467 157.305 48.9881L146.712 31.3325C144.954 28.4035 144.65 24.8263 145.888 21.6428C146.7 19.5546 148.128 17.7626 149.982 16.5045L160.831 9.14305L161.747 8.66294Z" fill="white"/>
<path d="M104.095 55.8925L104.132 57.7515C104.179 60.0404 104.891 62.2663 106.181 64.1577V64.1577C106.821 65.0964 107.593 65.9377 108.474 66.6555L116.68 73.3414" stroke="white" stroke-width="2.24944"/>
</svg>
