<svg width="212" height="361" viewBox="0 0 212 361" fill="none" xmlns="http://www.w3.org/2000/svg">
<path d="M-66.1648 302.919L-20.7187 242.363L24.3432 189.78L44.7131 160.649L49.1273 153.444C53.7174 145.951 57.5523 138.021 60.5754 129.771V129.771C63.6579 121.358 65.8808 112.656 67.2101 103.795L69.5561 88.1597L77.7205 49.3349L79.357 44.0871C80.057 41.8425 81.2071 39.7642 82.737 37.9789V37.9789C84.0872 36.4033 85.7098 35.0834 87.5273 34.0822L89.5548 32.9654C91.2524 32.0302 93.0364 31.2614 94.8819 30.6697L96.6947 30.0884C101.39 28.5829 105.835 26.3872 109.884 23.5734L114.138 20.6172L123.986 15.1927L143.476 6.1504C147.426 4.31754 151.587 2.97746 155.865 2.16035L159.177 1.52756C160.414 1.29129 161.672 1.17792 162.931 1.18912L165.177 1.20908C168.68 1.24021 172.033 2.62806 174.533 5.08085V5.08085L181.617 12.5216L187.687 19.2057L197.533 28.4086L201.201 32.358L206.21 37.6582L209.169 40.9049C210.15 41.9812 210.532 43.4748 210.188 44.8899V44.8899C209.898 46.083 209.12 47.0995 208.045 47.6919L206.876 48.3358C205.321 49.1925 203.51 49.4626 201.772 49.097L195.754 47.8305C193.47 47.35 191.269 46.5389 189.22 45.4228L182.502 41.7631L174.973 37.8506L179.767 46.5529L185.454 54.1664L191.392 62.238L193.276 65.6577C195.187 69.1257 196.21 73.0119 196.257 76.9709V76.9709C196.274 78.4834 196.149 79.9943 195.883 81.4833L195.588 83.132C195.224 85.164 195.178 87.2402 195.451 89.2863L196.467 96.8975C196.821 99.5527 195.677 102.186 193.494 103.739V103.739C192.18 104.673 190.592 105.142 188.981 105.069L188.593 105.052C186.877 104.974 185.227 104.37 183.868 103.321L182.221 102.05C181.254 101.304 180.383 100.443 179.626 99.4845L179.379 99.1721C177.072 96.2529 175.718 92.696 175.498 88.9822L175.32 85.9716C175.186 83.6977 175.348 81.4159 175.803 79.1838V79.1838M180.928 69.7934L178.523 73.0587C177.182 74.8787 176.254 76.9688 175.803 79.1838V79.1838M175.803 79.1838V79.1838C172 75.337 168.748 70.9829 166.138 66.2452L165.025 64.2255L161.676 56.5188L151.017 82.6881L149.651 95.3806L152.098 106.868L152.564 118.551L147.992 133.01L139.457 147.861L130.553 159.332L116.358 173.122L110.797 177.999C107.807 180.622 105.154 183.604 102.896 186.878V186.878C101.184 189.362 99.7081 192.001 98.4887 194.76L61.7889 277.806L43.3152 316.34L26.4775 351.883L14.9031 378.557" stroke="white" stroke-width="1.56873"/>
</svg>
