<svg  width="485" height="308" viewBox="0 0 485 308" fill="none" xmlns="http://www.w3.org/2000/svg">
<path  d="M1.24766 332.049L87.3537 265.926L169.856 210.666L209.217 178.282L218.091 170.031C227.318 161.452 235.671 151.977 243.026 141.747V141.747C250.525 131.316 256.949 120.153 262.2 108.428L271.466 87.7365L297.705 37.2596L301.988 30.6422C303.82 27.8119 306.209 25.3845 309.01 23.5084V23.5084C311.482 21.8526 314.232 20.6549 317.128 19.9726L320.359 19.2114C323.064 18.5741 325.824 18.1998 328.601 18.0937L331.329 17.9895C338.394 17.7196 345.38 16.4001 352.057 14.0744L359.072 11.6309L374.763 7.93384L405.167 2.95606C411.329 1.94708 417.593 1.6998 423.816 2.2198L428.635 2.6225C430.434 2.77286 432.215 3.10081 433.949 3.60155L437.044 4.49486C441.87 5.88758 445.967 9.09695 448.475 13.4482V13.4482L455.391 26.4551L461.199 38.0262L471.25 54.5313L474.794 61.3997L479.67 70.6506L482.505 76.2751C483.445 78.1398 483.397 80.3497 482.377 82.1717V82.1717C481.516 83.7077 480.051 84.8122 478.337 85.2159L476.475 85.6548C473.997 86.2386 471.391 85.9137 469.132 84.7391L461.308 80.6704C458.339 79.1268 455.612 77.1583 453.212 74.8272L445.343 67.1832L436.453 58.8781L439.72 72.7449L444.64 85.4519L449.732 98.8888L451.016 104.338C452.318 109.864 452.234 115.626 450.772 121.112V121.112C450.214 123.208 449.459 125.246 448.517 127.2L447.474 129.364C446.189 132.03 445.325 134.88 444.914 137.811L443.383 148.715C442.849 152.518 440.254 155.714 436.641 157.018V157.018C434.466 157.802 432.091 157.837 429.895 157.116L429.366 156.942C427.026 156.174 424.98 154.704 423.506 152.731L421.721 150.341C420.674 148.938 419.802 147.412 419.126 145.797L418.905 145.271C416.845 140.35 416.345 134.915 417.472 129.701L418.387 125.475C419.077 122.282 420.181 119.193 421.669 116.286V116.286M432.367 105.291L427.787 108.874C425.234 110.871 423.146 113.4 421.669 116.286V116.286M421.669 116.286V116.286C417.9 109.507 415.086 102.24 413.307 94.6905L412.549 91.4723L410.892 79.5371L386.086 111.573L379.307 128.577L378.261 145.386L374.401 161.703L362.514 179.91L345.002 197.132L328.283 209.545L303.364 223.12L293.804 227.714C288.664 230.184 283.849 233.28 279.469 236.932V236.932C276.147 239.702 273.092 242.778 270.344 246.119L187.651 346.676L147.285 392.778L110.331 435.38L84.0655 467.76" stroke="white" stroke-width="2.24944"/>
</svg>
