<svg width="709" height="513" viewBox="0 0 709 513" fill="none" xmlns="http://www.w3.org/2000/svg" >
<path fill-rule="evenodd" clip-rule="evenodd" d="M496.232 4.04332C499.835 2.69212 503.652 2 507.5 2H511.927C515.569 2 519.202 2.3521 522.776 3.05139L526.349 3.75042C535.701 5.58004 545.272 6.00826 554.75 5.02103L564.551 4H585.965L626.92 6.83482C635.147 7.40426 643.273 8.98324 651.114 11.5362L657.247 13.5329C659.474 14.2581 661.624 15.2017 663.665 16.35L667.41 18.4562C669.235 19.4829 670.908 20.7268 672.398 22.1501C671.271 21.5509 670.072 21.0826 668.821 20.76L665.999 20.0317C660.756 18.6785 655.298 18.3656 649.934 19.1106L647.686 19.4229C642.4 20.157 637.255 21.6862 632.427 23.9585L622.574 28.5952L622.536 28.613L622.5 28.6338L596.5 43.6338L596.495 43.6368L571.187 58.4394C570.134 53.8565 568.429 49.446 566.121 45.3435L565.371 44.0097L563.628 44.9903L564.378 46.324C566.702 50.4556 568.389 54.9128 569.384 59.5451L542.185 77.834C539.803 66.3281 535.804 55.2148 530.304 44.826L529.883 44.0321L528.116 44.9679L528.536 45.7618C534.062 56.1994 538.048 67.3802 540.373 78.9567C531.218 83.6692 521.439 87.0557 511.329 89.0144L505.793 89.8532C498.454 90.9651 491.225 92.7042 484.183 95.0513L484.816 96.9487C491.749 94.6377 498.867 92.9254 506.092 91.8307L511.649 90.9887L511.499 90L511.69 90.9818C522.064 88.9739 532.096 85.4895 541.482 80.635L541.959 80.3882L541.499 79.5L542.057 80.3298L571.031 60.8473L597.499 45.3662L597.504 45.3632L623.463 30.387L633.278 25.7681C637.924 23.5817 642.875 22.1103 647.961 21.4039L650.209 21.0916C653.021 20.7011 655.859 20.616 658.676 20.8334C653.922 21.7445 649.313 23.3496 645.002 25.6076L644.036 26.1142L643.985 26.1406L643.938 26.1725L633.043 33.5659C630.853 35.0517 629.167 37.168 628.208 39.6342C626.746 43.394 627.104 47.6186 629.18 51.0778L639.773 68.7335C641.707 71.9557 645.496 73.5656 649.157 72.7207C649.957 72.536 650.727 72.2386 651.444 71.8374L662.988 65.3725L663.013 65.3588L663.036 65.3437L670.658 60.4934C671.098 60.2138 671.527 59.9197 671.945 59.6116C666.766 67.4456 660.528 74.544 653.397 80.6994L647.568 84.5102C642.872 87.5812 637.956 90.3034 632.861 92.6549C625.569 96.0205 618.645 100.129 612.199 104.914L612.217 104.728L610.37 106.223L608.471 107.76L607.89 108.207L607.901 108.222L577.251 133.033C571.287 137.862 566.028 143.501 561.628 149.787C556.633 156.922 552.804 164.805 550.284 173.142L549.663 175.195C548.268 179.809 546.483 184.297 544.327 188.608C539.931 197.4 534.043 205.363 526.925 212.143L524.834 214.134C519.552 219.164 513.744 223.61 507.509 227.396L489.04 238.609L463.668 249.554L427.26 259.529L413.469 262.563C405.961 264.215 398.686 266.789 391.809 270.227C386.593 272.835 381.634 275.927 376.995 279.461L238.905 384.696L238.893 384.705L172.418 432.186L172.414 432.189L111.414 476.189L111.401 476.199L111.388 476.209L68.5089 509.343L3.22945 310.042L134.381 250.925L258.351 204.436L258.397 204.419L258.441 204.397L319.441 174.397L319.468 174.384L319.494 174.369L333.537 166.373C348.197 158.025 361.991 148.242 374.718 137.168C387.694 125.877 399.494 113.301 409.937 99.633L428.276 75.6304L477.726 18.1884L485.276 10.9412C488.421 7.92143 492.149 5.57438 496.232 4.04332ZM679.585 49.815L679.88 49.9741L678.456 52.6182C672.398 63.8687 664.33 73.9143 654.652 82.2574L653.999 81.5L654.547 82.337L649.936 85.3518L651.332 87.4453L660.332 100.945L660.337 100.953L660.342 100.962L668.219 113.291C670.569 116.969 673.443 120.285 676.751 123.133L685.664 130.808C688.055 132.867 691.107 134 694.263 134H696.815C698.882 134 700.855 133.132 702.252 131.608C703.91 129.8 704.56 127.287 703.988 124.902L702.031 116.751L702.027 116.733L698.531 103.251L698.529 103.243L696.038 93.2769L688.049 68.8104L688.036 68.7715L688.027 68.7317L684.032 51.9576L684.027 51.9348L681.332 41.693C681.306 42.1696 681.267 42.6456 681.214 43.1205L681.155 43.6514C680.919 45.7783 680.388 47.8519 679.585 49.815ZM680.538 32.5615L680.967 32.4486L685.967 51.4486L685.97 51.46L685.972 51.4715L689.963 68.2281L697.443 91.1377L701.766 98.7857C703.193 101.31 704.414 103.945 705.416 106.666C706.785 110.383 707.74 114.239 708.264 118.165L708.491 119.868L708.494 119.892L708.496 119.917L708.555 120.62C708.857 124.246 707.687 127.84 705.31 130.592C704.911 131.446 704.381 132.246 703.727 132.959C701.951 134.897 699.443 136 696.815 136H694.263C690.628 136 687.113 134.695 684.359 132.323L675.446 124.649C671.991 121.673 668.989 118.21 666.534 114.368L658.667 102.055L658.657 102.038L651.499 91.3027V106.931L653.99 124.862L653.991 124.87L656.491 143.87L656.499 143.934V144V151.466C656.499 159.203 654.588 166.819 650.935 173.639C649.539 176.244 647.9 178.712 646.04 181.009L644.025 183.499C641.606 186.487 639.666 189.832 638.272 193.415L632.95 207.101C630.959 212.221 626.298 215.818 620.841 216.448C617.556 216.827 614.239 216.096 611.418 214.372L610.784 213.985C607.806 212.165 605.462 209.471 604.07 206.271L602.484 202.623C602.131 201.811 601.815 200.985 601.537 200.146C596.817 203.033 592.476 206.5 588.617 210.466L578.458 220.908C577.222 222.177 575.769 223.214 574.166 223.968L573.166 224.438C569.583 226.125 565.413 226.02 561.918 224.157C560.21 223.246 558.737 221.953 557.612 220.378L557.206 219.809C555.971 218.08 555.113 216.129 554.668 214.082L552.497 211.911C550.594 210.008 549.297 207.585 548.769 204.946C548.241 202.307 548.506 199.571 549.531 197.083L550.273 195.281C551.179 193.08 552.469 191.058 554.084 189.31L555.576 187.692C557.078 186.066 558.742 184.598 560.543 183.311L568.418 177.686L568.464 177.653L568.514 177.626L576.769 173.04L574.931 171.071C569.563 165.319 560.662 164.693 554.541 169.637L553.159 170.753C552.82 171.735 552.5 172.725 552.198 173.721L551.578 175.774C550.15 180.497 548.323 185.089 546.116 189.502C541.617 198.502 535.59 206.652 528.304 213.591L526.213 215.582C520.827 220.712 514.904 225.245 508.547 229.105L490.018 240.355L489.959 240.391L489.896 240.418L464.396 251.418L464.331 251.446L464.264 251.464L427.764 261.464L427.739 261.471L427.714 261.477L413.899 264.516C406.552 266.132 399.432 268.652 392.704 272.016C387.6 274.568 382.746 277.593 378.208 281.052L240.106 386.295L240.093 386.305L240.081 386.314L173.585 433.811L173.581 433.814L112.598 477.801L68.6109 511.791L67.4901 512.657L67.0492 511.311L1.04917 309.811L0.769531 308.958L1.58855 308.588L133.589 249.088L133.618 249.075L133.648 249.064L257.602 202.581L318.531 172.616L332.547 164.635C347.092 156.352 360.778 146.646 373.405 135.659C386.28 124.457 397.987 111.98 408.348 98.4187L426.705 74.3929L426.723 74.3697L426.742 74.3476L476.242 16.8476L476.273 16.8115L476.307 16.7786L483.89 9.49843C487.232 6.29046 491.192 3.79714 495.53 2.17066C499.357 0.735257 503.412 0 507.5 0H511.927C515.698 0 519.46 0.364563 523.16 1.0886L526.733 1.78763C535.89 3.57916 545.262 3.99847 554.542 3.03179L564.396 2.00538L564.448 2H564.499H585.999H586.034L586.069 2.00239L627.058 4.8396C635.449 5.42035 643.736 7.03073 651.733 9.63448L657.866 11.6312C660.218 12.3972 662.489 13.3939 664.646 14.6069L668.39 16.7131C674.454 20.1237 678.958 25.7524 680.957 32.4158L680.533 32.5431C680.534 32.5492 680.536 32.5554 680.538 32.5615ZM648.663 86.1842L649.499 85.6371V88V107V107.069L649.509 107.138L652.008 125.13L652.009 125.138L654.499 144.066V151.466C654.499 158.873 652.669 166.165 649.172 172.694C647.835 175.189 646.266 177.551 644.486 179.751L642.471 182.24C639.922 185.389 637.877 188.914 636.408 192.69L631.086 206.376C629.364 210.804 625.332 213.917 620.612 214.461C617.77 214.789 614.901 214.157 612.461 212.666L611.827 212.278C609.2 210.673 607.132 208.297 605.904 205.473L604.318 201.825C603.42 199.759 602.778 197.59 602.408 195.368L602.283 194.617C601.147 187.801 602.131 180.801 605.101 174.562L607.581 169.355C609.417 165.5 611.746 161.901 614.511 158.648C617.217 155.464 620.584 152.909 624.377 151.158L631.419 147.908L630.58 146.092L623.539 149.342C620.044 150.955 616.888 153.207 614.231 155.976C611.754 146.658 610.499 137.056 610.499 127.41V123.046L611.947 107.61C618.688 102.438 625.984 98.0317 633.699 94.4709C638.883 92.0783 643.884 89.3086 648.663 86.1842ZM609.782 109.275L609.71 109.33L578.51 134.588C578.236 134.81 577.964 135.033 577.693 135.258C581.099 138.495 584.982 141.191 589.206 143.252L597.712 132.384L599.287 133.616L590.401 144.97C587.951 152.979 586.353 161.223 585.635 169.564L591.552 166.606L592.447 168.394L584.947 172.144C582.683 173.276 580.545 174.644 578.569 176.225L569.741 183.287C567.717 184.907 565.848 186.713 564.161 188.681L562.968 190.073C561.554 191.723 560.347 193.54 559.375 195.484L559.315 195.606C557.776 198.683 556.866 202.035 556.637 205.467L556.343 209.882C556.135 213.004 557.015 216.101 558.833 218.647L559.239 219.215C560.185 220.539 561.424 221.626 562.859 222.392C565.797 223.959 569.302 224.047 572.315 222.629L573.314 222.158C574.7 221.506 575.956 220.61 577.024 219.513L587.183 209.071C591.285 204.856 595.913 201.189 600.955 198.161C600.747 197.348 600.573 196.526 600.435 195.697L600.31 194.945C599.107 187.726 600.149 180.31 603.296 173.702L605.775 168.495C607.609 164.644 609.917 161.038 612.644 157.761C609.894 147.879 608.499 137.669 608.499 127.41V123V122.953L608.504 122.907L609.782 109.275ZM554.482 167.196C561.342 162.576 570.651 163.554 576.394 169.707L579.505 173.04C580.799 172.149 582.148 171.339 583.544 170.615C584.202 161.941 585.794 153.363 588.293 145.032C583.836 142.853 579.744 139.996 576.163 136.563C571.304 140.814 566.973 145.639 563.266 150.934C559.717 156.004 556.771 161.462 554.482 167.196ZM706.079 125.177C706.517 123.772 706.686 122.282 706.562 120.786L706.505 120.108L706.281 118.429C705.777 114.649 704.858 110.936 703.539 107.358C702.574 104.738 701.399 102.2 700.025 99.7698L699.483 98.8106L700.468 102.749L700.47 102.757L703.968 116.249L703.97 116.258L703.972 116.267L705.932 124.435C705.991 124.681 706.04 124.929 706.079 125.177ZM569.535 179.347L575.854 175.836L568.492 181.726C566.369 183.423 564.411 185.316 562.643 187.38L561.45 188.771C559.929 190.546 558.632 192.5 557.587 194.59L557.526 194.711C555.869 198.026 554.888 201.637 554.642 205.334L554.347 209.749C554.322 210.133 554.31 210.517 554.313 210.9L553.911 210.497C552.287 208.873 551.18 206.805 550.73 204.554C550.28 202.302 550.506 199.968 551.38 197.845L552.122 196.042C552.938 194.061 554.1 192.241 555.553 190.666L557.046 189.049C558.455 187.523 560.016 186.146 561.706 184.939L569.535 179.347ZM645.931 27.3793C652.036 24.1811 658.763 22.348 665.646 22.0061L668.322 22.6965C671.311 23.468 673.969 25.1881 675.898 27.5988C677.618 29.7494 678.68 32.352 678.954 35.0924L679.253 38.0865C679.413 39.6874 679.404 41.3006 679.227 42.8997L679.168 43.4305C678.754 47.1543 677.35 50.6992 675.102 53.6966C673.586 55.7183 671.716 57.4493 669.584 58.8061L661.986 63.6413L650.467 70.0923C649.915 70.401 649.323 70.6298 648.707 70.7719C645.891 71.4219 642.976 70.1834 641.488 67.7045L630.895 50.0488C629.138 47.1198 628.834 43.5427 630.072 40.3591C630.884 38.2709 632.312 36.4789 634.166 35.2208L645.014 27.8594L645.931 27.3793ZM592.022 65.7905L591.502 68.2152C590.822 71.3905 591.08 74.6953 592.246 77.7262C592.824 79.2306 593.617 80.6434 594.6 81.9209L603.207 93.1097L604.792 91.8903L596.185 80.7015C595.32 79.5767 594.622 78.3328 594.113 77.0083C593.086 74.3396 592.859 71.43 593.458 68.6343L593.977 66.2095L592.022 65.7905Z" fill="white"/>
</svg>
