<svg width="289" height="286" viewBox="0 0 289 286" fill="none" xmlns="http://www.w3.org/2000/svg">
<path d="M190.448 152.979L135.878 153.322C135.524 153.322 135.408 153.65 135.408 153.966V200.396C135.408 204.842 104.402 216.39 104.1 215.804L104.063 220.716C104.061 221.632 104.864 222.443 105.89 222.443H106.572C106.577 222.443 106.581 222.443 106.586 222.443H152.34C154.463 222.443 156.56 221.968 158.482 221.163L183.638 210.57C188.166 208.663 191.023 204.568 191.023 200.1V153.624C191.024 153.308 190.802 152.979 190.448 152.979Z" fill="white"/>
<path d="M129.879 150.618V197.056C129.879 201.634 126.932 205.805 122.304 207.782L105.333 215.025C104.225 215.498 104.603 216.983 105.831 216.983H152.458C154.555 216.983 156.626 216.569 158.522 215.771L177.325 207.855C181.988 205.892 184.963 201.703 184.963 197.103V150.618C184.963 150.428 184.79 150.274 184.577 150.274H130.265C130.052 150.274 129.879 150.428 129.879 150.618Z" fill="#9D89FC"/>
<path d="M152.459 217.331H105.833C104.972 217.331 104.47 216.766 104.357 216.205C104.229 215.578 104.567 214.975 105.199 214.704L122.17 207.461C126.644 205.551 129.534 201.468 129.534 197.057V150.618C129.534 150.237 129.863 149.927 130.268 149.927H184.58C184.985 149.927 185.313 150.237 185.313 150.618V197.103C185.313 201.821 182.231 206.168 177.461 208.176L158.658 216.091C156.733 216.903 154.589 217.331 152.459 217.331ZM130.227 150.632V197.058C130.227 201.748 127.171 206.084 122.441 208.103L105.47 215.346C105.135 215.489 104.972 215.758 105.035 216.068C105.09 216.331 105.33 216.638 105.831 216.638H152.458C154.496 216.638 156.546 216.228 158.387 215.453L177.189 207.536C181.7 205.637 184.616 201.541 184.616 197.105V150.623C184.613 150.629 184.6 150.621 184.577 150.621H130.264C130.246 150.621 130.233 150.627 130.227 150.632Z" fill="white"/>
<path d="M27.873 177.23L263.086 177.758C265.145 177.758 267.197 176.21 267.459 174.165L286.57 26.9846C287.026 23.4183 284.264 19.8707 280.717 19.9594L48.2327 21.1876L27.873 177.23Z" fill="white"/>
<path d="M271.478 20.7948C275.525 20.7948 279.179 24.8966 278.66 28.9206L260.105 173.805C259.842 175.85 257.652 177.583 255.594 177.583L24.5449 177.208C22.0775 177.208 20.429 175.159 20.7435 172.706L39.9606 25.1364C40.2236 23.0909 41.5764 20.7964 43.6343 20.7964H271.478V20.7948Z" fill="#9D89FC"/>
<path d="M255.594 177.93L24.5439 177.555C23.2986 177.555 22.1825 177.068 21.4057 176.183C20.5962 175.263 20.2304 173.981 20.4001 172.662L39.6172 25.0899C39.9067 22.8389 41.4136 20.4479 43.6349 20.4479H271.479C273.521 20.4479 275.556 21.4301 277.062 23.1425C278.555 24.8392 279.263 26.9625 279.005 28.9644L260.45 173.848C260.169 176.023 257.901 177.93 255.594 177.93ZM43.6349 21.1421C41.8105 21.1421 40.5574 23.2219 40.3052 25.1786L21.0881 172.749C20.9418 173.886 21.2391 174.943 21.9272 175.723C22.5716 176.456 23.501 176.859 24.5455 176.859L255.596 177.234C257.542 177.234 259.528 175.578 259.762 173.76L278.317 28.8757C278.549 27.07 277.903 25.1475 276.541 23.6001C275.166 22.0372 273.322 21.1406 271.479 21.1406H43.6349V21.1421Z" fill="white"/>
<path d="M250.163 171.335L31.8617 170.989C30.7082 170.989 29.6746 170.538 28.9539 169.717C28.2051 168.866 27.8658 167.677 28.0214 166.456L45.7005 30.6943C45.9683 28.613 47.3646 26.3994 49.4241 26.3994H264.777C266.664 26.3994 268.544 27.307 269.936 28.8885C271.315 30.4561 271.969 32.416 271.731 34.2668L254.659 167.557C254.397 169.57 252.297 171.335 250.163 171.335ZM49.4225 27.0952C47.76 27.0952 46.6174 28.9959 46.387 30.7846L28.7079 166.546C28.574 167.585 28.8465 168.548 29.4722 169.26C30.0591 169.928 30.9075 170.296 31.8602 170.296L250.161 170.642C251.939 170.642 253.753 169.131 253.966 167.47L271.038 34.1797C271.251 32.5265 270.658 30.7659 269.411 29.3477C268.152 27.9156 266.461 27.0952 264.774 27.0952H49.4225Z" fill="white"/>
<path d="M241.828 45.4893H153.09C152.99 45.4893 152.895 45.4457 152.828 45.371C152.763 45.2963 152.731 45.1951 152.745 45.0955L153.343 40.6465C153.367 40.4737 153.513 40.3461 153.687 40.3461H242.425C242.525 40.3461 242.62 40.3896 242.687 40.4644C242.752 40.5391 242.783 40.6403 242.769 40.7399L242.172 45.1889C242.148 45.3617 242.002 45.4893 241.828 45.4893ZM153.486 44.795H241.524L242.028 41.0403H153.991L153.486 44.795Z" fill="white"/>
<path d="M260.978 52.4773H170.566L171.164 48.0283H261.576L260.978 52.4773Z" fill="white"/>
<path d="M249.088 60.1584H202.357C202.257 60.1584 202.163 60.1148 202.096 60.0401C202.03 59.9653 201.999 59.8642 202.013 59.7645L202.611 55.3156C202.634 55.1428 202.781 55.0151 202.955 55.0151H249.686C249.786 55.0151 249.881 55.0587 249.948 55.1334C250.013 55.2082 250.044 55.3093 250.03 55.409L249.432 59.8579C249.411 60.0292 249.263 60.1584 249.088 60.1584ZM202.754 59.4641H248.785L249.289 55.7094H203.258L202.754 59.4641Z" fill="white"/>
<path d="M233.939 104.167H145.201C145.101 104.167 145.006 104.123 144.939 104.049C144.874 103.974 144.843 103.873 144.857 103.773L145.455 99.3241C145.478 99.1513 145.624 99.0237 145.799 99.0237H234.537C234.636 99.0237 234.731 99.0673 234.798 99.142C234.864 99.2167 234.895 99.3179 234.881 99.4175L234.283 103.866C234.26 104.038 234.113 104.167 233.939 104.167ZM145.599 103.473H233.635L234.14 99.718H146.104L145.599 103.473Z" fill="white"/>
<path d="M185.925 111.501H162.677C162.578 111.501 162.483 111.457 162.416 111.382C162.351 111.308 162.319 111.206 162.333 111.107L162.931 106.658C162.955 106.485 163.101 106.357 163.275 106.357H184.304C184.496 106.357 184.651 106.513 184.651 106.705C184.651 106.896 184.496 107.052 184.304 107.052H163.579L163.074 110.806H185.925C186.116 110.806 186.272 110.962 186.272 111.154C186.272 111.345 186.116 111.501 185.925 111.501Z" fill="white"/>
<path d="M253.088 111.501H197.246C197.054 111.501 196.898 111.345 196.898 111.154C196.898 110.962 197.054 110.806 197.246 110.806H252.785L253.289 107.052H194.232C194.04 107.052 193.885 106.896 193.885 106.705C193.885 106.513 194.04 106.357 194.232 106.357H253.687C253.787 106.357 253.882 106.401 253.949 106.476C254.014 106.55 254.045 106.652 254.031 106.751L253.434 111.2C253.409 111.373 253.261 111.501 253.088 111.501Z" fill="white"/>
<path d="M252.1 118.836H203.803C203.611 118.836 203.456 118.68 203.456 118.489C203.456 118.297 203.611 118.142 203.803 118.142H251.797L252.301 114.387H201.144C200.953 114.387 200.797 114.231 200.797 114.04C200.797 113.848 200.953 113.693 201.144 113.693H252.698C252.797 113.693 252.892 113.736 252.959 113.811C253.025 113.886 253.056 113.987 253.042 114.087L252.444 118.536C252.421 118.708 252.274 118.836 252.1 118.836Z" fill="white"/>
<path d="M193.346 125.867H160.412C160.312 125.867 160.217 125.823 160.15 125.749C160.085 125.674 160.054 125.573 160.068 125.473L160.666 121.024C160.689 120.851 160.835 120.724 161.01 120.724H188.116C188.307 120.724 188.463 120.879 188.463 121.071C188.463 121.262 188.307 121.418 188.116 121.418H161.313L160.809 125.173H193.346C193.538 125.173 193.693 125.328 193.693 125.52C193.693 125.711 193.538 125.867 193.346 125.867Z" fill="white"/>
<path d="M238.869 67.1464H150.133L150.731 62.6974H239.469L238.869 67.1464Z" fill="white"/>
<path d="M245.085 74.4816H167.609L168.207 70.0326H245.202L245.085 74.4816Z" fill="white"/>
<path d="M234.244 89.4979H198.414C198.314 89.4979 198.219 89.4543 198.152 89.3796C198.087 89.3048 198.056 89.2036 198.07 89.104L198.667 84.6551C198.691 84.4823 198.837 84.3546 199.011 84.3546H234.841C234.941 84.3546 235.036 84.3982 235.103 84.4729C235.168 84.5476 235.199 84.6488 235.185 84.7485L234.588 89.1974C234.566 89.3687 234.418 89.4979 234.244 89.4979ZM198.811 88.8036H233.94L234.444 85.0489H199.315L198.811 88.8036Z" fill="white"/>
<path d="M243.971 96.4801H208.141L208.738 92.0327H244.568L243.971 96.4801Z" fill="white"/>
<path d="M242.246 81.8152H199.4L199.998 77.3678H242.424L242.246 81.8152Z" fill="white"/>
<path d="M229.994 133.159H141.258L141.856 128.71H230.594L229.994 133.159Z" fill="#9D89FC"/>
<path d="M205.577 140.84H158.732C158.632 140.84 158.538 140.797 158.471 140.722C158.405 140.647 158.374 140.546 158.388 140.446L158.986 135.997C159.009 135.825 159.156 135.697 159.33 135.697H203.981C204.173 135.697 204.329 135.853 204.329 136.044C204.329 136.236 204.173 136.391 203.981 136.391H159.633L159.129 140.146H205.577C205.768 140.146 205.924 140.302 205.924 140.493C205.924 140.685 205.768 140.84 205.577 140.84Z" fill="white"/>
<path d="M230.22 148.175H190.525C190.425 148.175 190.33 148.132 190.264 148.057C190.198 147.982 190.167 147.881 190.181 147.782L190.779 143.333C190.802 143.16 190.948 143.032 191.123 143.032H228.802C228.994 143.032 229.149 143.188 229.149 143.379C229.149 143.571 228.994 143.726 228.802 143.726H191.426L190.922 147.481H230.22C230.412 147.481 230.567 147.637 230.567 147.828C230.567 148.02 230.412 148.175 230.22 148.175Z" fill="white"/>
<path d="M227.037 155.162H138.299L138.897 150.713H227.635L227.037 155.162Z" fill="#9D89FC"/>
<path d="M229.864 162.846H155.773C155.673 162.846 155.579 162.802 155.512 162.728C155.446 162.653 155.415 162.552 155.429 162.452L156.027 158.003C156.05 157.83 156.197 157.703 156.371 157.703H230.219C230.411 157.703 230.566 157.858 230.566 158.05C230.566 158.241 230.411 158.397 230.219 158.397H156.676L156.172 162.152H229.866C230.057 162.152 230.213 162.307 230.213 162.499C230.212 162.69 230.057 162.846 229.864 162.846Z" fill="white"/>
<path d="M138.808 96.3999H130.164L130.738 92.1252H139.383L138.808 96.3999Z" fill="white"/>
<path d="M146.026 45.1451H137.016L137.613 40.6962H146.623L146.026 45.1451Z" fill="white"/>
<path d="M146.932 38.4033H137.922L138.521 33.9543H147.53L146.932 38.4033Z" fill="white"/>
<path d="M144.969 52.4802H136.029L136.627 48.0312H145.567L144.969 52.4802Z" fill="white"/>
<path d="M143.681 59.8154H135.195L135.793 55.3665H144.278L143.681 59.8154Z" fill="white"/>
<path d="M142.74 67.1492H134.102L134.699 62.7018H143.337L142.74 67.1492Z" fill="white"/>
<path d="M141.708 74.4845H133.07L133.67 70.0355H142.306L141.708 74.4845Z" fill="white"/>
<path d="M139.992 88.8588H131.432L132.031 84.4114H140.59L139.992 88.8588Z" fill="white"/>
<path d="M140.764 81.5238H132.58L133.179 77.0748H141.361L140.764 81.5238Z" fill="white"/>
<path d="M135.814 118.679H127.17L127.744 114.406H136.389L135.814 118.679Z" fill="white"/>
<path d="M136.998 111.139H128.438L129.037 106.69H137.595L136.998 111.139Z" fill="white"/>
<path d="M137.767 103.803H129.584L130.182 99.3544H138.365L137.767 103.803Z" fill="white"/>
<path d="M129.982 162.065H121.338L121.912 157.792H130.556L129.982 162.065Z" fill="white"/>
<path d="M134.854 125.48H126.367L126.967 121.031H135.452L134.854 125.48Z" fill="white"/>
<path d="M133.912 132.815H125.275L125.873 128.366H134.511L133.912 132.815Z" fill="white"/>
<path d="M132.882 140.15H124.244L124.842 135.701H133.48L132.882 140.15Z" fill="white"/>
<path d="M131.162 154.525H122.602L123.199 150.076H131.759L131.162 154.525Z" fill="white"/>
<path d="M131.933 147.189H123.75L124.348 142.742H132.531L131.933 147.189Z" fill="white"/>
<path d="M100.207 37.4277H57.4922L58.0666 33.1531H100.782L100.207 37.4277Z" fill="white"/>
<path d="M107.714 45.1978H62.6872C62.5875 45.1978 62.491 45.1542 62.4256 45.0795C62.3603 45.0048 62.3291 44.9036 62.3431 44.804L62.9409 40.355C62.9643 40.1822 63.1106 40.0546 63.2849 40.0546H108.312C108.411 40.0546 108.508 40.0982 108.573 40.1729C108.639 40.2476 108.67 40.3488 108.656 40.4484L108.058 44.8974C108.035 45.0686 107.888 45.1978 107.714 45.1978ZM63.0841 44.5035H107.41L107.915 40.7488H63.5885L63.0841 44.5035Z" fill="white"/>
<path d="M119.483 52.5315H67.0251C66.9254 52.5315 66.8289 52.488 66.7635 52.4132C66.6982 52.3385 66.667 52.2373 66.681 52.1377L67.2788 47.6887C67.3022 47.516 67.4485 47.3883 67.6228 47.3883H120.081C120.181 47.3883 120.277 47.4319 120.343 47.5066C120.408 47.5813 120.439 47.6825 120.425 47.7821L119.827 52.2311C119.804 52.4023 119.658 52.5315 119.483 52.5315ZM67.422 51.8373H119.18L119.684 48.0826H67.9264L67.422 51.8373Z" fill="white"/>
<path d="M126.208 59.8654H82.4333C82.3336 59.8654 82.2371 59.8218 82.1717 59.7471C82.1064 59.6724 82.0752 59.5712 82.0892 59.4716L82.687 55.0226C82.7104 54.8498 82.8567 54.7222 83.031 54.7222H126.808C126.907 54.7222 127.004 54.7658 127.069 54.8405C127.135 54.9152 127.166 55.0164 127.152 55.116L126.554 59.565C126.531 59.7378 126.383 59.8654 126.208 59.8654ZM82.8302 59.1711H125.906L126.411 55.4164H83.3346L82.8302 59.1711Z" fill="white"/>
<path d="M84.2021 96.1036H49.6035L50.1779 91.8306H84.7765L84.2021 96.1036Z" fill="white"/>
<path d="M84.7397 103.874H59.4391C59.3395 103.874 59.243 103.83 59.1776 103.756C59.1122 103.681 59.0811 103.58 59.0951 103.48L59.6929 99.0311C59.7162 98.8584 59.8625 98.7307 60.0369 98.7307H85.3374C85.4371 98.7307 85.5336 98.7743 85.599 98.849C85.6644 98.9237 85.6955 99.0249 85.6815 99.1245L85.0837 103.574C85.0604 103.745 84.914 103.874 84.7397 103.874ZM59.8361 103.18H84.4361L84.9405 99.425H60.3404L59.8361 103.18Z" fill="white"/>
<path d="M93.8 111.209H69.5798C69.4801 111.209 69.3836 111.166 69.3182 111.091C69.2529 111.016 69.2217 110.915 69.2357 110.815L69.8335 106.366C69.8568 106.194 70.0032 106.066 70.1775 106.066H94.3978C94.4974 106.066 94.5939 106.11 94.6593 106.184C94.7246 106.259 94.7558 106.36 94.7418 106.46L94.144 110.909C94.1207 111.08 93.9743 111.209 93.8 111.209ZM69.9767 110.515H93.4964L94.0008 106.76H70.4811L69.9767 110.515Z" fill="white"/>
<path d="M109.835 118.543H79.1852C79.0856 118.543 78.9891 118.499 78.9237 118.425C78.8583 118.35 78.8272 118.249 78.8412 118.149L79.439 113.7C79.4623 113.527 79.6086 113.4 79.783 113.4H110.432C110.532 113.4 110.628 113.443 110.694 113.518C110.759 113.593 110.79 113.694 110.776 113.794L110.179 118.243C110.155 118.415 110.009 118.543 109.835 118.543ZM79.5822 117.849H109.531L110.035 114.094H80.0865L79.5822 117.849Z" fill="white"/>
<path d="M85.0256 66.8534H54.0898L54.6892 62.4044H85.6233L85.0256 66.8534Z" fill="white"/>
<path d="M123.471 74.5359H75.6715C75.5719 74.5359 75.4754 74.4924 75.41 74.4176C75.3446 74.3429 75.3135 74.2417 75.3275 74.1421L75.9253 69.6931C75.9486 69.5203 76.095 69.3927 76.2693 69.3927H124.068C124.168 69.3927 124.265 69.4363 124.33 69.511C124.395 69.5857 124.426 69.6869 124.412 69.7865L123.815 74.2355C123.791 74.4067 123.645 74.5359 123.471 74.5359ZM76.0685 73.8417H123.167L123.671 70.087H76.5729L76.0685 73.8417Z" fill="white"/>
<path d="M83.44 81.5113H52.5059L53.1036 77.0624H84.0378L83.44 81.5113Z" fill="white"/>
<path d="M121.885 89.1926H74.0856C73.986 89.1926 73.8895 89.149 73.8241 89.0742C73.7587 88.9995 73.7276 88.8983 73.7416 88.7987L74.3393 84.3498C74.3627 84.177 74.509 84.0493 74.6834 84.0493H122.482C122.582 84.0493 122.679 84.0929 122.744 84.1676C122.809 84.2423 122.841 84.3435 122.827 84.4431L122.229 88.8921C122.207 89.0634 122.059 89.1926 121.885 89.1926ZM74.4826 88.4983H121.581L122.086 84.7436H74.9869L74.4826 88.4983Z" fill="white"/>
<path d="M84.122 125.443H45.6582L46.2326 121.17H84.6964L84.122 125.443Z" fill="white"/>
<path d="M109.023 133.212H46.2126C46.1129 133.212 46.0164 133.168 45.951 133.094C45.8857 133.019 45.8545 132.918 45.8685 132.818L46.4663 128.369C46.4897 128.196 46.636 128.069 46.8103 128.069H109.62C109.72 128.069 109.817 128.112 109.882 128.187C109.947 128.262 109.978 128.363 109.964 128.463L109.367 132.912C109.343 133.083 109.197 133.212 109.023 133.212ZM46.6095 132.518H108.719L109.223 128.763H47.1139L46.6095 132.518Z" fill="white"/>
<path d="M108.808 140.549H72.7497C72.65 140.549 72.5535 140.505 72.4881 140.43C72.4228 140.355 72.3916 140.254 72.4056 140.155L73.0034 135.706C73.0268 135.533 73.1731 135.405 73.3474 135.405H109.408C109.507 135.405 109.604 135.449 109.669 135.524C109.735 135.598 109.766 135.699 109.752 135.799L109.154 140.248C109.129 140.419 108.983 140.549 108.808 140.549ZM73.1466 139.854H108.506L109.011 136.1H73.651L73.1466 139.854Z" fill="white"/>
<path d="M93.686 154.87H69.5716L67.6211 150.423H94.2838L93.686 154.87Z" fill="white"/>
<path d="M116.019 147.303H81.4313C81.3317 147.303 81.2352 147.259 81.1698 147.184C81.1044 147.11 81.0733 147.009 81.0873 146.909L81.6851 142.46C81.7084 142.287 81.8547 142.16 82.0291 142.16H116.615C116.715 142.16 116.811 142.203 116.877 142.278C116.942 142.353 116.973 142.454 116.959 142.553L116.361 147.002C116.34 147.174 116.192 147.303 116.019 147.303ZM81.8283 146.609H115.714L116.218 142.854H82.3326L81.8283 146.609Z" fill="white"/>
<path d="M100.816 162.552H73.2162C73.0247 162.552 72.869 162.396 72.869 162.204C72.869 162.013 73.0247 161.857 73.2162 161.857H100.511L101.015 158.103H71.935C71.7436 158.103 71.5879 157.947 71.5879 157.755C71.5879 157.564 71.7436 157.408 71.935 157.408H101.415C101.515 157.408 101.611 157.452 101.677 157.527C101.742 157.601 101.773 157.703 101.759 157.802L101.162 162.251C101.138 162.422 100.99 162.552 100.816 162.552Z" fill="white"/>
<path d="M274.53 260.085L273.664 268.394L268.082 269.053V259.199L274.53 260.085Z" fill="#9D89FC"/>
<path d="M268.083 269.4C267.999 269.4 267.917 269.369 267.853 269.313C267.778 269.247 267.736 269.152 267.736 269.053V259.201C267.736 259.101 267.78 259.004 267.855 258.939C267.931 258.874 268.031 258.843 268.13 258.857L274.578 259.741C274.763 259.766 274.895 259.934 274.875 260.121L274.008 268.43C273.991 268.592 273.865 268.72 273.703 268.738L268.121 269.397C268.111 269.398 268.097 269.4 268.083 269.4ZM268.431 259.598V268.662L273.348 268.081L274.151 260.382L268.431 259.598Z" fill="#051A2F"/>
<path d="M267.2 283.514C269.527 283.844 273.343 284.133 277.823 283.509C279.288 283.305 280.259 281.871 279.906 280.427C278.92 276.394 277.221 268.739 274.305 265.192L273.581 267.116L272.58 265.305C272.443 265.058 272.197 264.89 271.917 264.854L269.725 264.574C269.267 264.515 268.843 264.82 268.748 265.274L268.399 266.943L267.063 264.756L266.47 272.927C266.343 274.678 266.079 276.415 265.684 278.125L265.086 280.702C264.907 282.064 265.849 283.322 267.2 283.514Z" fill="#9D89FC"/>
<path d="M272.478 284.225C270.342 284.225 268.523 284.052 267.153 283.858C265.621 283.641 264.541 282.204 264.743 280.657L265.347 278.046C265.738 276.359 265.999 274.628 266.125 272.902L266.719 264.731C266.729 264.58 266.837 264.454 266.983 264.418C267.129 264.382 267.282 264.446 267.361 264.575L268.241 266.015L268.411 265.204C268.541 264.577 269.141 264.147 269.773 264.229L271.965 264.508C272.352 264.558 272.698 264.793 272.888 265.135L273.524 266.287L273.984 265.069C274.027 264.953 274.13 264.869 274.251 264.849C274.374 264.829 274.497 264.876 274.577 264.97C277.344 268.338 279.029 275.307 280.036 279.471L280.248 280.344C280.439 281.129 280.29 281.963 279.835 282.631C279.384 283.297 278.669 283.742 277.874 283.853C275.931 284.124 274.113 284.225 272.478 284.225ZM267.332 265.861L266.817 272.952C266.689 274.714 266.421 276.48 266.023 278.202L265.425 280.78C265.277 281.919 266.094 283.006 267.249 283.17C269.623 283.506 273.375 283.778 277.776 283.165C278.376 283.081 278.915 282.745 279.257 282.24C279.602 281.734 279.715 281.102 279.569 280.508L279.357 279.633C278.412 275.721 276.86 269.301 274.41 265.897L273.906 267.237C273.859 267.363 273.741 267.452 273.605 267.461C273.465 267.469 273.342 267.4 273.277 267.282L272.276 265.472C272.192 265.321 272.042 265.218 271.873 265.198L269.681 264.918C269.404 264.882 269.144 265.07 269.086 265.346L268.738 267.014C268.708 267.154 268.597 267.262 268.457 267.285C268.317 267.31 268.176 267.246 268.102 267.123L267.332 265.861Z" fill="#051A2F"/>
<path d="M272.307 281.757C269.469 281.757 267.743 281.15 267.637 281.111C267.456 281.046 267.365 280.847 267.428 280.668C267.494 280.487 267.692 280.394 267.872 280.459C267.909 280.473 271.594 281.759 277.032 280.512C277.218 280.468 277.405 280.585 277.447 280.772C277.489 280.959 277.374 281.146 277.186 281.188C275.336 281.614 273.689 281.757 272.307 281.757Z" fill="#051A2F"/>
<path d="M275.001 275.374C274.997 275.374 274.993 275.374 274.989 275.374L269.757 275.199C269.565 275.193 269.414 275.033 269.422 274.841C269.428 274.65 269.595 274.496 269.78 274.505L275.012 274.679C275.204 274.686 275.355 274.846 275.347 275.037C275.342 275.226 275.188 275.374 275.001 275.374Z" fill="#051A2F"/>
<path d="M248.389 255.657L247.552 267.783H240.836L240.523 255.657H248.389Z" fill="#9D89FC"/>
<path d="M247.553 268.13H240.836C240.648 268.13 240.494 267.981 240.489 267.792L240.176 255.666C240.173 255.573 240.209 255.482 240.274 255.415C240.339 255.348 240.43 255.311 240.523 255.311H248.389C248.485 255.311 248.577 255.352 248.643 255.422C248.708 255.492 248.742 255.587 248.735 255.682L247.899 267.808C247.888 267.989 247.737 268.13 247.553 268.13ZM241.175 267.436H247.229L248.018 256.004H240.881L241.175 267.436Z" fill="#051A2F"/>
<path d="M249.306 274.632C249.323 275.779 248.545 276.786 247.435 277.046C243.575 277.951 234.876 279.965 232.395 280.337C229.174 280.82 225.217 279.827 223.515 277.931C221.814 276.034 227.326 271.508 229.941 269.861C233.827 267.414 237.56 262.579 239.126 262.361C240.692 262.143 243.614 266.715 243.614 266.715L248.389 264.696C248.388 264.694 249.219 268.813 249.306 274.632Z" fill="#9D89FC"/>
<path d="M230.711 280.806C227.75 280.806 224.699 279.769 223.256 278.162C222.923 277.79 222.792 277.326 222.869 276.782C223.202 274.397 227.652 270.891 229.755 269.566C231.664 268.365 233.516 266.596 235.151 265.035C236.91 263.355 238.182 262.141 239.077 262.017C240.646 261.797 242.986 265.13 243.744 266.28L248.252 264.375C248.348 264.334 248.457 264.339 248.549 264.387C248.641 264.436 248.706 264.523 248.728 264.626C248.736 264.668 249.567 268.844 249.653 274.627C249.672 275.93 248.772 277.09 247.512 277.384C243.817 278.25 234.949 280.304 232.444 280.679C231.88 280.764 231.297 280.806 230.711 280.806ZM239.243 262.698C239.218 262.698 239.195 262.7 239.172 262.703C238.498 262.796 237.105 264.127 235.629 265.536C233.971 267.119 232.092 268.914 230.124 270.153C227.972 271.509 223.835 274.873 223.555 276.877C223.509 277.213 223.579 277.482 223.773 277.697C225.361 279.465 229.125 280.474 232.343 279.991C234.822 279.619 243.667 277.571 247.355 276.707C248.299 276.486 248.974 275.614 248.959 274.635C248.89 269.966 248.331 266.367 248.124 265.18L243.747 267.031C243.591 267.096 243.411 267.04 243.319 266.898C242.184 265.125 240.201 262.698 239.243 262.698Z" fill="#051A2F"/>
<path d="M230.762 277.831C228.662 277.831 226.784 277.487 225.428 276.598C225.268 276.493 225.223 276.278 225.329 276.117C225.433 275.957 225.649 275.912 225.81 276.018C230.791 279.282 244.066 274.452 246.677 273.451C246.856 273.382 247.057 273.471 247.125 273.65C247.194 273.829 247.105 274.03 246.926 274.098C244.169 275.155 236.608 277.831 230.762 277.831Z" fill="#051A2F"/>
<path d="M238.221 271.234C238.134 271.234 238.045 271.202 237.978 271.135L235.196 268.411C235.059 268.277 235.056 268.057 235.192 267.92C235.326 267.783 235.547 267.782 235.682 267.916L238.464 270.64C238.601 270.774 238.604 270.993 238.468 271.13C238.401 271.199 238.311 271.234 238.221 271.234Z" fill="#051A2F"/>
<path d="M276.437 176.606C276.437 176.606 278.518 214.514 279.608 227.599C280.697 240.684 277.061 261.72 277.061 261.72L266.694 261.172C266.694 261.172 265.984 235.596 265.213 228.494C265.213 228.494 260.834 218.866 259.536 210.279C258.238 201.693 253.817 188.128 253.817 188.128C253.817 188.128 250.227 255.828 249.88 261.145C249.88 261.145 241.751 261.509 238.835 259.663C238.835 259.663 233.67 234.978 234.413 221.548C235.154 208.117 234.34 174.748 234.34 174.748L276.437 176.606Z" fill="#9D89FC"/>
<path d="M277.063 262.067C277.057 262.067 277.05 262.067 277.044 262.067L266.677 261.519C266.496 261.509 266.353 261.363 266.348 261.182C266.342 260.927 265.634 235.67 264.876 228.587C264.528 227.811 260.436 218.544 259.195 210.332C258.197 203.724 255.305 194.045 254.064 190.057C253.478 201.106 250.539 256.413 250.229 261.17C250.218 261.346 250.075 261.486 249.897 261.494C249.559 261.509 241.625 261.841 238.652 259.959C238.572 259.909 238.516 259.828 238.498 259.736C238.446 259.489 233.333 234.853 234.067 221.531C234.799 208.268 234.002 175.092 233.994 174.759C233.991 174.663 234.03 174.571 234.099 174.502C234.167 174.435 234.261 174.401 234.357 174.403L276.454 176.26C276.633 176.268 276.776 176.409 276.786 176.588C276.807 176.967 278.879 214.641 279.955 227.572C281.035 240.552 277.441 261.57 277.404 261.782C277.376 261.947 277.229 262.067 277.063 262.067ZM267.033 260.842L276.772 261.357C277.209 258.723 280.265 239.668 279.264 227.628C278.24 215.318 276.312 180.617 276.11 176.939L234.698 175.111C234.784 178.814 235.453 209.037 234.762 221.567C234.061 234.261 238.723 257.375 239.148 259.445C241.711 260.935 248.074 260.849 249.556 260.809C249.997 253.65 253.437 188.776 253.473 188.109C253.482 187.943 253.608 187.806 253.775 187.784C253.938 187.762 254.099 187.862 254.15 188.021C254.194 188.156 258.594 201.71 259.882 210.226C261.157 218.665 265.489 228.254 265.531 228.349C265.546 228.383 265.556 228.419 265.56 228.455C266.275 235.06 266.947 257.864 267.033 260.842Z" fill="#051A2F"/>
<path d="M270.294 228.838H267.124C266.933 228.838 266.777 228.682 266.777 228.491C266.777 228.299 266.933 228.144 267.124 228.144H270.294C270.485 228.144 270.641 228.299 270.641 228.491C270.641 228.682 270.485 228.838 270.294 228.838Z" fill="#051A2F"/>
<path d="M244.551 248.529C244.363 248.529 244.207 248.378 244.204 248.188C244.093 242.112 237.144 230.688 237.074 230.573C236.975 230.409 237.026 230.196 237.189 230.095C237.353 229.995 237.566 230.046 237.666 230.21C237.957 230.685 244.784 241.91 244.898 248.174C244.901 248.365 244.749 248.524 244.557 248.527C244.554 248.529 244.552 248.529 244.551 248.529Z" fill="#051A2F"/>
<path d="M227.954 116.64C227.379 116.594 222.602 124.797 220.354 128.713C219.716 129.826 218.29 130.189 217.202 129.516L199.635 118.671C198.201 117.785 196.97 116.601 196.043 115.189C194.577 112.953 193.704 110.681 191.739 109.093C190.142 107.801 188.525 106.366 188.041 105.99C187.739 105.755 186.328 106.758 187.39 108.539C187.715 109.085 188.934 110.195 189.269 110.698C189.801 111.501 189.801 112.57 189.21 113.33C188.579 114.14 188.053 115.438 188.761 117.245C189.807 119.916 192.181 120.578 193.525 120.734C194.2 120.811 194.82 121.138 195.268 121.652L211.479 140.228C213.995 143.109 218.199 143.76 221.458 141.771C226.728 138.551 233.514 132.063 238.402 123.863L227.954 116.64Z" fill="#9D89FC"/>
<path d="M217.38 143.269C215.086 143.269 212.824 142.299 211.216 140.458L195.005 121.882C194.612 121.432 194.072 121.147 193.484 121.08C192.078 120.918 189.553 120.221 188.437 117.374C187.659 115.386 188.278 113.963 188.935 113.119C189.426 112.489 189.444 111.594 188.979 110.892C188.84 110.683 188.495 110.317 188.158 109.964C187.729 109.511 187.285 109.044 187.091 108.717C186.322 107.428 186.695 106.401 187.246 105.912C187.598 105.601 188.003 105.523 188.252 105.716C188.46 105.878 188.868 106.226 189.385 106.667C190.079 107.262 191.032 108.074 191.957 108.821C193.395 109.984 194.254 111.477 195.165 113.059C195.531 113.694 195.909 114.351 196.332 114.997C197.218 116.346 198.423 117.514 199.816 118.375L217.383 129.22C217.829 129.496 218.353 129.577 218.859 129.447C219.367 129.318 219.791 128.996 220.053 128.54C227.117 116.227 227.632 116.269 227.981 116.293C228.042 116.298 228.101 116.32 228.151 116.354L238.596 123.579C238.747 123.683 238.791 123.885 238.697 124.043C233.442 132.86 226.437 139.136 221.635 142.069C220.311 142.875 218.839 143.269 217.38 143.269ZM187.891 106.314C187.796 106.349 187.607 106.482 187.478 106.732C187.318 107.045 187.223 107.581 187.688 108.362C187.844 108.622 188.278 109.081 188.663 109.486C189.035 109.878 189.387 110.249 189.558 110.507C190.187 111.458 190.157 112.679 189.483 113.544C188.689 114.564 188.554 115.767 189.083 117.118C190.067 119.626 192.312 120.244 193.563 120.389C194.324 120.476 195.022 120.845 195.528 121.424L211.739 140C214.145 142.758 218.157 143.38 221.273 141.474C225.954 138.615 232.763 132.525 237.934 123.963L227.948 117.056C227.332 117.688 225.146 121.058 220.657 128.885C220.301 129.506 219.723 129.945 219.032 130.121C218.342 130.297 217.628 130.187 217.021 129.812L199.454 118.966C197.975 118.053 196.695 116.812 195.753 115.378C195.318 114.715 194.935 114.049 194.564 113.404C193.688 111.882 192.86 110.444 191.521 109.362C190.588 108.608 189.633 107.791 188.935 107.195C188.476 106.801 188.102 106.483 187.891 106.314Z" fill="#051A2F"/>
<path d="M288.247 131.893C288.247 131.893 289.416 110.298 273.09 104.231C260.448 99.5331 244.306 101.56 239.246 103.314C226.79 107.636 220.658 124.094 220.658 124.094L235.257 126.152C235.257 126.152 230.856 173.441 232.764 183.987C232.764 183.987 244.513 185.366 249.496 183.391C254.478 181.416 270.862 178.648 278.694 182.27L277.271 131.691L288.247 131.893Z" fill="#051A2F"/>
<path d="M241.055 184.808C236.865 184.808 233.001 184.364 232.726 184.332C232.573 184.314 232.452 184.199 232.424 184.048C230.592 173.919 234.461 131.009 234.882 126.448L220.61 124.437C220.506 124.423 220.414 124.361 220.36 124.27C220.305 124.18 220.296 124.07 220.333 123.972C220.395 123.805 226.666 107.311 239.133 102.986C244.656 101.071 260.835 99.3061 273.212 103.905C279.994 106.425 284.806 112.074 287.125 120.24C288.869 126.383 288.596 131.855 288.595 131.911C288.584 132.094 288.431 132.239 288.248 132.239C288.246 132.239 288.243 132.239 288.241 132.239L277.629 132.043L279.043 182.26C279.046 182.379 278.987 182.493 278.887 182.56C278.788 182.625 278.66 182.636 278.549 182.585C270.73 178.969 254.525 181.771 249.623 183.714C247.488 184.56 244.18 184.808 241.055 184.808ZM233.064 183.67C234.807 183.855 244.928 184.828 249.37 183.067C254.247 181.134 270.167 178.374 278.335 181.732L276.926 131.699C276.923 131.604 276.96 131.512 277.025 131.445C277.092 131.378 277.192 131.344 277.279 131.342L287.911 131.539C287.964 128.794 287.762 110.052 272.97 104.555C260.757 100.016 244.804 101.753 239.362 103.641C228.281 107.485 222.187 121.268 221.146 123.811L235.307 125.807C235.49 125.833 235.621 125.998 235.604 126.184C235.559 126.652 231.297 172.803 233.064 183.67Z" fill="#9D89FC"/>
<path d="M267.901 172.192C267.88 172.192 267.86 172.191 267.84 172.188C248.783 168.797 243.209 155.443 243.154 155.309C243.083 155.131 243.168 154.929 243.347 154.857C243.523 154.786 243.727 154.871 243.799 155.049C243.852 155.18 249.3 168.184 267.961 171.503C268.15 171.537 268.276 171.716 268.243 171.906C268.212 172.074 268.066 172.192 267.901 172.192Z" fill="#9D89FC"/>
<path d="M233.065 149.287H256.983L249.491 122.395H225.574L233.065 149.287Z" fill="#9D89FC"/>
<path d="M256.983 149.634H233.065C232.909 149.634 232.772 149.53 232.73 149.381L225.24 122.488C225.21 122.383 225.232 122.271 225.297 122.184C225.363 122.097 225.465 122.047 225.574 122.047H249.492C249.648 122.047 249.785 122.151 249.827 122.301L257.318 149.194C257.347 149.298 257.326 149.41 257.26 149.497C257.193 149.584 257.091 149.634 256.983 149.634ZM233.328 148.94H256.525L249.228 122.741H226.03L233.328 148.94Z" fill="#051A2F"/>
<path d="M285.412 131.912L274.893 131.434C274.893 131.434 274.814 140.349 273.866 140.51C270.485 141.076 263.403 141.106 258.796 140.546C257.191 140.351 255.92 139.115 255.618 137.516C255.391 136.31 254.741 134.892 253.094 133.871C251.501 132.884 253.072 135.988 251.582 137.986C250.782 139.06 248.249 138.584 244.796 137.779C241.342 136.975 240.466 140.689 244.336 142.933C248.533 145.368 251.198 145.094 252.536 145.379C255.201 145.947 278.768 149.665 282.406 147.675C285.217 146.137 285.412 131.912 285.412 131.912Z" fill="#9D89FC"/>
<path d="M277.834 148.608C269.428 148.608 253.798 146.002 252.465 145.719C252.198 145.661 251.855 145.627 251.46 145.587C249.894 145.426 247.526 145.185 244.164 143.235C241.727 141.821 241.13 139.883 241.606 138.681C241.958 137.796 243.001 137.005 244.877 137.441C247.99 138.168 250.624 138.694 251.306 137.778C251.97 136.885 251.961 135.707 251.953 134.846C251.947 134.136 251.942 133.622 252.324 133.407C252.644 133.227 253.021 133.417 253.276 133.574C254.723 134.469 255.65 135.809 255.96 137.45C256.237 138.92 257.394 140.023 258.838 140.199C263.379 140.75 270.328 140.738 273.758 140.174C274.203 139.631 274.513 135.25 274.547 131.43C274.548 131.335 274.587 131.247 274.656 131.181C274.724 131.116 274.816 131.082 274.909 131.086L285.428 131.564C285.615 131.572 285.763 131.728 285.759 131.916C285.739 133.393 285.478 146.388 282.574 147.978C281.753 148.429 280.042 148.608 277.834 148.608ZM243.89 138.015C243.086 138.015 242.487 138.34 242.25 138.937C241.88 139.871 242.43 141.426 244.511 142.634C247.746 144.51 250.023 144.743 251.53 144.896C251.945 144.938 252.305 144.975 252.609 145.039C255.325 145.618 278.748 149.279 282.24 147.369C284.34 146.22 284.975 136.371 285.059 132.245L275.236 131.798C275.224 132.522 275.188 134.231 275.082 135.934C274.811 140.338 274.362 140.778 273.923 140.851C270.459 141.432 263.371 141.451 258.754 140.889C257.009 140.677 255.611 139.346 255.278 137.579C255.001 136.114 254.206 134.966 252.912 134.164C252.8 134.095 252.725 134.061 252.679 134.044C252.641 134.204 252.644 134.566 252.648 134.839C252.655 135.744 252.666 137.112 251.861 138.193C250.926 139.449 248.311 138.954 244.718 138.116C244.424 138.049 244.147 138.015 243.89 138.015Z" fill="#051A2F"/>
<path d="M249.193 103.699C249.193 103.699 251.917 102.024 251.889 101.044L252.666 96.0139C252.674 95.5531 252.391 95.1406 251.961 94.9896L248.74 93.8844C248.329 93.7396 248.065 93.3349 248.093 92.8943L248.343 88.8968L247.081 87.7791C246.981 87.6919 246.97 87.5409 247.054 87.4382L249.049 85.0082C249.701 84.0898 250.355 81.8933 250.888 82.0443C250.888 82.0443 262.251 80.7321 262.803 86.4606C262.884 87.2903 262.634 88.1185 262.153 88.7956L261.147 90.2137C260.137 91.6381 259.604 93.3847 259.783 95.1297C259.821 95.4924 260.292 97.8274 260.608 99.3716C260.787 100.248 261.275 101.028 261.98 101.571C262.867 102.255 263.947 103.125 263.771 103.182C263.771 103.182 262.514 104.107 260.527 104.926C257 106.38 252.988 106.019 249.729 104.029L249.193 103.699Z" fill="#9D89FC"/>
<path d="M256.051 106.154C253.796 106.154 251.539 105.537 249.555 104.325L249.014 103.995C248.912 103.932 248.848 103.82 248.848 103.699C248.848 103.577 248.91 103.465 249.013 103.403C250.241 102.646 251.558 101.533 251.544 101.052C251.544 101.032 251.545 101.01 251.549 100.99L252.322 95.987C252.319 95.6834 252.131 95.4157 251.849 95.3161L248.631 94.2108C248.074 94.0147 247.713 93.4636 247.75 92.8705L247.99 89.0427L246.855 88.0371C246.616 87.8238 246.586 87.4642 246.79 87.2152L248.784 84.7852C248.997 84.4832 249.24 83.9633 249.474 83.462C249.953 82.4315 250.339 81.6096 250.909 81.689C251.644 81.6096 258.401 80.962 261.563 83.5165C262.506 84.2793 263.042 85.2569 263.155 86.4228C263.241 87.3117 262.989 88.2239 262.442 88.9929L261.437 90.411C260.433 91.826 259.97 93.4885 260.135 95.0904C260.151 95.2414 260.278 95.9885 260.956 99.298C261.117 100.092 261.56 100.8 262.199 101.292C264.206 102.838 264.181 102.981 264.141 103.218C264.125 103.31 264.064 103.398 263.985 103.456C263.932 103.495 262.669 104.415 260.668 105.241C259.19 105.853 257.621 106.154 256.051 106.154ZM249.847 103.689L249.916 103.731C253.097 105.673 257.017 106 260.401 104.603C261.793 104.029 262.828 103.397 263.295 103.09C263.09 102.897 262.662 102.53 261.774 101.846C261.002 101.252 260.47 100.397 260.274 99.4413C259.752 96.8961 259.474 95.4577 259.442 95.1651C259.26 93.3951 259.766 91.5645 260.868 90.0125L261.874 88.5944C262.322 87.9608 262.531 87.2152 262.461 86.4929C262.366 85.5059 261.928 84.7105 261.124 84.0598C258.074 81.594 251.001 82.3801 250.931 82.3879C250.907 82.391 250.884 82.391 250.861 82.3895C250.669 82.5342 250.316 83.2955 250.099 83.7578C249.853 84.2871 249.598 84.835 249.332 85.2086L247.385 87.5825L248.574 88.6364C248.653 88.708 248.697 88.8107 248.691 88.9182L248.44 92.9157C248.421 93.2006 248.593 93.4636 248.856 93.557L252.073 94.6623C252.646 94.8646 253.021 95.411 253.012 96.0212C253.012 96.0368 253.01 96.0524 253.007 96.0679L252.234 101.071C252.221 101.968 250.696 103.118 249.847 103.689Z" fill="#051A2F"/>
<path d="M250.513 73.3246C253.102 73.1922 249.828 75.8588 259.419 73.1035C263.239 72.0061 261.276 76.4862 262.268 76.2044C265.929 75.163 265.804 75.1941 267.584 75.6798C268.762 76.002 269.514 78.2063 269.279 79.8486C268.969 82.0155 266.537 85.4557 264.361 89.0936C263.234 90.9772 261.239 91.1469 258.824 88.3449C258.567 88.046 259.881 86.2901 259.195 85.532C257.414 83.5628 256.621 86.5376 255.183 85.6191C253.802 84.7381 253.233 84.1668 251.772 82.8343C250.007 81.2216 247.042 83.7325 246.019 80.1007C245.488 78.2047 246.969 73.5067 250.513 73.3246Z" fill="#051A2F"/>
<path d="M165.765 271.765C165.765 271.765 166.557 271.768 167.317 271.229C169.666 269.564 174.549 265.843 177.885 266.309C183.472 267.087 184.134 271.65 184.134 271.65C184.134 271.65 188.846 271.475 188.752 274.61C188.681 277.017 187.309 280.074 183.5 281.757C178.307 284.05 173.102 285.798 167.354 282.034C166.238 281.304 164.915 280.963 163.589 281.095C160.36 281.421 112.247 282.458 112.247 282.458C101.241 282.458 91.1429 276.351 86.0323 266.603L75.8906 247.26L87.5096 214.795L105.729 257.121C114.557 269.167 164.845 271.973 165.765 271.765Z" fill="#9D89FC"/>
<path d="M174.371 284.561C172.043 284.561 169.643 283.948 167.165 282.324C166.108 281.632 164.85 281.319 163.625 281.442C160.42 281.764 114.221 282.762 112.255 282.805C101.076 282.805 90.9127 276.66 85.7259 266.764L75.5842 247.421C75.5391 247.335 75.5328 247.234 75.5655 247.142L87.1845 214.678C87.2328 214.544 87.3573 214.452 87.5005 214.447C87.6422 214.44 87.7745 214.527 87.8305 214.658L106.034 256.946C114.59 268.507 163.76 271.666 165.705 271.425C165.729 271.418 165.739 271.418 165.765 271.418C165.785 271.418 166.47 271.404 167.116 270.947L167.661 270.558C170.294 268.672 174.699 265.514 177.934 265.965C182.867 266.652 184.142 270.237 184.414 271.302C185.169 271.316 187.191 271.46 188.318 272.581C188.862 273.121 189.125 273.806 189.101 274.62C189.065 275.819 188.566 279.901 183.642 282.075C180.681 283.381 177.594 284.561 174.371 284.561ZM164.149 280.72C165.339 280.72 166.525 281.074 167.546 281.742C173.172 285.428 178.237 283.702 183.36 281.439C187.912 279.429 188.373 275.695 188.405 274.599C188.424 273.976 188.236 273.478 187.829 273.073C186.668 271.92 184.173 271.994 184.146 271.996C184.142 271.996 184.139 271.996 184.134 271.996C183.963 271.996 183.815 271.87 183.79 271.699C183.763 271.524 183.085 267.384 177.837 266.652C174.88 266.241 170.446 269.415 168.064 271.121L167.517 271.512C166.674 272.108 165.789 272.103 165.762 272.111C164.557 272.178 151.993 271.49 138.657 269.381C126.079 267.391 110.108 263.683 105.449 257.323C105.433 257.301 105.421 257.279 105.41 257.254L87.5394 215.739L76.2691 247.231L86.3392 266.44C91.4062 276.106 101.333 282.11 112.245 282.11C112.719 282.099 160.375 281.07 163.553 280.751C163.752 280.729 163.95 280.72 164.149 280.72Z" fill="#051A2F"/>
<path d="M153.123 263.062L157.776 254.918L161.596 257.396C161.806 257.533 161.982 257.718 162.108 257.935L162.337 258.329C162.625 258.824 163.157 259.129 163.722 259.121C164.029 259.118 164.333 259.205 164.594 259.375L192.999 277.771C193.232 277.922 193.447 278.105 193.634 278.313L199.375 284.677L191.384 282.871C190.95 282.773 190.528 282.617 190.13 282.41L160.237 266.783C159.982 266.649 159.767 266.448 159.616 266.204L159.579 266.142C159.289 265.67 158.774 265.38 158.227 265.383L157.952 265.385C157.698 265.387 157.447 265.324 157.22 265.206L153.123 263.062Z" fill="#9D89FC"/>
<path d="M199.372 285.024C199.347 285.024 199.321 285.021 199.296 285.016L191.305 283.21C190.842 283.106 190.392 282.939 189.967 282.718L160.074 267.091C159.763 266.929 159.501 266.685 159.317 266.386L159.28 266.325C159.054 265.958 158.653 265.732 158.229 265.732C158.228 265.732 158.226 265.732 158.225 265.732L157.948 265.733C157.944 265.733 157.943 265.733 157.94 265.733C157.635 265.733 157.328 265.657 157.054 265.515L152.958 263.375C152.874 263.331 152.812 263.255 152.786 263.165C152.759 263.075 152.77 262.977 152.817 262.896L157.47 254.751C157.516 254.669 157.596 254.608 157.689 254.586C157.783 254.564 157.881 254.58 157.96 254.633L161.78 257.111C162.035 257.276 162.252 257.503 162.404 257.766L162.633 258.16C162.856 258.545 163.264 258.781 163.699 258.781C163.712 258.781 163.724 258.781 163.738 258.781C164.106 258.781 164.465 258.889 164.778 259.091L193.183 277.488C193.443 277.656 193.679 277.858 193.886 278.087L199.627 284.451C199.729 284.563 199.746 284.728 199.669 284.859C199.609 284.96 199.494 285.024 199.372 285.024ZM158.231 265.036C158.894 265.036 159.523 265.389 159.873 265.961L159.91 266.021C160.029 266.214 160.197 266.372 160.398 266.476L190.29 282.103C190.661 282.296 191.055 282.441 191.461 282.533L198.384 284.097L193.376 278.546C193.209 278.361 193.019 278.199 192.809 278.064L164.405 259.667C164.201 259.535 163.969 259.458 163.726 259.469C163.718 259.469 163.71 259.469 163.703 259.469C163.019 259.469 162.381 259.1 162.035 258.503L161.807 258.11C161.708 257.941 161.57 257.794 161.405 257.689L157.893 255.41L153.601 262.922L157.378 264.896C157.554 264.988 157.745 265.033 157.946 265.036L158.223 265.034C158.225 265.036 158.228 265.036 158.231 265.036Z" fill="#051A2F"/>
<path d="M191.561 281.716C191.508 281.716 191.454 281.703 191.403 281.677C191.233 281.588 191.166 281.379 191.253 281.208L192.959 277.903C193.048 277.734 193.257 277.667 193.428 277.754C193.597 277.843 193.664 278.051 193.577 278.222L191.871 281.527C191.809 281.646 191.687 281.716 191.561 281.716Z" fill="#051A2F"/>
<path d="M151.157 250.887L157.926 254.978L153.15 263.11L146.381 259.019C145.141 258.27 144.716 256.674 145.432 255.456L147.616 251.737C148.33 250.518 149.917 250.138 151.157 250.887Z" fill="#051A2F"/>
<path d="M153.15 263.456C153.088 263.456 153.026 263.439 152.971 263.406L146.201 259.315C144.802 258.468 144.322 256.658 145.132 255.279L147.316 251.56C147.703 250.9 148.328 250.433 149.072 250.245C149.841 250.05 150.646 250.173 151.335 250.59L158.104 254.681C158.265 254.779 158.32 254.991 158.223 255.154L153.448 263.286C153.401 263.366 153.323 263.425 153.233 263.447C153.208 263.453 153.178 263.456 153.15 263.456ZM149.794 250.849C149.61 250.849 149.425 250.872 149.245 250.917C148.681 251.06 148.209 251.414 147.917 251.912L145.733 255.631C145.115 256.684 145.487 258.071 146.562 258.721L153.03 262.629L157.454 255.097L150.979 251.183C150.611 250.962 150.203 250.849 149.794 250.849Z" fill="#051A2F"/>
<path d="M159.816 264.569C159.756 264.569 159.693 264.553 159.637 264.519C159.472 264.421 159.419 264.206 159.519 264.042L161.823 260.218C161.921 260.053 162.136 260 162.299 260.099C162.464 260.197 162.517 260.412 162.418 260.576L160.114 264.4C160.05 264.508 159.935 264.569 159.816 264.569Z" fill="#051A2F"/>
<path d="M173.412 267.804C173.348 267.804 173.286 267.787 173.228 267.751L164.752 262.43C164.59 262.327 164.541 262.114 164.643 261.951C164.746 261.789 164.959 261.739 165.121 261.842L173.597 267.162C173.759 267.265 173.809 267.478 173.706 267.642C173.641 267.746 173.527 267.804 173.412 267.804Z" fill="#051A2F"/>
<path d="M191.083 278.765C191.02 278.765 190.956 278.748 190.899 278.712L187.588 276.651C187.424 276.55 187.375 276.335 187.477 276.173C187.578 276.01 187.793 275.961 187.955 276.063L191.266 278.124C191.43 278.225 191.48 278.44 191.377 278.602C191.311 278.706 191.199 278.765 191.083 278.765Z" fill="#051A2F"/>
<path d="M152.399 260.188C152.337 260.188 152.275 260.171 152.217 260.137L147.058 256.969C146.895 256.87 146.843 256.655 146.944 256.491C147.046 256.328 147.259 256.276 147.422 256.378L152.581 259.545C152.745 259.645 152.796 259.86 152.695 260.023C152.629 260.129 152.516 260.188 152.399 260.188Z" fill="#9D89FC"/>
<path d="M165.765 271.767C165.765 271.767 172.698 270.903 177.113 271.516C180.552 271.992 190.729 269.548 188.603 276.133C188.145 277.551 187.904 278.496 186.643 279.833C185.953 280.565 184.066 282.072 182.999 282.545C177.799 284.841 173.089 285.803 167.337 282.025C166.229 281.298 164.909 280.965 163.59 281.097C162.823 281.174 165.52 271.821 165.765 271.767Z" fill="#9D89FC"/>
<path d="M175.088 284.904C172.544 284.904 169.962 284.158 167.15 282.312C166.106 281.627 164.859 281.318 163.629 281.44C162.782 281.526 160.069 281.619 159.954 281.624C159.762 281.634 159.602 281.481 159.596 281.289C159.59 281.098 159.739 280.938 159.931 280.93C159.959 280.928 162.736 280.832 163.559 280.749C164.945 280.611 166.355 280.959 167.532 281.732C173.039 285.348 177.48 284.602 182.863 282.225C183.858 281.786 185.712 280.318 186.396 279.594C187.516 278.405 187.783 277.571 188.186 276.308L188.276 276.026C188.67 274.806 188.636 273.909 188.17 273.288C187.138 271.911 184.067 271.998 181.355 272.072C179.65 272.121 178.041 272.166 177.013 271.847C171.775 270.22 165.935 272.077 165.875 272.097C165.586 272.164 164.833 272.141 163.063 272.021C162.871 272.009 162.726 271.842 162.74 271.651C162.753 271.459 162.915 271.314 163.111 271.328C164.649 271.433 165.517 271.467 165.693 271.428C165.91 271.356 171.769 269.49 177.222 271.184C178.139 271.468 179.694 271.425 181.338 271.378C184.218 271.297 187.479 271.205 188.727 272.871C189.33 273.674 189.401 274.808 188.938 276.24L188.847 276.52C188.43 277.824 188.128 278.766 186.9 280.071C186.182 280.833 184.246 282.375 183.144 282.862C180.362 284.088 177.747 284.904 175.088 284.904Z" fill="#051A2F"/>
<path d="M59.1542 192.047C59.1542 192.047 80.5055 194.876 87.5977 203.517C96.5781 214.46 100.45 230.72 101.707 237.748C102.076 239.812 102.033 241.928 101.577 243.975L101.054 246.322C99.2089 254.607 91.6528 260.351 83.1767 259.909L83.6017 259.91C82.2318 259.839 80.2331 259.386 79.6524 258.144L77.4093 254.051L77.1976 255.527C75.5117 266.416 84.3131 281.333 84.3131 281.333L59.0592 277.926C46.0844 276.623 33.7369 271.511 23.8318 263.03C18.4535 258.425 14.2956 254.116 12.5008 248.884C9.45437 239.999 9.73301 237.468 8.8784 226.688C8.2962 219.348 10.4506 212.016 15.0537 206.269C21.8206 197.823 34.8437 188.964 59.1542 192.047Z" fill="#9D89FC"/>
<path d="M84.313 281.679C84.2974 281.679 84.2819 281.677 84.2663 281.676L59.0124 278.268C45.7402 276.936 33.4924 271.757 23.606 263.291C18.8036 259.18 14.0947 254.602 12.1722 248.995C9.59747 241.486 9.38577 238.505 8.87206 231.302C8.77555 229.943 8.66814 228.433 8.53115 226.714C7.93339 219.168 10.1532 211.829 14.7827 206.051C21.4126 197.776 34.498 188.57 59.1961 191.703H59.1977C60.0756 191.82 80.7669 194.65 87.8638 203.297C97.3906 214.905 101.128 232.555 102.048 237.687C102.428 239.808 102.383 241.949 101.916 244.051L101.393 246.398C99.5045 254.881 91.8426 260.709 83.158 260.256C83.1003 260.253 83.0459 260.236 82.9992 260.208C81.4939 260.03 79.8827 259.456 79.3379 258.29L77.6053 255.13L77.5415 255.573C75.893 266.221 84.5247 281.006 84.6119 281.154C84.6788 281.269 84.6757 281.413 84.6025 281.523C84.5372 281.621 84.4282 281.679 84.313 281.679ZM49.6911 191.77C31.3068 191.77 20.9487 199.466 15.326 206.484C10.8086 212.124 8.64168 219.287 9.22543 226.657C9.36242 228.378 9.46982 229.89 9.56634 231.25C10.0738 238.389 10.2855 241.344 12.8307 248.768C14.6987 254.218 19.3313 258.715 24.0589 262.762C33.8364 271.134 45.952 276.257 59.0949 277.577L83.6654 280.891C82.0138 277.933 75.345 265.234 76.8581 255.469L77.0683 253.998C77.09 253.85 77.2021 253.732 77.35 253.705C77.4963 253.681 77.6442 253.749 77.7158 253.88L79.959 257.972C80.4556 259.034 82.2411 259.489 83.6218 259.56C83.6545 259.562 83.6857 259.568 83.7152 259.579C91.8317 259.764 98.941 254.225 100.717 246.244L101.24 243.897C101.689 241.886 101.731 239.836 101.368 237.807C100.457 232.717 96.7523 215.214 87.3314 203.735C80.4073 195.298 59.3238 192.418 59.1105 192.388C55.7574 191.966 52.6223 191.77 49.6911 191.77Z" fill="#051A2F"/>
<path d="M78.8588 258.241C78.7296 258.241 78.605 258.167 78.5459 258.043L72.5651 245.485C72.4826 245.312 72.5558 245.105 72.7301 245.023C72.9029 244.94 73.11 245.014 73.1925 245.188L79.1732 257.747C79.2557 257.92 79.1825 258.127 79.0082 258.209C78.9599 258.23 78.9101 258.241 78.8588 258.241Z" fill="#051A2F"/>
<path d="M62.499 149.283L64.0666 148.238C65.3244 147.399 65.8552 145.807 65.3306 144.389C63.7552 140.133 58.0127 132.717 37.1221 138.349C15.8207 144.093 19.5878 178.271 37.7339 185.575C55.88 192.879 62.0429 155.332 62.0429 155.332L62.499 149.283Z" fill="#051A2F"/>
<path d="M59.8803 150.066C60.1231 148.763 61.8588 148.475 62.5157 149.627C64.1097 152.424 64.8694 154.371 65.1247 155.559C65.4672 157.156 63.9837 158.755 64.7822 160.467C65.5808 162.18 66.837 164.119 66.9507 167.202C67.0627 170.212 70.1154 184.012 59.3946 183.576C58.9743 183.559 58.6209 183.891 58.6272 184.312C58.6536 186.412 58.7657 192.191 59.2327 195.318C59.4864 197.023 58.4248 198.643 56.7669 199.112C52.4752 200.324 44.4848 202.031 38.5041 200.086C36.949 199.58 36.1333 197.877 36.6874 196.339C37.3942 194.376 38.3826 188.86 37.7351 185.578C37.7351 185.578 41.3154 185.225 45.3036 183.396C51.4322 180.584 54.4475 173.738 52.7538 167.211C52.3896 165.807 51.6019 163.811 52.4223 161.697C54.5393 156.244 57.7072 161.725 57.7072 161.725L59.8803 150.066Z" fill="#9D89FC"/>
<path d="M44.8065 201.31C42.5882 201.31 40.3824 201.061 38.3915 200.413C37.5571 200.142 36.883 199.556 36.4954 198.763C36.1031 197.961 36.0533 197.057 36.3553 196.218C37.0387 194.319 38.0241 188.864 37.389 185.642C37.3703 185.545 37.3921 185.446 37.4512 185.368C37.5088 185.29 37.5991 185.239 37.6956 185.229C37.7314 185.226 41.2697 184.859 45.1536 183.078C51.0332 180.38 54.0858 173.743 52.4139 167.295C52.3657 167.108 52.3096 166.911 52.2505 166.704C51.8675 165.354 51.343 163.506 52.0948 161.57C52.744 159.899 53.5799 159.014 54.5808 158.937C55.8059 158.842 56.9112 160.021 57.5167 160.827L59.5357 150.002C59.6727 149.264 60.2393 148.708 60.9787 148.584C61.7182 148.459 62.4405 148.802 62.8141 149.456C64.6073 152.603 65.2425 154.473 65.4604 155.488C65.6301 156.277 65.409 157.041 65.1942 157.781C64.9405 158.656 64.7007 159.482 65.093 160.321C65.2253 160.604 65.3701 160.892 65.5196 161.193C66.2668 162.687 67.1961 164.546 67.2942 167.189C67.3082 167.555 67.3689 168.114 67.4405 168.76C67.8156 172.16 68.513 178.489 65.409 181.816C64.0049 183.319 61.9735 184.031 59.3769 183.923C59.2633 183.919 59.1621 183.958 59.0843 184.034C59.0096 184.107 58.9691 184.204 58.9706 184.308C58.9987 186.581 59.1139 192.197 59.5715 195.267C59.8502 197.133 58.6827 198.93 56.8567 199.445C53.9737 200.258 49.3644 201.31 44.8065 201.31ZM38.1362 185.874C38.6701 189.288 37.7096 194.507 37.0091 196.453C36.771 197.115 36.8099 197.826 37.1181 198.458C37.4232 199.081 37.9509 199.54 38.6047 199.753C44.5092 201.673 52.4544 199.965 56.6652 198.776C58.1565 198.354 59.1092 196.889 58.8819 195.368C58.418 192.256 58.3013 186.602 58.2733 184.316C58.2701 184.02 58.3853 183.741 58.597 183.536C58.8087 183.33 59.1014 183.218 59.4018 183.229C61.7913 183.326 63.6375 182.691 64.8969 181.341C67.7829 178.248 67.1089 172.124 66.7462 168.835C66.6699 168.148 66.6108 167.605 66.5968 167.214C66.5049 164.722 65.6488 163.011 64.8953 161.503C64.7428 161.198 64.5949 160.903 64.461 160.615C63.9598 159.54 64.2602 158.503 64.5248 157.588C64.7241 156.901 64.9109 156.254 64.7786 155.634C64.6089 154.843 64.0501 153.034 62.2085 149.801C61.933 149.319 61.452 149.21 61.0924 149.27C60.7359 149.331 60.3187 149.588 60.216 150.131L58.0413 161.788C58.0148 161.931 57.9012 162.041 57.7596 162.066C57.6179 162.091 57.4731 162.024 57.4 161.898C57.017 161.238 55.7826 159.544 54.6306 159.63C53.9192 159.684 53.2826 160.422 52.7393 161.822C52.0715 163.542 52.54 165.19 52.9152 166.515C52.9759 166.727 53.0335 166.929 53.0818 167.122C54.8392 173.895 51.6247 180.872 45.4401 183.71C42.1461 185.222 39.1604 185.734 38.1362 185.874Z" fill="#051A2F"/>
<path d="M28.5466 145.257C28.5466 145.257 18.0656 140.254 10.4426 147.4C2.81954 154.547 -4.5653 170.269 6.87 187.421C14.0556 198.199 16.8202 206.721 17.8819 211.565C18.2384 213.187 20.3632 213.593 21.2832 212.211C25.8847 205.302 34.2799 190.066 30.2154 175.747C24.7359 156.452 28.5466 145.257 28.5466 145.257Z" fill="#051A2F"/>
<path d="M66.9797 165.854C66.8614 165.854 66.7462 165.793 66.6824 165.685C66.5843 165.52 66.6372 165.307 66.8007 165.209C70.2409 163.145 68.0118 157.312 67.3938 155.871L57.6614 160.84C57.4902 160.927 57.2816 160.858 57.1944 160.689C57.1073 160.517 57.1742 160.309 57.3454 160.222L67.4031 155.086C67.4856 155.044 67.5837 155.036 67.6724 155.066C67.7611 155.095 67.8343 155.159 67.8748 155.243C68.0289 155.564 71.6139 163.129 67.1587 165.802C67.1027 165.836 67.0404 165.854 66.9797 165.854Z" fill="#051A2F"/>
<path d="M67.2608 169.843C67.1721 169.843 67.0818 169.809 67.0149 169.74C66.8794 169.605 66.881 169.384 67.0164 169.25L68.3878 167.889C68.805 167.475 68.8595 166.828 68.5171 166.35L67.5737 165.033C67.4616 164.877 67.4974 164.661 67.6531 164.549C67.8088 164.437 68.0251 164.472 68.1372 164.628L69.0806 165.945C69.6223 166.701 69.5367 167.727 68.8751 168.383L67.5037 169.743C67.4367 169.809 67.348 169.843 67.2608 169.843Z" fill="#051A2F"/>
<path d="M56.2186 171.038C55.9945 171.038 55.7579 171.013 55.5088 170.95C54.3211 170.656 53.303 169.64 52.4795 167.934C52.397 167.761 52.4686 167.554 52.6414 167.47C52.8142 167.387 53.0212 167.459 53.1053 167.632C53.8323 169.138 54.6947 170.029 55.6676 170.275C56.7137 170.539 57.5558 169.943 57.5636 169.937C57.7193 169.825 57.9357 169.859 58.0477 170.013C58.1598 170.167 58.1271 170.384 57.973 170.497C57.9372 170.524 57.2243 171.038 56.2186 171.038Z" fill="#051A2F"/>
<path d="M25.9102 144.312C25.9102 144.312 35.6502 147.244 31.6621 156.586C31.6621 156.586 36.1608 153.34 36.0472 148.27C35.9336 143.2 32.1742 141.55 29.668 141.606C27.1633 141.664 25.9102 144.312 25.9102 144.312Z" fill="#9D89FC"/>
<path d="M31.6619 156.933C31.5857 156.933 31.5078 156.908 31.4456 156.857C31.3241 156.759 31.2821 156.592 31.3428 156.449C32.4761 153.793 32.5741 151.424 31.6324 149.408C30.0196 145.952 25.8509 144.656 25.8089 144.643C25.7123 144.614 25.633 144.544 25.5925 144.452C25.552 144.36 25.552 144.254 25.5956 144.162C25.6501 144.047 26.9717 141.32 29.6601 141.259C31.2089 141.225 32.7796 141.767 33.9751 142.747C35.0415 143.622 36.3273 145.289 36.3942 148.263C36.511 153.454 32.0542 156.731 31.8643 156.868C31.8051 156.911 31.7335 156.933 31.6619 156.933ZM26.4175 144.119C27.5648 144.548 30.8042 145.996 32.2613 149.109C33.1314 150.971 33.1999 153.087 32.4683 155.415C33.7463 154.15 35.7778 151.606 35.7031 148.277C35.6548 146.133 34.906 144.405 33.5377 143.283C32.4839 142.419 31.0362 141.927 29.6787 141.952C27.9399 141.992 26.8378 143.443 26.4175 144.119Z" fill="#051A2F"/>
<path d="M7.33845 224.161C15.3755 229.02 31.7237 235.945 58.033 234.339C59.9679 234.22 61.7565 235.368 62.4384 237.181L64.0791 243.75C66.9652 255.299 72.3917 266.059 79.9634 275.245L83.894 280.013C84.4995 280.746 83.9298 281.848 82.9802 281.778L65.6342 280.503C35.8598 276.565 12.7261 261.63 5.30699 234.426L3.32846 227.17C2.68867 224.817 5.24939 222.899 7.33845 224.161Z" fill="#051A2F"/>
<path d="M170.985 39.108H228.103C231.337 39.108 233.81 41.7388 233.81 44.9736V61.5039C233.81 64.7371 231.337 67.3507 228.103 67.3507C228.074 67.3507 227.204 67.3507 226.038 67.3507V78.3891L218.522 67.3507C207.597 67.3507 170.985 67.3507 170.985 67.3507C167.751 67.3507 164.98 64.7386 164.98 61.5039V44.9736C164.98 41.7388 167.75 39.108 170.985 39.108Z" fill="#9D89FC"/>
<path d="M226.037 78.7363C225.925 78.7363 225.816 78.6818 225.751 78.5853L218.338 67.6979H170.984C167.542 67.6979 164.633 64.8617 164.633 61.5039V44.9737C164.633 41.6066 167.541 38.761 170.984 38.761H228.103C231.498 38.761 234.157 41.4898 234.157 44.9737V61.5039C234.157 64.9769 231.498 67.6979 228.103 67.6979H226.384V78.3892C226.384 78.5417 226.285 78.6756 226.14 78.7207C226.106 78.7301 226.071 78.7363 226.037 78.7363ZM170.984 39.4553C167.917 39.4553 165.327 41.9817 165.327 44.9737V61.5039C165.327 64.485 167.917 67.0021 170.984 67.0021H218.522C218.637 67.0021 218.744 67.0581 218.808 67.1531L225.69 77.2606V67.3492C225.69 67.1578 225.846 67.0021 226.037 67.0021H228.103C231.109 67.0021 233.463 64.5861 233.463 61.5039V44.9737C233.463 41.879 231.107 39.4553 228.103 39.4553H170.984Z" fill="white"/>
<path d="M192.431 57.3263C192.383 57.3263 192.335 57.3169 192.288 57.2952L184.421 53.7273C184.296 53.6712 184.217 53.5482 184.217 53.4113C184.217 53.2758 184.296 53.1513 184.419 53.0953L192.287 49.5056C192.461 49.4246 192.666 49.5025 192.747 49.6768C192.827 49.8512 192.75 50.0566 192.576 50.136L185.403 53.4097L192.575 56.6631C192.749 56.7425 192.827 56.948 192.747 57.1224C192.69 57.2516 192.564 57.3263 192.431 57.3263Z" fill="white"/>
<path d="M203.699 57.3256C203.567 57.3256 203.441 57.2493 203.383 57.1217C203.304 56.9473 203.381 56.7419 203.556 56.6625L210.727 53.409L203.554 50.1354C203.38 50.056 203.304 49.8505 203.383 49.6761C203.462 49.5018 203.668 49.4255 203.844 49.5049L211.711 53.0946C211.834 53.1506 211.914 53.2752 211.914 53.4106C211.914 53.546 211.834 53.6706 211.71 53.7266L203.842 57.2945C203.795 57.3163 203.747 57.3256 203.699 57.3256Z" fill="white"/>
<path d="M194.794 61.5147C194.752 61.5147 194.712 61.5069 194.67 61.4914C194.491 61.4229 194.402 61.2221 194.47 61.0431L200.594 45.0218C200.663 44.8428 200.864 44.7541 201.043 44.821C201.222 44.8895 201.31 45.0903 201.243 45.2693L195.12 61.2906C195.067 61.4291 194.934 61.5147 194.794 61.5147Z" fill="white"/>
<path d="M183.558 254.745C183.425 254.745 183.298 254.669 183.241 254.538C183.163 254.362 183.242 254.158 183.417 254.08C201.331 246.146 217.579 233.288 230.405 216.898C230.522 216.747 230.741 216.72 230.892 216.839C231.043 216.957 231.07 217.175 230.951 217.326C218.056 233.805 201.717 246.734 183.699 254.716C183.653 254.736 183.605 254.745 183.558 254.745Z" fill="white"/>
<path d="M181.841 263.894C181.703 263.894 181.57 263.81 181.517 263.673C181.449 263.494 181.536 263.293 181.715 263.223C198.949 256.538 214.39 245.937 227.609 231.716C227.74 231.576 227.959 231.569 228.099 231.698C228.239 231.828 228.247 232.048 228.118 232.188C214.827 246.486 199.301 257.146 181.967 263.869C181.925 263.887 181.883 263.894 181.841 263.894Z" fill="white"/>
<path d="M105.906 11.9128C105.748 11.9128 105.605 11.8039 105.568 11.6435C105.524 11.4567 105.641 11.2699 105.828 11.2279C123.765 7.09181 141.533 6.81473 158.639 10.4029C158.828 10.4418 158.948 10.627 158.907 10.8138C158.868 11.0022 158.683 11.1205 158.496 11.0816C141.488 7.51367 123.82 7.79076 105.982 11.9035C105.958 11.9097 105.932 11.9128 105.906 11.9128Z" fill="white"/>
<path d="M165.306 4.66578C165.277 4.66578 165.249 4.66267 165.219 4.65488C150.561 0.85505 135.22 -0.106977 119.621 1.79994C119.431 1.82174 119.258 1.68787 119.235 1.49795C119.212 1.30804 119.347 1.13525 119.537 1.1119C135.224 -0.804363 150.65 0.162329 165.393 3.98551C165.579 4.03377 165.691 4.22368 165.643 4.40893C165.602 4.56148 165.46 4.66578 165.306 4.66578Z" fill="white"/>
<path d="M175.141 257.811C176.424 257.811 177.463 256.772 177.463 255.49C177.463 254.208 176.424 253.169 175.141 253.169C173.858 253.169 172.818 254.208 172.818 255.49C172.818 256.772 173.858 257.811 175.141 257.811Z" fill="white"/>
<path d="M13.5597 119.873C13.4725 119.873 13.3869 119.84 13.32 119.776C13.1815 119.644 13.1768 119.425 13.3091 119.286L14.5871 117.952C14.7194 117.813 14.9405 117.809 15.0775 117.941C15.216 118.073 15.2207 118.293 15.0884 118.431L13.8103 119.765C13.7434 119.837 13.6516 119.873 13.5597 119.873Z" fill="white"/>
<path d="M9.09097 124.54C9.0038 124.54 8.91818 124.507 8.85125 124.443C8.7127 124.311 8.70803 124.091 8.84035 123.953L10.1184 122.619C10.2507 122.48 10.4717 122.475 10.6087 122.608C10.7473 122.74 10.7519 122.959 10.6196 123.098L9.3416 124.432C9.27466 124.504 9.18281 124.54 9.09097 124.54Z" fill="white"/>
<path d="M10.3427 119.945C10.254 119.945 10.1668 119.912 10.0998 119.845L8.80314 118.569C8.66615 118.435 8.6646 118.214 8.79847 118.078C8.93234 117.941 9.15339 117.94 9.28882 118.074L10.5855 119.35C10.7225 119.484 10.7241 119.705 10.5886 119.84C10.5233 119.909 10.433 119.945 10.3427 119.945Z" fill="white"/>
<path d="M14.8835 124.41C14.7948 124.41 14.7076 124.377 14.6407 124.311L13.344 123.034C13.207 122.9 13.2054 122.679 13.3408 122.544C13.4747 122.407 13.6958 122.405 13.8312 122.539L15.1279 123.816C15.2649 123.949 15.2664 124.17 15.131 124.306C15.0625 124.376 14.9738 124.41 14.8835 124.41Z" fill="white"/>
<path d="M172.344 11.0873C171.928 11.0873 171.513 11.0095 171.113 10.8538C170.242 10.516 169.557 9.85132 169.184 8.98425C168.419 7.21276 169.212 5.13772 170.951 4.35627C171.788 3.97955 172.719 3.9562 173.574 4.28777C174.442 4.62557 175.129 5.29027 175.502 6.15734C176.267 7.92883 175.474 10.0039 173.735 10.7853C173.29 10.9877 172.817 11.0873 172.344 11.0873ZM172.342 4.75166C171.966 4.75166 171.589 4.83105 171.235 4.99139C169.841 5.61717 169.207 7.28592 169.822 8.71028C170.122 9.40611 170.67 9.93693 171.365 10.2078C172.043 10.4724 172.786 10.4522 173.451 10.1533C174.845 9.52753 175.479 7.85878 174.864 6.43442C174.564 5.73859 174.016 5.20777 173.321 4.93691C173.004 4.81393 172.672 4.75166 172.342 4.75166Z" fill="white"/>
</svg>
