<svg width="136" height="89" viewBox="0 0 136 89" fill="none" xmlns="http://www.w3.org/2000/svg">
<path d="M0.672257 87.2652V87.2652C5.37118 84.3639 10.3102 81.8709 15.4351 79.8134L19.3459 78.2434V78.2434C26.5066 75.0235 33.1688 70.7939 39.1294 65.6837L39.4352 65.4215M39.4352 65.4215V65.4215C35.6894 57.1104 30.7366 49.398 24.7371 42.5341L24.2939 42.027M39.4352 65.4215L57.2471 46.2031M57.2471 46.2031V46.2031C55.6674 42.7476 53.5522 39.563 50.9797 36.7669L50.2028 35.9225M57.2471 46.2031L73.9223 30.3339L90.3185 14.9157L96.7121 9.83739C99.7863 7.39568 103.212 5.43282 106.873 4.01537L108.46 3.40083C112.156 1.97013 116.095 1.27713 120.057 1.36099V1.36099M120.057 1.36099L122.242 1.40723C124.718 1.45965 127.111 2.31389 129.061 3.84173V3.84173C130.8 5.20471 132.108 7.04196 132.826 9.13174L133.56 11.2655C133.969 12.456 134.252 13.6864 134.403 14.9362L134.451 15.3338C134.806 18.2556 134.371 21.2191 133.192 23.916V23.916C132.397 25.7351 131.28 27.3954 129.894 28.817L125.165 33.6674L117.851 40.3708C117.45 40.7388 116.998 41.048 116.509 41.2889V41.2889C114.274 42.3914 111.583 41.9284 109.844 40.1421L99.077 29.0781C97.129 27.0765 96.2164 24.2865 96.6047 21.5206V21.5206C96.8595 19.7063 97.6597 18.0124 98.8994 16.6635L105.58 9.39403L106.199 8.85806C110.216 5.37783 114.946 2.81894 120.057 1.36099V1.36099ZM74.7 46.7131L74.7377 48.5721C74.7842 50.861 75.4958 53.0869 76.7858 54.9783V54.9783C77.4261 55.9171 78.1986 56.7584 79.0795 57.4761L87.285 64.162" stroke="white" stroke-width="2.24944"/>
</svg>
