<svg width="187" height="384" viewBox="0 0 187 384" fill="none" xmlns="http://www.w3.org/2000/svg">
<path fill-rule="evenodd" clip-rule="evenodd" d="M166.829 4.43462C166.11 4.81368 165.411 5.23484 164.737 5.69648L163.725 6.39057C161.456 7.94526 159.435 9.83406 157.731 11.9929L154.103 16.5899L145.161 30.0963L145.159 30.1004L136.091 43.9765L126.776 60.3956L126.07 59.9952L126.726 60.4737L126.554 60.7084C123.168 65.3453 119.135 69.4731 114.578 72.9657L114.085 72.3217L114.552 72.9853L112.065 74.7347C108.845 77.0005 105.825 79.5382 103.038 82.32L101.892 81.1715C104.744 78.3242 107.835 75.7267 111.132 73.4076L113.604 71.6677C117.948 68.3364 121.803 64.4117 125.054 60.0091C121.177 55.054 116.61 50.6782 111.491 47.0153L111.096 46.7326L112.04 45.4129L112.436 45.6957C117.518 49.3329 122.07 53.6561 125.963 58.5408L134.423 43.6296C132.864 41.7082 131.031 40.0256 128.981 38.6364L128.296 38.172L129.206 36.8287L129.892 37.2931C131.919 38.6674 133.748 40.3115 135.328 42.1787L143.803 29.2086L143.806 29.2046L152.768 15.6659L152.787 15.6376L152.808 15.611L156.457 10.9875C158.263 8.70025 160.404 6.69911 162.807 5.05195L163.82 4.35786C166.266 2.68207 169.016 1.50154 171.915 0.882964L173.457 0.55401C175.376 0.144519 177.377 0.368588 179.158 1.19259C180.747 1.92767 182.089 3.10691 183.022 4.58798L183.89 5.96492C184.405 6.78141 184.832 7.6498 185.165 8.55574L185.265 8.82692C185.676 9.94601 185.926 11.1123 186.011 12.2909L186.19 12.2965L186.139 13.9201C185.923 20.8616 184.436 27.7046 181.754 34.1104L181.006 33.797L181.706 34.2064L179.787 37.4894C178.222 40.167 176.462 42.7262 174.523 45.1464C171.644 48.7387 169.175 52.6416 167.163 56.7823L166.555 58.0324L157.535 77.8308C155.866 81.4931 154.718 85.3709 154.125 89.3514C153.452 93.8693 153.5 98.4654 154.269 102.968L154.465 104.112C154.917 106.758 155.143 109.437 155.14 112.121C155.135 117.595 154.181 123.026 152.319 128.174L151.788 129.642C150.413 133.444 148.633 137.086 146.477 140.506L140.225 150.425L140.195 150.473L140.159 150.516L130.473 161.998L130.436 162.041L130.394 162.079L115.141 175.733L115.126 175.747L115.11 175.76L109.157 180.567C106.008 183.11 103.186 186.032 100.755 189.267C98.911 191.722 97.3013 194.343 95.9471 197.098L54.5156 281.387L54.51 281.398L54.5042 281.409L33.7882 320.455L33.7864 320.459L14.8936 356.471L1.81239 383.54L0.351302 382.834L13.4383 355.753L13.4442 355.74L13.4504 355.729L32.3512 319.702L32.3529 319.698L53.0647 280.66L94.4908 196.383C95.8898 193.536 97.5527 190.828 99.4578 188.293C101.969 184.95 104.885 181.931 108.137 179.305L114.074 174.51L129.269 160.908L138.882 149.512L145.104 139.641C147.198 136.32 148.927 132.782 150.262 129.091L150.793 127.622C152.591 122.651 153.513 117.406 153.517 112.12C153.52 109.528 153.302 106.94 152.865 104.385L152.67 103.241C151.872 98.5692 151.821 93.8 152.52 89.1122C153.136 84.9819 154.327 80.9581 156.058 77.158L164.903 57.745L164.893 57.7401L165.087 57.3412L165.614 56.1835L165.643 56.1966L165.703 56.073C167.768 51.8236 170.302 47.8182 173.256 44.1315C175.146 41.7733 176.861 39.2796 178.386 36.6705L180.278 33.4341C182.052 29.1866 183.284 24.7418 183.953 20.2042L181.711 23.9345L181.699 23.9541L181.686 23.9729L177.659 29.8898C177.395 30.2782 177.077 30.6271 176.714 30.926C175.056 32.2937 172.705 32.4372 170.892 31.2814L161.501 25.2936C159.591 24.0755 158.351 22.0423 158.143 19.7862C158.007 18.3062 158.324 16.8198 159.052 15.5241L162.54 9.31457L162.563 9.27432L162.59 9.23689L162.936 8.7582C164.078 7.17668 165.384 5.728 166.829 4.43462ZM172.374 2.44429C169.174 4.25089 166.403 6.72885 164.251 9.70837L163.932 10.1496L160.467 16.3189C159.9 17.3278 159.653 18.485 159.759 19.6373C159.921 21.3939 160.886 22.9769 162.374 23.9253L171.765 29.9131C172.984 30.6908 174.566 30.5942 175.682 29.674C175.926 29.4729 176.14 29.2381 176.318 28.9768L180.332 23.0788L182.838 18.9103C183.525 17.7667 184.001 16.5082 184.241 15.1955C184.596 13.2494 184.424 11.2435 183.742 9.38656L183.642 9.11538C183.348 8.31632 182.972 7.55039 182.518 6.83023L181.65 5.4533C180.883 4.2372 179.781 3.26895 178.476 2.66537C177.014 1.98879 175.371 1.80482 173.795 2.14105L172.374 2.44429ZM147.286 42.5261L146.952 41.227L148.524 40.8229L148.858 42.122C149.23 43.569 150.015 44.8765 151.117 45.8849C151.664 46.3854 152.281 46.8042 152.948 47.1283L159.816 50.4657L159.106 51.9252L152.239 48.5878C151.431 48.1954 150.685 47.6883 150.022 47.0823C148.687 45.8613 147.736 44.2782 147.286 42.5261Z" fill="white"/>
</svg>
