<svg width="369" height="463" viewBox="0 0 369 463" fill="none" xmlns="http://www.w3.org/2000/svg">
<path fill-rule="evenodd" clip-rule="evenodd" d="M344.901 3.18258C343.81 3.46527 342.734 3.81148 341.678 4.22021L340.091 4.83475C336.535 6.21126 333.208 8.11743 330.223 10.4886L323.866 15.5377L307.509 30.9192L307.504 30.9238L290.86 46.764L273.072 65.9566L272.247 65.192L272.979 66.0459L272.673 66.3081C266.631 71.4883 259.877 75.7757 252.619 79.0397L252.157 78.0139L252.576 79.0577L248.666 80.6277C243.6 82.6612 238.719 85.1252 234.075 87.9927L232.893 86.0787C237.646 83.1437 242.643 80.6216 247.827 78.5402L251.717 76.9787C258.637 73.8647 265.085 69.7945 270.872 64.8878C267.215 56.9696 262.443 49.6139 256.702 43.0448L256.259 42.5377L257.952 41.0573L258.395 41.5644C264.097 48.0874 268.864 55.3674 272.564 63.1954L288.718 45.7655C287.226 42.6777 285.287 39.8247 282.963 37.2989L282.187 36.4546L283.842 34.9315L284.619 35.7759C286.918 38.2746 288.862 41.0741 290.4 44.0956L305.958 29.2897L305.963 29.2851L322.359 13.8668L322.394 13.8347L322.43 13.8055L328.824 8.72719C331.987 6.21497 335.512 4.19543 339.278 2.73704L340.866 2.1225C344.698 0.638769 348.784 -0.0799152 352.892 0.00704639L355.077 0.0532902C357.797 0.110859 360.425 1.04903 362.566 2.72697C364.476 4.22385 365.912 6.24159 366.701 8.53667L367.435 10.6704C367.87 11.9356 368.17 13.2431 368.331 14.5713L368.379 14.9688C368.578 16.6092 368.545 18.2619 368.285 19.8791L368.524 19.9434L367.94 22.118C365.441 31.4149 361.261 40.1754 355.605 47.9657L354.695 47.305L355.51 48.0801L351.877 51.8997C348.914 55.015 345.727 57.9087 342.341 60.5576C337.314 64.4894 332.743 68.9706 328.712 73.9179L327.461 75.452L309.028 99.2575C305.613 103.668 302.832 108.536 300.766 113.718C298.422 119.599 297.026 125.816 296.633 132.136L296.533 133.741C296.301 137.455 295.755 141.142 294.898 144.763C293.152 152.146 290.138 159.171 285.99 165.525L284.806 167.338C281.743 172.03 278.182 176.378 274.187 180.307L262.599 191.704L262.543 191.758L262.481 191.805L245.762 204.218L245.698 204.265L245.629 204.302L220.71 217.877L220.685 217.891L220.659 217.903L211.099 222.497C206.042 224.927 201.306 227.973 196.997 231.565C193.729 234.29 190.724 237.316 188.021 240.603L105.327 341.16L105.316 341.173L105.305 341.187L64.9425 387.285L64.9391 387.288L28.0015 429.872L1.74696 462.238L0 460.821L26.266 428.441L26.2776 428.426L26.2898 428.412L63.2433 385.811L63.2467 385.807L103.601 339.718L186.284 239.174C189.076 235.779 192.18 232.653 195.557 229.838C200.008 226.126 204.901 222.98 210.124 220.469L219.659 215.888L244.484 202.365L261.077 190.045L272.61 178.703C276.49 174.888 279.947 170.665 282.922 166.108L284.106 164.295C288.112 158.159 291.023 151.376 292.709 144.245C293.536 140.748 294.064 137.187 294.288 133.601L294.388 131.996C294.796 125.439 296.244 118.988 298.677 112.885C300.82 107.508 303.706 102.457 307.25 97.8803L325.356 74.4976L325.345 74.4888L325.7 74.0527L326.811 72.618L326.847 72.6456L326.968 72.4969C331.105 67.4198 335.796 62.8208 340.955 58.7858C344.254 56.2047 347.36 53.385 350.247 50.3494L353.828 46.5841C357.572 41.4176 360.647 35.8131 362.992 29.9042L358.782 34.223L358.76 34.2457L358.737 34.2671L351.423 40.9704C350.943 41.4105 350.402 41.7801 349.818 42.0682C347.146 43.3863 343.928 42.8327 341.85 40.697L331.082 29.633C328.892 27.3822 327.866 24.2449 328.302 21.1347C328.589 19.0946 329.489 17.1898 330.883 15.6729L337.563 8.40351L337.607 8.35638L337.655 8.31448L338.274 7.77851C340.318 6.00774 342.541 4.46834 344.901 3.18258ZM353.015 2.25959C348.124 3.6801 343.597 6.1426 339.746 9.47866L339.176 9.97273L332.539 17.195C331.454 18.376 330.753 19.8591 330.53 21.4475C330.19 23.8691 330.989 26.3117 332.694 28.0642L343.462 39.1282C344.86 40.5651 347.025 40.9376 348.823 40.0507C349.216 39.8569 349.58 39.6082 349.903 39.3121L357.193 32.6302L361.9 27.8024C363.191 26.4779 364.232 24.9309 364.973 23.236C366.071 20.7233 366.477 17.9621 366.146 15.2397L366.098 14.8422C365.956 13.6707 365.691 12.5175 365.307 11.4016L364.574 9.26784C363.926 7.38337 362.747 5.72663 361.179 4.49755C359.42 3.11981 357.263 2.34949 355.03 2.30222L353.015 2.25959ZM306.425 48.3654L306.387 46.5064L308.636 46.4608L308.674 48.3198C308.716 50.3904 309.359 52.4041 310.526 54.1151C311.106 54.9643 311.805 55.7254 312.601 56.3747L320.807 63.0606L319.386 64.8045L311.18 58.1186C310.216 57.3324 309.369 56.4108 308.668 55.3826C307.255 53.3108 306.476 50.8726 306.425 48.3654Z" fill="white"/>
</svg>
