<svg
  width="25"
  height="25"
  viewBox="0 0 145 130"
  fill="none"
  xmlns="http://www.w3.org/2000/svg"
>
  <style>
    @keyframes colorChange {
      0% {
        stroke: black; 
      }
      
      50% {
        stroke: #1CB786;
      }
      75% {
        stroke: #FFFFFF;
      }
      100% {
        stroke: black;
      }
    }

    path {
      animation: colorChange 4s infinite;
      transition: stroke 0.3s ease-in-out;
    }

    path:nth-of-type(1) {
      animation-delay: 1s; 
    }

    path:nth-of-type(2) {
      animation-delay: 0.5s;
    }

    path:nth-of-type(3) {
      animation-delay: 0.5s;
    }
  </style>

<path d="M128.838 3.84514C128.958 3.84311 129.077 3.8441 129.196 3.8481C130.588 3.89471 131.545 4.36348 132.198 5.01631C133.069 5.88674 133.612 7.29898 133.263 9.55998C132.915 11.821 131.576 14.8307 128.73 18.1518C108.574 41.6673 89.2645 64.3337 74.1927 81.0802C70.5492 85.1286 67.1589 88.8227 64.0619 92.1046C60.4711 82.6337 53.7989 76.0306 45.3878 72.8923C48.6015 69.8645 52.1969 66.565 56.1338 63.0218C72.8799 47.9501 95.5469 28.6401 119.062 8.4841C122.383 5.63737 125.393 4.29876 127.654 3.95023C128.046 3.88835 128.442 3.85344 128.838 3.84514ZM41.0279 77.0664C50.071 79.3307 56.8338 85.7307 59.9115 96.4283C58.2336 98.1457 56.659 99.7192 55.2268 101.091C52.9765 103.248 51.0424 104.953 49.5239 106.125C48.9966 101.012 46.5418 96.3101 43.098 92.8578C39.9509 89.7026 35.8258 87.5122 31.4828 87.1898C32.632 85.7542 34.1962 83.9981 36.1229 81.9874C37.5592 80.4891 39.2149 78.8337 41.0279 77.0664ZM30.5331 92.4891C33.6197 92.5297 36.7464 94.0566 39.3152 96.632C42.7403 100.065 44.8591 105.197 44.1445 110.199C42.561 121.285 37.094 129.736 29.4611 134.316C22.714 138.365 14.1863 139.467 4.62956 136.389C11.8205 135.199 18.4268 127.274 18.938 121.353C15.7823 125.157 11.8309 128.64 7.53032 130.779C10.4637 124.076 10.2619 117.285 10.8221 111.683C11.2234 107.669 11.9772 104.267 14.1996 101.245C16.422 98.2223 20.2627 95.3664 27.4818 92.9596C28.4652 92.6324 29.4968 92.4733 30.5331 92.4891Z" stroke="black" stroke-width="7"/>

</svg>
