<svg
  width="25"
  height="25"
  viewBox="0 0 91 120"
  fill="none"
  xmlns="http://www.w3.org/2000/svg"
>
 <style>
    @keyframes colorChange {
      0% {
        stroke: black; 
      }
      
      50% {
        stroke: #E9FA50;
      }
      75% {
        stroke: #FFFFFF;
      }
      100% {
        stroke: black;
      }
    }

    path {
      animation: colorChange 1s infinite;
      transition: stroke 0.3s ease-in-out;
    }

   
  </style>

   <path
      d="M50.999.001C22.832.003.002 22.833 0 51.001c.002 28.166 22.832 50.996 50.999 50.998C79.169 101.997 101.998 79.167 102 51 101.998 22.833 79.168.003 50.999.001ZM19.445 19.446A44.65 44.65 0 0 1 36.071 8.942c-3.025 3.661-5.546 8.349-7.522 13.77h-12.06a45.245 45.245 0 0 1 2.956-3.266Zm-6.374 8.047h13.943c-1.795 6.36-2.871 13.514-3.06 21.116H6.44a44.328 44.328 0 0 1 6.631-21.116Zm0 47.014a44.329 44.329 0 0 1-6.63-21.116H23.97c.191 7.595 1.237 14.76 3.029 21.117H13.07Zm6.374 8.047a45.202 45.202 0 0 1-2.956-3.266h12.068c.853 2.346 1.797 4.571 2.851 6.617 1.385 2.677 2.94 5.073 4.651 7.15a44.645 44.645 0 0 1-16.614-10.501ZM48.61 95.559a43.687 43.687 0 0 1-2.224-.171c-1.173-.526-2.335-1.246-3.486-2.184-3.513-2.86-6.77-7.704-9.244-13.916H48.61v16.27Zm0-21.052H31.987c-1.888-6.21-3.051-13.41-3.253-21.116H48.61v21.116Zm0-25.898h-19.86c.201-7.711 1.37-14.905 3.26-21.116h16.6v21.116Zm0-25.897H33.677c.62-1.552 1.269-3.05 1.98-4.422 2.12-4.109 4.615-7.35 7.242-9.494 1.15-.938 2.313-1.657 3.486-2.183a43.703 43.703 0 0 1 2.224-.172v16.27Zm40.32 4.78a44.328 44.328 0 0 1 6.63 21.117H78.03c-.191-7.595-1.237-14.76-3.03-21.116h13.93Zm-6.374-8.046a45.206 45.206 0 0 1 2.955 3.266H73.442c-.852-2.346-1.797-4.571-2.85-6.616-1.386-2.677-2.94-5.074-4.652-7.15a44.671 44.671 0 0 1 16.615 10.5ZM53.39 6.441c.746.04 1.488.097 2.224.172 1.173.527 2.335 1.245 3.487 2.183 3.513 2.86 6.768 7.704 9.243 13.916H53.39V6.442Zm0 21.052h16.622c1.888 6.21 3.052 13.41 3.253 21.116H53.39V27.493Zm0 25.898h19.86c-.201 7.712-1.37 14.905-3.26 21.117h-16.6V53.39Zm5.71 39.813c-1.151.938-2.313 1.656-3.487 2.184-.735.074-1.477.132-2.223.17v-16.27h14.932c-.62 1.552-1.269 3.051-1.98 4.422-2.119 4.109-4.615 7.35-7.242 9.494Zm23.455-10.65a44.642 44.642 0 0 1-16.627 10.503c3.026-3.66 5.546-8.348 7.522-13.769h12.06a45.165 45.165 0 0 1-2.955 3.266Zm6.375-8.047H74.985c1.794-6.36 2.871-13.515 3.061-21.116H95.56a44.327 44.327 0 0 1-6.63 21.116Z " stroke="black" stroke-width="1"
    />
</svg>

