<svg width="93" height="93" viewBox="0 0 93 93" fill="none" xmlns="http://www.w3.org/2000/svg">
<rect width="92.1185" height="92.1185" transform="translate(0.202148 0.331299)" fill="white"/>
<g clip-path="url(#clip0_719_2397)">
<path d="M46.5003 67.6748C59.0189 67.6748 69.1672 57.5265 69.1672 45.0079C69.1672 32.4894 59.0189 22.3411 46.5003 22.3411C33.9818 22.3411 23.8335 32.4894 23.8335 45.0079C23.8335 57.5265 33.9818 67.6748 46.5003 67.6748Z" fill="#45EF8A"/>
<path d="M46.4963 67.3763C52.4562 67.3768 58.1764 65.0296 62.4181 60.8429C66.6598 56.6563 69.0816 50.9672 69.159 45.0078H69.168C69.168 47.9845 68.5817 50.9321 67.4426 53.6822C66.3034 56.4323 64.6338 58.9311 62.5289 61.036C60.4241 63.1408 57.9253 64.8105 55.1751 65.9496C52.425 67.0888 49.4775 67.6751 46.5008 67.6751C43.524 67.6751 40.5765 67.0888 37.8264 65.9496C35.0763 64.8105 32.5774 63.1408 30.4726 61.036C28.3677 58.9311 26.6981 56.4323 25.5589 53.6822C24.4198 50.9321 23.8335 47.9845 23.8335 45.0078H23.8425C23.9198 50.9657 26.3404 56.6534 30.5802 60.8398C34.82 65.0262 40.5379 67.3744 46.4963 67.3763Z" fill="#263238" fill-opacity="0.2"/>
<path d="M46.4963 22.3411C40.4862 22.3426 34.7227 24.7307 30.4729 28.9805C26.2232 33.2303 23.835 38.9938 23.8335 45.0038H69.1672C69.1659 38.9923 66.7767 33.2274 62.5251 28.9774C58.2735 24.7273 52.5078 22.3402 46.4963 22.3411Z" fill="#3DDC84"/>
<path d="M46.509 44.4125C48.1563 44.4125 49.4918 43.077 49.4918 41.4296C49.4918 39.7822 48.1563 38.4468 46.509 38.4468C44.8616 38.4468 43.5261 39.7822 43.5261 41.4296C43.5261 43.077 44.8616 44.4125 46.509 44.4125Z" fill="#3DDC84"/>
<path d="M69.1672 45.0137H23.8335V44.7153H69.1672V45.0137Z" fill="#263238" fill-opacity="0.05"/>
<path d="M69.1672 45.3062H23.8335V45.0078H69.1672V45.3062Z" fill="white" fill-opacity="0.05"/>
<path d="M46.4963 22.642C52.4555 22.6414 58.1751 24.9881 62.4167 29.1739C66.6583 33.3597 69.0806 39.0477 69.159 45.0064H69.168C69.168 38.9946 66.7799 33.2291 62.5289 28.9782C58.278 24.7273 52.5125 22.3391 46.5008 22.3391C40.489 22.3391 34.7235 24.7273 30.4726 28.9782C26.2216 33.2291 23.8335 38.9946 23.8335 45.0064H23.8425C23.9209 39.0492 26.3419 33.3626 30.5816 29.1771C34.8213 24.9915 40.5386 22.6438 46.4963 22.642Z" fill="white" fill-opacity="0.2"/>
<path d="M51.3397 45.0127H45.824L59.8537 69.3108L63.0901 71.1776C63.1818 71.2307 63.2858 71.2588 63.3917 71.2591C63.5498 71.2587 63.7014 71.1957 63.8132 71.0839C63.925 70.972 63.988 70.8205 63.9884 70.6624V66.9206L51.3397 45.0127Z" fill="#D7EFFE"/>
<path opacity="0.3" d="M51.3397 45.0127H45.824L59.8537 69.3108L63.0901 71.1776C63.1818 71.2307 63.2858 71.2588 63.3917 71.2591C63.5498 71.2587 63.7014 71.1957 63.8132 71.0839C63.925 70.972 63.988 70.8205 63.9884 70.6624V66.9206L51.3397 45.0127Z" fill="#BDBDBD"/>
<path d="M63.9875 66.9206L51.3396 45.0127H51.1667L63.9875 67.2206V66.9206Z" fill="white" fill-opacity="0.2"/>
<path d="M63.3876 70.9608C63.2817 70.9604 63.1777 70.9323 63.086 70.8792L59.8504 69.0124L45.9968 45.0127H45.824L59.8537 69.3108L63.0901 71.1776C63.1818 71.2307 63.2858 71.2588 63.3917 71.2591C63.5498 71.2587 63.7014 71.1957 63.8132 71.0839C63.925 70.972 63.988 70.8205 63.9884 70.6624V70.364C63.9869 70.5222 63.9233 70.6735 63.8111 70.7852C63.699 70.8968 63.5475 70.9599 63.3893 70.9608H63.3876Z" fill="#212121" fill-opacity="0.1"/>
<path d="M58.4401 45.0135C58.44 47.0569 57.9151 49.0661 56.9156 50.8484C55.9161 52.6307 54.4756 54.1265 52.7321 55.1923C50.9887 56.258 49.0007 56.8582 46.9587 56.9351C44.9167 57.012 42.8892 56.5632 41.0705 55.6316L46.5095 46.207L47.1984 45.0143H41.6876L29.0364 66.9214V70.6632C29.0368 70.8213 29.0998 70.9729 29.2116 71.0847C29.3234 71.1965 29.475 71.2595 29.6331 71.2599C29.739 71.2596 29.843 71.2315 29.9347 71.1784L33.1711 69.3116L38.6835 59.768C41.2288 61.118 44.08 61.7867 46.9601 61.7091C49.8402 61.6315 52.6512 60.8103 55.1202 59.3252C57.5891 57.8402 59.6319 55.7417 61.0501 53.2338C62.4683 50.7259 63.2138 47.8938 63.214 45.0127L58.4401 45.0135Z" fill="#D7EFFE"/>
<path d="M41.6876 45.0166L29.0364 66.9245V67.2229L41.8629 45.0166H41.6876ZM46.5095 56.9463C44.6176 56.9486 42.7525 56.4986 41.0697 55.6339V55.9322C42.8883 56.864 44.9159 57.313 46.9579 57.2362C48.9999 57.1594 50.988 56.5594 52.7316 55.4937C54.4752 54.4279 55.9158 52.9322 56.9153 51.1499C57.9149 49.3676 58.4399 47.3584 58.4401 45.315H63.2034C63.2034 45.2163 63.2123 45.1185 63.2123 45.0166H58.4401C58.4399 48.1806 57.1828 51.215 54.9454 53.4523C52.708 55.6895 49.6736 56.9463 46.5095 56.9463Z" fill="white" fill-opacity="0.4"/>
<path d="M47.2 45.0135H47.0272L41.068 55.3332V55.6316L47.2 45.0135ZM63.2042 45.0135C63.1537 47.8684 62.372 50.6626 60.9338 53.1292C59.4956 55.5958 57.4489 57.6524 54.9893 59.1025C52.5296 60.5527 49.7393 61.3478 46.8847 61.4121C44.0301 61.4764 41.2068 60.8076 38.6844 59.4696L33.1711 69.0132L29.9347 70.8801C29.8431 70.9331 29.7391 70.9612 29.6331 70.9616C29.475 70.9611 29.3234 70.8981 29.2116 70.7863C29.0998 70.6745 29.0368 70.523 29.0364 70.3648V70.6632C29.0368 70.8213 29.0998 70.9729 29.2116 71.0847C29.3234 71.1965 29.475 71.2595 29.6331 71.2599C29.739 71.2596 29.843 71.2315 29.9347 71.1784L33.1711 69.3116L38.6844 59.768C41.2296 61.118 44.0808 61.7867 46.9609 61.7091C49.841 61.6315 52.6521 60.8103 55.121 59.3252C57.5899 57.8402 59.6327 55.7417 61.0509 53.2338C62.4692 50.7259 63.2146 47.8938 63.2148 45.0127L63.2042 45.0135Z" fill="#212121" fill-opacity="0.1"/>
<path d="M51.8799 34.2699H48.8979V30.6912H44.1257V34.2699H41.1428C40.6672 34.2699 40.211 34.4589 39.8747 34.7952C39.5383 35.1316 39.3494 35.5877 39.3494 36.0634V45.0062L45.2425 50.8936C45.4083 51.0598 45.6053 51.1916 45.8221 51.2815C46.0389 51.3714 46.2713 51.4177 46.5061 51.4177C46.7408 51.4177 46.9732 51.3714 47.19 51.2815C47.4069 51.1916 47.6038 51.0598 47.7696 50.8936L53.6628 45.0062V36.0593C53.6628 35.5837 53.4738 35.1275 53.1375 34.7911C52.8012 34.4548 52.345 34.2658 51.8693 34.2658L51.8799 34.2699ZM46.5118 44.4103C45.9217 44.4105 45.3448 44.2356 44.8541 43.9078C44.3634 43.58 43.981 43.1141 43.7552 42.5689C43.5294 42.0238 43.4703 41.4239 43.5855 40.8451C43.7007 40.2664 43.985 39.7348 44.4024 39.3177C44.8197 38.9005 45.3514 38.6166 45.9302 38.5017C46.509 38.3868 47.1089 38.4462 47.654 38.6723C48.199 38.8984 48.6647 39.2811 48.9922 39.772C49.3197 40.2628 49.4943 40.8398 49.4938 41.4299C49.4929 42.2204 49.1784 42.9782 48.6193 43.537C48.0602 44.0958 47.3022 44.4099 46.5118 44.4103Z" fill="#073042"/>
<path d="M51.8772 34.2687H48.8944V34.5687H51.8772C52.3529 34.5687 52.8091 34.7577 53.1454 35.094C53.4817 35.4303 53.6707 35.8865 53.6707 36.3622V36.0638C53.6707 35.8283 53.6243 35.5951 53.5342 35.3775C53.444 35.1599 53.3119 34.9622 53.1454 34.7956C52.9789 34.6291 52.7812 34.497 52.5636 34.4069C52.346 34.3167 52.1128 34.2703 51.8772 34.2703V34.2687ZM48.8944 30.6899H44.1222V30.9883H48.8944V30.6899ZM44.1222 34.2687H41.1401C40.6645 34.2687 40.2083 34.4577 39.872 34.794C39.5356 35.1303 39.3467 35.5865 39.3467 36.0622V36.3605C39.3467 36.125 39.3931 35.8918 39.4832 35.6742C39.5733 35.4566 39.7054 35.2589 39.872 35.0924C40.0385 34.9258 40.2362 34.7937 40.4538 34.7036C40.6714 34.6135 40.9046 34.5671 41.1401 34.5671H44.123L44.1222 34.2687ZM46.5075 44.4091C45.7164 44.4089 44.9579 44.0945 44.3985 43.5352C43.8392 42.9758 43.5248 42.2173 43.5246 41.4262V41.7246C43.5376 42.507 43.8575 43.2531 44.4154 43.8018C44.9733 44.3506 45.7245 44.6581 46.5071 44.6581C47.2896 44.6581 48.0408 44.3506 48.5987 43.8018C49.1566 43.2531 49.4766 42.507 49.4895 41.7246V41.4262C49.4893 42.2171 49.1751 42.9756 48.6159 43.5349C48.0567 44.0942 47.2984 44.4086 46.5075 44.4091Z" fill="white" fill-opacity="0.1"/>
<path d="M46.5114 38.4435C47.3024 38.4438 48.061 38.7581 48.6203 39.3174C49.1797 39.8768 49.494 40.6354 49.4942 41.4264V41.1337C49.4813 40.3513 49.1614 39.6052 48.6035 39.0565C48.0455 38.5077 47.2943 38.2002 46.5118 38.2002C45.7292 38.2002 44.978 38.5077 44.4201 39.0565C43.8622 39.6052 43.5423 40.3513 43.5293 41.1337V41.4321C43.5287 41.04 43.6053 40.6516 43.7549 40.2892C43.9044 39.9267 44.124 39.5973 44.4009 39.3197C44.6779 39.0422 45.0068 38.8219 45.3689 38.6716C45.7311 38.5212 46.1193 38.4438 46.5114 38.4435ZM47.7758 50.5901C47.6099 50.7563 47.413 50.8881 47.1962 50.978C46.9793 51.0679 46.7469 51.1142 46.5122 51.1142C46.2774 51.1142 46.045 51.0679 45.8282 50.978C45.6114 50.8881 45.4144 50.7563 45.2486 50.5901L39.3555 44.7027V45.0011L45.2486 50.8885C45.4144 51.0546 45.6114 51.1864 45.8282 51.2764C46.045 51.3663 46.2774 51.4126 46.5122 51.4126C46.7469 51.4126 46.9793 51.3663 47.1962 51.2764C47.413 51.1864 47.6099 51.0546 47.7758 50.8885L53.6689 45.0011V44.7027L47.7758 50.5901Z" fill="#212121" fill-opacity="0.1"/>
<path d="M69.1749 45.0086C69.175 41.2084 68.2194 37.4692 66.3962 34.135C64.5729 30.8008 61.9405 27.9786 58.741 25.928C55.5415 23.8774 51.8778 22.6643 48.0868 22.4002C44.2958 22.1362 40.4993 22.8297 37.0464 24.4169C33.5936 26.0042 30.5953 28.4342 28.3275 31.4835C26.0596 34.5328 24.5949 38.1034 24.0681 41.8669C23.5414 45.6304 23.9695 49.466 25.3131 53.0207C26.6566 56.5755 28.8725 59.7353 31.7569 62.2095L29.0365 66.9189V70.6591C29.037 70.8172 29.1 70.9688 29.2118 71.0806C29.3236 71.1924 29.4751 71.2554 29.6333 71.2559C29.7392 71.2555 29.8432 71.2274 29.9349 71.1743L33.1713 69.3075L35.6984 64.9356C39.0186 66.7343 42.7352 67.6764 46.5113 67.6764C50.2875 67.6764 54.004 66.7343 57.3242 64.9356L59.8514 69.3075L63.0869 71.1743C63.1786 71.2274 63.2826 71.2555 63.3886 71.2559C63.5467 71.2554 63.6982 71.1924 63.81 71.0806C63.9219 70.9688 63.9849 70.8172 63.9853 70.6591V66.9189L61.265 62.2095C63.749 60.0849 65.7427 57.4469 67.1087 54.4773C68.4747 51.5077 69.1804 48.2773 69.1774 45.0086H69.1749Z" fill="url(#paint0_radial_719_2397)"/>
</g>
<defs>
<radialGradient id="paint0_radial_719_2397" cx="0" cy="0" r="1" gradientUnits="userSpaceOnUse" gradientTransform="translate(41.9011 40.8092) scale(53.702 57.9462)">
<stop stop-color="white" stop-opacity="0.102"/>
<stop offset="1" stop-color="white" stop-opacity="0"/>
</radialGradient>
<clipPath id="clip0_719_2397">
<rect width="45.3337" height="48.9125" fill="white" transform="translate(23.843 22.3376)"/>
</clipPath>
</defs>
</svg>
