<svg width="93" height="93" viewBox="0 0 93 93" fill="none" xmlns="http://www.w3.org/2000/svg">
<rect width="92.1185" height="92.1185" transform="translate(0.404297 -0.000488281)" fill="white"/>
<g clip-path="url(#clip0_719_2364)">
<path d="M69.121 32.6846C69.1379 32.7475 69.1468 32.8123 69.1468 32.8775V43.0045C69.1468 43.2691 69.0053 43.5134 68.7758 43.6451L60.2759 48.5388V58.2385C60.2759 58.5024 60.1356 58.7461 59.9067 58.879L42.1641 69.0928C42.1235 69.1159 42.0792 69.1307 42.0349 69.1464C42.0183 69.1519 42.0026 69.1621 41.985 69.1667C41.861 69.1993 41.7306 69.1993 41.6066 69.1667C41.5863 69.1611 41.5679 69.1501 41.5485 69.1427C41.5079 69.1279 41.4654 69.115 41.4266 69.0928L23.6877 58.879C23.4583 58.7473 23.3167 58.503 23.3167 58.2385V27.8573C23.3167 27.7909 23.3259 27.7263 23.3425 27.6635C23.348 27.6423 23.361 27.6229 23.3683 27.6017C23.3822 27.5629 23.3951 27.5232 23.4154 27.4872C23.4293 27.4632 23.4496 27.4438 23.4662 27.4217C23.4874 27.3921 23.5068 27.3617 23.5317 27.3358C23.5529 27.3146 23.5806 27.2989 23.6046 27.2805C23.6314 27.2583 23.6554 27.2343 23.6858 27.2168H23.6868L32.5567 22.1099C32.7853 21.9784 33.0665 21.9784 33.2951 22.1099L42.165 27.2168H42.1669C42.1964 27.2352 42.2213 27.2583 42.2481 27.2795C42.2721 27.298 42.2989 27.3146 42.3201 27.3349C42.3459 27.3617 42.3644 27.3921 42.3865 27.4217C42.4022 27.4438 42.4235 27.4632 42.4364 27.4872C42.4576 27.5241 42.4696 27.5629 42.4844 27.6017C42.4918 27.6229 42.5047 27.6423 42.5102 27.6644C42.5272 27.7273 42.5359 27.7922 42.5361 27.8573V46.8331L49.9274 42.5772V32.8765C49.9274 32.8119 49.9366 32.7464 49.9532 32.6846C49.9597 32.6624 49.9717 32.643 49.9791 32.6218C49.9938 32.583 50.0068 32.5434 50.0271 32.5074C50.0409 32.4834 50.0612 32.464 50.0769 32.4418C50.0991 32.4123 50.1175 32.3818 50.1434 32.356C50.1646 32.3348 50.1914 32.3191 50.2153 32.3006C50.243 32.2785 50.267 32.2545 50.2966 32.2369H50.2975L59.1684 27.13C59.3969 26.9983 59.6782 26.9983 59.9067 27.13L68.7767 32.2369C68.8081 32.2554 68.8321 32.2785 68.8597 32.2997C68.8828 32.3181 68.9096 32.3348 68.9308 32.3551C68.9567 32.3818 68.9751 32.4123 68.9973 32.4418C69.0139 32.464 69.0342 32.4834 69.0471 32.5074C69.0683 32.5434 69.0803 32.583 69.0951 32.6218C69.1034 32.643 69.1154 32.6624 69.121 32.6846ZM67.6682 42.5772V34.1558L64.5642 35.9427L60.2759 38.4117V46.8331L67.6691 42.5772H67.6682ZM58.7982 57.8111V49.3842L54.5802 51.7932L42.5351 58.6677V67.1739L58.7982 57.8111ZM24.7953 29.1357V57.8111L41.0565 67.173V58.6686L32.5613 53.8607L32.5585 53.8589L32.5549 53.857C32.5262 53.8404 32.5022 53.8164 32.4755 53.7961C32.4524 53.7777 32.4256 53.7629 32.4053 53.7426L32.4035 53.7398C32.3795 53.7167 32.3629 53.6881 32.3426 53.6623C32.3241 53.6374 32.302 53.6161 32.2872 53.5903L32.2863 53.5875C32.2697 53.5598 32.2595 53.5266 32.2475 53.4952C32.2355 53.4675 32.2198 53.4417 32.2124 53.4122V53.4112C32.2032 53.3762 32.2014 53.3392 32.1977 53.3032C32.194 53.2756 32.1866 53.2479 32.1866 53.2202V53.2183V33.3916L27.8993 30.9217L24.7953 29.1366V29.1357ZM32.9268 23.6033L25.5364 27.8573L32.925 32.1114L40.3144 27.8564L32.925 23.6033H32.9268ZM36.7702 50.1522L41.0574 47.6841V29.1357L37.9534 30.9226L33.6652 33.3916V51.94L36.7702 50.1522ZM59.5375 28.6234L52.1481 32.8775L59.5375 37.1315L66.9261 32.8765L59.5375 28.6234ZM58.7982 38.4117L54.51 35.9427L51.406 34.1558V42.5772L55.6933 45.0453L58.7982 46.8331V38.4117ZM41.7949 57.3893L52.6336 51.2016L58.0515 48.1096L50.6676 43.8583L42.166 48.7529L34.4175 53.2137L41.7949 57.3893Z" fill="#FF2D20"/>
</g>
<defs>
<clipPath id="clip0_719_2364">
<rect width="47.2623" height="47.2623" fill="white" transform="translate(22.6003 22.0122)"/>
</clipPath>
</defs>
</svg>
