<svg width="93" height="93" viewBox="0 0 93 93" fill="none" xmlns="http://www.w3.org/2000/svg">
<rect width="92.1185" height="92.1185" transform="translate(0.881348 -0.000488281)" fill="white"/>
<g clip-path="url(#clip0_719_2448)">
<path d="M32.5392 55.7753H30.3381C30.2604 52.0492 30.046 48.5438 29.6949 45.2591H29.6754L26.3224 55.7753H24.6464L21.3146 45.2591H21.2942C21.0469 48.4112 20.891 51.9166 20.8263 55.7753H18.8225C18.9524 51.0857 19.2771 46.689 19.7967 42.5852H22.5219L25.7012 52.2772H25.7208L28.9172 42.5852H31.5259C32.0976 47.3917 32.4354 51.7884 32.5392 55.7753ZM42.0902 46.0433C41.1934 50.921 40.0111 54.4655 38.5432 56.6769C37.4019 58.3807 36.1481 59.2326 34.7818 59.2326C34.3172 59.2095 33.8611 59.0989 33.4376 58.9065V57.7309C33.7412 57.7725 34.0474 57.7922 34.3538 57.7896C34.9157 57.8158 35.4663 57.6269 35.8938 57.2614C36.1077 57.0851 36.2811 56.8647 36.4021 56.6152C36.5231 56.3658 36.5888 56.0932 36.5949 55.816C36.5037 55.048 36.3206 54.2937 36.0495 53.5693L33.6316 46.0433H35.7951L37.5291 51.6682C37.8517 52.5243 38.0174 53.4314 38.0182 54.3462C38.9999 51.665 39.6663 48.8786 40.0041 46.0433H42.0902Z" fill="#00758F"/>
<path d="M51.7344 52.1289C51.7478 52.6505 51.6447 53.1686 51.4324 53.6453C51.2202 54.122 50.9042 54.5452 50.5075 54.8843C49.5808 55.6371 48.408 56.0196 47.2157 55.9579C45.872 55.9385 44.5663 55.5087 43.4739 54.7261L44.0388 53.593C44.9073 54.0682 45.8742 54.3356 46.8635 54.3739C47.5253 54.4121 48.1806 54.2269 48.7246 53.8481C48.9513 53.6774 49.1343 53.4554 49.2587 53.2004C49.3831 52.9453 49.4454 52.6645 49.4404 52.3808C49.4404 51.5973 48.8958 50.9281 47.8964 50.3664C46.9736 49.8585 45.1296 48.7987 45.1296 48.7987C44.6537 48.5053 44.2641 48.0909 44.0006 47.5979C43.7371 47.1048 43.6091 46.5507 43.6296 45.992C43.6122 45.5043 43.7037 45.0189 43.8975 44.571C44.0913 44.1232 44.3824 43.7241 44.7497 43.4029C45.5568 42.7231 46.5894 42.3706 47.6437 42.4148C48.8266 42.4041 49.9861 42.7446 50.9754 43.3931L50.4675 44.5254C49.6692 44.1737 48.8078 43.9879 47.9355 43.9792C47.3733 43.9415 46.8174 44.1161 46.3776 44.4684C46.194 44.6209 46.046 44.8119 45.944 45.0278C45.8421 45.2437 45.7886 45.4793 45.7874 45.7181C45.7874 46.499 46.3442 47.1765 47.3714 47.7496C48.3056 48.2574 50.1953 49.3384 50.1953 49.3384C50.6788 49.6218 51.077 50.0303 51.348 50.521C51.619 51.0116 51.7528 51.5662 51.7352 52.1264" fill="#F29111"/>
<path fill-rule="evenodd" clip-rule="evenodd" d="M55.6659 53.1459C55.0405 51.8593 54.7647 50.4308 54.8661 49.0039C54.8661 45.6827 55.8729 44.0216 57.8865 44.0205C58.3448 43.9904 58.8026 44.0854 59.2111 44.2953C59.6196 44.5052 59.9634 44.8222 60.2057 45.2123C60.8282 46.4862 61.1038 47.9017 61.0046 49.3161C61.0046 52.6639 59.9979 54.338 57.9843 54.3386C57.5259 54.3693 57.0679 54.2745 56.6594 54.0643C56.2509 53.8542 55.9074 53.5367 55.6659 53.1459ZM63.5 56.1027L61.0821 54.9068C61.3017 54.7296 61.5042 54.5323 61.687 54.3174C62.7136 53.1076 63.2272 51.3169 63.2277 48.9452C63.2277 44.5816 61.5193 42.3993 58.1025 42.3982C57.3662 42.359 56.6307 42.4882 55.9519 42.7761C55.2731 43.064 54.6689 43.503 54.1854 44.0596C53.1583 45.271 52.645 47.0555 52.6455 49.4131C52.6455 51.7316 53.1001 53.4315 54.0094 54.5131C54.4859 55.024 55.0712 55.4211 55.722 55.6751C56.3728 55.9292 57.0725 56.0335 57.7691 55.9804C58.3514 55.9865 58.9316 55.9086 59.4916 55.7489L62.6408 57.5864L63.4992 56.1035" fill="#F29111"/>
<path d="M71.3945 55.788H65.1394V42.5979H67.2443V54.1657H71.3945V55.788ZM72.8953 55.788H73.2442V54.4445H73.7007V54.1706H72.4176V54.4445H72.892L72.8953 55.788ZM75.5488 55.788H75.8749V54.1722H75.3801L74.9774 55.2736L74.5396 54.1722H74.0635V55.788H74.3741V54.5578H74.392L74.851 55.788H75.0882L75.5464 54.5578L75.5488 55.788Z" fill="#F29111"/>
<path fill-rule="evenodd" clip-rule="evenodd" d="M74.0435 38.1737C72.9955 38.0996 71.9438 38.2517 70.9596 38.6196C70.7208 38.715 70.3401 38.715 70.3074 39.0183C70.4354 39.1454 70.4509 39.3525 70.5626 39.5286C70.7798 39.8977 71.0592 40.2265 71.3884 40.5003C71.7218 40.7555 72.0561 41.0098 72.4058 41.234C73.0254 41.618 73.7248 41.8405 74.328 42.2228C74.6786 42.4454 75.0275 42.7323 75.378 42.972C75.5525 43.0992 75.6626 43.3071 75.8859 43.3861V43.338C75.7742 43.1954 75.7424 42.9875 75.6324 42.8277C75.4734 42.6696 75.3145 42.5253 75.1555 42.3663C74.69 41.7488 74.1327 41.2061 73.5031 40.7571C72.9944 40.4057 71.8808 39.9272 71.6754 39.3395L71.6428 39.3068C72.0154 39.2537 72.3825 39.1677 72.74 39.0501C73.2797 38.9074 73.7721 38.9392 74.3289 38.7965C74.5832 38.7321 74.8375 38.6522 75.0935 38.574V38.4297C74.8058 38.1435 74.6003 37.7604 74.2979 37.4897C73.4752 36.7713 72.5984 36.1172 71.6754 35.5332C71.1822 35.2145 70.5463 35.0083 70.0213 34.7368C69.8314 34.6406 69.5143 34.5941 69.4026 34.4335C69.1412 34.0495 68.9225 33.6381 68.7504 33.2066C68.2898 32.3311 67.8439 31.3594 67.4461 30.4349C67.2116 29.8142 66.941 29.2078 66.6358 28.6187C65.1634 26.1111 63.037 24.051 60.4842 22.6587C59.8403 22.3467 59.1555 22.1271 58.4503 22.0065C58.0524 21.9894 57.6554 21.9584 57.2576 21.9429C56.9998 21.7749 56.7545 21.5883 56.5239 21.3845C55.6174 20.8139 53.2818 19.5682 52.6109 21.2092C52.1813 22.2454 53.2468 23.2652 53.6128 23.791C53.9208 24.1623 54.1922 24.5625 54.4231 24.9861C54.5348 25.2567 54.5666 25.5445 54.6783 25.8306C54.9106 26.5586 55.1867 27.2718 55.5049 27.9665C55.6751 28.31 55.8714 28.6401 56.0919 28.9537C56.2198 29.1298 56.4424 29.2089 56.4897 29.4966C56.3137 29.8764 56.1905 30.2785 56.1236 30.6917C55.5629 32.4672 55.7289 34.3926 56.5851 36.046C56.8386 36.4447 57.4435 37.321 58.2546 36.9859C58.9695 36.6998 58.8106 35.7909 59.0176 34.9952C59.0649 34.8028 59.0331 34.6765 59.1285 34.5493V34.5811C59.3511 35.0262 59.5744 35.4558 59.7807 35.9034C60.3479 36.7232 61.0461 37.4442 61.8472 38.0376C62.2279 38.3253 62.5296 38.8185 63.0065 38.9946V38.9465H62.9755C62.8688 38.8241 62.7456 38.7171 62.6094 38.6286C62.3086 38.3326 62.0322 38.0128 61.7828 37.6724C61.1099 36.7568 60.5146 35.7865 60.0032 34.7718C59.7481 34.277 59.5263 33.7357 59.3193 33.2417C59.2239 33.0509 59.2239 32.7632 59.0649 32.6711C58.7715 33.0025 58.5158 33.3656 58.3027 33.7536C58.0455 34.5321 57.8955 35.342 57.8568 36.161C57.7932 36.1773 57.8258 36.161 57.7932 36.1928C57.2853 36.0656 57.11 35.5406 56.9193 35.0947C56.4248 33.7261 56.3749 32.2363 56.7766 30.8377C56.8875 30.5034 57.3652 29.4518 57.1736 29.1331C57.0774 28.829 56.7603 28.6553 56.5859 28.4157C56.3645 28.0941 56.1735 27.7527 56.0152 27.3958C55.6337 26.504 55.4446 25.5152 55.0296 24.6241C54.8004 24.1931 54.5345 23.7826 54.2348 23.3973C53.904 23.0122 53.611 22.5962 53.3601 22.1549C53.2786 21.9788 53.1701 21.6918 53.2965 21.5027C53.3061 21.4485 53.3331 21.3989 53.3734 21.3614C53.4137 21.3239 53.4651 21.3005 53.5199 21.2948C53.7253 21.1196 54.3139 21.3421 54.5201 21.4375C55.0721 21.6447 55.5997 21.9118 56.0935 22.234C56.316 22.397 56.5549 22.6962 56.8402 22.7769H57.1745C57.6831 22.8877 58.2554 22.8079 58.7323 22.9521C59.5381 23.2216 60.3068 23.591 61.0206 24.0519C63.1264 25.3981 64.8373 27.2789 65.9787 29.5023C66.1695 29.8684 66.2502 30.2034 66.4246 30.5849C66.758 31.3675 67.1722 32.164 67.5056 32.9287C67.7985 33.6818 68.1777 34.3985 68.6355 35.0645C68.8735 35.3987 69.8273 35.574 70.2561 35.7493C70.6294 35.8786 70.9957 36.0274 71.3534 36.1952C71.8938 36.5294 72.4327 36.9126 72.9422 37.2794C73.1957 37.4702 73.9906 37.8688 74.0387 38.1876" fill="#00758F"/>
<path fill-rule="evenodd" clip-rule="evenodd" d="M57.8316 24.3252C57.6116 24.324 57.3924 24.3514 57.1794 24.4068V24.4385H57.2104C57.363 24.6686 57.5331 24.8867 57.7191 25.0907C57.8471 25.3459 57.9588 25.6002 58.0851 25.8554L58.1161 25.8228C58.2345 25.729 58.3273 25.6068 58.3859 25.4676C58.4445 25.3283 58.4669 25.1765 58.4512 25.0263C58.3817 24.9181 58.318 24.8062 58.2604 24.6913C58.165 24.5323 57.9588 24.4524 57.8308 24.3252" fill="#00758F"/>
</g>
<defs>
<clipPath id="clip0_719_2448">
<rect width="57.0645" height="38.8577" fill="white" transform="translate(18.8237 20.377)"/>
</clipPath>
</defs>
</svg>
