<svg width="93" height="92" viewBox="0 0 93 92" fill="none" xmlns="http://www.w3.org/2000/svg">
<rect width="91.6035" height="91.6035" transform="translate(0.745605 0.032959)" fill="white"/>
<g clip-path="url(#clip0_639_2160)">
<path d="M46.2335 20.0142C46.8257 19.674 47.493 19.4954 48.1715 19.4954C48.8501 19.4954 49.5173 19.674 50.1095 20.0142C56.0104 23.4397 61.9108 26.8642 67.8109 30.2876C68.3659 30.6122 68.8282 31.081 69.1514 31.6469C69.4745 32.2128 69.6472 32.8561 69.6522 33.5122V54.1219C69.6418 54.8032 69.4525 55.4689 69.1043 56.0488C68.7562 56.6287 68.262 57.1012 67.674 57.4165C61.7924 60.8214 55.9122 64.2292 50.0334 67.64C49.4301 67.9829 48.7483 68.1533 48.0591 68.1337C47.3699 68.1141 46.6984 67.9051 46.1144 67.5284C44.3513 66.4775 42.5869 65.4296 40.8212 64.3846C40.4342 64.2064 40.0867 63.9489 39.7999 63.6279C40.0245 63.3164 40.4272 63.2773 40.7537 63.1418C41.4781 62.8757 42.1768 62.5407 42.8405 62.1411C42.9241 62.0904 43.0205 62.0665 43.1174 62.0725C43.2143 62.0784 43.3073 62.114 43.3844 62.1745C44.8924 63.063 46.387 63.9766 47.8999 64.8562C48.2228 65.0454 48.5493 64.7931 48.8255 64.6355C54.5991 61.2836 60.3737 57.9363 66.1494 54.5936C66.2525 54.5407 66.3378 54.4572 66.394 54.3538C66.4501 54.2504 66.4746 54.132 66.4643 54.0141C66.4684 47.2156 66.4684 40.4168 66.4643 33.6175C66.4748 33.4853 66.445 33.3531 66.379 33.2392C66.313 33.1253 66.2141 33.0353 66.096 32.9819C60.2352 29.5909 54.3757 26.1979 48.5174 22.8031C48.4156 22.732 48.2953 22.6939 48.1721 22.6939C48.049 22.6939 47.9287 22.732 47.8269 22.8031C41.9665 26.1954 36.1068 29.5894 30.2477 32.985C30.1291 33.0368 30.0294 33.1255 29.9626 33.2386C29.8959 33.3518 29.8655 33.4837 29.8757 33.6156C29.8757 40.414 29.8757 47.2131 29.8757 54.0128C29.8656 54.1302 29.8907 54.2479 29.9477 54.3501C30.0046 54.4523 30.0907 54.5342 30.1943 54.5847C31.7582 55.4957 33.3231 56.4034 34.8891 57.308C35.3231 57.5836 35.8089 57.762 36.3147 57.8315C36.8204 57.901 37.3348 57.8602 37.8241 57.7116C38.2495 57.548 38.6159 57.2547 38.8744 56.8711C39.1329 56.4874 39.271 56.0318 39.2702 55.5652C39.2782 48.8065 39.2659 42.0465 39.2763 35.289C39.2746 35.2173 39.2876 35.146 39.3146 35.0798C39.3415 35.0137 39.3818 34.9541 39.4327 34.905C39.4837 34.856 39.5442 34.8185 39.6102 34.7952C39.6762 34.7718 39.7463 34.763 39.8158 34.7695C40.5671 34.7644 41.3196 34.7594 42.0709 34.7695C42.1441 34.7728 42.2158 34.792 42.2813 34.8258C42.3468 34.8595 42.4047 34.9072 42.451 34.9655C42.4974 35.0238 42.5312 35.0916 42.5503 35.1643C42.5694 35.237 42.5734 35.313 42.5619 35.3874C42.5619 42.189 42.5699 48.9906 42.557 55.7922C42.557 57.605 41.834 59.5754 40.2019 60.4645C39.1817 60.9528 38.0649 61.1904 36.9399 61.1587C35.8148 61.127 34.7124 60.8267 33.7198 60.2816C32.0012 59.3989 30.3594 58.3591 28.6702 57.4146C28.0812 57.1007 27.5859 56.6289 27.2369 56.0492C26.8879 55.4695 26.6981 54.8035 26.6877 54.1219V33.5122C26.6925 32.843 26.8715 32.1873 27.206 31.6131C27.5406 31.0389 28.0186 30.5671 28.5905 30.2466C34.4733 26.8375 40.3543 23.4267 46.2335 20.0142Z" fill="#8CC84B"/>
<path d="M51.3617 34.2886C53.9267 34.119 56.6721 34.1883 58.9799 35.4866C59.8419 36.015 60.5546 36.7655 61.0473 37.6639C61.5401 38.5623 61.7958 39.5773 61.7892 40.6085C61.7558 40.7375 61.6782 40.8499 61.5706 40.9248C61.463 40.9998 61.3327 41.0323 61.2037 41.0164C60.4598 41.0164 59.7152 41.0265 58.9713 41.0114C58.8281 41.0022 58.6934 40.9382 58.5937 40.8322C58.494 40.7261 58.4365 40.5856 58.4324 40.4382C58.3482 39.9389 58.1591 39.4644 57.8783 39.0477C57.5975 38.631 57.2318 38.282 56.8065 38.0252C55.4341 37.319 53.8426 37.3549 52.3462 37.3694C51.2291 37.3348 50.1244 37.6185 49.1546 38.1891C48.82 38.4552 48.575 38.8223 48.4539 39.2388C48.3328 39.6553 48.3417 40.1003 48.4794 40.5114C48.7188 41.0952 49.3743 41.2831 49.9107 41.4572C53.0017 42.2876 56.2769 42.205 59.3089 43.2977C59.9601 43.4834 60.5613 43.8199 61.0662 44.2814C61.5712 44.7429 61.9665 45.317 62.2219 45.9598C62.5255 46.8713 62.5987 47.8471 62.4346 48.7956C62.2706 49.7441 61.8747 50.6342 61.2841 51.3825C60.215 52.5227 58.826 53.2916 57.3111 53.5818C55.3381 53.9933 53.3143 54.0816 51.3145 53.8435C49.4387 53.624 47.4876 53.1177 46.0396 51.8049C45.4398 51.238 44.9692 50.5419 44.6615 49.7665C44.3538 48.9911 44.2166 48.1555 44.2597 47.3193C44.2747 47.185 44.3405 47.0622 44.443 46.9775C44.5455 46.8928 44.6763 46.8529 44.8072 46.8666C45.5566 46.8602 46.306 46.8584 47.0555 46.8666C47.1249 46.865 47.1939 46.8777 47.2585 46.9037C47.3231 46.9298 47.3821 46.9688 47.4319 47.0184C47.4818 47.068 47.5216 47.1272 47.5491 47.1927C47.5766 47.2582 47.5911 47.3287 47.5919 47.4C47.6282 47.8771 47.7595 48.3415 47.9775 48.7645C48.1955 49.1875 48.4956 49.56 48.8593 49.8591C50.3821 50.8679 52.2934 50.7992 54.0372 50.8276C55.482 50.7645 57.1061 50.7418 58.2827 49.7607C58.5749 49.4675 58.7875 49.101 58.8995 48.6975C59.0115 48.2939 59.0189 47.8673 58.921 47.4599C58.7369 46.7802 58.0464 46.463 57.4522 46.2562C54.4011 45.2644 51.0892 45.6257 48.0676 44.5033C47.4333 44.3124 46.8469 43.9825 46.3488 43.5361C45.8508 43.0898 45.453 42.5377 45.1828 41.9181C44.8353 40.994 44.7475 39.9883 44.9293 39.0154C45.111 38.0425 45.5551 37.1417 46.2109 36.4154C47.5612 35.0194 49.5099 34.4815 51.3623 34.2892L51.3617 34.2886Z" fill="#8CC84B"/>
</g>
<defs>
<clipPath id="clip0_639_2160">
<rect width="42.9645" height="48.639" fill="white" transform="translate(26.6912 19.489)"/>
</clipPath>
</defs>
</svg>
