<svg width="93" height="93" viewBox="0 0 93 93" fill="none" xmlns="http://www.w3.org/2000/svg">
<rect width="92.1185" height="92.1185" transform="translate(0.404297 0.331299)" fill="white"/>
<g clip-path="url(#clip0_719_2436)">
<path d="M72.1402 46.3918C72.1402 43.0566 67.9473 39.8955 61.5183 37.9356C63.0021 31.4084 62.3421 26.2162 59.4374 24.5533C58.7327 24.159 57.9348 23.9603 57.1268 23.9779V26.2701C57.5349 26.2573 57.9394 26.3492 58.3016 26.5369C59.7023 27.3375 60.3103 30.3856 59.8367 34.3048C59.7233 35.2693 59.5377 36.2856 59.311 37.322C57.1578 36.8051 54.9724 36.4315 52.7693 36.2036C51.4568 34.4002 50.025 32.686 48.4833 31.0725C51.8415 27.9632 54.9946 26.2593 57.1369 26.2593V23.9685C54.3036 23.9685 50.5952 25.9824 46.845 29.4693C43.0947 26.0004 39.3863 24.0095 36.553 24.0095V26.2981C38.6859 26.2981 41.8484 27.9913 45.2066 31.0804C43.6723 32.6884 42.2507 34.3995 40.9517 36.2015C38.744 36.4269 36.5546 36.8042 34.3991 37.3307C34.1623 36.3043 33.9869 35.3089 33.8634 34.3544C33.3789 30.4345 33.9767 27.3864 35.3674 26.5758C35.7311 26.3823 36.1404 26.2901 36.5523 26.3089V24.0196C35.7386 24.0025 34.935 24.2011 34.2237 24.595C31.329 26.2572 30.6799 31.44 32.1738 37.9464C25.7657 39.9171 21.5938 43.0674 21.5938 46.3925C21.5938 49.7176 25.7866 52.8887 32.2157 54.8487C30.7319 61.3758 31.3918 66.5681 34.2966 68.231C35.0036 68.6259 35.804 68.8246 36.6144 68.8064C39.4477 68.8064 43.1561 66.7925 46.9063 63.3056C50.6566 66.7745 54.365 68.7654 57.1983 68.7654C58.012 68.7824 58.8156 68.5839 59.5269 68.19C62.4216 66.5278 63.0707 61.3449 61.5768 54.8386C67.9639 52.8786 72.1366 49.7176 72.1366 46.3925L72.1402 46.3918ZM58.7269 39.5467C58.3456 40.8708 57.872 42.2352 57.3362 43.6004C56.9138 42.7797 56.4698 41.9583 55.9867 41.1377C55.5037 40.317 55.0084 39.5165 54.5029 38.7361C55.9658 38.9519 57.3774 39.2187 58.7269 39.5467ZM54.0083 50.4792C53.2047 51.8645 52.3809 53.1786 51.5252 54.3991C49.9902 54.5322 48.4349 54.6041 46.8688 54.6041C45.3027 54.6041 43.7575 54.5322 42.2326 54.4092C41.3777 53.1879 40.5466 51.888 39.7394 50.5094C38.9562 49.1668 38.2418 47.8053 37.5963 46.4248C38.2353 45.0496 38.9559 43.6744 39.7292 42.3302C40.5329 40.9449 41.3567 39.6308 42.2124 38.4103C43.7474 38.2772 45.3027 38.2053 46.8688 38.2053C48.4349 38.2053 49.9801 38.2772 51.505 38.4002C52.3599 39.6215 53.191 40.9214 53.9982 42.3C54.7814 43.6426 55.4957 45.0041 56.1412 46.3846C55.4914 47.7598 54.7816 49.135 54.0083 50.4792ZM57.3384 49.1422C57.8944 50.5174 58.3687 51.8926 58.7601 53.2268C57.4106 53.5555 55.9889 53.8324 54.5152 54.0474C55.0206 53.2562 55.5261 52.4464 55.999 51.6149C56.4719 50.7835 56.9138 49.9628 57.3384 49.1422ZM46.8919 60.092C45.8812 59.0469 44.9252 57.9508 44.0276 56.8079C44.9547 56.8489 45.9049 56.8798 46.8608 56.8798C47.8168 56.8798 48.7873 56.859 49.7252 56.8079C48.8402 57.9527 47.8937 59.049 46.8897 60.092H46.8919ZM39.2267 54.0503C37.7639 53.8345 36.3523 53.5677 35.0028 53.2397C35.384 51.9156 35.8577 50.5512 36.3934 49.186C36.8158 50.0067 37.2599 50.8281 37.7429 51.6487C38.226 52.4694 38.7198 53.2678 39.2245 54.0474L39.2267 54.0503ZM46.8399 32.6944C47.8506 33.7394 48.8066 34.8356 49.7042 35.9785C48.7771 35.9375 47.8269 35.9066 46.871 35.9066C45.915 35.9066 44.9445 35.9274 44.0066 35.9785C44.8901 34.8328 45.8352 33.7355 46.8377 32.6915L46.8399 32.6944ZM39.2159 38.7361C38.7104 39.5273 38.205 40.3371 37.7321 41.1686C37.2592 42 36.8151 42.8106 36.3927 43.6313C35.8367 42.2561 35.3623 40.8809 34.971 39.5467C36.3205 39.2288 37.7422 38.9511 39.2159 38.7361ZM29.8907 51.5876C26.2437 50.0376 23.8848 48.0057 23.8848 46.3946C23.8848 44.7835 26.2437 42.7416 29.8907 41.2017C30.7767 40.8219 31.7449 40.4824 32.7442 40.1652C33.3744 42.2981 34.1488 44.386 35.062 46.4148C34.1584 48.4336 33.3941 50.5116 32.7745 52.6341C31.7557 52.3133 30.7868 51.9645 29.8907 51.5876ZM35.4331 66.2523C34.0323 65.4518 33.4244 62.4036 33.898 58.4845C34.0114 57.5199 34.197 56.5036 34.4237 55.4672C36.5769 55.9841 38.7623 56.3578 40.9654 56.5856C42.2779 58.3891 43.7097 60.1033 45.2514 61.7168C41.8932 64.8261 38.7401 66.53 36.5978 66.53C36.1928 66.5346 35.793 66.4394 35.4338 66.253L35.4331 66.2523ZM59.8699 58.4327C60.3543 62.3526 59.7565 65.4007 58.3658 66.2113C58.0022 66.4048 57.5928 66.497 57.181 66.4782C55.0481 66.4782 51.8855 64.7851 48.5273 61.6959C50.0616 60.0879 51.4833 58.3769 52.7823 56.5749C54.99 56.3494 57.1794 55.9721 59.3348 55.4456C59.566 56.4303 59.7448 57.4264 59.8706 58.4298L59.8699 58.4327ZM63.8368 51.5876C62.9508 51.9674 61.9826 52.3068 60.9832 52.624C60.353 50.4912 59.5787 48.4032 58.6655 46.3745C59.5678 44.3543 60.3306 42.2752 60.9486 40.1516C61.9688 40.4695 62.9371 40.8183 63.8433 41.1981C67.4903 42.748 69.8492 44.7799 69.8492 46.391C69.8492 48.0021 67.4795 50.0441 63.8324 51.584L63.8368 51.5876Z" fill="#61DAFB"/>
<path d="M46.8578 51.084C49.4582 51.084 51.5663 48.9842 51.5663 46.3938C51.5663 43.8035 49.4582 41.7036 46.8578 41.7036C44.2575 41.7036 42.1494 43.8035 42.1494 46.3938C42.1494 48.9842 44.2575 51.084 46.8578 51.084Z" fill="#61DAFB"/>
</g>
<defs>
<clipPath id="clip0_719_2436">
<rect width="50.5429" height="44.8364" fill="white" transform="translate(21.603 23.9707)"/>
</clipPath>
</defs>
</svg>
