<svg width="879" height="128" viewBox="0 0 879 128" fill="none" xmlns="http://www.w3.org/2000/svg">
<path class="path" d="M388.001 123.674C378.738 123.674 370.302 122.124 362.658 118.991C355.013 115.754 348.437 111.346 342.893 105.802C337.452 100.258 333.251 93.8194 330.221 86.5538C327.329 79.1505 325.882 71.2996 325.882 62.9666C325.882 54.6336 327.329 46.8171 330.221 39.5516C333.217 32.1483 337.452 25.6747 342.893 20.1308C348.437 14.5869 355.048 10.2483 362.658 7.11479C370.302 3.878 378.738 2.2597 388.001 2.2597H403.6V16.9974H388.518C381.941 16.9974 375.846 18.1681 370.302 20.4752C364.758 22.7822 359.903 26.019 355.737 30.1855C351.673 34.352 348.505 39.2073 346.198 44.7511C343.891 50.295 342.721 56.3897 342.721 62.9666C342.721 69.4401 343.891 75.5005 346.198 81.1821C348.505 86.726 351.708 91.5812 355.737 95.7477C359.903 99.9142 364.758 103.151 370.302 105.458C375.846 107.765 381.941 108.936 388.518 108.936H403.6V123.674H388.001ZM238.455 79.6326H291.724L270.031 19.4422C269.445 17.9271 268.825 16.7907 268.137 15.9643C267.448 15.1379 266.45 14.7591 265.175 14.7591C264.005 14.7591 263.109 15.1723 262.386 15.9643C261.663 16.7563 261.112 17.9271 260.665 19.4422L238.455 79.6326ZM204.951 123.674L246.237 13.8639C248.096 9.11203 250.644 5.66857 253.881 3.4648C257.118 1.26103 260.871 0.15918 265.175 0.15918C269.48 0.15918 273.199 1.26103 276.47 3.4648C279.81 5.53084 282.358 8.97423 284.114 13.6917L325.573 123.674H307.357L296.786 94.3359H233.29L222.546 123.674H204.951ZM130.608 69.1991H162.872C167.831 69.1991 172.342 68.2006 176.405 66.2378C180.571 64.1718 183.808 61.1416 186.115 57.2162C188.56 53.2907 189.765 48.6076 189.765 43.1671C189.765 37.6232 188.56 32.9403 186.115 29.1181C183.67 25.1926 180.434 22.1625 176.405 20.0964C172.342 18.0304 167.9 16.9629 163.045 16.9629H130.608V69.1991ZM113.942 123.674V2.22523H165.111C172.755 2.22523 179.676 3.94696 185.943 7.42479C192.176 10.7649 197.169 15.5167 200.853 21.6459C204.537 27.7751 206.397 34.9374 206.397 43.1671C206.397 51.018 204.537 58.077 200.853 64.344C197.272 70.4732 192.348 75.2595 186.115 78.7374C179.883 82.2152 172.755 83.9368 164.766 83.9368H130.573V123.674H113.942ZM4.6486 123.674V108.936H57.2292C61.2924 108.936 64.7357 108.006 67.6282 106.147C70.5206 104.184 72.7588 101.705 74.4117 98.6746C76.0301 95.6789 76.8565 92.4764 76.8565 89.1364C76.8565 85.6585 76.0301 82.4907 74.4117 79.5982C72.8966 76.6025 70.7273 74.2265 67.8348 72.4704C65.0457 70.6109 61.6367 69.6812 57.608 69.6812H34.7094C27.8915 69.6812 21.8656 68.3039 16.666 65.5148C11.4665 62.6223 7.36889 58.6968 4.33871 53.7038C1.44626 48.6076 0 42.8916 0 36.5214C0 30.0478 1.37738 24.194 4.16652 18.9945C7.05897 13.795 11.0533 9.69742 16.1495 6.66724C21.349 3.67149 27.3061 2.1563 34.0207 2.1563H85.5338V16.8941H35.5702C31.7481 16.8941 28.408 17.8238 25.5155 19.6832C22.6231 21.4049 20.4193 23.7464 18.9386 26.6389C17.4236 29.428 16.666 32.4237 16.666 35.6605C16.666 38.794 17.3547 41.7897 18.732 44.6822C20.2471 47.4713 22.382 49.7095 25.1368 51.4657C28.0292 53.1874 31.3348 54.0827 35.0193 54.0827H58.4343C65.7343 54.0827 71.9669 55.5289 77.1664 58.4214C82.3659 61.3138 86.3602 65.2393 89.1494 70.2322C91.9385 75.1907 93.3159 80.8723 93.3159 87.2425C93.3159 94.3015 91.8697 100.603 88.9772 106.147C86.1881 111.587 82.1937 115.857 76.9942 118.991C71.7947 122.124 65.8376 123.674 59.123 123.674H4.6486Z" fill="#E9FA50"/>
<path class="path" d="M511.547 1.87598H423.879V16.6482H511.547V1.87598Z" fill="#E9FA50"/>
<path class="path" d="M438.651 84.005V85.8645C438.651 98.605 448.981 108.935 461.722 108.935H511.547V123.707H446.949C434.209 123.707 423.879 113.377 423.879 100.637V46.1966H511.547V60.9687H461.722C448.981 60.9343 438.651 71.2645 438.651 84.005Z" fill="#E9FA50"/>
<path class="path" d="M740.435 1.87598H652.766V16.6482H740.435V1.87598Z" fill="#E9FA50"/>
<path class="path" d="M667.538 84.005V85.8645C667.538 98.605 677.868 108.935 690.609 108.935H740.435V123.707H675.837C663.096 123.707 652.766 113.377 652.766 100.637V46.1966H740.435V60.9687H690.609C677.834 60.9343 667.538 71.2645 667.538 84.005Z" fill="#E9FA50"/>
<path class="path" d="M879 1.6076H866.948V1.53867H772.634V1.6076H759.824L759.962 16.6207H792.605L798.115 16.7585C805.587 16.9307 811.613 22.8533 811.957 30.3255V127.395H827.797V28.9825C828.761 22.1646 834.512 16.9307 841.502 16.7585L847.011 16.6207H879V1.6076Z" fill="#E9FA50"/>
<path class="path" d="M548.943 123.676H532.277V1.53867L550.596 1.84856L610.546 90.8947C612.061 93.1673 615.607 92.0654 615.607 89.3451L615.366 1.53867L632.032 1.84856V123.676H613.541L554.005 35.6971C552.49 33.4245 548.943 34.5263 548.943 37.2466V123.676Z" fill="#E9FA50"/>
</svg>
