<svg width="81" height="82" viewBox="0 0 81 82" fill="none" xmlns="http://www.w3.org/2000/svg">
<path d="M0.745117 30.0137C0.745117 19.8538 0.745117 14.7738 2.72237 10.8932C4.46162 7.47979 7.23687 4.70454 10.6503 2.96529C14.5309 0.988037 19.6109 0.988037 29.7708 0.988037H51.9222C62.0821 0.988037 67.1621 0.988037 71.0425 2.96529C74.456 4.70454 77.2313 7.47979 78.9705 10.8932C80.9478 14.7738 80.9478 19.8538 80.9478 30.0137V52.1651C80.9478 62.3251 80.9478 67.4051 78.9705 71.2854C77.2313 74.6989 74.456 77.4742 71.0425 79.2135C67.1621 81.1908 62.0821 81.1908 51.9222 81.1908H29.7708C19.6109 81.1908 14.5309 81.1908 10.6503 79.2135C7.23687 77.4742 4.46162 74.6989 2.72237 71.2854C0.745117 67.4051 0.745117 62.3251 0.745117 52.1651V30.0137Z" fill="white"/>
<path d="M42.3169 24.1909L32.3096 41.132L43.0161 59.1212C43.2387 59.5291 43.0161 59.6193 42.6936 59.6193H35.0537C34.5155 59.6193 34.1388 59.5998 33.9237 59.2318C33.2056 57.797 32.4884 56.3714 31.7714 54.955C31.0536 53.5391 30.2914 52.0952 29.4851 50.6232C28.6779 49.1523 27.8799 47.6625 27.0907 46.1536C26.3729 47.6253 25.5746 49.0967 24.8041 50.5682C24.0324 52.0399 23.2702 53.5021 22.5175 54.955C21.7643 56.4086 20.9931 57.8526 20.2041 59.2868C20.0603 59.6179 19.8089 59.652 19.4507 59.652H12.0798C11.7902 59.652 11.7553 59.4343 11.9185 59.1765L22.3023 41.6837L12.1874 24.1356C12.0036 23.8853 12.1618 23.6186 12.4564 23.6389H20.0425C20.371 23.6206 20.6613 23.7444 20.8496 24.0254C21.4952 25.4971 22.2126 26.9688 23.0016 28.4399C23.7901 29.9117 24.5884 31.3651 25.3959 32.7992C26.2031 34.234 27.0011 35.6871 27.6825 37.1588C28.3995 35.6507 29.1259 34.1793 29.8615 32.7443C30.5965 31.3095 31.3495 29.8655 32.1212 28.4124C32.8923 26.9596 33.6364 25.5157 34.354 24.0806C34.4493 23.7658 34.6773 23.6063 34.9996 23.6389H42.0477C42.3169 23.6389 42.4281 24.0065 42.3169 24.1909Z" fill="#FF61F6"/>
<path d="M57.7567 60.3356C53.0118 60.4098 48.0419 58.456 45.5435 54.1276C44.3239 52.0495 43.7141 49.4469 43.7143 46.3193C43.694 43.7866 44.325 41.2932 45.5435 39.0905C48.6878 33.47 55.0221 31.3641 61.0387 31.9169V21.0459C61.0387 20.7889 61.1464 20.6596 61.3615 20.6596H68.1406C68.326 20.6325 68.4898 20.8006 68.4635 20.9907V53.6034C68.4635 54.9488 68.5969 56.2897 68.6789 57.6316C68.692 57.8608 68.5594 58.0876 68.3558 58.1836C65.0064 59.6164 61.3821 60.319 57.7567 60.3356ZM61.0387 53.4929V38.4282C56.1246 37.0631 51.3537 40.806 51.3542 45.9882C51.2376 51.346 55.8562 55.0477 61.0387 53.4929Z" fill="#FF61F6"/>
</svg>
