<svg width="106" height="107" viewBox="0 0 106 107" fill="none" xmlns="http://www.w3.org/2000/svg">
<path d="M0 38.8832C0 25.3604 0 18.5989 2.61016 13.4339C4.90613 8.89054 8.56971 5.19668 13.0758 2.88173C18.1985 0.25 24.9046 0.25 38.3165 0.25H67.5585C80.9706 0.25 87.6766 0.25 92.7991 2.88173C97.3052 5.19668 100.969 8.89054 103.265 13.4339C105.875 18.5989 105.875 25.3604 105.875 38.8832V68.3668C105.875 81.8897 105.875 88.6512 103.265 93.816C100.969 98.3594 97.3052 102.053 92.7991 104.368C87.6766 107 80.9706 107 67.5585 107H38.3165C24.9046 107 18.1985 107 13.0758 104.368C8.56971 102.053 4.90613 98.3594 2.61016 93.816C0 88.6512 0 81.8897 0 68.3668V38.8832Z" fill="white"/>
<path d="M22.6875 78.468V31.5255C22.6875 31.2064 22.8198 31.0237 23.1287 31.0237C27.6874 31.0237 32.2442 30.75 36.804 30.75C44.2036 30.75 52.2153 33.3009 55.0236 41.1055C55.6853 43.0217 56.0381 44.9832 56.0381 47.0362C56.0381 50.9597 55.156 54.1984 53.3913 56.7532C48.462 63.8894 39.9187 63.7785 32.2605 63.7785V78.4226C32.3202 78.8561 31.9538 79.0612 31.5988 79.0612H23.2169C22.864 79.0612 22.6875 78.8786 22.6875 78.468ZM32.3044 39.8283V55.1565C35.3411 55.3807 38.5185 55.4051 41.4361 54.4268C44.6573 53.4897 46.4213 50.6787 46.4213 47.31C46.5105 44.4395 44.9594 41.6854 42.3186 40.6495C39.4362 39.441 35.4159 39.3685 32.3044 39.8283Z" fill="#31A8FF"/>
<path d="M83.5533 52.1283C82.2185 51.4188 80.7968 50.8999 79.327 50.5858C77.4387 50.1378 69.9904 48.5686 69.9873 52.4955C70.0535 54.6877 73.505 55.7616 75.03 56.388C80.3839 58.2413 86.4422 61.554 86.3231 68.2133C86.4868 76.5032 78.5205 79.8174 71.6919 79.8181C68.1372 79.8551 64.4338 79.3 61.1804 77.7613C60.8696 77.5954 60.67 77.2413 60.6832 76.8798V68.9475C60.648 68.6296 60.9868 68.3517 61.2515 68.5804C64.4391 70.524 68.2173 71.468 71.9052 71.5183C73.533 71.5183 76.7592 71.3593 76.735 68.9475C76.735 66.6334 72.8755 65.5693 71.3369 64.9814C69.1067 64.1789 66.9922 63.0668 65.0513 61.6763C62.3386 59.7255 60.6371 56.5977 60.6832 53.1566C60.6673 45.3508 68.0003 41.8471 74.6042 41.8456C77.6912 41.8197 81.0067 42.0504 83.8804 43.3146C84.2937 43.437 84.3791 43.8762 84.3776 44.2692V51.6876C84.4037 52.1481 83.8967 52.3048 83.5533 52.1283Z" fill="#31A8FF"/>
</svg>
