<svg width="483" height="298" viewBox="0 0 483 298" fill="none" xmlns="http://www.w3.org/2000/svg">
<path d="M295.15 143.598C295.15 173.818 270.496 198.323 240.076 198.323C209.655 198.323 185.002 173.818 185.002 143.598C185.002 113.378 209.655 88.8729 240.076 88.8729C270.496 88.8729 295.15 113.378 295.15 143.598Z" stroke="#051A2F" stroke-width="1.39427"/>
<mask id="path-2-inside-1_766_1750" fill="white">
<path fill-rule="evenodd" clip-rule="evenodd" d="M18.3882 108.896H19.8094C30.4231 54.7247 84.9058 13.2449 150.832 13.2449C216.757 13.2449 271.24 54.7247 281.854 108.896H283.275C272.645 53.8229 217.394 11.8506 150.832 11.8506C84.2692 11.8506 29.0177 53.8229 18.3882 108.896Z"/>
</mask>
<path fill-rule="evenodd" clip-rule="evenodd" d="M18.3882 108.896H19.8094C30.4231 54.7247 84.9058 13.2449 150.832 13.2449C216.757 13.2449 271.24 54.7247 281.854 108.896H283.275C272.645 53.8229 217.394 11.8506 150.832 11.8506C84.2692 11.8506 29.0177 53.8229 18.3882 108.896Z" fill="#051A2F"/>
<path d="M18.3882 108.896L-588.765 -8.28781L-730.729 727.255H18.3882V108.896ZM19.8094 108.896V727.255H528.771L626.63 227.79L19.8094 108.896ZM281.854 108.896L-324.967 227.79L-227.108 727.255H281.854V108.896ZM283.275 108.896V727.255H1032.39L890.428 -8.2879L283.275 108.896ZM18.3882 727.255H19.8094V-509.462H18.3882V727.255ZM626.63 227.79C570.044 516.601 323.225 631.603 150.832 631.603V-605.114C-153.414 -605.114 -509.198 -407.151 -587.011 -9.9969L626.63 227.79ZM150.832 631.603C-21.5621 631.603 -268.381 516.601 -324.967 227.79L888.674 -9.99696C810.861 -407.151 455.077 -605.114 150.832 -605.114V631.603ZM281.854 727.255H283.275V-509.462H281.854V727.255ZM150.832 630.209C-20.9672 630.209 -268.045 515.365 -323.878 226.081L890.428 -8.2879C813.335 -407.719 455.755 -606.508 150.832 -606.508V630.209ZM625.541 226.081C569.708 515.365 322.63 630.209 150.832 630.209V-606.508C-154.092 -606.508 -511.672 -407.719 -588.765 -8.28781L625.541 226.081Z" fill="#051A2F" mask="url(#path-2-inside-1_766_1750)"/>
<circle cx="19.0846" cy="115.724" r="6.62278" fill="#E9FA50" stroke="#051A2F" stroke-width="0.697135"/>
<circle cx="57.4269" cy="45.3131" r="6.62278" fill="#E9FA50" stroke="#051A2F" stroke-width="0.697135"/>
<circle cx="131.323" cy="13.2453" r="6.62278" fill="#E9FA50" stroke="#051A2F" stroke-width="0.697135"/>
<circle cx="216.374" cy="27.1881" r="6.62278" fill="#E9FA50" stroke="#051A2F" stroke-width="0.697135"/>
<circle cx="283.996" cy="109.45" r="6.62278" fill="#E9FA50" stroke="#051A2F" stroke-width="0.697135"/>
<circle cx="281.905" cy="177.769" r="6.62278" fill="#E9FA50" stroke="#051A2F" stroke-width="0.697135"/>
<circle cx="199.642" cy="177.769" r="6.62278" fill="#E9FA50" stroke="#051A2F" stroke-width="0.697135"/>
<circle cx="199.642" cy="109.45" r="6.62278" fill="#E9FA50" stroke="#051A2F" stroke-width="0.697135"/>
<path d="M4.78486 141.564C4.10817 141.564 3.53188 141.453 3.05597 141.229C2.58005 141.006 2.21569 140.698 1.96286 140.304C1.71003 139.91 1.58362 139.463 1.58362 138.965H2.67672C2.67672 139.211 2.73993 139.456 2.86634 139.701C3.00019 139.947 3.21956 140.151 3.52444 140.315C3.83676 140.478 4.2569 140.56 4.78486 140.56C5.27564 140.56 5.67719 140.49 5.98951 140.348C6.30182 140.2 6.53234 140.01 6.68107 139.779C6.82979 139.541 6.90415 139.285 6.90415 139.01C6.90415 138.675 6.75915 138.4 6.46914 138.184C6.17913 137.961 5.75527 137.824 5.19756 137.772L4.29408 137.694C3.57277 137.634 2.99648 137.411 2.56518 137.024C2.13389 136.638 1.91824 136.128 1.91824 135.496C1.91824 134.998 2.03722 134.563 2.27517 134.191C2.52057 133.819 2.85891 133.529 3.2902 133.321C3.7215 133.105 4.22343 132.998 4.79601 132.998C5.36116 132.998 5.85938 133.102 6.29067 133.31C6.72196 133.518 7.05659 133.812 7.29454 134.191C7.53994 134.563 7.66263 135.009 7.66263 135.53H6.56952C6.56952 135.269 6.50632 135.024 6.3799 134.793C6.26093 134.563 6.07131 134.373 5.81104 134.225C5.55078 134.076 5.21244 134.002 4.79601 134.002C4.39446 134.002 4.05984 134.072 3.79214 134.213C3.53188 134.355 3.33482 134.541 3.20097 134.771C3.07456 134.994 3.01135 135.236 3.01135 135.496C3.01135 135.794 3.12661 136.058 3.35713 136.288C3.58765 136.519 3.92971 136.653 4.38331 136.69L5.2868 136.768C5.8445 136.812 6.32413 136.931 6.72568 137.125C7.13467 137.311 7.44698 137.563 7.66263 137.883C7.88571 138.196 7.99726 138.571 7.99726 139.01C7.99726 139.508 7.86341 139.95 7.59571 140.337C7.32801 140.724 6.95248 141.025 6.46914 141.241C5.98579 141.456 5.42436 141.564 4.78486 141.564ZM11.9955 141.43C11.5493 141.43 11.1627 141.367 10.8355 141.241C10.5157 141.114 10.2666 140.899 10.0881 140.594C9.91711 140.281 9.83159 139.861 9.83159 139.333V133.6H10.8578V139.467C10.8578 139.787 10.9433 140.036 11.1143 140.214C11.2928 140.385 11.5419 140.471 11.8616 140.471H12.9101V141.43H11.9955ZM8.80541 136.21V135.407H12.9101V136.21H8.80541ZM18.0057 141.363V139.579H17.8272V137.515C17.8272 137.106 17.7194 136.798 17.5037 136.589C17.2955 136.381 16.9869 136.277 16.5779 136.277C16.3474 136.277 16.1095 136.281 15.8641 136.288C15.6187 136.296 15.3844 136.303 15.1614 136.31C14.9383 136.318 14.7449 136.329 14.5813 136.344V135.407C14.7449 135.392 14.916 135.381 15.0944 135.374C15.2803 135.359 15.47 135.351 15.6633 135.351C15.8566 135.344 16.0425 135.34 16.221 135.34C16.8308 135.34 17.329 135.414 17.7157 135.563C18.1023 135.704 18.3886 135.939 18.5745 136.266C18.7604 136.593 18.8534 137.035 18.8534 137.593V141.363H18.0057ZM16.0537 141.519C15.6075 141.519 15.2208 141.445 14.8937 141.296C14.5739 141.14 14.3248 140.917 14.1463 140.627C13.9753 140.337 13.8898 139.988 13.8898 139.579C13.8898 139.155 13.9827 138.802 14.1686 138.519C14.362 138.236 14.6408 138.024 15.0052 137.883C15.3696 137.734 15.8083 137.66 16.3214 137.66H17.9387V138.463H16.2768C15.8455 138.463 15.5146 138.567 15.2841 138.776C15.0535 138.984 14.9383 139.251 14.9383 139.579C14.9383 139.906 15.0535 140.17 15.2841 140.371C15.5146 140.571 15.8455 140.672 16.2768 140.672C16.5296 140.672 16.7713 140.627 17.0018 140.538C17.2323 140.441 17.4219 140.285 17.5707 140.069C17.7268 139.846 17.8123 139.541 17.8272 139.155L18.1172 139.579C18.08 140.002 17.9759 140.359 17.8049 140.649C17.6413 140.932 17.4108 141.148 17.1133 141.296C16.8233 141.445 16.4701 141.519 16.0537 141.519ZM20.8187 141.363V135.407H21.6664V137.861H21.6218C21.6218 136.991 21.8114 136.355 22.1907 135.954C22.5773 135.545 23.1536 135.34 23.9196 135.34H24.1203V136.299H23.7411C23.1462 136.299 22.6889 136.459 22.3691 136.779C22.0494 137.091 21.8895 137.545 21.8895 138.14V141.363H20.8187ZM27.8226 141.43C27.3765 141.43 26.9898 141.367 26.6626 141.241C26.3428 141.114 26.0937 140.899 25.9153 140.594C25.7442 140.281 25.6587 139.861 25.6587 139.333V133.6H26.6849V139.467C26.6849 139.787 26.7704 140.036 26.9415 140.214C27.1199 140.385 27.369 140.471 27.6888 140.471H28.7373V141.43H27.8226ZM24.6325 136.21V135.407H28.7373V136.21H24.6325Z" fill="#051A2F"/>
<path d="M52.5079 71.695V70.6911H54.538C55.0288 70.6911 55.4638 70.6131 55.843 70.4569C56.2297 70.2933 56.5569 70.0702 56.8246 69.7876C57.0997 69.5051 57.3079 69.1742 57.4492 68.7949C57.5905 68.4157 57.6612 68.0067 57.6612 67.568C57.6612 67.1069 57.5905 66.6905 57.4492 66.3187C57.3079 65.9395 57.0997 65.6123 56.8246 65.3371C56.5569 65.0546 56.2297 64.8389 55.843 64.6902C55.4638 64.5415 55.0288 64.4671 54.538 64.4671H52.5079V63.4632H54.4264C55.1626 63.4632 55.8021 63.5785 56.345 63.809C56.8878 64.0321 57.3377 64.337 57.6946 64.7237C58.059 65.1029 58.3304 65.5305 58.5089 66.0064C58.6873 66.4749 58.7766 66.9545 58.7766 67.4453V67.6907C58.7766 68.1666 58.6873 68.6425 58.5089 69.1184C58.3304 69.5943 58.059 70.0256 57.6946 70.4123C57.3377 70.799 56.8878 71.1113 56.345 71.3492C55.8021 71.5797 55.1626 71.695 54.4264 71.695H52.5079ZM51.6379 71.695V63.4632H52.731V71.695H51.6379ZM60.5949 71.6504V65.6941H61.6657V71.6504H60.5949ZM59.6802 66.5418V65.6941H61.6657V66.5418H59.6802ZM60.896 64.7348C60.6581 64.7348 60.4796 64.6716 60.3606 64.5452C60.2491 64.4188 60.1933 64.2589 60.1933 64.0656C60.1933 63.8722 60.2491 63.7124 60.3606 63.5859C60.4796 63.4595 60.6581 63.3963 60.896 63.3963C61.134 63.3963 61.3087 63.4595 61.4203 63.5859C61.5393 63.7124 61.5987 63.8722 61.5987 64.0656C61.5987 64.2589 61.5393 64.4188 61.4203 64.5452C61.3087 64.6716 61.134 64.7348 60.896 64.7348ZM65.688 71.8289C64.9073 71.8289 64.3012 71.6615 63.8699 71.3269C63.4461 70.9923 63.2267 70.535 63.2118 69.955H64.2157C64.2306 70.1855 64.3458 70.4048 64.5615 70.6131C64.7846 70.8138 65.1601 70.9142 65.688 70.9142C66.164 70.9142 66.5283 70.8213 66.7812 70.6354C67.034 70.442 67.1604 70.2078 67.1604 69.9327C67.1604 69.6873 67.0674 69.4976 66.8815 69.3638C66.6956 69.2225 66.3945 69.1296 65.9781 69.0849L65.3311 69.018C64.766 68.9585 64.3049 68.7912 63.948 68.5161C63.5911 68.2335 63.4126 67.8394 63.4126 67.3337C63.4126 66.9545 63.5093 66.631 63.7026 66.3633C63.8959 66.0882 64.1636 65.88 64.5057 65.7387C64.8478 65.59 65.2419 65.5156 65.688 65.5156C66.3573 65.5156 66.9001 65.6643 67.3166 65.9618C67.733 66.2592 67.9486 66.7017 67.9635 67.2891H66.9596C66.9522 67.0512 66.8406 66.8504 66.625 66.6868C66.4168 66.5158 66.1045 66.4302 65.688 66.4302C65.2716 66.4302 64.9556 66.5158 64.7399 66.6868C64.5243 66.8578 64.4165 67.0735 64.4165 67.3337C64.4165 67.5568 64.4908 67.7353 64.6396 67.8691C64.7957 68.003 65.0485 68.0885 65.398 68.1257L66.045 68.1926C66.6845 68.2595 67.1976 68.438 67.5843 68.728C67.9709 69.0106 68.1643 69.4121 68.1643 69.9327C68.1643 70.3045 68.0564 70.6354 67.8408 70.9254C67.6326 71.2079 67.3426 71.431 66.9708 71.5946C66.599 71.7508 66.1714 71.8289 65.688 71.8289ZM72.2705 71.8512C71.7574 71.8512 71.3112 71.7619 70.932 71.5835C70.5602 71.405 70.2516 71.167 70.0062 70.8696C69.7608 70.5647 69.5749 70.2301 69.4485 69.8657C69.3295 69.5014 69.27 69.137 69.27 68.7726V68.5718C69.27 68.1926 69.3295 67.8208 69.4485 67.4564C69.5749 67.0921 69.7608 66.7649 70.0062 66.4749C70.259 66.1774 70.5713 65.9395 70.9431 65.761C71.3149 65.5825 71.75 65.4933 72.2482 65.4933C72.7464 65.4933 73.1926 65.5862 73.5867 65.7722C73.9882 65.9581 74.308 66.222 74.5459 66.5641C74.7913 66.8987 74.9289 67.2966 74.9586 67.7576H73.9324C73.8804 67.3858 73.7094 67.0772 73.4194 66.8318C73.1293 66.579 72.739 66.4526 72.2482 66.4526C71.8243 66.4526 71.4711 66.5492 71.1885 66.7426C70.906 66.9359 70.694 67.1999 70.5527 67.5345C70.4115 67.8691 70.3408 68.2484 70.3408 68.6722C70.3408 69.0812 70.4115 69.4567 70.5527 69.7988C70.694 70.1334 70.906 70.4011 71.1885 70.6019C71.4785 70.7952 71.8392 70.8919 72.2705 70.8919C72.6051 70.8919 72.8951 70.8324 73.1405 70.7134C73.3859 70.5945 73.583 70.4346 73.7317 70.2338C73.8804 70.033 73.9696 69.8062 73.9994 69.5534H75.0256C75.0032 70.0219 74.8657 70.4272 74.6129 70.7692C74.3675 71.1113 74.0403 71.379 73.6313 71.5723C73.2297 71.7582 72.7761 71.8512 72.2705 71.8512ZM79.2245 71.8512C78.704 71.8512 78.2466 71.7619 77.8525 71.5835C77.4584 71.405 77.1238 71.1708 76.8486 70.8808C76.5809 70.5833 76.3765 70.2524 76.2352 69.888C76.1013 69.5237 76.0344 69.1519 76.0344 68.7726V68.5718C76.0344 68.1926 76.105 67.8208 76.2463 67.4564C76.3876 67.0846 76.5958 66.7537 76.871 66.4637C77.1461 66.1663 77.4807 65.932 77.8748 65.761C78.2689 65.5825 78.7188 65.4933 79.2245 65.4933C79.7301 65.4933 80.18 65.5825 80.5741 65.761C80.9683 65.932 81.3029 66.1663 81.578 66.4637C81.8531 66.7537 82.0614 67.0846 82.2026 67.4564C82.3439 67.8208 82.4146 68.1926 82.4146 68.5718V68.7726C82.4146 69.1519 82.3439 69.5237 82.2026 69.888C82.0688 70.2524 81.8643 70.5833 81.5892 70.8808C81.3215 71.1708 80.9906 71.405 80.5964 71.5835C80.2023 71.7619 79.745 71.8512 79.2245 71.8512ZM79.2245 70.8919C79.6707 70.8919 80.0499 70.7952 80.3622 70.6019C80.682 70.4011 80.9236 70.1334 81.0872 69.7988C81.2583 69.4642 81.3438 69.0887 81.3438 68.6722C81.3438 68.2484 81.2583 67.8691 81.0872 67.5345C80.9162 67.1999 80.6708 66.9359 80.3511 66.7426C80.0387 66.5492 79.6632 66.4526 79.2245 66.4526C78.7932 66.4526 78.4177 66.5492 78.0979 66.7426C77.7782 66.9359 77.5328 67.1999 77.3617 67.5345C77.1907 67.8691 77.1052 68.2484 77.1052 68.6722C77.1052 69.0887 77.187 69.4642 77.3506 69.7988C77.5216 70.1334 77.7633 70.4011 78.0756 70.6019C78.3954 70.7952 78.7783 70.8919 79.2245 70.8919ZM85.181 71.6504L83.1509 65.6941H84.2663L86.2518 71.6504H85.181ZM85.4487 71.6504V70.8027H86.7426V71.6504H85.4487ZM85.9618 71.6504L87.6907 65.6941H88.7392L86.9768 71.6504H85.9618ZM92.5631 71.8512C92.0426 71.8512 91.5927 71.7619 91.2135 71.5835C90.8342 71.405 90.5256 71.1708 90.2877 70.8808C90.0497 70.5833 89.8712 70.2524 89.7523 69.888C89.6407 69.5237 89.585 69.1519 89.585 68.7726V68.5718C89.585 68.1852 89.6407 67.8096 89.7523 67.4453C89.8712 67.0809 90.0497 66.7537 90.2877 66.4637C90.5256 66.1663 90.8268 65.932 91.1912 65.761C91.563 65.5825 91.998 65.4933 92.4962 65.4933C93.1431 65.4933 93.6748 65.6346 94.0912 65.9172C94.5151 66.1923 94.8274 66.5492 95.0282 66.988C95.2364 67.4267 95.3405 67.8952 95.3405 68.3934V68.873H90.0534V68.0699H94.5597L94.3143 68.5049C94.3143 68.0811 94.2474 67.7167 94.1135 67.4118C93.9797 67.0995 93.7789 66.8578 93.5112 66.6868C93.2435 66.5158 92.9052 66.4302 92.4962 66.4302C92.0723 66.4302 91.7191 66.5269 91.4365 66.7203C91.1614 66.9136 90.9532 67.1776 90.8119 67.5122C90.6781 67.8468 90.6111 68.2335 90.6111 68.6722C90.6111 69.0961 90.6781 69.479 90.8119 69.8211C90.9532 70.1557 91.1688 70.4234 91.4589 70.6242C91.7489 70.8175 92.1169 70.9142 92.5631 70.9142C93.0316 70.9142 93.4108 70.8101 93.7008 70.6019C93.9983 70.3937 94.1767 70.152 94.2362 69.8769H95.2401C95.1583 70.2859 94.9947 70.6391 94.7493 70.9365C94.5039 71.234 94.1953 71.4608 93.8235 71.6169C93.4517 71.7731 93.0316 71.8512 92.5631 71.8512ZM96.8609 71.6504V65.6941H97.7086V68.148H97.664C97.664 67.278 97.8536 66.6422 98.2328 66.2406C98.6195 65.8316 99.1958 65.6271 99.9617 65.6271H100.162V66.5864H99.7832C99.1884 66.5864 98.731 66.7463 98.4113 67.066C98.0915 67.3783 97.9317 67.832 97.9317 68.4268V71.6504H96.8609ZM101.23 73.9705V73.0112H102.089C102.342 73.0112 102.554 72.9777 102.725 72.9108C102.903 72.8513 103.048 72.7472 103.16 72.5985C103.279 72.4498 103.376 72.2527 103.45 72.0073L105.324 65.6941H106.372L104.387 72.2862C104.268 72.6803 104.101 73 103.885 73.2454C103.669 73.4983 103.405 73.6804 103.093 73.792C102.788 73.911 102.431 73.9705 102.022 73.9705H101.23ZM103.048 71.5165V70.6242H104.342V71.5165H103.048ZM102.937 71.5165L100.806 65.6941H101.9L103.941 71.5165H102.937Z" fill="#051A2F"/>
<path d="M125.534 36.0967V27.9095H126.627V36.0967H125.534ZM130.565 36.0967L127.866 32.4716H129.148L131.892 36.0967H130.565ZM126.215 33.152V32.1816H128.401C128.743 32.1816 129.037 32.1109 129.282 31.9696C129.528 31.8284 129.717 31.635 129.851 31.3896C129.985 31.1368 130.052 30.8505 130.052 30.5308C130.052 30.211 129.985 29.9284 129.851 29.683C129.717 29.4302 129.528 29.2332 129.282 29.0919C129.037 28.9431 128.743 28.8688 128.401 28.8688H126.215V27.9095H128.2C128.795 27.9095 129.316 27.9988 129.762 28.1772C130.208 28.3557 130.554 28.6308 130.799 29.0026C131.045 29.3744 131.167 29.8541 131.167 30.4415V30.62C131.167 31.2074 131.041 31.6871 130.788 32.0589C130.543 32.4307 130.197 32.7058 129.751 32.8843C129.312 33.0627 128.795 33.152 128.2 33.152H126.215ZM135.611 36.2975C135.091 36.2975 134.641 36.2082 134.262 36.0298C133.882 35.8513 133.574 35.6171 133.336 35.327C133.098 35.0296 132.92 34.6987 132.801 34.3343C132.689 33.97 132.633 33.5981 132.633 33.2189V33.0181C132.633 32.6315 132.689 32.2559 132.801 31.8916C132.92 31.5272 133.098 31.2 133.336 30.91C133.574 30.6126 133.875 30.3783 134.239 30.2073C134.611 30.0288 135.046 29.9396 135.544 29.9396C136.191 29.9396 136.723 30.0809 137.14 30.3634C137.563 30.6386 137.876 30.9955 138.076 31.4342C138.285 31.873 138.389 32.3414 138.389 32.8397V33.3193H133.102V32.5162H137.608L137.363 32.9512C137.363 32.5274 137.296 32.163 137.162 31.8581C137.028 31.5458 136.827 31.3041 136.559 31.1331C136.292 30.9621 135.953 30.8765 135.544 30.8765C135.121 30.8765 134.767 30.9732 134.485 31.1665C134.21 31.3599 134.001 31.6239 133.86 31.9585C133.726 32.2931 133.659 32.6798 133.659 33.1185C133.659 33.5424 133.726 33.9253 133.86 34.2674C134.001 34.602 134.217 34.8697 134.507 35.0705C134.797 35.2638 135.165 35.3605 135.611 35.3605C136.08 35.3605 136.459 35.2564 136.749 35.0482C137.047 34.84 137.225 34.5983 137.285 34.3232H138.288C138.207 34.7322 138.043 35.0854 137.798 35.3828C137.552 35.6803 137.244 35.9071 136.872 36.0632C136.5 36.2194 136.08 36.2975 135.611 36.2975ZM141.861 36.2751C141.08 36.2751 140.474 36.1078 140.043 35.7732C139.619 35.4386 139.4 34.9813 139.385 34.4012H140.389C140.404 34.6318 140.519 34.8511 140.735 35.0593C140.958 35.2601 141.333 35.3605 141.861 35.3605C142.337 35.3605 142.701 35.2676 142.954 35.0817C143.207 34.8883 143.333 34.6541 143.333 34.3789C143.333 34.1335 143.241 33.9439 143.055 33.8101C142.869 33.6688 142.568 33.5758 142.151 33.5312L141.504 33.4643C140.939 33.4048 140.478 33.2375 140.121 32.9624C139.764 32.6798 139.586 32.2857 139.586 31.78C139.586 31.4008 139.682 31.0773 139.876 30.8096C140.069 30.5345 140.337 30.3263 140.679 30.185C141.021 30.0363 141.415 29.9619 141.861 29.9619C142.53 29.9619 143.073 30.1106 143.49 30.4081C143.906 30.7055 144.122 31.148 144.137 31.7354H143.133C143.125 31.4974 143.014 31.2967 142.798 31.1331C142.59 30.9621 142.278 30.8765 141.861 30.8765C141.445 30.8765 141.129 30.9621 140.913 31.1331C140.697 31.3041 140.59 31.5198 140.59 31.78C140.59 32.0031 140.664 32.1816 140.813 32.3154C140.969 32.4493 141.222 32.5348 141.571 32.572L142.218 32.6389C142.858 32.7058 143.371 32.8843 143.757 33.1743C144.144 33.4569 144.337 33.8584 144.337 34.3789C144.337 34.7507 144.23 35.0817 144.014 35.3717C143.806 35.6542 143.516 35.8773 143.144 36.0409C142.772 36.1971 142.344 36.2751 141.861 36.2751ZM148.421 36.2975C147.901 36.2975 147.451 36.2082 147.072 36.0298C146.692 35.8513 146.384 35.6171 146.146 35.327C145.908 35.0296 145.729 34.6987 145.61 34.3343C145.499 33.97 145.443 33.5981 145.443 33.2189V33.0181C145.443 32.6315 145.499 32.2559 145.61 31.8916C145.729 31.5272 145.908 31.2 146.146 30.91C146.384 30.6126 146.685 30.3783 147.049 30.2073C147.421 30.0288 147.856 29.9396 148.354 29.9396C149.001 29.9396 149.533 30.0809 149.949 30.3634C150.373 30.6386 150.686 30.9955 150.886 31.4342C151.095 31.873 151.199 32.3414 151.199 32.8397V33.3193H145.912V32.5162H150.418L150.172 32.9512C150.172 32.5274 150.106 32.163 149.972 31.8581C149.838 31.5458 149.637 31.3041 149.369 31.1331C149.102 30.9621 148.763 30.8765 148.354 30.8765C147.93 30.8765 147.577 30.9732 147.295 31.1665C147.02 31.3599 146.811 31.6239 146.67 31.9585C146.536 32.2931 146.469 32.6798 146.469 33.1185C146.469 33.5424 146.536 33.9253 146.67 34.2674C146.811 34.602 147.027 34.8697 147.317 35.0705C147.607 35.2638 147.975 35.3605 148.421 35.3605C148.89 35.3605 149.269 35.2564 149.559 35.0482C149.856 34.84 150.035 34.5983 150.094 34.3232H151.098C151.016 34.7322 150.853 35.0854 150.607 35.3828C150.362 35.6803 150.053 35.9071 149.682 36.0632C149.31 36.2194 148.89 36.2975 148.421 36.2975ZM156.322 36.0967V34.312H156.143V32.2485C156.143 31.8395 156.035 31.5309 155.82 31.3227C155.612 31.1145 155.303 31.0104 154.894 31.0104C154.664 31.0104 154.426 31.0141 154.18 31.0215C153.935 31.029 153.701 31.0364 153.477 31.0438C153.254 31.0513 153.061 31.0624 152.897 31.0773V30.1404C153.061 30.1255 153.232 30.1143 153.411 30.1069C153.596 30.092 153.786 30.0846 153.979 30.0846C154.173 30.0772 154.359 30.0734 154.537 30.0734C155.147 30.0734 155.645 30.1478 156.032 30.2965C156.418 30.4378 156.705 30.672 156.891 30.9992C157.077 31.3264 157.169 31.7689 157.169 32.3266V36.0967H156.322ZM154.37 36.2528C153.924 36.2528 153.537 36.1785 153.21 36.0298C152.89 35.8736 152.641 35.6505 152.462 35.3605C152.291 35.0705 152.206 34.721 152.206 34.312C152.206 33.8882 152.299 33.5349 152.485 33.2524C152.678 32.9698 152.957 32.7579 153.321 32.6166C153.686 32.4679 154.124 32.3935 154.637 32.3935H156.255V33.1966H154.593C154.162 33.1966 153.831 33.3007 153.6 33.5089C153.37 33.7171 153.254 33.9848 153.254 34.312C153.254 34.6392 153.37 34.9032 153.6 35.104C153.831 35.3047 154.162 35.4051 154.593 35.4051C154.846 35.4051 155.087 35.3605 155.318 35.2713C155.548 35.1746 155.738 35.0184 155.887 34.8028C156.043 34.5797 156.128 34.2748 156.143 33.8882L156.433 34.312C156.396 34.7359 156.292 35.0928 156.121 35.3828C155.957 35.6654 155.727 35.881 155.429 36.0298C155.139 36.1785 154.786 36.2528 154.37 36.2528ZM159.135 36.0967V30.1404H159.983V32.5943H159.938C159.938 31.7243 160.128 31.0885 160.507 30.6869C160.893 30.2779 161.47 30.0734 162.236 30.0734H162.436V31.0327H162.057C161.462 31.0327 161.005 31.1926 160.685 31.5123C160.365 31.8246 160.206 32.2782 160.206 32.8731V36.0967H159.135ZM166.199 36.2975C165.686 36.2975 165.239 36.2082 164.86 36.0298C164.488 35.8513 164.18 35.6133 163.934 35.3159C163.689 35.011 163.503 34.6764 163.377 34.312C163.258 33.9476 163.198 33.5833 163.198 33.2189V33.0181C163.198 32.6389 163.258 32.2671 163.377 31.9027C163.503 31.5383 163.689 31.2112 163.934 30.9212C164.187 30.6237 164.5 30.3858 164.871 30.2073C165.243 30.0288 165.678 29.9396 166.176 29.9396C166.675 29.9396 167.121 30.0325 167.515 30.2184C167.916 30.4043 168.236 30.6683 168.474 31.0104C168.72 31.345 168.857 31.7428 168.887 32.2039H167.861C167.809 31.8321 167.638 31.5235 167.348 31.2781C167.058 31.0253 166.667 30.8988 166.176 30.8988C165.753 30.8988 165.399 30.9955 165.117 31.1889C164.834 31.3822 164.622 31.6462 164.481 31.9808C164.34 32.3154 164.269 32.6947 164.269 33.1185C164.269 33.5275 164.34 33.903 164.481 34.2451C164.622 34.5797 164.834 34.8474 165.117 35.0482C165.407 35.2415 165.767 35.3382 166.199 35.3382C166.533 35.3382 166.823 35.2787 167.069 35.1597C167.314 35.0408 167.511 34.8809 167.66 34.6801C167.809 34.4793 167.898 34.2525 167.928 33.9997H168.954C168.931 34.4682 168.794 34.8734 168.541 35.2155C168.296 35.5576 167.968 35.8253 167.56 36.0186C167.158 36.2045 166.704 36.2975 166.199 36.2975ZM170.409 36.0967V27.9541H171.48V32.8174H171.212C171.212 32.2299 171.286 31.7243 171.435 31.3004C171.591 30.8691 171.829 30.5382 172.149 30.3077C172.469 30.0772 172.878 29.9619 173.376 29.9619H173.42C174.134 29.9619 174.673 30.1998 175.038 30.6758C175.402 31.1442 175.584 31.8172 175.584 32.6947V36.0967H174.514V32.4716C174.514 31.9882 174.376 31.6127 174.101 31.345C173.833 31.0773 173.484 30.9435 173.052 30.9435C172.576 30.9435 172.193 31.1033 171.903 31.4231C171.621 31.7354 171.48 32.1481 171.48 32.6612V36.0967H170.409Z" fill="#051A2F"/>
<path d="M211.108 11L214.042 2.85747H215.893L218.916 11H217.79L215.057 3.57133L215.592 3.83903H214.276L214.845 3.57133L212.201 11H211.108ZM212.859 8.56839L213.228 7.58683H216.741L217.109 8.56839H212.859ZM220.253 11V5.04368H221.101V7.59798H220.967C220.967 7.01053 221.045 6.51603 221.201 6.11448C221.365 5.70549 221.61 5.3969 221.937 5.18869C222.265 4.97304 222.677 4.86521 223.175 4.86521H223.22C223.971 4.86521 224.525 5.09945 224.882 5.56793C225.246 6.0364 225.429 6.71309 225.429 7.59798V11H224.358V7.3749C224.358 6.91386 224.228 6.54577 223.967 6.27064C223.707 5.98807 223.35 5.84678 222.897 5.84678C222.428 5.84678 222.049 5.99178 221.759 6.28179C221.469 6.5718 221.324 6.95848 221.324 7.44182V11H220.253ZM230.991 11V9.21534H230.812V7.15182C230.812 6.74283 230.704 6.43423 230.489 6.22602C230.28 6.01781 229.972 5.91371 229.563 5.91371C229.332 5.91371 229.094 5.91742 228.849 5.92486C228.604 5.9323 228.369 5.93973 228.146 5.94717C227.923 5.9546 227.73 5.96576 227.566 5.98063V5.04368C227.73 5.02881 227.901 5.01765 228.079 5.01022C228.265 4.99535 228.455 4.98791 228.648 4.98791C228.842 4.98047 229.027 4.97676 229.206 4.97676C229.816 4.97676 230.314 5.05112 230.701 5.19984C231.087 5.34112 231.374 5.57536 231.559 5.90255C231.745 6.22974 231.838 6.67219 231.838 7.2299V11H230.991ZM229.039 11.1562C228.592 11.1562 228.206 11.0818 227.879 10.9331C227.559 10.7769 227.31 10.5538 227.131 10.2638C226.96 9.97382 226.875 9.62432 226.875 9.21534C226.875 8.79148 226.968 8.43826 227.154 8.15569C227.347 7.87312 227.626 7.66119 227.99 7.5199C228.354 7.37118 228.793 7.29682 229.306 7.29682H230.924V8.09992H229.262C228.83 8.09992 228.499 8.20403 228.269 8.41224C228.038 8.62045 227.923 8.88815 227.923 9.21534C227.923 9.54252 228.038 9.80651 228.269 10.0073C228.499 10.2081 228.83 10.3084 229.262 10.3084C229.515 10.3084 229.756 10.2638 229.987 10.1746C230.217 10.0779 230.407 9.92176 230.556 9.70612C230.712 9.48303 230.797 9.17815 230.812 8.79148L231.102 9.21534C231.065 9.63919 230.961 9.99613 230.79 10.2861C230.626 10.5687 230.396 10.7844 230.098 10.9331C229.808 11.0818 229.455 11.1562 229.039 11.1562ZM233.871 11V2.85747H234.941V11H233.871ZM233.045 3.70518V2.85747H234.941V3.70518H233.045ZM236.594 13.3201V12.3608H237.452C237.705 12.3608 237.917 12.3273 238.088 12.2604C238.267 12.2009 238.412 12.0968 238.523 11.9481C238.642 11.7994 238.739 11.6023 238.813 11.3569L240.687 5.04368H241.736L239.75 11.6358C239.631 12.0299 239.464 12.3497 239.248 12.595C239.033 12.8479 238.769 13.0301 238.456 13.1416C238.151 13.2606 237.795 13.3201 237.386 13.3201H236.594ZM238.412 10.8662V9.97382H239.706V10.8662H238.412ZM238.3 10.8662L236.17 5.04368H237.263L239.304 10.8662H238.3ZM245.004 11.1785C244.223 11.1785 243.617 11.0112 243.185 10.6765C242.762 10.3419 242.542 9.88458 242.527 9.30457H243.531C243.546 9.53509 243.661 9.75445 243.877 9.96266C244.1 10.1634 244.476 10.2638 245.004 10.2638C245.479 10.2638 245.844 10.1709 246.097 9.98497C246.349 9.79163 246.476 9.5574 246.476 9.28226C246.476 9.03687 246.383 8.84725 246.197 8.7134C246.011 8.57211 245.71 8.47916 245.294 8.43454L244.647 8.36762C244.081 8.30813 243.62 8.14082 243.263 7.86568C242.907 7.58311 242.728 7.189 242.728 6.68334C242.728 6.3041 242.825 5.98063 243.018 5.71293C243.211 5.43779 243.479 5.22958 243.821 5.0883C244.163 4.93958 244.557 4.86521 245.004 4.86521C245.673 4.86521 246.216 5.01394 246.632 5.31138C247.048 5.60882 247.264 6.05127 247.279 6.63873H246.275C246.268 6.40077 246.156 6.2 245.94 6.0364C245.732 5.86537 245.42 5.77986 245.004 5.77986C244.587 5.77986 244.271 5.86537 244.055 6.0364C243.84 6.20743 243.732 6.42308 243.732 6.68334C243.732 6.90642 243.806 7.08489 243.955 7.21874C244.111 7.35259 244.364 7.43811 244.714 7.47529L245.36 7.54221C246 7.60914 246.513 7.7876 246.9 8.07761C247.286 8.36018 247.48 8.76173 247.48 9.28226C247.48 9.65407 247.372 9.98497 247.156 10.275C246.948 10.5576 246.658 10.7806 246.286 10.9442C245.914 11.1004 245.487 11.1785 245.004 11.1785ZM249.322 11V5.04368H250.392V11H249.322ZM248.407 5.8914V5.04368H250.392V5.8914H248.407ZM249.623 4.08442C249.385 4.08442 249.206 4.02122 249.087 3.8948C248.976 3.76839 248.92 3.60851 248.92 3.41517C248.92 3.22184 248.976 3.06196 249.087 2.93555C249.206 2.80913 249.385 2.74593 249.623 2.74593C249.861 2.74593 250.036 2.80913 250.147 2.93555C250.266 3.06196 250.326 3.22184 250.326 3.41517C250.326 3.60851 250.266 3.76839 250.147 3.8948C250.036 4.02122 249.861 4.08442 249.623 4.08442ZM254.415 11.1785C253.634 11.1785 253.028 11.0112 252.597 10.6765C252.173 10.3419 251.953 9.88458 251.939 9.30457H252.942C252.957 9.53509 253.073 9.75445 253.288 9.96266C253.511 10.1634 253.887 10.2638 254.415 10.2638C254.891 10.2638 255.255 10.1709 255.508 9.98497C255.761 9.79163 255.887 9.5574 255.887 9.28226C255.887 9.03687 255.794 8.84725 255.608 8.7134C255.422 8.57211 255.121 8.47916 254.705 8.43454L254.058 8.36762C253.493 8.30813 253.032 8.14082 252.675 7.86568C252.318 7.58311 252.139 7.189 252.139 6.68334C252.139 6.3041 252.236 5.98063 252.429 5.71293C252.623 5.43779 252.89 5.22958 253.232 5.0883C253.575 4.93958 253.969 4.86521 254.415 4.86521C255.084 4.86521 255.627 5.01394 256.043 5.31138C256.46 5.60882 256.675 6.05127 256.69 6.63873H255.686C255.679 6.40077 255.567 6.2 255.352 6.0364C255.144 5.86537 254.831 5.77986 254.415 5.77986C253.998 5.77986 253.682 5.86537 253.467 6.0364C253.251 6.20743 253.143 6.42308 253.143 6.68334C253.143 6.90642 253.218 7.08489 253.366 7.21874C253.522 7.35259 253.775 7.43811 254.125 7.47529L254.772 7.54221C255.411 7.60914 255.924 7.7876 256.311 8.07761C256.698 8.36018 256.891 8.76173 256.891 9.28226C256.891 9.65407 256.783 9.98497 256.568 10.275C256.359 10.5576 256.069 10.7806 255.698 10.9442C255.326 11.1004 254.898 11.1785 254.415 11.1785Z" fill="#051A2F"/>
<path d="M297.899 109.948V108.989H299.717C300.104 108.989 300.424 108.914 300.676 108.766C300.929 108.61 301.119 108.401 301.245 108.141C301.379 107.881 301.446 107.591 301.446 107.271C301.446 106.944 301.379 106.65 301.245 106.39C301.119 106.13 300.929 105.925 300.676 105.776C300.424 105.628 300.104 105.553 299.717 105.553H297.899V104.594H299.516C300.186 104.594 300.743 104.702 301.19 104.918C301.643 105.126 301.985 105.423 302.216 105.81C302.446 106.197 302.561 106.654 302.561 107.182V107.36C302.561 107.881 302.446 108.338 302.216 108.732C301.985 109.119 301.643 109.42 301.19 109.636C300.743 109.844 300.186 109.948 299.516 109.948H297.899ZM297.029 112.781V104.594H298.122V112.781H297.029ZM304.029 112.781V106.825H304.877V109.279H304.832C304.832 108.409 305.022 107.773 305.401 107.371C305.788 106.962 306.364 106.758 307.13 106.758H307.331V107.717H306.952C306.357 107.717 305.9 107.877 305.58 108.197C305.26 108.509 305.1 108.963 305.1 109.558V112.781H304.029ZM311.283 112.982C310.762 112.982 310.305 112.893 309.911 112.714C309.517 112.536 309.182 112.302 308.907 112.012C308.639 111.714 308.435 111.383 308.294 111.019C308.16 110.655 308.093 110.283 308.093 109.903V109.703C308.093 109.323 308.163 108.952 308.305 108.587C308.446 108.215 308.654 107.885 308.929 107.595C309.205 107.297 309.539 107.063 309.933 106.892C310.327 106.713 310.777 106.624 311.283 106.624C311.789 106.624 312.238 106.713 312.633 106.892C313.027 107.063 313.361 107.297 313.636 107.595C313.912 107.885 314.12 108.215 314.261 108.587C314.402 108.952 314.473 109.323 314.473 109.703V109.903C314.473 110.283 314.402 110.655 314.261 111.019C314.127 111.383 313.923 111.714 313.648 112.012C313.38 112.302 313.049 112.536 312.655 112.714C312.261 112.893 311.803 112.982 311.283 112.982ZM311.283 112.023C311.729 112.023 312.108 111.926 312.421 111.733C312.74 111.532 312.982 111.264 313.146 110.93C313.317 110.595 313.402 110.22 313.402 109.803C313.402 109.379 313.317 109 313.146 108.665C312.975 108.331 312.729 108.067 312.409 107.873C312.097 107.68 311.722 107.583 311.283 107.583C310.852 107.583 310.476 107.68 310.156 107.873C309.837 108.067 309.591 108.331 309.42 108.665C309.249 109 309.164 109.379 309.164 109.803C309.164 110.22 309.245 110.595 309.409 110.93C309.58 111.264 309.822 111.532 310.134 111.733C310.454 111.926 310.837 112.023 311.283 112.023ZM318.397 112.848C317.951 112.848 317.564 112.785 317.237 112.659C316.917 112.532 316.668 112.316 316.489 112.012C316.318 111.699 316.233 111.279 316.233 110.751V105.018H317.259V110.885C317.259 111.205 317.345 111.454 317.516 111.632C317.694 111.803 317.943 111.889 318.263 111.889H319.311V112.848H318.397ZM315.207 107.628V106.825H319.311V107.628H315.207ZM323.526 112.982C323.006 112.982 322.548 112.893 322.154 112.714C321.76 112.536 321.426 112.302 321.15 112.012C320.883 111.714 320.678 111.383 320.537 111.019C320.403 110.655 320.336 110.283 320.336 109.903V109.703C320.336 109.323 320.407 108.952 320.548 108.587C320.689 108.215 320.898 107.885 321.173 107.595C321.448 107.297 321.783 107.063 322.177 106.892C322.571 106.713 323.021 106.624 323.526 106.624C324.032 106.624 324.482 106.713 324.876 106.892C325.27 107.063 325.605 107.297 325.88 107.595C326.155 107.885 326.363 108.215 326.504 108.587C326.646 108.952 326.716 109.323 326.716 109.703V109.903C326.716 110.283 326.646 110.655 326.504 111.019C326.371 111.383 326.166 111.714 325.891 112.012C325.623 112.302 325.292 112.536 324.898 112.714C324.504 112.893 324.047 112.982 323.526 112.982ZM323.526 112.023C323.972 112.023 324.352 111.926 324.664 111.733C324.984 111.532 325.225 111.264 325.389 110.93C325.56 110.595 325.646 110.22 325.646 109.803C325.646 109.379 325.56 109 325.389 108.665C325.218 108.331 324.973 108.067 324.653 107.873C324.341 107.68 323.965 107.583 323.526 107.583C323.095 107.583 322.72 107.68 322.4 107.873C322.08 108.067 321.835 108.331 321.664 108.665C321.493 109 321.407 109.379 321.407 109.803C321.407 110.22 321.489 110.595 321.652 110.93C321.823 111.264 322.065 111.532 322.377 111.733C322.697 111.926 323.08 112.023 323.526 112.023ZM330.64 112.848C330.194 112.848 329.807 112.785 329.48 112.659C329.16 112.532 328.911 112.316 328.733 112.012C328.562 111.699 328.476 111.279 328.476 110.751V105.018H329.503V110.885C329.503 111.205 329.588 111.454 329.759 111.632C329.938 111.803 330.187 111.889 330.506 111.889H331.555V112.848H330.64ZM327.45 107.628V106.825H331.555V107.628H327.45ZM332.668 115.101V114.142H333.527C333.78 114.142 333.991 114.109 334.163 114.042C334.341 113.982 334.486 113.878 334.598 113.729C334.716 113.581 334.813 113.384 334.888 113.138L336.761 106.825H337.81L335.824 113.417C335.706 113.811 335.538 114.131 335.323 114.376C335.107 114.629 334.843 114.811 334.531 114.923C334.226 115.042 333.869 115.101 333.46 115.101H332.668ZM334.486 112.647V111.755H335.78V112.647H334.486ZM334.374 112.647L332.244 106.825H333.337L335.378 112.647H334.374ZM339.169 115.012V106.825H340.017V109.402L339.816 109.379C339.853 108.74 339.987 108.219 340.218 107.818C340.456 107.409 340.764 107.108 341.144 106.914C341.523 106.721 341.936 106.624 342.382 106.624C342.813 106.624 343.203 106.706 343.553 106.87C343.91 107.033 344.215 107.256 344.468 107.539C344.72 107.821 344.914 108.149 345.048 108.52C345.181 108.892 345.248 109.286 345.248 109.703V109.903C345.248 110.32 345.178 110.714 345.036 111.086C344.895 111.458 344.694 111.785 344.434 112.067C344.181 112.35 343.876 112.573 343.519 112.737C343.17 112.9 342.783 112.982 342.359 112.982C341.936 112.982 341.53 112.889 341.144 112.703C340.757 112.517 340.437 112.216 340.184 111.8C339.932 111.383 339.787 110.837 339.749 110.16L340.24 111.052V115.012H339.169ZM342.192 112.045C342.594 112.045 342.943 111.952 343.241 111.766C343.538 111.573 343.769 111.309 343.932 110.974C344.096 110.632 344.178 110.242 344.178 109.803C344.178 109.357 344.096 108.967 343.932 108.632C343.769 108.297 343.538 108.037 343.241 107.851C342.943 107.658 342.594 107.561 342.192 107.561C341.835 107.561 341.504 107.643 341.199 107.806C340.895 107.963 340.649 108.193 340.463 108.498C340.285 108.795 340.196 109.156 340.196 109.58V110.093C340.196 110.502 340.288 110.852 340.474 111.142C340.66 111.432 340.906 111.655 341.211 111.811C341.515 111.967 341.843 112.045 342.192 112.045ZM347.15 112.781V106.825H348.22V112.781H347.15ZM346.235 107.673V106.825H348.22V107.673H346.235ZM347.451 105.866C347.213 105.866 347.034 105.802 346.915 105.676C346.804 105.55 346.748 105.39 346.748 105.196C346.748 105.003 346.804 104.843 346.915 104.717C347.034 104.59 347.213 104.527 347.451 104.527C347.689 104.527 347.863 104.59 347.975 104.717C348.094 104.843 348.153 105.003 348.153 105.196C348.153 105.39 348.094 105.55 347.975 105.676C347.863 105.802 347.689 105.866 347.451 105.866ZM350.291 112.781V106.825H351.139V109.379H351.005C351.005 108.792 351.083 108.297 351.239 107.896C351.403 107.487 351.648 107.178 351.975 106.97C352.302 106.754 352.715 106.646 353.213 106.646H353.258C354.009 106.646 354.563 106.881 354.92 107.349C355.284 107.818 355.466 108.494 355.466 109.379V112.781H354.396V109.156C354.396 108.695 354.265 108.327 354.005 108.052C353.745 107.769 353.388 107.628 352.934 107.628C352.466 107.628 352.087 107.773 351.797 108.063C351.507 108.353 351.362 108.74 351.362 109.223V112.781H350.291ZM359.679 115.101C359.404 115.101 359.125 115.09 358.842 115.068C358.567 115.046 358.303 115.016 358.05 114.979V114.075C358.318 114.112 358.597 114.142 358.887 114.164C359.184 114.194 359.463 114.209 359.723 114.209C360.266 114.209 360.697 114.135 361.017 113.986C361.344 113.845 361.579 113.618 361.72 113.305C361.869 113.001 361.943 112.607 361.943 112.123V110.985L362.3 110.138C362.278 110.74 362.151 111.242 361.921 111.644C361.69 112.038 361.389 112.335 361.017 112.536C360.653 112.729 360.248 112.826 359.801 112.826C359.385 112.826 359.002 112.748 358.653 112.592C358.31 112.428 358.013 112.205 357.76 111.922C357.515 111.64 357.321 111.316 357.18 110.952C357.046 110.58 356.979 110.19 356.979 109.781V109.58C356.979 109.164 357.05 108.777 357.191 108.42C357.333 108.056 357.53 107.74 357.782 107.472C358.035 107.204 358.336 106.996 358.686 106.847C359.043 106.699 359.433 106.624 359.857 106.624C360.355 106.624 360.794 106.732 361.173 106.948C361.553 107.156 361.85 107.464 362.066 107.873C362.289 108.275 362.411 108.769 362.434 109.357L362.121 109.368V106.825H362.969V112.079C362.969 112.792 362.858 113.369 362.635 113.807C362.419 114.254 362.069 114.581 361.586 114.789C361.11 114.997 360.474 115.101 359.679 115.101ZM360.002 111.844C360.359 111.844 360.683 111.766 360.973 111.61C361.27 111.454 361.504 111.231 361.675 110.941C361.854 110.643 361.943 110.29 361.943 109.881V109.368C361.943 108.967 361.85 108.628 361.664 108.353C361.486 108.078 361.251 107.87 360.961 107.728C360.671 107.587 360.355 107.516 360.013 107.516C359.627 107.516 359.285 107.606 358.987 107.784C358.69 107.963 358.459 108.215 358.296 108.543C358.132 108.862 358.05 109.242 358.05 109.68C358.05 110.119 358.132 110.502 358.296 110.829C358.467 111.156 358.697 111.409 358.987 111.588C359.285 111.759 359.623 111.844 360.002 111.844Z" fill="#051A2F"/>
<path d="M294.96 181.1V172.958H296.053V181.1H294.96ZM298.289 181.1V175.144H299.136V177.698H299.002C299.002 177.118 299.077 176.627 299.225 176.226C299.382 175.817 299.612 175.504 299.917 175.289C300.222 175.073 300.609 174.965 301.077 174.965H301.122C301.59 174.965 301.977 175.073 302.282 175.289C302.594 175.504 302.825 175.817 302.973 176.226C303.122 176.627 303.196 177.118 303.196 177.698H302.884C302.884 177.118 302.962 176.627 303.118 176.226C303.274 175.817 303.505 175.504 303.81 175.289C304.122 175.073 304.513 174.965 304.981 174.965H305.026C305.494 174.965 305.885 175.073 306.197 175.289C306.509 175.504 306.74 175.817 306.888 176.226C307.045 176.627 307.123 177.118 307.123 177.698V181.1H306.052V177.464C306.052 176.98 305.933 176.609 305.695 176.348C305.457 176.081 305.126 175.947 304.702 175.947C304.263 175.947 303.91 176.088 303.643 176.371C303.375 176.646 303.241 177.033 303.241 177.531V181.1H302.17V177.464C302.17 176.98 302.051 176.609 301.813 176.348C301.575 176.081 301.244 175.947 300.821 175.947C300.382 175.947 300.029 176.088 299.761 176.371C299.493 176.646 299.359 177.033 299.359 177.531V181.1H298.289ZM309.083 183.331V175.144H309.931V177.72L309.73 177.698C309.767 177.059 309.901 176.538 310.132 176.136C310.37 175.728 310.678 175.426 311.058 175.233C311.437 175.04 311.849 174.943 312.296 174.943C312.727 174.943 313.117 175.025 313.467 175.188C313.824 175.352 314.129 175.575 314.381 175.858C314.634 176.14 314.828 176.467 314.961 176.839C315.095 177.211 315.162 177.605 315.162 178.022V178.222C315.162 178.639 315.092 179.033 314.95 179.405C314.809 179.776 314.608 180.104 314.348 180.386C314.095 180.669 313.79 180.892 313.433 181.055C313.084 181.219 312.697 181.301 312.273 181.301C311.849 181.301 311.444 181.208 311.058 181.022C310.671 180.836 310.351 180.535 310.098 180.119C309.845 179.702 309.7 179.156 309.663 178.479L310.154 179.371V183.331H309.083ZM312.106 180.364C312.508 180.364 312.857 180.271 313.154 180.085C313.452 179.892 313.682 179.628 313.846 179.293C314.01 178.951 314.091 178.561 314.091 178.122C314.091 177.676 314.01 177.285 313.846 176.951C313.682 176.616 313.452 176.356 313.154 176.17C312.857 175.977 312.508 175.88 312.106 175.88C311.749 175.88 311.418 175.962 311.113 176.125C310.808 176.282 310.563 176.512 310.377 176.817C310.199 177.114 310.109 177.475 310.109 177.899V178.412C310.109 178.821 310.202 179.17 310.388 179.46C310.574 179.75 310.82 179.974 311.124 180.13C311.429 180.286 311.756 180.364 312.106 180.364ZM316.84 181.1V172.958H317.911V181.1H316.84ZM316.015 173.805V172.958H317.911V173.805H316.015ZM322.497 181.301C321.977 181.301 321.527 181.212 321.147 181.033C320.768 180.855 320.46 180.62 320.222 180.33C319.984 180.033 319.805 179.702 319.686 179.338C319.575 178.973 319.519 178.602 319.519 178.222V178.022C319.519 177.635 319.575 177.259 319.686 176.895C319.805 176.531 319.984 176.203 320.222 175.913C320.46 175.616 320.761 175.382 321.125 175.211C321.497 175.032 321.932 174.943 322.43 174.943C323.077 174.943 323.609 175.084 324.025 175.367C324.449 175.642 324.761 175.999 324.962 176.438C325.17 176.876 325.274 177.345 325.274 177.843V178.323H319.987V177.52H324.494L324.248 177.955C324.248 177.531 324.181 177.166 324.047 176.862C323.914 176.549 323.713 176.308 323.445 176.136C323.177 175.965 322.839 175.88 322.43 175.88C322.006 175.88 321.653 175.977 321.37 176.17C321.095 176.363 320.887 176.627 320.746 176.962C320.612 177.297 320.545 177.683 320.545 178.122C320.545 178.546 320.612 178.929 320.746 179.271C320.887 179.605 321.103 179.873 321.393 180.074C321.683 180.267 322.051 180.364 322.497 180.364C322.966 180.364 323.345 180.26 323.635 180.052C323.932 179.843 324.111 179.602 324.17 179.327H325.174C325.092 179.736 324.929 180.089 324.683 180.386C324.438 180.684 324.129 180.91 323.757 181.067C323.386 181.223 322.966 181.301 322.497 181.301ZM326.795 181.1V175.144H327.643V177.698H327.509C327.509 177.118 327.583 176.627 327.732 176.226C327.888 175.817 328.118 175.504 328.423 175.289C328.728 175.073 329.115 174.965 329.583 174.965H329.628C330.096 174.965 330.483 175.073 330.788 175.289C331.1 175.504 331.331 175.817 331.48 176.226C331.628 176.627 331.703 177.118 331.703 177.698H331.39C331.39 177.118 331.468 176.627 331.625 176.226C331.781 175.817 332.011 175.504 332.316 175.289C332.628 175.073 333.019 174.965 333.487 174.965H333.532C334 174.965 334.391 175.073 334.703 175.289C335.015 175.504 335.246 175.817 335.395 176.226C335.551 176.627 335.629 177.118 335.629 177.698V181.1H334.558V177.464C334.558 176.98 334.439 176.609 334.201 176.348C333.963 176.081 333.632 175.947 333.208 175.947C332.77 175.947 332.416 176.088 332.149 176.371C331.881 176.646 331.747 177.033 331.747 177.531V181.1H330.676V177.464C330.676 176.98 330.557 176.609 330.32 176.348C330.082 176.081 329.751 175.947 329.327 175.947C328.888 175.947 328.535 176.088 328.267 176.371C327.999 176.646 327.866 177.033 327.866 177.531V181.1H326.795ZM340.121 181.301C339.601 181.301 339.151 181.212 338.772 181.033C338.393 180.855 338.084 180.62 337.846 180.33C337.608 180.033 337.43 179.702 337.311 179.338C337.199 178.973 337.143 178.602 337.143 178.222V178.022C337.143 177.635 337.199 177.259 337.311 176.895C337.43 176.531 337.608 176.203 337.846 175.913C338.084 175.616 338.385 175.382 338.75 175.211C339.121 175.032 339.556 174.943 340.055 174.943C340.702 174.943 341.233 175.084 341.65 175.367C342.073 175.642 342.386 175.999 342.587 176.438C342.795 176.876 342.899 177.345 342.899 177.843V178.323H337.612V177.52H342.118L341.873 177.955C341.873 177.531 341.806 177.166 341.672 176.862C341.538 176.549 341.337 176.308 341.07 176.136C340.802 175.965 340.464 175.88 340.055 175.88C339.631 175.88 339.277 175.977 338.995 176.17C338.72 176.363 338.512 176.627 338.37 176.962C338.236 177.297 338.17 177.683 338.17 178.122C338.17 178.546 338.236 178.929 338.37 179.271C338.512 179.605 338.727 179.873 339.017 180.074C339.307 180.267 339.675 180.364 340.121 180.364C340.59 180.364 340.969 180.26 341.259 180.052C341.557 179.843 341.735 179.602 341.795 179.327H342.798C342.717 179.736 342.553 180.089 342.308 180.386C342.062 180.684 341.754 180.91 341.382 181.067C341.01 181.223 340.59 181.301 340.121 181.301ZM344.419 181.1V175.144H345.267V177.698H345.133C345.133 177.111 345.211 176.616 345.367 176.215C345.531 175.806 345.776 175.497 346.104 175.289C346.431 175.073 346.843 174.965 347.342 174.965H347.386C348.137 174.965 348.691 175.2 349.048 175.668C349.413 176.136 349.595 176.813 349.595 177.698V181.1H348.524V177.475C348.524 177.014 348.394 176.646 348.134 176.371C347.873 176.088 347.516 175.947 347.063 175.947C346.594 175.947 346.215 176.092 345.925 176.382C345.635 176.672 345.49 177.059 345.49 177.542V181.1H344.419ZM353.874 181.167C353.428 181.167 353.041 181.104 352.714 180.977C352.394 180.851 352.145 180.635 351.967 180.33C351.796 180.018 351.71 179.598 351.71 179.07V173.337H352.736V179.204C352.736 179.524 352.822 179.773 352.993 179.951C353.171 180.122 353.42 180.208 353.74 180.208H354.789V181.167H353.874ZM350.684 175.947V175.144H354.789V175.947H350.684ZM356.593 181.1V175.144H357.664V181.1H356.593ZM355.679 175.991V175.144H357.664V175.991H355.679ZM356.894 174.185C356.656 174.185 356.478 174.121 356.359 173.995C356.247 173.868 356.192 173.709 356.192 173.515C356.192 173.322 356.247 173.162 356.359 173.036C356.478 172.909 356.656 172.846 356.894 172.846C357.132 172.846 357.307 172.909 357.419 173.036C357.538 173.162 357.597 173.322 357.597 173.515C357.597 173.709 357.538 173.868 357.419 173.995C357.307 174.121 357.132 174.185 356.894 174.185ZM359.734 181.1V175.144H360.582V177.698H360.448C360.448 177.111 360.526 176.616 360.683 176.215C360.846 175.806 361.092 175.497 361.419 175.289C361.746 175.073 362.159 174.965 362.657 174.965H362.701C363.452 174.965 364.006 175.2 364.363 175.668C364.728 176.136 364.91 176.813 364.91 177.698V181.1H363.839V177.475C363.839 177.014 363.709 176.646 363.449 176.371C363.188 176.088 362.832 175.947 362.378 175.947C361.909 175.947 361.53 176.092 361.24 176.382C360.95 176.672 360.805 177.059 360.805 177.542V181.1H359.734ZM369.122 183.42C368.847 183.42 368.568 183.409 368.286 183.387C368.011 183.364 367.747 183.335 367.494 183.297V182.394C367.761 182.431 368.04 182.461 368.33 182.483C368.628 182.513 368.907 182.528 369.167 182.528C369.71 182.528 370.141 182.453 370.461 182.305C370.788 182.163 371.022 181.937 371.163 181.624C371.312 181.319 371.387 180.925 371.387 180.442V179.304L371.744 178.457C371.721 179.059 371.595 179.561 371.364 179.962C371.134 180.356 370.833 180.654 370.461 180.855C370.096 181.048 369.691 181.145 369.245 181.145C368.829 181.145 368.446 181.067 368.096 180.91C367.754 180.747 367.457 180.524 367.204 180.241C366.958 179.959 366.765 179.635 366.624 179.271C366.49 178.899 366.423 178.509 366.423 178.1V177.899C366.423 177.482 366.494 177.096 366.635 176.739C366.776 176.374 366.973 176.058 367.226 175.791C367.479 175.523 367.78 175.315 368.13 175.166C368.486 175.017 368.877 174.943 369.301 174.943C369.799 174.943 370.238 175.051 370.617 175.266C370.996 175.475 371.294 175.783 371.509 176.192C371.732 176.594 371.855 177.088 371.877 177.676L371.565 177.687V175.144H372.413V180.397C372.413 181.111 372.301 181.688 372.078 182.126C371.862 182.572 371.513 182.9 371.03 183.108C370.554 183.316 369.918 183.42 369.122 183.42ZM369.446 180.163C369.803 180.163 370.126 180.085 370.416 179.929C370.714 179.773 370.948 179.55 371.119 179.26C371.297 178.962 371.387 178.609 371.387 178.2V177.687C371.387 177.285 371.294 176.947 371.108 176.672C370.929 176.397 370.695 176.189 370.405 176.047C370.115 175.906 369.799 175.835 369.457 175.835C369.07 175.835 368.728 175.925 368.431 176.103C368.133 176.282 367.903 176.534 367.739 176.862C367.576 177.181 367.494 177.561 367.494 177.999C367.494 178.438 367.576 178.821 367.739 179.148C367.91 179.475 368.141 179.728 368.431 179.907C368.728 180.078 369.067 180.163 369.446 180.163Z" fill="#051A2F"/>
<path d="M239.602 294.934C238.866 294.934 238.245 294.793 237.739 294.51C237.241 294.22 236.862 293.819 236.602 293.306C236.349 292.785 236.222 292.183 236.222 291.499V286.591H237.316V291.633C237.316 292.086 237.401 292.488 237.572 292.837C237.751 293.179 238.011 293.447 238.353 293.64C238.695 293.834 239.111 293.93 239.602 293.93C240.093 293.93 240.506 293.837 240.84 293.651C241.182 293.458 241.439 293.19 241.61 292.848C241.788 292.499 241.878 292.094 241.878 291.633V286.591H242.971V291.499C242.971 292.183 242.844 292.785 242.591 293.306C242.339 293.819 241.963 294.22 241.465 294.51C240.967 294.793 240.346 294.934 239.602 294.934ZM245.202 294.733V286.591H246.295V294.733H245.202ZM253.557 294.934C253.133 294.934 252.742 294.856 252.385 294.7C252.029 294.544 251.716 294.324 251.449 294.042C251.188 293.759 250.984 293.432 250.835 293.06C250.694 292.688 250.623 292.287 250.623 291.856V291.655C250.623 291.231 250.694 290.833 250.835 290.461C250.976 290.09 251.173 289.762 251.426 289.48C251.686 289.197 251.991 288.978 252.341 288.822C252.698 288.658 253.092 288.576 253.523 288.576C253.977 288.576 254.389 288.673 254.761 288.866C255.133 289.052 255.438 289.346 255.676 289.747C255.914 290.149 256.048 290.67 256.077 291.309L255.631 290.595V286.591H256.702V294.733H255.854V292.09H256.167C256.137 292.767 255.996 293.317 255.743 293.741C255.49 294.157 255.17 294.462 254.784 294.655C254.404 294.841 253.995 294.934 253.557 294.934ZM253.702 293.997C254.066 293.997 254.397 293.915 254.694 293.752C254.992 293.588 255.23 293.354 255.408 293.049C255.587 292.737 255.676 292.372 255.676 291.956V291.443C255.676 291.034 255.583 290.688 255.397 290.406C255.219 290.116 254.977 289.896 254.672 289.747C254.375 289.591 254.047 289.513 253.69 289.513C253.296 289.513 252.947 289.606 252.642 289.792C252.345 289.978 252.11 290.238 251.939 290.573C251.776 290.908 251.694 291.302 251.694 291.755C251.694 292.209 251.779 292.607 251.95 292.949C252.121 293.283 252.359 293.544 252.664 293.73C252.969 293.908 253.315 293.997 253.702 293.997ZM261.292 294.934C260.771 294.934 260.321 294.845 259.942 294.666C259.563 294.488 259.254 294.254 259.016 293.964C258.778 293.666 258.6 293.335 258.481 292.971C258.369 292.607 258.313 292.235 258.313 291.856V291.655C258.313 291.268 258.369 290.893 258.481 290.528C258.6 290.164 258.778 289.837 259.016 289.547C259.254 289.249 259.555 289.015 259.92 288.844C260.291 288.666 260.726 288.576 261.225 288.576C261.872 288.576 262.403 288.718 262.82 289C263.243 289.275 263.556 289.632 263.757 290.071C263.965 290.51 264.069 290.978 264.069 291.476V291.956H258.782V291.153H263.288L263.043 291.588C263.043 291.164 262.976 290.8 262.842 290.495C262.708 290.183 262.507 289.941 262.24 289.77C261.972 289.599 261.634 289.513 261.225 289.513C260.801 289.513 260.448 289.61 260.165 289.803C259.89 289.997 259.682 290.261 259.54 290.595C259.406 290.93 259.34 291.317 259.34 291.755C259.34 292.179 259.406 292.562 259.54 292.904C259.682 293.239 259.897 293.506 260.187 293.707C260.477 293.901 260.845 293.997 261.292 293.997C261.76 293.997 262.139 293.893 262.429 293.685C262.727 293.477 262.905 293.235 262.965 292.96H263.969C263.887 293.369 263.723 293.722 263.478 294.02C263.232 294.317 262.924 294.544 262.552 294.7C262.18 294.856 261.76 294.934 261.292 294.934ZM267.541 294.912C266.76 294.912 266.154 294.745 265.723 294.41C265.299 294.075 265.08 293.618 265.065 293.038H266.069C266.084 293.268 266.199 293.488 266.415 293.696C266.638 293.897 267.013 293.997 267.541 293.997C268.017 293.997 268.382 293.904 268.634 293.718C268.887 293.525 269.014 293.291 269.014 293.016C269.014 292.77 268.921 292.581 268.735 292.447C268.549 292.306 268.248 292.213 267.831 292.168L267.184 292.101C266.619 292.042 266.158 291.874 265.801 291.599C265.444 291.317 265.266 290.922 265.266 290.417C265.266 290.037 265.362 289.714 265.556 289.446C265.749 289.171 266.017 288.963 266.359 288.822C266.701 288.673 267.095 288.599 267.541 288.599C268.21 288.599 268.753 288.747 269.17 289.045C269.586 289.342 269.802 289.785 269.817 290.372H268.813C268.805 290.134 268.694 289.933 268.478 289.77C268.27 289.599 267.958 289.513 267.541 289.513C267.125 289.513 266.809 289.599 266.593 289.77C266.377 289.941 266.27 290.156 266.27 290.417C266.27 290.64 266.344 290.818 266.493 290.952C266.649 291.086 266.902 291.172 267.251 291.209L267.898 291.276C268.538 291.343 269.051 291.521 269.437 291.811C269.824 292.094 270.017 292.495 270.017 293.016C270.017 293.387 269.91 293.718 269.694 294.008C269.486 294.291 269.196 294.514 268.824 294.678C268.452 294.834 268.025 294.912 267.541 294.912ZM271.859 294.733V288.777H272.93V294.733H271.859ZM270.945 289.625V288.777H272.93V289.625H270.945ZM272.161 287.818C271.923 287.818 271.744 287.755 271.625 287.628C271.514 287.502 271.458 287.342 271.458 287.149C271.458 286.955 271.514 286.795 271.625 286.669C271.744 286.543 271.923 286.479 272.161 286.479C272.399 286.479 272.573 286.543 272.685 286.669C272.804 286.795 272.863 286.955 272.863 287.149C272.863 287.342 272.804 287.502 272.685 287.628C272.573 287.755 272.399 287.818 272.161 287.818ZM277.254 297.053C276.979 297.053 276.7 297.042 276.417 297.02C276.142 296.998 275.878 296.968 275.625 296.931V296.027C275.893 296.064 276.172 296.094 276.462 296.117C276.759 296.146 277.038 296.161 277.298 296.161C277.841 296.161 278.272 296.087 278.592 295.938C278.919 295.797 279.154 295.57 279.295 295.258C279.444 294.953 279.518 294.559 279.518 294.075V292.938L279.875 292.09C279.853 292.692 279.726 293.194 279.496 293.596C279.265 293.99 278.964 294.287 278.592 294.488C278.228 294.681 277.823 294.778 277.376 294.778C276.96 294.778 276.577 294.7 276.228 294.544C275.885 294.38 275.588 294.157 275.335 293.875C275.09 293.592 274.896 293.268 274.755 292.904C274.621 292.532 274.554 292.142 274.554 291.733V291.532C274.554 291.116 274.625 290.729 274.766 290.372C274.908 290.008 275.105 289.692 275.358 289.424C275.61 289.156 275.912 288.948 276.261 288.799C276.618 288.651 277.008 288.576 277.432 288.576C277.93 288.576 278.369 288.684 278.748 288.9C279.128 289.108 279.425 289.417 279.641 289.826C279.864 290.227 279.986 290.722 280.009 291.309L279.696 291.32V288.777H280.544V294.031C280.544 294.745 280.433 295.321 280.21 295.76C279.994 296.206 279.644 296.533 279.161 296.741C278.685 296.949 278.049 297.053 277.254 297.053ZM277.577 293.796C277.934 293.796 278.258 293.718 278.548 293.562C278.845 293.406 279.079 293.183 279.25 292.893C279.429 292.596 279.518 292.242 279.518 291.833V291.32C279.518 290.919 279.425 290.58 279.239 290.305C279.061 290.03 278.826 289.822 278.536 289.681C278.246 289.539 277.93 289.469 277.588 289.469C277.202 289.469 276.86 289.558 276.562 289.736C276.265 289.915 276.034 290.168 275.871 290.495C275.707 290.815 275.625 291.194 275.625 291.633C275.625 292.071 275.707 292.454 275.871 292.781C276.042 293.109 276.272 293.361 276.562 293.54C276.86 293.711 277.198 293.796 277.577 293.796ZM282.527 294.733V288.777H283.375V291.331H283.241C283.241 290.744 283.319 290.249 283.476 289.848C283.639 289.439 283.885 289.13 284.212 288.922C284.539 288.706 284.952 288.599 285.45 288.599H285.494C286.246 288.599 286.8 288.833 287.156 289.301C287.521 289.77 287.703 290.446 287.703 291.331V294.733H286.632V291.108C286.632 290.647 286.502 290.279 286.242 290.004C285.982 289.721 285.625 289.58 285.171 289.58C284.703 289.58 284.323 289.725 284.033 290.015C283.743 290.305 283.598 290.692 283.598 291.175V294.733H282.527Z" fill="#051A2F"/>
<path d="M287.704 270.535C286.968 270.535 286.347 270.393 285.841 270.111C285.343 269.821 284.964 269.419 284.704 268.906C284.451 268.386 284.325 267.783 284.325 267.099V262.191H285.418V267.233C285.418 267.687 285.503 268.088 285.674 268.438C285.853 268.78 286.113 269.048 286.455 269.241C286.797 269.434 287.213 269.531 287.704 269.531C288.195 269.531 288.608 269.438 288.942 269.252C289.284 269.059 289.541 268.791 289.712 268.449C289.89 268.099 289.98 267.694 289.98 267.233V262.191H291.073V267.099C291.073 267.783 290.946 268.386 290.694 268.906C290.441 269.419 290.065 269.821 289.567 270.111C289.069 270.393 288.448 270.535 287.704 270.535ZM295.078 270.512C294.297 270.512 293.691 270.345 293.26 270.011C292.836 269.676 292.616 269.219 292.602 268.639H293.605C293.62 268.869 293.736 269.088 293.951 269.297C294.174 269.497 294.55 269.598 295.078 269.598C295.554 269.598 295.918 269.505 296.171 269.319C296.424 269.126 296.55 268.891 296.55 268.616C296.55 268.371 296.457 268.181 296.271 268.047C296.085 267.906 295.784 267.813 295.368 267.769L294.721 267.702C294.156 267.642 293.695 267.475 293.338 267.2C292.981 266.917 292.802 266.523 292.802 266.017C292.802 265.638 292.899 265.315 293.092 265.047C293.286 264.772 293.553 264.564 293.895 264.422C294.238 264.274 294.632 264.199 295.078 264.199C295.747 264.199 296.29 264.348 296.706 264.645C297.123 264.943 297.338 265.385 297.353 265.973H296.349C296.342 265.735 296.23 265.534 296.015 265.37C295.807 265.199 295.494 265.114 295.078 265.114C294.661 265.114 294.345 265.199 294.13 265.37C293.914 265.541 293.806 265.757 293.806 266.017C293.806 266.24 293.881 266.419 294.029 266.553C294.185 266.687 294.438 266.772 294.788 266.809L295.435 266.876C296.074 266.943 296.587 267.122 296.974 267.412C297.361 267.694 297.554 268.096 297.554 268.616C297.554 268.988 297.446 269.319 297.231 269.609C297.022 269.892 296.732 270.115 296.361 270.278C295.989 270.434 295.561 270.512 295.078 270.512ZM301.638 270.535C301.117 270.535 300.668 270.446 300.288 270.267C299.909 270.089 299.6 269.854 299.363 269.564C299.125 269.267 298.946 268.936 298.827 268.572C298.716 268.207 298.66 267.835 298.66 267.456V267.255C298.66 266.869 298.716 266.493 298.827 266.129C298.946 265.764 299.125 265.437 299.363 265.147C299.6 264.85 299.902 264.616 300.266 264.445C300.638 264.266 301.073 264.177 301.571 264.177C302.218 264.177 302.75 264.318 303.166 264.601C303.59 264.876 303.902 265.233 304.103 265.672C304.311 266.11 304.415 266.579 304.415 267.077V267.557H299.128V266.754H303.635L303.389 267.189C303.389 266.765 303.322 266.4 303.188 266.095C303.055 265.783 302.854 265.541 302.586 265.37C302.318 265.199 301.98 265.114 301.571 265.114C301.147 265.114 300.794 265.211 300.511 265.404C300.236 265.597 300.028 265.861 299.887 266.196C299.753 266.53 299.686 266.917 299.686 267.356C299.686 267.78 299.753 268.163 299.887 268.505C300.028 268.839 300.244 269.107 300.534 269.308C300.824 269.501 301.192 269.598 301.638 269.598C302.106 269.598 302.486 269.494 302.776 269.285C303.073 269.077 303.252 268.836 303.311 268.56H304.315C304.233 268.969 304.07 269.323 303.824 269.62C303.579 269.918 303.27 270.144 302.898 270.301C302.527 270.457 302.106 270.535 301.638 270.535ZM305.936 270.334V264.378H306.783V266.832H306.739C306.739 265.962 306.928 265.326 307.308 264.924C307.694 264.515 308.271 264.311 309.037 264.311H309.237V265.27H308.858C308.263 265.27 307.806 265.43 307.486 265.75C307.166 266.062 307.006 266.516 307.006 267.11V270.334H305.936ZM315.369 270.401C314.923 270.401 314.536 270.338 314.209 270.211C313.889 270.085 313.64 269.869 313.461 269.564C313.29 269.252 313.205 268.832 313.205 268.304V262.571H314.231V268.438C314.231 268.758 314.317 269.007 314.488 269.185C314.666 269.356 314.915 269.442 315.235 269.442H316.283V270.401H315.369ZM312.179 265.181V264.378H316.283V265.181H312.179ZM320.286 270.535C319.766 270.535 319.316 270.446 318.937 270.267C318.557 270.089 318.249 269.854 318.011 269.564C317.773 269.267 317.594 268.936 317.475 268.572C317.364 268.207 317.308 267.835 317.308 267.456V267.255C317.308 266.869 317.364 266.493 317.475 266.129C317.594 265.764 317.773 265.437 318.011 265.147C318.249 264.85 318.55 264.616 318.914 264.445C319.286 264.266 319.721 264.177 320.219 264.177C320.866 264.177 321.398 264.318 321.814 264.601C322.238 264.876 322.551 265.233 322.751 265.672C322.96 266.11 323.064 266.579 323.064 267.077V267.557H317.777V266.754H322.283L322.038 267.189C322.038 266.765 321.971 266.4 321.837 266.095C321.703 265.783 321.502 265.541 321.234 265.37C320.967 265.199 320.628 265.114 320.219 265.114C319.796 265.114 319.442 265.211 319.16 265.404C318.885 265.597 318.676 265.861 318.535 266.196C318.401 266.53 318.334 266.917 318.334 267.356C318.334 267.78 318.401 268.163 318.535 268.505C318.676 268.839 318.892 269.107 319.182 269.308C319.472 269.501 319.84 269.598 320.286 269.598C320.755 269.598 321.134 269.494 321.424 269.285C321.721 269.077 321.9 268.836 321.959 268.56H322.963C322.882 268.969 322.718 269.323 322.473 269.62C322.227 269.918 321.919 270.144 321.547 270.301C321.175 270.457 320.755 270.535 320.286 270.535ZM326.536 270.512C325.755 270.512 325.149 270.345 324.718 270.011C324.294 269.676 324.075 269.219 324.06 268.639H325.064C325.079 268.869 325.194 269.088 325.409 269.297C325.633 269.497 326.008 269.598 326.536 269.598C327.012 269.598 327.376 269.505 327.629 269.319C327.882 269.126 328.008 268.891 328.008 268.616C328.008 268.371 327.915 268.181 327.73 268.047C327.544 267.906 327.242 267.813 326.826 267.769L326.179 267.702C325.614 267.642 325.153 267.475 324.796 267.2C324.439 266.917 324.261 266.523 324.261 266.017C324.261 265.638 324.357 265.315 324.551 265.047C324.744 264.772 325.012 264.564 325.354 264.422C325.696 264.274 326.09 264.199 326.536 264.199C327.205 264.199 327.748 264.348 328.165 264.645C328.581 264.943 328.797 265.385 328.811 265.973H327.808C327.8 265.735 327.689 265.534 327.473 265.37C327.265 265.199 326.952 265.114 326.536 265.114C326.12 265.114 325.804 265.199 325.588 265.37C325.372 265.541 325.264 265.757 325.264 266.017C325.264 266.24 325.339 266.419 325.488 266.553C325.644 266.687 325.897 266.772 326.246 266.809L326.893 266.876C327.532 266.943 328.046 267.122 328.432 267.412C328.819 267.694 329.012 268.096 329.012 268.616C329.012 268.988 328.904 269.319 328.689 269.609C328.481 269.892 328.191 270.115 327.819 270.278C327.447 270.434 327.019 270.512 326.536 270.512ZM332.884 270.401C332.438 270.401 332.051 270.338 331.724 270.211C331.404 270.085 331.155 269.869 330.977 269.564C330.806 269.252 330.72 268.832 330.72 268.304V262.571H331.746V268.438C331.746 268.758 331.832 269.007 332.003 269.185C332.182 269.356 332.431 269.442 332.75 269.442H333.799V270.401H332.884ZM329.694 265.181V264.378H333.799V265.181H329.694ZM335.603 270.334V264.378H336.674V270.334H335.603ZM334.689 265.225V264.378H336.674V265.225H334.689ZM335.905 263.418C335.667 263.418 335.488 263.355 335.369 263.229C335.258 263.102 335.202 262.942 335.202 262.749C335.202 262.556 335.258 262.396 335.369 262.27C335.488 262.143 335.667 262.08 335.905 262.08C336.143 262.08 336.317 262.143 336.429 262.27C336.548 262.396 336.607 262.556 336.607 262.749C336.607 262.942 336.548 263.102 336.429 263.229C336.317 263.355 336.143 263.418 335.905 263.418ZM338.745 270.334V264.378H339.592V266.932H339.458C339.458 266.345 339.537 265.85 339.693 265.448C339.856 265.039 340.102 264.731 340.429 264.523C340.756 264.307 341.169 264.199 341.667 264.199H341.712C342.463 264.199 343.017 264.433 343.374 264.902C343.738 265.37 343.92 266.047 343.92 266.932V270.334H342.849V266.709C342.849 266.248 342.719 265.88 342.459 265.605C342.199 265.322 341.842 265.181 341.388 265.181C340.92 265.181 340.54 265.326 340.25 265.616C339.96 265.906 339.815 266.292 339.815 266.776V270.334H338.745ZM348.132 272.654C347.857 272.654 347.578 272.643 347.296 272.621C347.021 272.598 346.757 272.569 346.504 272.531V271.628C346.772 271.665 347.051 271.695 347.341 271.717C347.638 271.747 347.917 271.762 348.177 271.762C348.72 271.762 349.151 271.687 349.471 271.539C349.798 271.397 350.032 271.171 350.174 270.858C350.322 270.553 350.397 270.159 350.397 269.676V268.538L350.754 267.69C350.731 268.293 350.605 268.795 350.374 269.196C350.144 269.59 349.843 269.888 349.471 270.089C349.107 270.282 348.701 270.379 348.255 270.379C347.839 270.379 347.456 270.301 347.106 270.144C346.764 269.981 346.467 269.758 346.214 269.475C345.969 269.193 345.775 268.869 345.634 268.505C345.5 268.133 345.433 267.743 345.433 267.334V267.133C345.433 266.716 345.504 266.33 345.645 265.973C345.786 265.608 345.983 265.292 346.236 265.025C346.489 264.757 346.79 264.549 347.14 264.4C347.497 264.251 347.887 264.177 348.311 264.177C348.809 264.177 349.248 264.285 349.627 264.5C350.006 264.709 350.304 265.017 350.519 265.426C350.743 265.828 350.865 266.322 350.888 266.91L350.575 266.921V264.378H351.423V269.631C351.423 270.345 351.311 270.921 351.088 271.36C350.873 271.806 350.523 272.134 350.04 272.342C349.564 272.55 348.928 272.654 348.132 272.654ZM348.456 269.397C348.813 269.397 349.136 269.319 349.426 269.163C349.724 269.007 349.958 268.784 350.129 268.494C350.308 268.196 350.397 267.843 350.397 267.434V266.921C350.397 266.519 350.304 266.181 350.118 265.906C349.939 265.631 349.705 265.422 349.415 265.281C349.125 265.14 348.809 265.069 348.467 265.069C348.08 265.069 347.738 265.158 347.441 265.337C347.143 265.515 346.913 265.768 346.749 266.095C346.586 266.415 346.504 266.794 346.504 267.233C346.504 267.672 346.586 268.055 346.749 268.382C346.92 268.709 347.151 268.962 347.441 269.14C347.738 269.312 348.077 269.397 348.456 269.397Z" fill="#051A2F"/>
<path d="M357.853 241.796V240.836H360.128C360.567 240.836 360.905 240.714 361.143 240.468C361.389 240.215 361.511 239.881 361.511 239.464C361.511 239.041 361.392 238.71 361.154 238.472C360.916 238.226 360.574 238.104 360.128 238.104H357.853V237.39H359.972C360.492 237.39 360.95 237.453 361.344 237.579C361.745 237.706 362.058 237.918 362.281 238.215C362.511 238.505 362.627 238.903 362.627 239.409V239.565C362.627 240.041 362.53 240.446 362.337 240.781C362.143 241.108 361.85 241.361 361.455 241.539C361.061 241.71 360.567 241.796 359.972 241.796H357.853ZM356.983 241.796V233.564H358.076V241.796H356.983ZM357.853 237.903V237.189H359.827C360.288 237.189 360.626 237.066 360.842 236.821C361.065 236.568 361.177 236.248 361.177 235.862C361.177 235.467 361.065 235.148 360.842 234.902C360.626 234.649 360.288 234.523 359.827 234.523H357.853V233.564H359.637C360.53 233.564 361.195 233.753 361.634 234.133C362.073 234.504 362.292 235.044 362.292 235.75V235.906C362.292 236.404 362.18 236.802 361.957 237.1C361.734 237.39 361.422 237.598 361.02 237.724C360.626 237.843 360.165 237.903 359.637 237.903H357.853ZM366.471 241.929C365.765 241.929 365.222 241.699 364.843 241.238C364.464 240.777 364.274 240.111 364.274 239.241V235.784H365.345V239.453C365.345 239.922 365.471 240.29 365.724 240.557C365.977 240.818 366.319 240.948 366.75 240.948C367.196 240.948 367.561 240.807 367.843 240.524C368.126 240.234 368.267 239.84 368.267 239.342V235.784H369.338V241.751H368.49V239.197H368.624C368.624 239.784 368.546 240.282 368.39 240.691C368.234 241.093 367.999 241.401 367.687 241.617C367.382 241.825 366.992 241.929 366.516 241.929H366.471ZM373.665 244.071C373.39 244.071 373.111 244.06 372.828 244.038C372.553 244.015 372.289 243.986 372.036 243.948V243.045C372.304 243.082 372.583 243.112 372.873 243.134C373.17 243.164 373.449 243.179 373.71 243.179C374.252 243.179 374.684 243.104 375.003 242.956C375.331 242.814 375.565 242.588 375.706 242.275C375.855 241.97 375.929 241.576 375.929 241.093V239.955L376.286 239.107C376.264 239.71 376.137 240.212 375.907 240.613C375.676 241.007 375.375 241.305 375.003 241.506C374.639 241.699 374.234 241.796 373.788 241.796C373.371 241.796 372.988 241.718 372.639 241.561C372.297 241.398 371.999 241.175 371.746 240.892C371.501 240.61 371.308 240.286 371.166 239.922C371.033 239.55 370.966 239.159 370.966 238.751V238.55C370.966 238.133 371.036 237.747 371.178 237.39C371.319 237.025 371.516 236.709 371.769 236.442C372.022 236.174 372.323 235.966 372.672 235.817C373.029 235.668 373.42 235.594 373.843 235.594C374.342 235.594 374.78 235.702 375.16 235.917C375.539 236.126 375.836 236.434 376.052 236.843C376.275 237.245 376.398 237.739 376.42 238.327L376.108 238.338V235.795H376.955V241.048C376.955 241.762 376.844 242.338 376.621 242.777C376.405 243.223 376.056 243.551 375.572 243.759C375.096 243.967 374.461 244.071 373.665 244.071ZM373.988 240.814C374.345 240.814 374.669 240.736 374.959 240.58C375.256 240.424 375.491 240.201 375.662 239.911C375.84 239.613 375.929 239.26 375.929 238.851V238.338C375.929 237.936 375.836 237.598 375.65 237.323C375.472 237.048 375.238 236.839 374.948 236.698C374.658 236.557 374.342 236.486 374 236.486C373.613 236.486 373.271 236.575 372.973 236.754C372.676 236.932 372.445 237.185 372.282 237.512C372.118 237.832 372.036 238.211 372.036 238.65C372.036 239.089 372.118 239.472 372.282 239.799C372.453 240.126 372.683 240.379 372.973 240.557C373.271 240.729 373.609 240.814 373.988 240.814ZM383.797 241.818C383.351 241.818 382.964 241.755 382.637 241.628C382.317 241.502 382.068 241.286 381.889 240.981C381.718 240.669 381.633 240.249 381.633 239.721V233.988H382.659V239.855C382.659 240.175 382.745 240.424 382.916 240.602C383.094 240.773 383.343 240.859 383.663 240.859H384.711V241.818H383.797ZM380.607 236.598V235.795H384.711V236.598H380.607ZM386.226 241.751V235.795H387.074V238.249H387.029C387.029 237.379 387.219 236.743 387.598 236.341C387.985 235.932 388.561 235.728 389.327 235.728H389.528V236.687H389.148C388.553 236.687 388.096 236.847 387.776 237.167C387.457 237.479 387.297 237.933 387.297 238.527V241.751H386.226ZM394.382 241.751V239.966H394.203V237.903C394.203 237.494 394.096 237.185 393.88 236.977C393.672 236.769 393.363 236.665 392.954 236.665C392.724 236.665 392.486 236.668 392.24 236.676C391.995 236.683 391.761 236.691 391.538 236.698C391.315 236.706 391.121 236.717 390.958 236.732V235.795C391.121 235.78 391.292 235.769 391.471 235.761C391.657 235.746 391.846 235.739 392.04 235.739C392.233 235.731 392.419 235.728 392.597 235.728C393.207 235.728 393.705 235.802 394.092 235.951C394.479 236.092 394.765 236.326 394.951 236.654C395.137 236.981 395.23 237.423 395.23 237.981V241.751H394.382ZM392.43 241.907C391.984 241.907 391.597 241.833 391.27 241.684C390.95 241.528 390.701 241.305 390.523 241.015C390.352 240.725 390.266 240.375 390.266 239.966C390.266 239.542 390.359 239.189 390.545 238.907C390.738 238.624 391.017 238.412 391.381 238.271C391.746 238.122 392.185 238.048 392.698 238.048H394.315V238.851H392.653C392.222 238.851 391.891 238.955 391.66 239.163C391.43 239.371 391.315 239.639 391.315 239.966C391.315 240.294 391.43 240.557 391.66 240.758C391.891 240.959 392.222 241.059 392.653 241.059C392.906 241.059 393.148 241.015 393.378 240.926C393.609 240.829 393.798 240.673 393.947 240.457C394.103 240.234 394.189 239.929 394.203 239.542L394.493 239.966C394.456 240.39 394.352 240.747 394.181 241.037C394.018 241.32 393.787 241.535 393.49 241.684C393.2 241.833 392.846 241.907 392.43 241.907ZM399.749 241.952C399.236 241.952 398.79 241.863 398.411 241.684C398.039 241.506 397.73 241.268 397.485 240.97C397.24 240.665 397.054 240.331 396.927 239.966C396.808 239.602 396.749 239.238 396.749 238.873V238.672C396.749 238.293 396.808 237.921 396.927 237.557C397.054 237.193 397.24 236.865 397.485 236.575C397.738 236.278 398.05 236.04 398.422 235.862C398.794 235.683 399.229 235.594 399.727 235.594C400.225 235.594 400.671 235.687 401.065 235.873C401.467 236.059 401.787 236.323 402.025 236.665C402.27 236.999 402.408 237.397 402.437 237.858H401.411C401.359 237.486 401.188 237.178 400.898 236.932C400.608 236.68 400.218 236.553 399.727 236.553C399.303 236.553 398.95 236.65 398.667 236.843C398.385 237.036 398.173 237.3 398.031 237.635C397.89 237.97 397.82 238.349 397.82 238.773C397.82 239.182 397.89 239.557 398.031 239.899C398.173 240.234 398.385 240.502 398.667 240.702C398.957 240.896 399.318 240.992 399.749 240.992C400.084 240.992 400.374 240.933 400.619 240.814C400.865 240.695 401.062 240.535 401.21 240.334C401.359 240.134 401.448 239.907 401.478 239.654H402.504C402.482 240.122 402.344 240.528 402.092 240.87C401.846 241.212 401.519 241.48 401.11 241.673C400.708 241.859 400.255 241.952 399.749 241.952ZM408.064 241.751L405.822 238.974H404.84L407.573 235.795H408.7L406.224 238.661L406.302 238.092L409.302 241.751H408.064ZM403.959 241.751V233.608H405.03V241.751H403.959ZM410.643 241.751V235.795H411.714V241.751H410.643ZM409.729 236.642V235.795H411.714V236.642H409.729ZM410.945 234.835C410.707 234.835 410.528 234.772 410.409 234.646C410.298 234.519 410.242 234.359 410.242 234.166C410.242 233.973 410.298 233.813 410.409 233.687C410.528 233.56 410.707 233.497 410.945 233.497C411.182 233.497 411.357 233.56 411.469 233.687C411.588 233.813 411.647 233.973 411.647 234.166C411.647 234.359 411.588 234.519 411.469 234.646C411.357 234.772 411.182 234.835 410.945 234.835ZM413.785 241.751V235.795H414.632V238.349H414.498C414.498 237.762 414.577 237.267 414.733 236.865C414.896 236.456 415.142 236.148 415.469 235.94C415.796 235.724 416.209 235.616 416.707 235.616H416.752C417.503 235.616 418.057 235.85 418.414 236.319C418.778 236.787 418.96 237.464 418.96 238.349V241.751H417.889V238.126C417.889 237.665 417.759 237.297 417.499 237.022C417.239 236.739 416.882 236.598 416.428 236.598C415.96 236.598 415.58 236.743 415.29 237.033C415 237.323 414.855 237.709 414.855 238.193V241.751H413.785ZM423.172 244.071C422.897 244.071 422.618 244.06 422.336 244.038C422.061 244.015 421.797 243.986 421.544 243.948V243.045C421.812 243.082 422.09 243.112 422.38 243.134C422.678 243.164 422.957 243.179 423.217 243.179C423.76 243.179 424.191 243.104 424.511 242.956C424.838 242.814 425.072 242.588 425.214 242.275C425.362 241.97 425.437 241.576 425.437 241.093V239.955L425.794 239.107C425.771 239.71 425.645 240.212 425.414 240.613C425.184 241.007 424.883 241.305 424.511 241.506C424.147 241.699 423.741 241.796 423.295 241.796C422.879 241.796 422.496 241.718 422.146 241.561C421.804 241.398 421.507 241.175 421.254 240.892C421.009 240.61 420.815 240.286 420.674 239.922C420.54 239.55 420.473 239.159 420.473 238.751V238.55C420.473 238.133 420.544 237.747 420.685 237.39C420.826 237.025 421.023 236.709 421.276 236.442C421.529 236.174 421.83 235.966 422.18 235.817C422.537 235.668 422.927 235.594 423.351 235.594C423.849 235.594 424.288 235.702 424.667 235.917C425.046 236.126 425.344 236.434 425.559 236.843C425.783 237.245 425.905 237.739 425.928 238.327L425.615 238.338V235.795H426.463V241.048C426.463 241.762 426.351 242.338 426.128 242.777C425.913 243.223 425.563 243.551 425.08 243.759C424.604 243.967 423.968 244.071 423.172 244.071ZM423.496 240.814C423.853 240.814 424.176 240.736 424.466 240.58C424.764 240.424 424.998 240.201 425.169 239.911C425.347 239.613 425.437 239.26 425.437 238.851V238.338C425.437 237.936 425.344 237.598 425.158 237.323C424.979 237.048 424.745 236.839 424.455 236.698C424.165 236.557 423.849 236.486 423.507 236.486C423.12 236.486 422.778 236.575 422.481 236.754C422.183 236.932 421.953 237.185 421.789 237.512C421.626 237.832 421.544 238.211 421.544 238.65C421.544 239.089 421.626 239.472 421.789 239.799C421.96 240.126 422.191 240.379 422.481 240.557C422.778 240.729 423.117 240.814 423.496 240.814Z" fill="#051A2F"/>
<path d="M439.942 181.798V173.611H441.035V181.798H439.942ZM444.972 181.798L442.273 178.173H443.556L446.299 181.798H444.972ZM440.622 178.853V177.883H442.808C443.15 177.883 443.444 177.812 443.689 177.671C443.935 177.53 444.124 177.336 444.258 177.091C444.392 176.838 444.459 176.552 444.459 176.232C444.459 175.912 444.392 175.63 444.258 175.384C444.124 175.131 443.935 174.934 443.689 174.793C443.444 174.644 443.15 174.57 442.808 174.57H440.622V173.611H442.607C443.202 173.611 443.723 173.7 444.169 173.878C444.615 174.057 444.961 174.332 445.206 174.704C445.452 175.076 445.574 175.555 445.574 176.143V176.321C445.574 176.909 445.448 177.388 445.195 177.76C444.95 178.132 444.604 178.407 444.158 178.585C443.719 178.764 443.202 178.853 442.607 178.853H440.622ZM450.019 181.999C449.498 181.999 449.048 181.909 448.669 181.731C448.29 181.552 447.981 181.318 447.743 181.028C447.505 180.731 447.327 180.4 447.208 180.035C447.096 179.671 447.04 179.299 447.04 178.92V178.719C447.04 178.333 447.096 177.957 447.208 177.593C447.327 177.228 447.505 176.901 447.743 176.611C447.981 176.314 448.282 176.079 448.647 175.908C449.018 175.73 449.453 175.641 449.952 175.641C450.599 175.641 451.13 175.782 451.547 176.065C451.971 176.34 452.283 176.697 452.484 177.135C452.692 177.574 452.796 178.043 452.796 178.541V179.02H447.509V178.217H452.015L451.77 178.652C451.77 178.229 451.703 177.864 451.569 177.559C451.435 177.247 451.234 177.005 450.967 176.834C450.699 176.663 450.361 176.578 449.952 176.578C449.528 176.578 449.175 176.674 448.892 176.868C448.617 177.061 448.409 177.325 448.267 177.66C448.134 177.994 448.067 178.381 448.067 178.82C448.067 179.244 448.134 179.627 448.267 179.969C448.409 180.303 448.624 180.571 448.914 180.772C449.204 180.965 449.572 181.062 450.019 181.062C450.487 181.062 450.866 180.958 451.156 180.749C451.454 180.541 451.632 180.299 451.692 180.024H452.696C452.614 180.433 452.45 180.787 452.205 181.084C451.959 181.381 451.651 181.608 451.279 181.764C450.907 181.921 450.487 181.999 450.019 181.999ZM454.383 181.798V173.655H455.454V181.798H454.383ZM453.558 174.503V173.655H455.454V174.503H453.558ZM460.04 181.999C459.519 181.999 459.07 181.909 458.69 181.731C458.311 181.552 458.002 181.318 457.764 181.028C457.527 180.731 457.348 180.4 457.229 180.035C457.118 179.671 457.062 179.299 457.062 178.92V178.719C457.062 178.333 457.118 177.957 457.229 177.593C457.348 177.228 457.527 176.901 457.764 176.611C458.002 176.314 458.304 176.079 458.668 175.908C459.04 175.73 459.475 175.641 459.973 175.641C460.62 175.641 461.152 175.782 461.568 176.065C461.992 176.34 462.304 176.697 462.505 177.135C462.713 177.574 462.817 178.043 462.817 178.541V179.02H457.53V178.217H462.037L461.791 178.652C461.791 178.229 461.724 177.864 461.59 177.559C461.457 177.247 461.256 177.005 460.988 176.834C460.72 176.663 460.382 176.578 459.973 176.578C459.549 176.578 459.196 176.674 458.913 176.868C458.638 177.061 458.43 177.325 458.289 177.66C458.155 177.994 458.088 178.381 458.088 178.82C458.088 179.244 458.155 179.627 458.289 179.969C458.43 180.303 458.646 180.571 458.936 180.772C459.226 180.965 459.594 181.062 460.04 181.062C460.508 181.062 460.888 180.958 461.178 180.749C461.475 180.541 461.654 180.299 461.713 180.024H462.717C462.635 180.433 462.472 180.787 462.226 181.084C461.981 181.381 461.672 181.608 461.3 181.764C460.929 181.921 460.508 181.999 460.04 181.999ZM467.94 181.798V180.013H467.762V177.95C467.762 177.541 467.654 177.232 467.439 177.024C467.23 176.816 466.922 176.712 466.513 176.712C466.282 176.712 466.044 176.715 465.799 176.723C465.553 176.73 465.319 176.738 465.096 176.745C464.873 176.752 464.68 176.764 464.516 176.778V175.842C464.68 175.827 464.851 175.816 465.029 175.808C465.215 175.793 465.405 175.786 465.598 175.786C465.791 175.778 465.977 175.775 466.156 175.775C466.766 175.775 467.264 175.849 467.65 175.998C468.037 176.139 468.323 176.373 468.509 176.7C468.695 177.028 468.788 177.47 468.788 178.028V181.798H467.94ZM465.988 181.954C465.542 181.954 465.156 181.88 464.828 181.731C464.509 181.575 464.26 181.352 464.081 181.062C463.91 180.772 463.825 180.422 463.825 180.013C463.825 179.589 463.918 179.236 464.103 178.954C464.297 178.671 464.576 178.459 464.94 178.318C465.304 178.169 465.743 178.095 466.256 178.095H467.874V178.898H466.212C465.78 178.898 465.449 179.002 465.219 179.21C464.988 179.418 464.873 179.686 464.873 180.013C464.873 180.34 464.988 180.604 465.219 180.805C465.449 181.006 465.78 181.106 466.212 181.106C466.464 181.106 466.706 181.062 466.937 180.972C467.167 180.876 467.357 180.72 467.505 180.504C467.662 180.281 467.747 179.976 467.762 179.589L468.052 180.013C468.015 180.437 467.911 180.794 467.74 181.084C467.576 181.367 467.346 181.582 467.048 181.731C466.758 181.88 466.405 181.954 465.988 181.954ZM472.705 181.976C471.925 181.976 471.319 181.809 470.887 181.474C470.463 181.14 470.244 180.682 470.229 180.102H471.233C471.248 180.333 471.363 180.552 471.579 180.761C471.802 180.961 472.178 181.062 472.705 181.062C473.181 181.062 473.546 180.969 473.799 180.783C474.051 180.589 474.178 180.355 474.178 180.08C474.178 179.835 474.085 179.645 473.899 179.511C473.713 179.37 473.412 179.277 472.995 179.232L472.349 179.165C471.783 179.106 471.322 178.939 470.965 178.664C470.608 178.381 470.43 177.987 470.43 177.481C470.43 177.102 470.527 176.778 470.72 176.511C470.913 176.236 471.181 176.027 471.523 175.886C471.865 175.737 472.259 175.663 472.705 175.663C473.375 175.663 473.918 175.812 474.334 176.109C474.75 176.407 474.966 176.849 474.981 177.437H473.977C473.97 177.199 473.858 176.998 473.642 176.834C473.434 176.663 473.122 176.578 472.705 176.578C472.289 176.578 471.973 176.663 471.757 176.834C471.542 177.005 471.434 177.221 471.434 177.481C471.434 177.704 471.508 177.883 471.657 178.017C471.813 178.15 472.066 178.236 472.415 178.273L473.062 178.34C473.702 178.407 474.215 178.585 474.602 178.875C474.988 179.158 475.182 179.56 475.182 180.08C475.182 180.452 475.074 180.783 474.858 181.073C474.65 181.355 474.36 181.578 473.988 181.742C473.616 181.898 473.189 181.976 472.705 181.976ZM479.266 181.999C478.745 181.999 478.295 181.909 477.916 181.731C477.537 181.552 477.228 181.318 476.99 181.028C476.752 180.731 476.574 180.4 476.455 180.035C476.343 179.671 476.287 179.299 476.287 178.92V178.719C476.287 178.333 476.343 177.957 476.455 177.593C476.574 177.228 476.752 176.901 476.99 176.611C477.228 176.314 477.529 176.079 477.894 175.908C478.265 175.73 478.7 175.641 479.199 175.641C479.846 175.641 480.377 175.782 480.794 176.065C481.218 176.34 481.53 176.697 481.731 177.135C481.939 177.574 482.043 178.043 482.043 178.541V179.02H476.756V178.217H481.262L481.017 178.652C481.017 178.229 480.95 177.864 480.816 177.559C480.682 177.247 480.481 177.005 480.214 176.834C479.946 176.663 479.608 176.578 479.199 176.578C478.775 176.578 478.422 176.674 478.139 176.868C477.864 177.061 477.656 177.325 477.514 177.66C477.381 177.994 477.314 178.381 477.314 178.82C477.314 179.244 477.381 179.627 477.514 179.969C477.656 180.303 477.871 180.571 478.161 180.772C478.451 180.965 478.819 181.062 479.266 181.062C479.734 181.062 480.113 180.958 480.403 180.749C480.701 180.541 480.879 180.299 480.939 180.024H481.943C481.861 180.433 481.697 180.787 481.452 181.084C481.206 181.381 480.898 181.608 480.526 181.764C480.154 181.921 479.734 181.999 479.266 181.999Z" fill="#051A2F"/>
<path d="M133.54 181.1V172.913H134.633V181.1H133.54ZM138.57 181.1L135.871 177.475H137.154L139.898 181.1H138.57ZM134.22 178.155V177.185H136.406C136.748 177.185 137.042 177.114 137.288 176.973C137.533 176.832 137.723 176.638 137.856 176.393C137.99 176.14 138.057 175.854 138.057 175.534C138.057 175.214 137.99 174.932 137.856 174.686C137.723 174.434 137.533 174.237 137.288 174.095C137.042 173.947 136.748 173.872 136.406 173.872H134.22V172.913H136.206C136.8 172.913 137.321 173.002 137.767 173.181C138.213 173.359 138.559 173.634 138.805 174.006C139.05 174.378 139.173 174.857 139.173 175.445V175.623C139.173 176.211 139.046 176.69 138.793 177.062C138.548 177.434 138.202 177.709 137.756 177.888C137.317 178.066 136.8 178.155 136.206 178.155H134.22ZM143.617 181.301C143.096 181.301 142.646 181.212 142.267 181.033C141.888 180.855 141.579 180.62 141.341 180.33C141.103 180.033 140.925 179.702 140.806 179.338C140.694 178.973 140.639 178.602 140.639 178.222V178.022C140.639 177.635 140.694 177.259 140.806 176.895C140.925 176.531 141.103 176.203 141.341 175.913C141.579 175.616 141.88 175.382 142.245 175.211C142.617 175.032 143.052 174.943 143.55 174.943C144.197 174.943 144.728 175.084 145.145 175.367C145.569 175.642 145.881 175.999 146.082 176.438C146.29 176.876 146.394 177.345 146.394 177.843V178.323H141.107V177.52H145.613L145.368 177.955C145.368 177.531 145.301 177.166 145.167 176.862C145.033 176.549 144.833 176.308 144.565 176.136C144.297 175.965 143.959 175.88 143.55 175.88C143.126 175.88 142.773 175.977 142.49 176.17C142.215 176.363 142.007 176.627 141.866 176.962C141.732 177.297 141.665 177.683 141.665 178.122C141.665 178.546 141.732 178.929 141.866 179.271C142.007 179.605 142.222 179.873 142.512 180.074C142.803 180.267 143.171 180.364 143.617 180.364C144.085 180.364 144.464 180.26 144.754 180.052C145.052 179.843 145.23 179.602 145.29 179.327H146.294C146.212 179.736 146.048 180.089 145.803 180.386C145.558 180.684 145.249 180.91 144.877 181.067C144.505 181.223 144.085 181.301 143.617 181.301ZM149.143 181.1L147.112 175.144H148.228L150.213 181.1H149.143ZM149.41 181.1V180.252H150.704V181.1H149.41ZM149.923 181.1L151.652 175.144H152.701L150.938 181.1H149.923ZM154.392 181.1V175.144H155.462V181.1H154.392ZM153.477 175.991V175.144H155.462V175.991H153.477ZM154.693 174.185C154.455 174.185 154.276 174.121 154.157 173.995C154.046 173.868 153.99 173.709 153.99 173.515C153.99 173.322 154.046 173.162 154.157 173.036C154.276 172.909 154.455 172.846 154.693 172.846C154.931 172.846 155.105 172.909 155.217 173.036C155.336 173.162 155.395 173.322 155.395 173.515C155.395 173.709 155.336 173.868 155.217 173.995C155.105 174.121 154.931 174.185 154.693 174.185ZM160.065 181.301C159.544 181.301 159.094 181.212 158.715 181.033C158.336 180.855 158.027 180.62 157.789 180.33C157.551 180.033 157.373 179.702 157.254 179.338C157.142 178.973 157.087 178.602 157.087 178.222V178.022C157.087 177.635 157.142 177.259 157.254 176.895C157.373 176.531 157.551 176.203 157.789 175.913C158.027 175.616 158.328 175.382 158.693 175.211C159.065 175.032 159.5 174.943 159.998 174.943C160.645 174.943 161.176 175.084 161.593 175.367C162.017 175.642 162.329 175.999 162.53 176.438C162.738 176.876 162.842 177.345 162.842 177.843V178.323H157.555V177.52H162.061L161.816 177.955C161.816 177.531 161.749 177.166 161.615 176.862C161.481 176.549 161.281 176.308 161.013 176.136C160.745 175.965 160.407 175.88 159.998 175.88C159.574 175.88 159.221 175.977 158.938 176.17C158.663 176.363 158.455 176.627 158.314 176.962C158.18 177.297 158.113 177.683 158.113 178.122C158.113 178.546 158.18 178.929 158.314 179.271C158.455 179.605 158.671 179.873 158.961 180.074C159.251 180.267 159.619 180.364 160.065 180.364C160.533 180.364 160.912 180.26 161.203 180.052C161.5 179.843 161.678 179.602 161.738 179.327H162.742C162.66 179.736 162.496 180.089 162.251 180.386C162.006 180.684 161.697 180.91 161.325 181.067C160.953 181.223 160.533 181.301 160.065 181.301ZM166.059 181.1L167.264 175.345H168.714L170.119 181.1H169.204L167.799 175.367H168.156L166.94 181.1H166.059ZM165.512 181.1V180.252H166.751V181.1H165.512ZM165.267 181.1L163.583 175.144H164.609L166.249 181.1H165.267ZM169.428 181.1V180.252H170.666V181.1H169.428ZM169.929 181.1L171.357 175.144H172.328L170.866 181.1H169.929ZM174.064 181.1V175.144H175.135V181.1H174.064ZM173.149 175.991V175.144H175.135V175.991H173.149ZM174.365 174.185C174.127 174.185 173.949 174.121 173.83 173.995C173.718 173.868 173.662 173.709 173.662 173.515C173.662 173.322 173.718 173.162 173.83 173.036C173.949 172.909 174.127 172.846 174.365 172.846C174.603 172.846 174.778 172.909 174.889 173.036C175.008 173.162 175.068 173.322 175.068 173.515C175.068 173.709 175.008 173.868 174.889 173.995C174.778 174.121 174.603 174.185 174.365 174.185ZM177.205 181.1V175.144H178.053V177.698H177.919C177.919 177.111 177.997 176.616 178.153 176.215C178.317 175.806 178.562 175.497 178.889 175.289C179.217 175.073 179.629 174.965 180.127 174.965H180.172C180.923 174.965 181.477 175.2 181.834 175.668C182.198 176.136 182.381 176.813 182.381 177.698V181.1H181.31V177.475C181.31 177.014 181.18 176.646 180.919 176.371C180.659 176.088 180.302 175.947 179.849 175.947C179.38 175.947 179.001 176.092 178.711 176.382C178.421 176.672 178.276 177.059 178.276 177.542V181.1H177.205ZM186.593 183.42C186.318 183.42 186.039 183.409 185.756 183.387C185.481 183.364 185.217 183.335 184.964 183.297V182.394C185.232 182.431 185.511 182.461 185.801 182.483C186.098 182.513 186.377 182.528 186.638 182.528C187.18 182.528 187.612 182.453 187.931 182.305C188.259 182.163 188.493 181.937 188.634 181.624C188.783 181.319 188.857 180.925 188.857 180.442V179.304L189.214 178.457C189.192 179.059 189.065 179.561 188.835 179.962C188.604 180.356 188.303 180.654 187.931 180.855C187.567 181.048 187.162 181.145 186.716 181.145C186.299 181.145 185.916 181.067 185.567 180.91C185.225 180.747 184.927 180.524 184.674 180.241C184.429 179.959 184.236 179.635 184.094 179.271C183.961 178.899 183.894 178.509 183.894 178.1V177.899C183.894 177.482 183.964 177.096 184.106 176.739C184.247 176.374 184.444 176.058 184.697 175.791C184.95 175.523 185.251 175.315 185.6 175.166C185.957 175.017 186.348 174.943 186.771 174.943C187.27 174.943 187.708 175.051 188.088 175.266C188.467 175.475 188.764 175.783 188.98 176.192C189.203 176.594 189.326 177.088 189.348 177.676L189.036 177.687V175.144H189.883V180.397C189.883 181.111 189.772 181.688 189.549 182.126C189.333 182.572 188.984 182.9 188.5 183.108C188.024 183.316 187.389 183.42 186.593 183.42ZM186.916 180.163C187.273 180.163 187.597 180.085 187.887 179.929C188.184 179.773 188.418 179.55 188.59 179.26C188.768 178.962 188.857 178.609 188.857 178.2V177.687C188.857 177.285 188.764 176.947 188.578 176.672C188.4 176.397 188.166 176.189 187.876 176.047C187.586 175.906 187.27 175.835 186.928 175.835C186.541 175.835 186.199 175.925 185.901 176.103C185.604 176.282 185.373 176.534 185.21 176.862C185.046 177.181 184.964 177.561 184.964 177.999C184.964 178.438 185.046 178.821 185.21 179.148C185.381 179.475 185.611 179.728 185.901 179.907C186.199 180.078 186.537 180.163 186.916 180.163Z" fill="#051A2F"/>
<path d="M142.351 113.479V105.336H143.444V113.479H142.351ZM148 113.546C147.554 113.546 147.167 113.483 146.84 113.356C146.52 113.23 146.271 113.014 146.092 112.709C145.921 112.397 145.836 111.977 145.836 111.449V105.716H146.862V111.583C146.862 111.903 146.947 112.152 147.119 112.33C147.297 112.501 147.546 112.587 147.866 112.587H148.914V113.546H148ZM144.81 108.326V107.523H148.914V108.326H144.81ZM152.917 113.68C152.397 113.68 151.947 113.591 151.568 113.412C151.188 113.234 150.88 112.999 150.642 112.709C150.404 112.412 150.225 112.081 150.106 111.717C149.995 111.352 149.939 110.98 149.939 110.601V110.4C149.939 110.014 149.995 109.638 150.106 109.274C150.225 108.91 150.404 108.582 150.642 108.292C150.88 107.995 151.181 107.761 151.545 107.59C151.917 107.411 152.352 107.322 152.85 107.322C153.497 107.322 154.029 107.463 154.445 107.746C154.869 108.021 155.182 108.378 155.382 108.817C155.591 109.255 155.695 109.724 155.695 110.222V110.702H150.408V109.899H154.914L154.668 110.334C154.668 109.91 154.602 109.545 154.468 109.24C154.334 108.928 154.133 108.686 153.865 108.515C153.598 108.344 153.259 108.259 152.85 108.259C152.427 108.259 152.073 108.356 151.791 108.549C151.516 108.742 151.307 109.006 151.166 109.341C151.032 109.675 150.965 110.062 150.965 110.501C150.965 110.925 151.032 111.308 151.166 111.65C151.307 111.984 151.523 112.252 151.813 112.453C152.103 112.646 152.471 112.743 152.917 112.743C153.386 112.743 153.765 112.639 154.055 112.431C154.352 112.222 154.531 111.981 154.59 111.705H155.594C155.512 112.114 155.349 112.468 155.104 112.765C154.858 113.063 154.55 113.289 154.178 113.446C153.806 113.602 153.386 113.68 152.917 113.68ZM157.215 113.479V107.523H158.063V109.977H158.018C158.018 109.107 158.208 108.471 158.587 108.069C158.974 107.66 159.55 107.456 160.316 107.456H160.517V108.415H160.137C159.543 108.415 159.085 108.575 158.765 108.895C158.446 109.207 158.286 109.661 158.286 110.255V113.479H157.215ZM165.371 113.479V111.694H165.193V109.631C165.193 109.222 165.085 108.913 164.869 108.705C164.661 108.497 164.352 108.393 163.943 108.393C163.713 108.393 163.475 108.396 163.229 108.404C162.984 108.411 162.75 108.419 162.527 108.426C162.304 108.434 162.11 108.445 161.947 108.46V107.523C162.11 107.508 162.281 107.497 162.46 107.489C162.646 107.474 162.835 107.467 163.029 107.467C163.222 107.459 163.408 107.456 163.586 107.456C164.196 107.456 164.694 107.53 165.081 107.679C165.468 107.82 165.754 108.054 165.94 108.382C166.126 108.709 166.219 109.151 166.219 109.709V113.479H165.371ZM163.419 113.635C162.973 113.635 162.586 113.561 162.259 113.412C161.939 113.256 161.69 113.033 161.512 112.743C161.341 112.453 161.255 112.103 161.255 111.694C161.255 111.27 161.348 110.917 161.534 110.635C161.727 110.352 162.006 110.14 162.371 109.999C162.735 109.85 163.174 109.776 163.687 109.776H165.304V110.579H163.642C163.211 110.579 162.88 110.683 162.649 110.891C162.419 111.099 162.304 111.367 162.304 111.694C162.304 112.022 162.419 112.286 162.649 112.486C162.88 112.687 163.211 112.787 163.642 112.787C163.895 112.787 164.137 112.743 164.367 112.654C164.598 112.557 164.787 112.401 164.936 112.185C165.092 111.962 165.178 111.657 165.193 111.27L165.483 111.694C165.445 112.118 165.341 112.475 165.17 112.765C165.007 113.048 164.776 113.263 164.479 113.412C164.189 113.561 163.835 113.635 163.419 113.635ZM170.504 113.546C170.058 113.546 169.671 113.483 169.344 113.356C169.024 113.23 168.775 113.014 168.597 112.709C168.426 112.397 168.34 111.977 168.34 111.449V105.716H169.366V111.583C169.366 111.903 169.452 112.152 169.623 112.33C169.801 112.501 170.05 112.587 170.37 112.587H171.419V113.546H170.504ZM167.314 108.326V107.523H171.419V108.326H167.314ZM173.223 113.479V107.523H174.294V113.479H173.223ZM172.309 108.37V107.523H174.294V108.37H172.309ZM173.524 106.563C173.286 106.563 173.108 106.5 172.989 106.374C172.877 106.247 172.822 106.088 172.822 105.894C172.822 105.701 172.877 105.541 172.989 105.415C173.108 105.288 173.286 105.225 173.524 105.225C173.762 105.225 173.937 105.288 174.049 105.415C174.168 105.541 174.227 105.701 174.227 105.894C174.227 106.088 174.168 106.247 174.049 106.374C173.937 106.5 173.762 106.563 173.524 106.563ZM176.364 113.479V107.523H177.212V110.077H177.078C177.078 109.49 177.156 108.995 177.313 108.593C177.476 108.184 177.722 107.876 178.049 107.668C178.376 107.452 178.789 107.344 179.287 107.344H179.331C180.083 107.344 180.636 107.578 180.993 108.047C181.358 108.515 181.54 109.192 181.54 110.077V113.479H180.469V109.854C180.469 109.393 180.339 109.025 180.079 108.75C179.819 108.467 179.462 108.326 179.008 108.326C178.54 108.326 178.16 108.471 177.87 108.761C177.58 109.051 177.435 109.437 177.435 109.921V113.479H176.364ZM185.752 115.799C185.477 115.799 185.198 115.788 184.916 115.766C184.641 115.743 184.377 115.714 184.124 115.676V114.773C184.392 114.81 184.67 114.84 184.96 114.862C185.258 114.892 185.537 114.907 185.797 114.907C186.34 114.907 186.771 114.832 187.091 114.684C187.418 114.542 187.652 114.316 187.794 114.003C187.942 113.698 188.017 113.304 188.017 112.821V111.683L188.374 110.835C188.351 111.438 188.225 111.94 187.994 112.341C187.764 112.735 187.463 113.033 187.091 113.234C186.726 113.427 186.321 113.524 185.875 113.524C185.459 113.524 185.076 113.446 184.726 113.289C184.384 113.126 184.087 112.903 183.834 112.62C183.588 112.338 183.395 112.014 183.254 111.65C183.12 111.278 183.053 110.888 183.053 110.479V110.278C183.053 109.861 183.124 109.475 183.265 109.118C183.406 108.753 183.603 108.437 183.856 108.17C184.109 107.902 184.41 107.694 184.76 107.545C185.117 107.396 185.507 107.322 185.931 107.322C186.429 107.322 186.868 107.43 187.247 107.645C187.626 107.854 187.924 108.162 188.139 108.571C188.362 108.973 188.485 109.467 188.507 110.055L188.195 110.066V107.523H189.043V112.776C189.043 113.49 188.931 114.066 188.708 114.505C188.493 114.951 188.143 115.279 187.66 115.487C187.184 115.695 186.548 115.799 185.752 115.799ZM186.076 112.542C186.433 112.542 186.756 112.464 187.046 112.308C187.344 112.152 187.578 111.929 187.749 111.639C187.927 111.341 188.017 110.988 188.017 110.579V110.066C188.017 109.664 187.924 109.326 187.738 109.051C187.559 108.776 187.325 108.567 187.035 108.426C186.745 108.285 186.429 108.214 186.087 108.214C185.7 108.214 185.358 108.303 185.061 108.482C184.763 108.66 184.533 108.913 184.369 109.24C184.206 109.56 184.124 109.939 184.124 110.378C184.124 110.817 184.206 111.2 184.369 111.527C184.54 111.854 184.771 112.107 185.061 112.286C185.358 112.457 185.697 112.542 186.076 112.542Z" fill="#051A2F"/>
<path d="M261.705 63.4205L260.125 55.5272L254.08 60.8419L261.705 63.4205ZM254.339 56.097L257.039 59.1684L258.086 58.2479L255.386 55.1764L254.339 56.097Z" fill="#051A2F"/>
<mask id="path-25-inside-2_766_1750" fill="white">
<path fill-rule="evenodd" clip-rule="evenodd" d="M462.949 195.647L461.529 195.585C448.553 249.24 392.305 288.294 326.442 285.405C260.579 282.517 207.966 238.69 199.736 184.105L198.316 184.042C206.522 239.529 259.882 283.882 326.381 286.798C392.88 289.714 449.917 250.202 462.949 195.647Z"/>
</mask>
<path fill-rule="evenodd" clip-rule="evenodd" d="M462.949 195.647L461.529 195.585C448.553 249.24 392.305 288.294 326.442 285.405C260.579 282.517 207.966 238.69 199.736 184.105L198.316 184.042C206.522 239.529 259.882 283.882 326.381 286.798C392.88 289.714 449.917 250.202 462.949 195.647Z" fill="#051A2F"/>
<path d="M462.949 195.647L1064.39 339.313L1238.43 -389.299L490.039 -422.118L462.949 195.647ZM461.529 195.585L488.619 -422.18L-19.8579 -444.478L-139.502 50.2259L461.529 195.585ZM199.736 184.105L811.184 91.9151L735.303 -411.362L226.826 -433.66L199.736 184.105ZM198.316 184.042L225.406 -433.722L-522.986 -466.541L-413.389 274.51L198.316 184.042ZM490.039 -422.118L488.619 -422.18L434.439 813.35L435.859 813.412L490.039 -422.118ZM-139.502 50.2259C-70.3188 -235.832 181.304 -339.912 353.532 -332.359L299.352 903.17C603.306 916.499 967.424 734.312 1062.56 340.944L-139.502 50.2259ZM353.532 -332.359C525.761 -324.807 767.307 -199.1 811.184 91.9151L-411.712 276.294C-351.375 676.48 -4.60245 889.841 299.352 903.17L353.532 -332.359ZM226.826 -433.66L225.406 -433.722L171.226 801.807L172.646 801.869L226.826 -433.66ZM353.471 -330.966C525.105 -323.44 766.917 -197.88 810.021 93.575L-413.389 274.51C-353.872 676.939 -5.34077 891.204 299.291 904.563L353.471 -330.966ZM-138.489 51.9809C-70.0371 -234.582 181.837 -338.493 353.471 -330.966L299.291 904.563C603.923 917.922 969.871 734.987 1064.39 339.313L-138.489 51.9809Z" fill="#051A2F" mask="url(#path-25-inside-2_766_1750)"/>
<circle cx="421.162" cy="257.46" r="6.62278" transform="rotate(-177.489 421.162 257.46)" fill="#E9FA50" stroke="#051A2F" stroke-width="0.697135"/>
<circle cx="345.933" cy="286.26" r="6.62278" transform="rotate(-177.489 345.933 286.26)" fill="#E9FA50" stroke="#051A2F" stroke-width="0.697135"/>
<circle cx="261.574" cy="268.604" r="6.62278" transform="rotate(-177.489 261.574 268.604)" fill="#E9FA50" stroke="#051A2F" stroke-width="0.697135"/>
<path d="M249.139 89.5814L244.103 86.252L243.737 92.2783L249.139 89.5814ZM237.605 89.4062L244.41 89.8186L244.474 88.7748L237.668 88.3624L237.605 89.4062Z" fill="#051A2F"/>
<path d="M237.985 198.334L243.381 201.041L243.027 195.014L237.985 198.334ZM249.805 197.115L242.651 197.536L242.713 198.58L249.867 198.159L249.805 197.115Z" fill="#051A2F"/>
<path d="M185.002 140.124L182.269 145.507L188.297 145.183L185.002 140.124ZM186.162 151.952L185.777 144.795L184.733 144.851L185.118 152.009L186.162 151.952Z" fill="#051A2F"/>
<path d="M294.801 150.232L297.94 145.075L291.904 144.935L294.801 150.232ZM294.545 138.717L294.387 145.516L295.433 145.54L295.591 138.741L294.545 138.717Z" fill="#051A2F"/>
<path d="M223.345 237.374L222.401 229.38L215.95 234.194L223.345 237.374ZM216.239 229.017L219.034 232.763L220.151 231.929L217.356 228.183L216.239 229.017Z" fill="#051A2F"/>
<path d="M462.811 192.48L457.21 198.262L465.018 200.222L462.811 192.48ZM460.789 203.402L461.96 198.735L460.607 198.396L459.437 203.062L460.789 203.402Z" fill="#051A2F"/>
</svg>
