<svg width="30" height="23" viewBox="0 0 30 23" fill="none" xmlns="http://www.w3.org/2000/svg">
<path d="M13.6218 1.88533L11.9376 0.157255L3.34873 8.47783C1.61261 10.1597 1.61158 12.9443 3.34645 14.6274L10.6717 21.7345L22.1174 10.622L18.9964 7.40567L17.2448 9.13897L18.731 10.6752L14.3582 15.1603C12.4002 17.1685 9.17523 17.1787 7.20464 15.1829C5.25143 13.2046 5.28199 10.0145 7.27273 8.07403L13.6218 1.88533Z" fill="#000000"/>
<path d="M16.3794 20.7168L18.0623 22.4462L26.6528 14.1365C28.3919 12.4542 28.393 9.66623 26.6552 7.98256L19.3218 0.877535L7.89034 11.9737L11.0089 15.1924L12.7618 13.4605L11.2768 11.9231L15.6529 7.4413C17.6124 5.43454 20.8374 5.42678 22.8065 7.4241C24.7582 9.4038 24.7253 12.5939 22.7331 14.5329L16.3794 20.7168Z" fill="#000000"/>
</svg>
