<svg width="42" height="41" viewBox="0 0 42 41" fill="none" xmlns="http://www.w3.org/2000/svg">
<path d="M41.0312 20.3576C41.0312 30.5499 33.4754 38.9758 23.6605 40.3436C22.7425 40.4714 21.8035 40.5376 20.8506 40.5376C19.7501 40.5376 18.6705 40.4493 17.6177 40.2796C8.00962 38.733 0.669922 30.4011 0.669922 20.3564C0.669922 9.21127 9.7051 0.176392 20.8506 0.176392C31.9961 0.176392 41.0312 9.21127 41.0312 20.3564V20.3576Z" fill="#FAFAFA"/>
<path d="M27.6439 30.8636L27.6439 30.8637C28.5507 31.0909 29.4601 30.6915 29.995 29.9428C29.995 29.9428 29.995 29.9428 29.995 29.9428L31.9154 27.2542L31.9154 27.2542C32.7273 26.1175 32.4519 24.5363 31.3033 23.741C31.3033 23.741 31.3033 23.741 31.3033 23.741L28.8584 22.0484L28.8584 22.0484C28.5556 21.8388 28.1968 21.7701 27.8601 21.8286L28.6378 22.3671L31.0827 24.0597C32.0535 24.7318 32.2863 26.0683 31.6001 27.0289L29.6796 29.7175L29.6796 29.7175C29.2208 30.3599 28.4643 30.6695 27.7383 30.4879L27.738 30.4878C25.5505 29.9397 21.0267 28.3811 16.9264 24.2809L17.6059 23.6014L16.9264 24.2809C12.8262 20.1807 11.2677 15.6568 10.7196 13.4693C10.5376 12.743 10.8475 11.9865 11.4898 11.5277C11.4898 11.5277 11.4898 11.5277 11.4898 11.5277L14.1783 9.60728L14.7369 10.3893L14.1783 9.60728C15.1391 8.92104 16.4756 9.15389 17.1476 10.1246C17.1476 10.1246 17.1476 10.1246 17.1476 10.1246L18.8402 12.5695L19.3787 13.3473C19.4372 13.0106 19.3685 12.6517 19.1588 12.3489L19.9489 11.8019L19.1588 12.3489L17.4663 9.90405C16.6711 8.75552 15.0898 8.48 13.9531 9.29193L27.6439 30.8636ZM27.6439 30.8636C25.4146 30.3051 20.8184 28.7209 16.6524 24.5549C12.4864 20.3889 10.9022 15.7927 10.3437 13.5635C10.1165 12.6566 10.5158 11.7471 11.2646 11.2123C11.2646 11.2123 11.2646 11.2123 11.2646 11.2123L13.9531 9.29193L27.6439 30.8636ZM16.6814 16.0634C16.5843 15.6131 16.8027 15.1885 17.1603 14.933L16.6018 14.1511L17.1603 14.933L18.6087 13.8985L19.3785 13.3486C19.3197 13.6853 19.1336 13.9998 18.8339 14.2138L18.8339 14.2138L17.4843 15.1779L16.9457 15.5626L17.1131 16.2029C17.3621 17.1551 18.0865 18.9088 20.1925 21.0148C22.2986 23.1209 24.0522 23.8452 25.0044 24.0942L25.6448 24.2616L26.0295 23.723L26.9934 22.3734C27.2075 22.0737 27.522 21.8877 27.8587 21.8288L27.3088 22.5986L26.2743 24.047L26.2743 24.047C26.0189 24.4047 25.5943 24.6231 25.1439 24.5259C24.1923 24.3206 22.2563 23.6266 19.9185 21.2888C17.5808 18.9511 16.8868 17.0151 16.6814 16.0634ZM16.6814 16.0634L15.7421 16.2661L16.6814 16.0634Z" fill="#FAFAFA" stroke="#051A2F" stroke-width="1.92197"/>
</svg>
