<svg width="235" height="236" viewBox="0 0 235 236" fill="none" xmlns="http://www.w3.org/2000/svg">
<path d="M201.759 37.0352C198.825 33.9524 195.705 31.0181 192.437 28.3066L135.311 97.0584C136.239 97.207 137.131 97.3927 137.985 97.6156L201.759 37.0724V37.0352Z" fill="#F4F4F4"/>
<path d="M131.19 96.6119L182.633 20.9144C178.956 18.4258 175.13 16.1972 171.156 14.1172L128.812 96.5747C129.63 96.5747 130.41 96.5747 131.19 96.6119Z" fill="#F4F4F4"/>
<path d="M125.099 96.8023L159.642 8.8847C155.408 7.2504 151.062 5.80183 146.568 4.65039L123.131 97.1737C123.762 96.988 124.394 96.8766 125.062 96.7651L125.099 96.8023Z" fill="#F4F4F4"/>
<path d="M75.3243 96.616C75.9558 94.2388 76.8101 91.8617 77.8501 89.5217L24.9955 52.1186C27.0755 50.2243 29.1927 48.2929 31.2355 46.4729L79.0387 87.1817C80.2644 84.8788 81.7129 82.6131 83.3472 80.4216L43.3813 37.6328C45.7956 36.1471 48.2099 34.7728 50.6614 33.3614L85.2044 78.1188C86.9873 76.0759 89.0301 74.1073 91.2587 72.2873L64.2929 27.1214C66.9672 26.1928 69.6043 25.2642 72.2415 24.3728L94.0073 70.2073C96.3473 68.573 98.9102 67.0501 101.659 65.7501L86.8387 20.9185C89.5873 20.547 92.373 20.1385 95.0844 19.8042L104.63 64.413C107.416 63.2615 110.35 62.2958 113.507 61.5158L109.867 19.1728C112.579 19.3213 115.327 19.4327 118.039 19.6556L117.185 60.6987C120.379 60.1044 123.61 59.7329 126.842 59.5844L135.347 2.38409C134.679 2.27266 134.047 2.19837 133.379 2.12409C128.067 1.38123 122.645 0.972656 117.147 0.972656C73.17 0.972656 34.9127 26.3785 14.8555 62.2215L75.2872 96.6903L75.3243 96.616Z" fill="#F4F4F4"/>
<path d="M10.2137 70.2813C9.95366 70.9127 9.65652 71.4699 9.39652 72.1013C7.98508 75.3699 6.75936 78.7499 5.68221 82.1299C5.45935 82.7613 5.27364 83.3928 5.05078 84.0242L73.914 105.79C74.0254 103.487 74.3226 101.147 74.8054 98.8071L10.2137 70.2441V70.2813Z" fill="#F4F4F4"/>
<path d="M232.808 98.9935C232.139 94.8335 231.211 90.7478 230.096 86.7363L153.916 107.945C154.807 109.096 155.587 110.359 156.33 111.622L232.808 98.9564V98.9935Z" fill="#F4F4F4"/>
<path d="M234.298 121.283C234.298 120.243 234.372 119.166 234.372 118.126C234.372 115.006 234.224 111.923 233.964 108.877L157.857 114.857C158.415 116.268 158.897 117.68 159.306 119.166L234.298 121.246V121.283Z" fill="#F4F4F4"/>
<path d="M231.621 143.413C232.513 139.402 233.181 135.316 233.664 131.156L160.121 122.984C160.344 124.582 160.493 126.179 160.53 127.813L231.659 143.376L231.621 143.413Z" fill="#F4F4F4"/>
<path d="M151.616 105.306L226.979 77.1141C225.494 73.1027 223.748 69.2027 221.817 65.4141L148.348 102.483C149.499 103.337 150.576 104.303 151.579 105.306H151.616Z" fill="#F4F4F4"/>
<path d="M216.767 56.3555C214.427 52.6041 211.902 49.0012 209.153 45.5469L141.664 98.7729C143.001 99.2929 144.264 99.8871 145.453 100.556L216.73 56.3184L216.767 56.3555Z" fill="#F4F4F4"/>
<path d="M1.5957 137.254C2.26428 141.414 3.19285 145.499 4.30715 149.511L80.5247 128.376C79.6332 127.188 78.8161 125.962 78.1104 124.662L1.5957 137.254Z" fill="#F4F4F4"/>
<path d="M32.6113 199.205C35.5456 202.288 38.6656 205.185 41.9342 207.934L99.1717 139.256C98.2059 139.108 97.2774 138.922 96.3859 138.662L32.6485 199.205H32.6113Z" fill="#F4F4F4"/>
<path d="M82.8321 131.084L7.39453 159.164C8.88025 163.176 10.626 167.076 12.5574 170.864L86.1378 133.944C84.9492 133.09 83.8721 132.124 82.8321 131.084Z" fill="#F4F4F4"/>
<path d="M224.156 166C224.416 165.369 224.713 164.812 224.973 164.18C226.385 160.912 227.611 157.532 228.725 154.115C228.911 153.483 229.096 152.889 229.319 152.258L160.456 130.975C160.344 133.24 160.01 135.543 159.527 137.846L224.193 166.038L224.156 166Z" fill="#F4F4F4"/>
<path d="M209.374 184.128C207.331 186.06 205.176 187.954 203.134 189.774L155.33 149.139C154.105 151.442 152.693 153.708 151.022 155.825L190.876 198.651C188.499 200.063 186.085 201.474 183.671 202.885L149.128 158.165C147.345 160.208 145.302 162.177 143.073 163.997L169.928 209.125C167.328 210.091 164.653 210.983 162.016 211.874L140.399 166.002C138.059 167.637 135.533 169.16 132.785 170.497L147.419 215.328C144.633 215.7 141.922 216.145 139.173 216.48L129.739 171.834C127.77 172.651 125.69 173.394 123.499 174.025C122.645 174.285 121.79 174.508 120.899 174.731L124.353 217C121.605 216.888 118.893 216.74 116.219 216.591L116.999 175.585C113.842 176.142 110.647 176.477 107.416 176.588L98.8359 233.9C99.5045 233.974 100.136 234.048 100.805 234.16C106.153 234.903 111.576 235.274 117.073 235.274C161.051 235.274 199.308 209.868 219.365 174.025L158.933 139.668C158.302 142.045 157.448 144.422 156.408 146.725L209.262 184.091L209.374 184.128Z" fill="#F4F4F4"/>
<path d="M2.74795 92.832C1.85651 96.8435 1.18794 100.929 0.705078 105.089L74.2483 113.186C74.0254 111.589 73.8769 109.955 73.8397 108.284L2.74795 92.832Z" fill="#F4F4F4"/>
<path d="M0.0742861 114.963C0.0742861 116.003 0 117.08 0 118.12C0 121.24 0.148572 124.286 0.408573 127.369L76.5147 121.426C75.9204 120.014 75.4375 118.529 75.0661 117.006L0.0742861 114.963Z" fill="#F4F4F4"/>
<path d="M103.33 139.699L51.7012 215.36C55.3783 217.848 59.2412 220.114 63.2155 222.157L105.781 139.736C104.964 139.736 104.147 139.736 103.33 139.699Z" fill="#F4F4F4"/>
<path d="M111.32 139.104C110.652 139.289 109.983 139.401 109.314 139.512L74.8086 227.355C79.0429 228.99 83.3886 230.438 87.8829 231.59L101.849 176.507L111.357 139.104H111.32Z" fill="#F4F4F4"/>
<path d="M17.6094 179.927C19.9494 183.678 22.4751 187.281 25.2237 190.735L92.6012 137.51C91.264 136.99 89.964 136.358 88.7754 135.652L17.6094 179.927Z" fill="#F4F4F4"/>
</svg>
